<svg width="402" height="113" viewBox="0 0 402 113" fill="none" xmlns="http://www.w3.org/2000/svg">
<path d="M10.206 26L13.7855 4.18182H16.7685L13.1889 26H10.206ZM0.372869 20.375L0.87358 17.392H17.6634L17.1626 20.375H0.372869ZM2.53551 26L6.11506 4.18182H9.09801L5.51847 26H2.53551ZM1.64062 12.7898L2.13068 9.80682H18.9205L18.4304 12.7898H1.64062ZM34.6966 6.8H41.1466V10.01H34.6966V6.8ZM26.8666 2.6H30.0766V5.6C30.0766 11.27 27.7066 16.1 22.4566 18.02L20.3566 14.9C24.9466 13.37 26.8666 9.53 26.8666 5.6V2.6ZM27.7366 2.6H30.9166V5.63C30.9166 9.2 32.7466 12.77 37.1266 14.27L34.9966 17.33C30.0166 15.53 27.7366 10.88 27.7366 5.63V2.6ZM39.7666 0.919999H43.7566V21.41H39.7666V0.919999ZM25.3666 25.01H44.3566V28.19H25.3666V25.01ZM25.3666 19.34H29.3866V26.78H25.3666V19.34ZM50.2943 1.64H70.9943V4.61H50.2943V1.64ZM50.5043 8.15H70.7843V11.12H50.5043V8.15ZM53.8343 2.81H57.8243V10.07H53.8343V2.81ZM63.4643 2.81H67.4543V10.07H63.4643V2.81ZM48.1043 12.56H73.2143V15.68H48.1043V12.56ZM50.9843 17.21H70.1843V24.11H54.9443V26.69H51.0143V21.44H66.2543V20.06H50.9843V17.21ZM51.0143 25.58H70.9043V28.49H51.0143V25.58ZM76.2491 26V23.5391L87.4352 7.49503H76.1852V4.18182H92.3358V6.64276L81.1603 22.6868H92.3997V26H76.2491ZM96.0538 26V9.63636H99.9103V26H96.0538ZM97.9927 7.31392C97.3819 7.31392 96.8564 7.11151 96.416 6.70668C95.9757 6.29474 95.7555 5.80114 95.7555 5.22585C95.7555 4.64347 95.9757 4.14986 96.416 3.74503C96.8564 3.3331 97.3819 3.12713 97.9927 3.12713C98.6106 3.12713 99.1362 3.3331 99.5694 3.74503C100.01 4.14986 100.23 4.64347 100.23 5.22585C100.23 5.80114 100.01 6.29474 99.5694 6.70668C99.1362 7.11151 98.6106 7.31392 97.9927 7.31392ZM103.876 32.1364V9.63636H107.669V12.3423H107.892C108.091 11.9446 108.372 11.522 108.734 11.0746C109.096 10.62 109.586 10.233 110.204 9.91335C110.822 9.58665 111.61 9.4233 112.569 9.4233C113.833 9.4233 114.973 9.74645 115.989 10.3928C117.012 11.032 117.821 11.9801 118.418 13.2372C119.022 14.4872 119.324 16.0213 119.324 17.8395C119.324 19.6364 119.029 21.1634 118.439 22.4205C117.85 23.6776 117.047 24.6364 116.032 25.2969C115.016 25.9574 113.865 26.2876 112.58 26.2876C111.642 26.2876 110.865 26.1314 110.247 25.8189C109.629 25.5064 109.132 25.13 108.755 24.6896C108.386 24.2422 108.098 23.8196 107.892 23.4219H107.733V32.1364H103.876ZM107.658 17.8182C107.658 18.8764 107.807 19.8033 108.105 20.5987C108.411 21.3942 108.848 22.0156 109.416 22.4631C109.991 22.9034 110.687 23.1236 111.504 23.1236C112.356 23.1236 113.07 22.8963 113.645 22.4418C114.221 21.9801 114.654 21.3516 114.945 20.5561C115.243 19.7536 115.392 18.8409 115.392 17.8182C115.392 16.8026 115.247 15.9006 114.956 15.1122C114.664 14.3239 114.231 13.706 113.656 13.2585C113.081 12.8111 112.363 12.5874 111.504 12.5874C110.68 12.5874 109.98 12.804 109.405 13.2372C108.83 13.6705 108.393 14.2777 108.095 15.0589C107.804 15.8402 107.658 16.7599 107.658 17.8182Z" fill="url(#paint0_linear_0_1)"/>
<path d="M216.206 26L219.786 4.18182H222.768L219.189 26H216.206ZM206.373 20.375L206.874 17.392H223.663L223.163 20.375H206.373ZM208.536 26L212.115 4.18182H215.098L211.518 26H208.536ZM207.641 12.7898L208.131 9.80682H224.92L224.43 12.7898H207.641ZM226.477 5.06H239.767V8.24H226.477V5.06ZM233.167 9.47C236.707 9.47 239.257 12.2 239.257 16.1C239.257 19.97 236.707 22.7 233.167 22.7C229.657 22.7 227.077 19.97 227.077 16.1C227.077 12.2 229.657 9.47 233.167 9.47ZM233.167 12.8C231.667 12.8 230.617 14 230.617 16.1C230.617 18.2 231.667 19.37 233.167 19.37C234.667 19.37 235.747 18.2 235.747 16.1C235.747 14 234.667 12.8 233.167 12.8ZM246.577 0.89H250.387V28.67H246.577V0.89ZM243.247 12.17H247.837V15.38H243.247V12.17ZM240.757 1.4H244.477V27.5H240.757V1.4ZM231.217 1.64H235.147V7.07H231.217V1.64ZM260.884 3.02H264.124V7.07C264.124 14.21 261.664 20.66 256.144 23.21L253.774 19.91C258.604 17.81 260.884 12.47 260.884 7.07V3.02ZM261.664 3.02H264.904V7.07C264.904 12.2 267.094 17.3 271.834 19.34L269.494 22.55C264.124 20.09 261.664 13.91 261.664 7.07V3.02ZM273.154 0.859998H277.174V28.73H273.154V0.859998ZM282.632 19.04H284.582C288.632 19.04 291.212 18.98 294.332 18.5L294.662 21.74C291.482 22.28 288.722 22.34 284.582 22.34H282.632V19.04ZM282.632 3.77H293.852V6.95H286.412V20.36H282.632V3.77ZM285.332 11.03H293.312V14.12H285.332V11.03ZM301.772 0.89H305.582V28.67H301.772V0.89ZM298.442 11.63H303.032V14.84H298.442V11.63ZM295.772 1.31H299.522V27.41H295.772V1.31ZM311.88 3.44H329.49V6.59H311.88V3.44ZM309.33 21.8H334.44V25.04H309.33V21.8ZM327.39 3.44H331.35V6.74C331.35 10.64 331.35 14.42 330.36 20.12L326.37 19.79C327.39 14.45 327.39 10.49 327.39 6.74V3.44ZM349.77 26V29.0788H335.676V26H349.77ZM365.12 4.94H371.96V8.12H365.12V4.94ZM370.19 0.89H374.18V14.99H370.19V0.89ZM355.82 16.16H374.18V23.63H359.81V27.11H355.88V20.75H370.22V19.22H355.82V16.16ZM355.88 25.28H374.96V28.37H355.88V25.28ZM357.29 1.79H360.53V3.77C360.53 9.02 358.07 13.55 352.76 15.23L350.72 12.08C355.34 10.7 357.29 7.31 357.29 3.77V1.79ZM358.07 1.79H361.31V3.77C361.31 7.07 363.17 10.28 367.55 11.6L365.51 14.69C360.44 13.04 358.07 8.75 358.07 3.77V1.79ZM393.588 7.61H398.868V10.85H393.588V7.61ZM397.788 0.89H401.778V17.39H397.788V0.89ZM392.358 17.99C398.238 17.99 401.868 20 401.868 23.36C401.868 26.75 398.238 28.7 392.358 28.7C386.478 28.7 382.848 26.75 382.848 23.36C382.848 20 386.478 17.99 392.358 17.99ZM392.358 21.02C388.758 21.02 386.838 21.77 386.838 23.36C386.838 24.92 388.758 25.67 392.358 25.67C395.988 25.67 397.908 24.92 397.908 23.36C397.908 21.77 395.988 21.02 392.358 21.02ZM384.948 3.68H388.188V5.42C388.188 10.73 385.728 15.59 380.418 17.39L378.378 14.24C382.968 12.68 384.948 8.99 384.948 5.42V3.68ZM385.788 3.68H388.998V5.42C388.998 8.69 390.888 12.08 395.268 13.55L393.318 16.7C388.158 14.99 385.788 10.37 385.788 5.42V3.68ZM379.458 2.57H394.398V5.75H379.458V2.57Z" fill="url(#paint1_linear_0_1)"/>
<path d="M216.206 109L219.786 87.1818H222.768L219.189 109H216.206ZM206.373 103.375L206.874 100.392H223.663L223.163 103.375H206.373ZM208.536 109L212.115 87.1818H215.098L211.518 109H208.536ZM207.641 95.7898L208.131 92.8068H224.92L224.43 95.7898H207.641ZM229.387 85.51H246.817V88.66H229.387V85.51ZM226.537 97.33H251.647V100.54H226.537V97.33ZM236.947 99.58H240.967V111.7H236.947V99.58ZM244.777 85.51H248.707V87.97C248.707 90.97 248.707 94.33 247.627 99.25L243.697 98.8C244.777 94.15 244.777 90.85 244.777 87.97V85.51ZM254.134 97.36H279.244V100.48H254.134V97.36ZM264.664 92.83H268.654V98.32H264.664V92.83ZM256.894 102.37H276.274V111.76H272.314V105.52H256.894V102.37ZM257.164 91.75H276.514V94.93H257.164V91.75ZM257.164 85H276.274V88.15H261.154V93.46H257.164V85ZM287.942 88.27H291.092V91.39C291.092 97.66 288.452 104.05 283.352 106.45L281.102 103.3C285.692 101.14 287.942 95.95 287.942 91.39V88.27ZM288.782 88.27H291.932V91.39C291.932 95.59 294.092 100.51 298.652 102.61L296.462 105.76C291.362 103.39 288.782 97.3 288.782 91.39V88.27ZM282.182 86.56H297.422V89.83H282.182V86.56ZM299.462 83.89H303.482V111.67H299.462V83.89ZM302.582 94.48H307.502V97.78H302.582V94.48ZM322.173 109V112.079H308.078V109H322.173ZM342.563 83.89H346.553V111.67H342.563V83.89ZM324.803 86.53H328.763V103.78H324.803V86.53ZM324.803 101.44H327.263C331.313 101.44 335.813 101.14 340.403 100.24L340.853 103.54C336.083 104.53 331.493 104.83 327.263 104.83H324.803V101.44ZM350.96 105.1H376.1V108.34H350.96V105.1ZM361.4 87.73H364.76V89.32C364.76 95.14 360.56 99.82 353.48 101.11L351.92 97.93C358.1 96.97 361.4 93.16 361.4 89.32V87.73ZM362.21 87.73H365.57V89.32C365.57 93.16 368.87 96.85 375.2 97.78L373.67 100.96C366.47 99.7 362.21 95.14 362.21 89.32V87.73ZM353.03 86.2H373.94V89.38H353.03V86.2Z" fill="url(#paint2_linear_0_1)"/>
<path d="M109.206 80L112.786 58.1818H115.768L112.189 80H109.206ZM99.3729 74.375L99.8736 71.392H116.663L116.163 74.375H99.3729ZM101.536 80L105.115 58.1818H108.098L104.518 80H101.536ZM100.641 66.7898L101.131 63.8068H117.92L117.43 66.7898H100.641ZM119.507 68.81H144.617V71.96H119.507V68.81ZM130.067 66.2H134.027V70.28H130.067V66.2ZM130.067 54.98H134.027V59.06H130.067V54.98ZM129.827 59.24H133.337V59.78C133.337 63.98 129.317 66.95 121.727 67.46L120.557 64.46C127.247 64.07 129.827 61.88 129.827 59.78V59.24ZM130.757 59.24H134.267V59.78C134.267 61.88 136.847 64.07 143.537 64.46L142.367 67.46C134.777 66.95 130.757 63.98 130.757 59.78V59.24ZM121.907 57.38H142.217V60.47H121.907V57.38ZM132.017 73.25C138.077 73.25 141.647 74.93 141.647 77.96C141.647 81.02 138.077 82.67 132.017 82.67C125.957 82.67 122.357 81.02 122.357 77.96C122.357 74.93 125.957 73.25 132.017 73.25ZM132.017 76.19C128.237 76.19 126.407 76.7 126.407 77.96C126.407 79.19 128.237 79.73 132.017 79.73C135.767 79.73 137.627 79.19 137.627 77.96C137.627 76.7 135.767 76.19 132.017 76.19ZM162.134 61.28H167.414V64.52H162.134V61.28ZM166.364 54.89H170.354V70.94H166.364V54.89ZM151.844 72.08H170.354V82.37H151.844V72.08ZM166.454 75.2H155.774V79.22H166.454V75.2ZM153.524 57.47H156.764V59.21C156.764 64.46 154.304 69.26 148.964 71L146.954 67.85C151.544 66.35 153.524 62.72 153.524 59.21V57.47ZM154.364 57.47H157.574V59.21C157.574 62.45 159.464 65.87 163.844 67.34L161.894 70.49C156.734 68.78 154.364 64.16 154.364 59.21V57.47ZM148.034 56.3H162.974V59.45H148.034V56.3Z" fill="url(#paint3_linear_0_1)"/>
<defs>
<linearGradient id="paint0_linear_0_1" x1="2.21044" y1="2.39682" x2="129.207" y2="15.3351" gradientUnits="userSpaceOnUse">
<stop stop-color="#F2A99E"/>
<stop offset="0.494792" stop-color="#ED6F96"/>
<stop offset="1" stop-color="#DEB6DE"/>
</linearGradient>
<linearGradient id="paint1_linear_0_1" x1="209.638" y1="2.39683" x2="406.242" y2="19.8947" gradientUnits="userSpaceOnUse">
<stop stop-color="#F2A99E"/>
<stop offset="0.494792" stop-color="#ED6F96"/>
<stop offset="1" stop-color="#DEB6DE"/>
</linearGradient>
<linearGradient id="paint2_linear_0_1" x1="209.638" y1="85.3968" x2="406.242" y2="102.895" gradientUnits="userSpaceOnUse">
<stop stop-color="#F2A99E"/>
<stop offset="0.494792" stop-color="#ED6F96"/>
<stop offset="1" stop-color="#DEB6DE"/>
</linearGradient>
<linearGradient id="paint3_linear_0_1" x1="100.305" y1="55.8571" x2="173.265" y2="53.8101" gradientUnits="userSpaceOnUse">
<stop stop-color="#F2A99E"/>
<stop offset="0.494792" stop-color="#ED6F96"/>
<stop offset="1" stop-color="#DEB6DE"/>
</linearGradient>
</defs>
</svg>
