<svg width="32" height="64" viewBox="0 0 32 64" fill="none" xmlns="http://www.w3.org/2000/svg">
<path d="M19.3373 49.267H12.3695C6.11535 49.267 1 44.0665 1 37.7095V13.2907C1 6.93367 6.11661 1.73315 12.3695 1.73315H19.336C25.5902 1.73315 30.7055 6.93367 30.7055 13.2907V37.7095C30.7055 44.0665 25.5889 49.267 19.336 49.267H19.3373Z" stroke="white" stroke-width="2" stroke-miterlimit="10" stroke-linecap="round" stroke-linejoin="round"/>
<path d="M15.9581 20.6789H15.7467C15.0697 20.6772 14.4209 20.403 13.9422 19.9164C13.4635 19.4297 13.1938 18.7701 13.1921 18.0818V10.3482C13.1921 8.92048 14.3423 7.75244 15.7467 7.75244H15.9581C17.3624 7.75244 18.5126 8.92048 18.5126 10.3495V18.0844C18.5126 19.5121 17.3624 20.6814 15.9581 20.6814V20.6789Z" stroke="white" stroke-miterlimit="10" stroke-linecap="round" stroke-linejoin="round"/>
<path d="M9 56.0002L15.6649 62.665M22.3834 56.0002L15.7186 62.665" stroke="white" stroke-width="2" stroke-miterlimit="10" stroke-linecap="round" stroke-linejoin="round"/>
</svg>
