<svg width="1031" height="550" viewBox="0 0 1031 550" fill="none" xmlns="http://www.w3.org/2000/svg">
<g filter="url(#filter0_i_228_314)">
<rect x="625" y="41" width="40" height="203" rx="10" fill="#F4F4F4"/>
</g>
<g filter="url(#filter1_i_228_314)">
<rect x="696" y="41" width="40" height="203" rx="10" fill="#F4F4F4"/>
</g>
<g filter="url(#filter2_i_228_314)">
<rect x="767" y="41" width="40" height="203" rx="10" fill="#F4F4F4"/>
</g>
<g filter="url(#filter3_i_228_314)">
<rect x="838" y="41" width="40" height="203" rx="10" fill="#F4F4F4"/>
</g>
<g filter="url(#filter4_i_228_314)">
<rect x="909" y="41" width="40" height="203" rx="10" fill="#F4F4F4"/>
</g>
<g filter="url(#filter5_i_228_314)">
<rect x="980" y="41" width="40" height="203" rx="10" fill="#F4F4F4"/>
</g>
<path d="M634.058 5.5696C634.993 5.5696 635.893 5.72644 636.757 6.04013C637.627 6.35381 638.402 6.85393 639.083 7.54048C639.769 8.22704 640.311 9.13849 640.708 10.2749C641.11 11.4053 641.314 12.7932 641.32 14.4386C641.32 15.9833 641.146 17.3623 640.796 18.5756C640.453 19.783 639.959 20.8099 639.314 21.6562C638.669 22.5026 637.89 23.1477 636.979 23.5916C636.067 24.0296 635.049 24.2486 633.925 24.2486C632.712 24.2486 631.64 24.0148 630.711 23.5472C629.782 23.0737 629.033 22.4316 628.465 21.6207C627.903 20.804 627.562 19.8866 627.444 18.8686H631.235C631.383 19.5315 631.694 20.0464 632.167 20.4134C632.641 20.7744 633.227 20.9549 633.925 20.9549C635.109 20.9549 636.008 20.44 636.624 19.4102C637.239 18.3744 637.55 16.9569 637.556 15.1577H637.432C637.159 15.6903 636.792 16.149 636.331 16.5337C635.869 16.9125 635.339 17.2055 634.742 17.4126C634.15 17.6198 633.519 17.7234 632.851 17.7234C631.779 17.7234 630.824 17.4718 629.983 16.9688C629.143 16.4657 628.48 15.7732 627.994 14.8913C627.509 14.0095 627.267 13.0033 627.267 11.8729C627.261 10.6536 627.542 9.56759 628.11 8.6147C628.678 7.66181 629.471 6.91607 630.489 6.37749C631.513 5.83298 632.703 5.56368 634.058 5.5696ZM634.085 8.58807C633.487 8.58807 632.954 8.73011 632.487 9.0142C632.025 9.2983 631.658 9.68004 631.386 10.1594C631.119 10.6388 630.989 11.1745 630.995 11.7663C630.995 12.3641 631.125 12.9027 631.386 13.3821C631.652 13.8556 632.013 14.2344 632.469 14.5185C632.931 14.7966 633.457 14.9357 634.049 14.9357C634.493 14.9357 634.904 14.8529 635.283 14.6871C635.662 14.5214 635.99 14.2936 636.269 14.0036C636.553 13.7076 636.775 13.3673 636.934 12.9826C637.094 12.5979 637.174 12.1895 637.174 11.7575C637.168 11.1834 637.032 10.6566 636.766 10.1772C636.499 9.6978 636.133 9.31309 635.665 9.02308C635.197 8.73307 634.671 8.58807 634.085 8.58807ZM653.936 20.5909V19.6321C653.936 18.9041 654.089 18.2353 654.397 17.6257C654.711 17.0102 655.164 16.5189 655.756 16.152C656.353 15.7791 657.081 15.5927 657.939 15.5927C658.809 15.5927 659.54 15.7762 660.132 16.1431C660.73 16.5101 661.18 17.0013 661.482 17.6168C661.789 18.2264 661.943 18.8982 661.943 19.6321V20.5909C661.943 21.3189 661.789 21.9906 661.482 22.6062C661.174 23.2158 660.721 23.7041 660.123 24.071C659.526 24.4439 658.798 24.6303 657.939 24.6303C657.069 24.6303 656.338 24.4439 655.747 24.071C655.155 23.7041 654.705 23.2158 654.397 22.6062C654.089 21.9906 653.936 21.3189 653.936 20.5909ZM656.519 19.6321V20.5909C656.519 21.0111 656.62 21.4077 656.821 21.7805C657.028 22.1534 657.401 22.3398 657.939 22.3398C658.478 22.3398 658.845 22.1564 659.04 21.7894C659.242 21.4225 659.342 21.023 659.342 20.5909V19.6321C659.342 19.2 659.247 18.7976 659.058 18.4247C658.869 18.0518 658.496 17.8654 657.939 17.8654C657.407 17.8654 657.037 18.0518 656.83 18.4247C656.623 18.7976 656.519 19.2 656.519 19.6321ZM644.605 10.1861V9.22727C644.605 8.49337 644.762 7.82161 645.075 7.212C645.389 6.59647 645.842 6.10523 646.434 5.73828C647.032 5.37133 647.754 5.18785 648.6 5.18785C649.476 5.18785 650.21 5.37133 650.802 5.73828C651.394 6.10523 651.843 6.59647 652.151 7.212C652.459 7.82161 652.613 8.49337 652.613 9.22727V10.1861C652.613 10.92 652.456 11.5917 652.142 12.2013C651.834 12.811 651.382 13.2992 650.784 13.6662C650.192 14.0272 649.464 14.2077 648.6 14.2077C647.736 14.2077 647.005 14.0243 646.407 13.6573C645.815 13.2844 645.365 12.7962 645.058 12.1925C644.756 11.5829 644.605 10.9141 644.605 10.1861ZM647.206 9.22727V10.1861C647.206 10.6181 647.307 11.0176 647.508 11.3846C647.715 11.7515 648.079 11.935 648.6 11.935C649.144 11.935 649.514 11.7515 649.71 11.3846C649.911 11.0176 650.012 10.6181 650.012 10.1861V9.22727C650.012 8.79522 649.917 8.39276 649.727 8.01989C649.538 7.64702 649.162 7.46058 648.6 7.46058C648.073 7.46058 647.709 7.64998 647.508 8.02876C647.307 8.40755 647.206 8.80705 647.206 9.22727ZM645.777 24L658.277 5.81818H660.603L648.103 24H645.777Z" fill="#EB6B92"/>
<path d="M691.606 24L699.143 9.08523V8.96094H690.363V5.81818H703.12V9.00533L695.574 24H691.606ZM712.493 24.3995C710.966 24.3936 709.652 24.0178 708.551 23.272C707.457 22.5263 706.613 21.4461 706.021 20.0316C705.435 18.6171 705.145 16.9155 705.151 14.9268C705.151 12.9441 705.444 11.2544 706.03 9.8576C706.622 8.46082 707.465 7.39844 708.56 6.67045C709.661 5.93655 710.972 5.5696 712.493 5.5696C714.014 5.5696 715.322 5.93655 716.417 6.67045C717.518 7.40436 718.364 8.4697 718.956 9.86648C719.548 11.2573 719.841 12.9441 719.835 14.9268C719.835 16.9214 719.539 18.6259 718.947 20.0405C718.362 21.455 717.521 22.5352 716.426 23.2809C715.331 24.0266 714.02 24.3995 712.493 24.3995ZM712.493 21.2124C713.535 21.2124 714.366 20.6886 714.988 19.641C715.609 18.5934 715.917 17.022 715.911 14.9268C715.911 13.5478 715.769 12.3996 715.485 11.4822C715.207 10.5649 714.81 9.87535 714.295 9.41371C713.786 8.95206 713.186 8.72124 712.493 8.72124C711.458 8.72124 710.629 9.23911 710.007 10.2749C709.386 11.3106 709.072 12.8613 709.066 14.9268C709.066 16.3236 709.205 17.4896 709.484 18.4247C709.768 19.3539 710.167 20.0523 710.682 20.5199C711.197 20.9815 711.801 21.2124 712.493 21.2124ZM732.528 20.5909V19.6321C732.528 18.9041 732.682 18.2353 732.99 17.6257C733.304 17.0102 733.756 16.5189 734.348 16.152C734.946 15.7791 735.674 15.5927 736.532 15.5927C737.402 15.5927 738.133 15.7762 738.725 16.1431C739.323 16.5101 739.773 17.0013 740.074 17.6168C740.382 18.2264 740.536 18.8982 740.536 19.6321V20.5909C740.536 21.3189 740.382 21.9906 740.074 22.6062C739.767 23.2158 739.314 23.7041 738.716 24.071C738.118 24.4439 737.39 24.6303 736.532 24.6303C735.662 24.6303 734.931 24.4439 734.339 24.071C733.748 23.7041 733.298 23.2158 732.99 22.6062C732.682 21.9906 732.528 21.3189 732.528 20.5909ZM735.112 19.6321V20.5909C735.112 21.0111 735.212 21.4077 735.414 21.7805C735.621 22.1534 735.994 22.3398 736.532 22.3398C737.071 22.3398 737.438 22.1564 737.633 21.7894C737.834 21.4225 737.935 21.023 737.935 20.5909V19.6321C737.935 19.2 737.84 18.7976 737.651 18.4247C737.461 18.0518 737.089 17.8654 736.532 17.8654C736 17.8654 735.63 18.0518 735.422 18.4247C735.215 18.7976 735.112 19.2 735.112 19.6321ZM723.198 10.1861V9.22727C723.198 8.49337 723.355 7.82161 723.668 7.212C723.982 6.59647 724.435 6.10523 725.027 5.73828C725.624 5.37133 726.346 5.18785 727.193 5.18785C728.069 5.18785 728.803 5.37133 729.394 5.73828C729.986 6.10523 730.436 6.59647 730.744 7.212C731.052 7.82161 731.206 8.49337 731.206 9.22727V10.1861C731.206 10.92 731.049 11.5917 730.735 12.2013C730.427 12.811 729.974 13.2992 729.377 13.6662C728.785 14.0272 728.057 14.2077 727.193 14.2077C726.329 14.2077 725.598 14.0243 725 13.6573C724.408 13.2844 723.958 12.7962 723.65 12.1925C723.349 11.5829 723.198 10.9141 723.198 10.1861ZM725.799 9.22727V10.1861C725.799 10.6181 725.9 11.0176 726.101 11.3846C726.308 11.7515 726.672 11.935 727.193 11.935C727.737 11.935 728.107 11.7515 728.302 11.3846C728.504 11.0176 728.604 10.6181 728.604 10.1861V9.22727C728.604 8.79522 728.51 8.39276 728.32 8.01989C728.131 7.64702 727.755 7.46058 727.193 7.46058C726.666 7.46058 726.302 7.64998 726.101 8.02876C725.9 8.40755 725.799 8.80705 725.799 9.22727ZM724.37 24L736.87 5.81818H739.196L726.696 24H724.37Z" fill="#EB6B92"/>
<path d="M776.058 5.5696C776.993 5.5696 777.893 5.72644 778.757 6.04013C779.627 6.35381 780.402 6.85393 781.083 7.54048C781.769 8.22704 782.311 9.13849 782.708 10.2749C783.11 11.4053 783.314 12.7932 783.32 14.4386C783.32 15.9833 783.146 17.3623 782.796 18.5756C782.453 19.783 781.959 20.8099 781.314 21.6562C780.669 22.5026 779.89 23.1477 778.979 23.5916C778.067 24.0296 777.049 24.2486 775.925 24.2486C774.712 24.2486 773.64 24.0148 772.711 23.5472C771.782 23.0737 771.033 22.4316 770.465 21.6207C769.903 20.804 769.562 19.8866 769.444 18.8686H773.235C773.383 19.5315 773.694 20.0464 774.167 20.4134C774.641 20.7744 775.227 20.9549 775.925 20.9549C777.109 20.9549 778.008 20.44 778.624 19.4102C779.239 18.3744 779.55 16.9569 779.556 15.1577H779.432C779.159 15.6903 778.792 16.149 778.331 16.5337C777.869 16.9125 777.339 17.2055 776.742 17.4126C776.15 17.6198 775.519 17.7234 774.851 17.7234C773.779 17.7234 772.824 17.4718 771.983 16.9688C771.143 16.4657 770.48 15.7732 769.994 14.8913C769.509 14.0095 769.267 13.0033 769.267 11.8729C769.261 10.6536 769.542 9.56759 770.11 8.6147C770.678 7.66181 771.471 6.91607 772.489 6.37749C773.513 5.83298 774.703 5.56368 776.058 5.5696ZM776.085 8.58807C775.487 8.58807 774.954 8.73011 774.487 9.0142C774.025 9.2983 773.658 9.68004 773.386 10.1594C773.119 10.6388 772.989 11.1745 772.995 11.7663C772.995 12.3641 773.125 12.9027 773.386 13.3821C773.652 13.8556 774.013 14.2344 774.469 14.5185C774.931 14.7966 775.457 14.9357 776.049 14.9357C776.493 14.9357 776.904 14.8529 777.283 14.6871C777.662 14.5214 777.99 14.2936 778.269 14.0036C778.553 13.7076 778.775 13.3673 778.934 12.9826C779.094 12.5979 779.174 12.1895 779.174 11.7575C779.168 11.1834 779.032 10.6566 778.766 10.1772C778.499 9.6978 778.133 9.31309 777.665 9.02308C777.197 8.73307 776.671 8.58807 776.085 8.58807ZM795.936 20.5909V19.6321C795.936 18.9041 796.089 18.2353 796.397 17.6257C796.711 17.0102 797.164 16.5189 797.756 16.152C798.353 15.7791 799.081 15.5927 799.939 15.5927C800.809 15.5927 801.54 15.7762 802.132 16.1431C802.73 16.5101 803.18 17.0013 803.482 17.6168C803.789 18.2264 803.943 18.8982 803.943 19.6321V20.5909C803.943 21.3189 803.789 21.9906 803.482 22.6062C803.174 23.2158 802.721 23.7041 802.123 24.071C801.526 24.4439 800.798 24.6303 799.939 24.6303C799.069 24.6303 798.338 24.4439 797.747 24.071C797.155 23.7041 796.705 23.2158 796.397 22.6062C796.089 21.9906 795.936 21.3189 795.936 20.5909ZM798.519 19.6321V20.5909C798.519 21.0111 798.62 21.4077 798.821 21.7805C799.028 22.1534 799.401 22.3398 799.939 22.3398C800.478 22.3398 800.845 22.1564 801.04 21.7894C801.242 21.4225 801.342 21.023 801.342 20.5909V19.6321C801.342 19.2 801.247 18.7976 801.058 18.4247C800.869 18.0518 800.496 17.8654 799.939 17.8654C799.407 17.8654 799.037 18.0518 798.83 18.4247C798.623 18.7976 798.519 19.2 798.519 19.6321ZM786.605 10.1861V9.22727C786.605 8.49337 786.762 7.82161 787.075 7.212C787.389 6.59647 787.842 6.10523 788.434 5.73828C789.032 5.37133 789.754 5.18785 790.6 5.18785C791.476 5.18785 792.21 5.37133 792.802 5.73828C793.394 6.10523 793.843 6.59647 794.151 7.212C794.459 7.82161 794.613 8.49337 794.613 9.22727V10.1861C794.613 10.92 794.456 11.5917 794.142 12.2013C793.834 12.811 793.382 13.2992 792.784 13.6662C792.192 14.0272 791.464 14.2077 790.6 14.2077C789.736 14.2077 789.005 14.0243 788.407 13.6573C787.815 13.2844 787.365 12.7962 787.058 12.1925C786.756 11.5829 786.605 10.9141 786.605 10.1861ZM789.206 9.22727V10.1861C789.206 10.6181 789.307 11.0176 789.508 11.3846C789.715 11.7515 790.079 11.935 790.6 11.935C791.144 11.935 791.514 11.7515 791.71 11.3846C791.911 11.0176 792.012 10.6181 792.012 10.1861V9.22727C792.012 8.79522 791.917 8.39276 791.727 8.01989C791.538 7.64702 791.162 7.46058 790.6 7.46058C790.073 7.46058 789.709 7.64998 789.508 8.02876C789.307 8.40755 789.206 8.80705 789.206 9.22727ZM787.777 24L800.277 5.81818H802.603L790.103 24H787.777Z" fill="#EB6B92"/>
<path d="M847.058 5.5696C847.993 5.5696 848.893 5.72644 849.757 6.04013C850.627 6.35381 851.402 6.85393 852.083 7.54048C852.769 8.22704 853.311 9.13849 853.708 10.2749C854.11 11.4053 854.314 12.7932 854.32 14.4386C854.32 15.9833 854.146 17.3623 853.796 18.5756C853.453 19.783 852.959 20.8099 852.314 21.6562C851.669 22.5026 850.89 23.1477 849.979 23.5916C849.067 24.0296 848.049 24.2486 846.925 24.2486C845.712 24.2486 844.64 24.0148 843.711 23.5472C842.782 23.0737 842.033 22.4316 841.465 21.6207C840.903 20.804 840.562 19.8866 840.444 18.8686H844.235C844.383 19.5315 844.694 20.0464 845.167 20.4134C845.641 20.7744 846.227 20.9549 846.925 20.9549C848.109 20.9549 849.008 20.44 849.624 19.4102C850.239 18.3744 850.55 16.9569 850.556 15.1577H850.432C850.159 15.6903 849.792 16.149 849.331 16.5337C848.869 16.9125 848.339 17.2055 847.742 17.4126C847.15 17.6198 846.519 17.7234 845.851 17.7234C844.779 17.7234 843.824 17.4718 842.983 16.9688C842.143 16.4657 841.48 15.7732 840.994 14.8913C840.509 14.0095 840.267 13.0033 840.267 11.8729C840.261 10.6536 840.542 9.56759 841.11 8.6147C841.678 7.66181 842.471 6.91607 843.489 6.37749C844.513 5.83298 845.703 5.56368 847.058 5.5696ZM847.085 8.58807C846.487 8.58807 845.954 8.73011 845.487 9.0142C845.025 9.2983 844.658 9.68004 844.386 10.1594C844.119 10.6388 843.989 11.1745 843.995 11.7663C843.995 12.3641 844.125 12.9027 844.386 13.3821C844.652 13.8556 845.013 14.2344 845.469 14.5185C845.931 14.7966 846.457 14.9357 847.049 14.9357C847.493 14.9357 847.904 14.8529 848.283 14.6871C848.662 14.5214 848.99 14.2936 849.269 14.0036C849.553 13.7076 849.775 13.3673 849.934 12.9826C850.094 12.5979 850.174 12.1895 850.174 11.7575C850.168 11.1834 850.032 10.6566 849.766 10.1772C849.499 9.6978 849.133 9.31309 848.665 9.02308C848.197 8.73307 847.671 8.58807 847.085 8.58807ZM866.936 20.5909V19.6321C866.936 18.9041 867.089 18.2353 867.397 17.6257C867.711 17.0102 868.164 16.5189 868.756 16.152C869.353 15.7791 870.081 15.5927 870.939 15.5927C871.809 15.5927 872.54 15.7762 873.132 16.1431C873.73 16.5101 874.18 17.0013 874.482 17.6168C874.789 18.2264 874.943 18.8982 874.943 19.6321V20.5909C874.943 21.3189 874.789 21.9906 874.482 22.6062C874.174 23.2158 873.721 23.7041 873.123 24.071C872.526 24.4439 871.798 24.6303 870.939 24.6303C870.069 24.6303 869.338 24.4439 868.747 24.071C868.155 23.7041 867.705 23.2158 867.397 22.6062C867.089 21.9906 866.936 21.3189 866.936 20.5909ZM869.519 19.6321V20.5909C869.519 21.0111 869.62 21.4077 869.821 21.7805C870.028 22.1534 870.401 22.3398 870.939 22.3398C871.478 22.3398 871.845 22.1564 872.04 21.7894C872.242 21.4225 872.342 21.023 872.342 20.5909V19.6321C872.342 19.2 872.247 18.7976 872.058 18.4247C871.869 18.0518 871.496 17.8654 870.939 17.8654C870.407 17.8654 870.037 18.0518 869.83 18.4247C869.623 18.7976 869.519 19.2 869.519 19.6321ZM857.605 10.1861V9.22727C857.605 8.49337 857.762 7.82161 858.075 7.212C858.389 6.59647 858.842 6.10523 859.434 5.73828C860.032 5.37133 860.754 5.18785 861.6 5.18785C862.476 5.18785 863.21 5.37133 863.802 5.73828C864.394 6.10523 864.843 6.59647 865.151 7.212C865.459 7.82161 865.613 8.49337 865.613 9.22727V10.1861C865.613 10.92 865.456 11.5917 865.142 12.2013C864.834 12.811 864.382 13.2992 863.784 13.6662C863.192 14.0272 862.464 14.2077 861.6 14.2077C860.736 14.2077 860.005 14.0243 859.407 13.6573C858.815 13.2844 858.365 12.7962 858.058 12.1925C857.756 11.5829 857.605 10.9141 857.605 10.1861ZM860.206 9.22727V10.1861C860.206 10.6181 860.307 11.0176 860.508 11.3846C860.715 11.7515 861.079 11.935 861.6 11.935C862.144 11.935 862.514 11.7515 862.71 11.3846C862.911 11.0176 863.012 10.6181 863.012 10.1861V9.22727C863.012 8.79522 862.917 8.39276 862.727 8.01989C862.538 7.64702 862.162 7.46058 861.6 7.46058C861.073 7.46058 860.709 7.64998 860.508 8.02876C860.307 8.40755 860.206 8.80705 860.206 9.22727ZM858.777 24L871.277 5.81818H873.603L861.103 24H858.777Z" fill="#EB6B92"/>
<path d="M981.985 20.804V17.7766L989.575 5.81818H992.185V10.0085H990.641L985.855 17.5813V17.7234H996.642V20.804H981.985ZM990.712 24V19.8807L990.783 18.5401V5.81818H994.387V24H990.712ZM1009.16 20.5909V19.6321C1009.16 18.9041 1009.31 18.2353 1009.62 17.6257C1009.93 17.0102 1010.38 16.5189 1010.98 16.152C1011.57 15.7791 1012.3 15.5927 1013.16 15.5927C1014.03 15.5927 1014.76 15.7762 1015.35 16.1431C1015.95 16.5101 1016.4 17.0013 1016.7 17.6168C1017.01 18.2264 1017.16 18.8982 1017.16 19.6321V20.5909C1017.16 21.3189 1017.01 21.9906 1016.7 22.6062C1016.39 23.2158 1015.94 23.7041 1015.34 24.071C1014.75 24.4439 1014.02 24.6303 1013.16 24.6303C1012.29 24.6303 1011.56 24.4439 1010.97 24.071C1010.37 23.7041 1009.92 23.2158 1009.62 22.6062C1009.31 21.9906 1009.16 21.3189 1009.16 20.5909ZM1011.74 19.6321V20.5909C1011.74 21.0111 1011.84 21.4077 1012.04 21.7805C1012.25 22.1534 1012.62 22.3398 1013.16 22.3398C1013.7 22.3398 1014.06 22.1564 1014.26 21.7894C1014.46 21.4225 1014.56 21.023 1014.56 20.5909V19.6321C1014.56 19.2 1014.47 18.7976 1014.28 18.4247C1014.09 18.0518 1013.72 17.8654 1013.16 17.8654C1012.63 17.8654 1012.26 18.0518 1012.05 18.4247C1011.84 18.7976 1011.74 19.2 1011.74 19.6321ZM999.825 10.1861V9.22727C999.825 8.49337 999.982 7.82161 1000.3 7.212C1000.61 6.59647 1001.06 6.10523 1001.65 5.73828C1002.25 5.37133 1002.97 5.18785 1003.82 5.18785C1004.7 5.18785 1005.43 5.37133 1006.02 5.73828C1006.61 6.10523 1007.06 6.59647 1007.37 7.212C1007.68 7.82161 1007.83 8.49337 1007.83 9.22727V10.1861C1007.83 10.92 1007.68 11.5917 1007.36 12.2013C1007.05 12.811 1006.6 13.2992 1006 13.6662C1005.41 14.0272 1004.68 14.2077 1003.82 14.2077C1002.96 14.2077 1002.22 14.0243 1001.63 13.6573C1001.04 13.2844 1000.59 12.7962 1000.28 12.1925C999.976 11.5829 999.825 10.9141 999.825 10.1861ZM1002.43 9.22727V10.1861C1002.43 10.6181 1002.53 11.0176 1002.73 11.3846C1002.93 11.7515 1003.3 11.935 1003.82 11.935C1004.36 11.935 1004.73 11.7515 1004.93 11.3846C1005.13 11.0176 1005.23 10.6181 1005.23 10.1861V9.22727C1005.23 8.79522 1005.14 8.39276 1004.95 8.01989C1004.76 7.64702 1004.38 7.46058 1003.82 7.46058C1003.29 7.46058 1002.93 7.64998 1002.73 8.02876C1002.53 8.40755 1002.43 8.80705 1002.43 9.22727ZM1001 24L1013.5 5.81818H1015.82L1003.32 24H1001Z" fill="#EB6B92"/>
<path d="M632.377 257.909V271H629.61V260.536H629.533L626.535 262.415V259.961L629.776 257.909H632.377ZM640.622 271.288C639.522 271.283 638.576 271.013 637.784 270.476C636.995 269.939 636.388 269.161 635.962 268.143C635.54 267.124 635.331 265.899 635.335 264.467C635.335 263.04 635.546 261.823 635.968 260.817C636.394 259.812 637.002 259.047 637.79 258.523C638.583 257.994 639.526 257.73 640.622 257.73C641.717 257.73 642.659 257.994 643.447 258.523C644.24 259.051 644.849 259.818 645.275 260.824C645.701 261.825 645.912 263.04 645.908 264.467C645.908 265.903 645.695 267.131 645.269 268.149C644.847 269.168 644.242 269.945 643.453 270.482C642.665 271.019 641.721 271.288 640.622 271.288ZM640.622 268.993C641.372 268.993 641.97 268.616 642.418 267.862C642.865 267.107 643.087 265.976 643.083 264.467C643.083 263.474 642.98 262.648 642.776 261.987C642.575 261.327 642.29 260.83 641.919 260.498C641.553 260.165 641.12 259.999 640.622 259.999C639.876 259.999 639.279 260.372 638.832 261.118C638.384 261.864 638.159 262.98 638.154 264.467C638.154 265.473 638.254 266.312 638.455 266.986C638.659 267.655 638.947 268.158 639.318 268.494C639.688 268.827 640.123 268.993 640.622 268.993ZM659.582 255.934H661.85V272.602H659.582V255.934ZM657.35 262.342H660.122V264.268H657.35V262.342ZM655.856 256.222H658.07V271.81H655.856V256.222ZM648.008 266.878H649.178C651.23 266.878 652.94 266.806 654.92 266.446L655.1 268.39C653.084 268.786 651.32 268.84 649.178 268.84H648.008V266.878ZM648.008 257.86H654.164V259.786H650.384V267.814H648.008V257.86Z" fill="#AAAAAA"/>
<path d="M688.137 271V269.006L692.797 264.691C693.193 264.308 693.526 263.962 693.794 263.656C694.067 263.349 694.274 263.048 694.414 262.754C694.555 262.456 694.625 262.134 694.625 261.789C694.625 261.406 694.538 261.075 694.363 260.798C694.188 260.517 693.95 260.302 693.647 260.153C693.345 259.999 693.002 259.923 692.618 259.923C692.218 259.923 691.868 260.004 691.57 260.165C691.271 260.327 691.041 260.56 690.879 260.862C690.718 261.165 690.637 261.525 690.637 261.942H688.009C688.009 261.086 688.203 260.342 688.591 259.712C688.979 259.081 689.522 258.593 690.221 258.248C690.92 257.903 691.725 257.73 692.637 257.73C693.575 257.73 694.391 257.896 695.085 258.229C695.784 258.557 696.328 259.013 696.715 259.597C697.103 260.18 697.297 260.849 697.297 261.604C697.297 262.098 697.199 262.586 697.003 263.067C696.811 263.549 696.468 264.084 695.974 264.672C695.48 265.256 694.783 265.957 693.884 266.775L691.972 268.648V268.737H697.47V271H688.137ZM704.608 271.288C703.509 271.283 702.563 271.013 701.77 270.476C700.982 269.939 700.374 269.161 699.948 268.143C699.526 267.124 699.317 265.899 699.322 264.467C699.322 263.04 699.533 261.823 699.955 260.817C700.381 259.812 700.988 259.047 701.776 258.523C702.569 257.994 703.513 257.73 704.608 257.73C705.703 257.73 706.645 257.994 707.433 258.523C708.226 259.051 708.835 259.818 709.261 260.824C709.688 261.825 709.898 263.04 709.894 264.467C709.894 265.903 709.681 267.131 709.255 268.149C708.833 269.168 708.228 269.945 707.44 270.482C706.651 271.019 705.707 271.288 704.608 271.288ZM704.608 268.993C705.358 268.993 705.957 268.616 706.404 267.862C706.852 267.107 707.073 265.976 707.069 264.467C707.069 263.474 706.967 262.648 706.762 261.987C706.562 261.327 706.276 260.83 705.906 260.498C705.539 260.165 705.107 259.999 704.608 259.999C703.862 259.999 703.266 260.372 702.818 261.118C702.371 261.864 702.145 262.98 702.141 264.467C702.141 265.473 702.241 266.312 702.441 266.986C702.646 267.655 702.933 268.158 703.304 268.494C703.675 268.827 704.109 268.993 704.608 268.993ZM723.569 255.934H725.837V272.602H723.569V255.934ZM721.337 262.342H724.109V264.268H721.337V262.342ZM719.843 256.222H722.057V271.81H719.843V256.222ZM711.995 266.878H713.165C715.217 266.878 716.927 266.806 718.907 266.446L719.087 268.39C717.071 268.786 715.307 268.84 713.165 268.84H711.995V266.878ZM711.995 257.86H718.151V259.786H714.371V267.814H711.995V257.86ZM728.103 268.768H743.187V270.712H728.103V268.768ZM734.439 265.564H736.833V269.776H734.439V265.564ZM734.421 259.408H736.545V259.768C736.545 262.954 734.007 265.528 729.435 266.122L728.571 264.232C732.621 263.746 734.421 261.676 734.421 259.768V259.408ZM734.745 259.408H736.851V259.768C736.851 261.676 738.651 263.746 742.701 264.232L741.837 266.122C737.265 265.528 734.745 262.954 734.745 259.768V259.408ZM729.381 258.184H741.891V260.11H729.381V258.184ZM734.439 256.15H736.833V258.976H734.439V256.15Z" fill="#AAAAAA"/>
<path d="M759.137 271V269.006L763.797 264.691C764.193 264.308 764.526 263.962 764.794 263.656C765.067 263.349 765.274 263.048 765.414 262.754C765.555 262.456 765.625 262.134 765.625 261.789C765.625 261.406 765.538 261.075 765.363 260.798C765.188 260.517 764.95 260.302 764.647 260.153C764.345 259.999 764.002 259.923 763.618 259.923C763.218 259.923 762.868 260.004 762.57 260.165C762.271 260.327 762.041 260.56 761.879 260.862C761.718 261.165 761.637 261.525 761.637 261.942H759.009C759.009 261.086 759.203 260.342 759.591 259.712C759.979 259.081 760.522 258.593 761.221 258.248C761.92 257.903 762.725 257.73 763.637 257.73C764.575 257.73 765.391 257.896 766.085 258.229C766.784 258.557 767.328 259.013 767.715 259.597C768.103 260.18 768.297 260.849 768.297 261.604C768.297 262.098 768.199 262.586 768.003 263.067C767.811 263.549 767.468 264.084 766.974 264.672C766.48 265.256 765.783 265.957 764.884 266.775L762.972 268.648V268.737H768.47V271H759.137ZM775.608 271.288C774.509 271.283 773.563 271.013 772.77 270.476C771.982 269.939 771.374 269.161 770.948 268.143C770.526 267.124 770.317 265.899 770.322 264.467C770.322 263.04 770.533 261.823 770.955 260.817C771.381 259.812 771.988 259.047 772.776 258.523C773.569 257.994 774.513 257.73 775.608 257.73C776.703 257.73 777.645 257.994 778.433 258.523C779.226 259.051 779.835 259.818 780.261 260.824C780.688 261.825 780.898 263.04 780.894 264.467C780.894 265.903 780.681 267.131 780.255 268.149C779.833 269.168 779.228 269.945 778.44 270.482C777.651 271.019 776.707 271.288 775.608 271.288ZM775.608 268.993C776.358 268.993 776.957 268.616 777.404 267.862C777.852 267.107 778.073 265.976 778.069 264.467C778.069 263.474 777.967 262.648 777.762 261.987C777.562 261.327 777.276 260.83 776.906 260.498C776.539 260.165 776.107 259.999 775.608 259.999C774.862 259.999 774.266 260.372 773.818 261.118C773.371 261.864 773.145 262.98 773.141 264.467C773.141 265.473 773.241 266.312 773.441 266.986C773.646 267.655 773.933 268.158 774.304 268.494C774.675 268.827 775.109 268.993 775.608 268.993ZM794.569 255.934H796.837V272.602H794.569V255.934ZM792.337 262.342H795.109V264.268H792.337V262.342ZM790.843 256.222H793.057V271.81H790.843V256.222ZM782.995 266.878H784.165C786.217 266.878 787.927 266.806 789.907 266.446L790.087 268.39C788.071 268.786 786.307 268.84 784.165 268.84H782.995V266.878ZM782.995 257.86H789.151V259.786H785.371V267.814H782.995V257.86ZM799.805 257.662H813.377V259.552H799.805V257.662ZM799.103 266.716H814.187V268.642H799.103V266.716ZM805.421 268.408H807.815V272.62H805.421V268.408ZM806.627 260.2C810.209 260.2 812.333 261.208 812.333 263.062C812.333 264.898 810.209 265.924 806.627 265.924C803.027 265.924 800.903 264.898 800.903 263.062C800.903 261.208 803.027 260.2 806.627 260.2ZM806.627 261.982C804.449 261.982 803.387 262.306 803.387 263.062C803.387 263.818 804.449 264.142 806.627 264.142C808.805 264.142 809.867 263.818 809.867 263.062C809.867 262.306 808.805 261.982 806.627 261.982ZM805.421 255.916H807.815V258.922H805.421V255.916Z" fill="#AAAAAA"/>
<path d="M842.992 271.179C842.037 271.179 841.187 271.015 840.441 270.687C839.7 270.354 839.114 269.898 838.683 269.319C838.257 268.735 838.038 268.062 838.025 267.299H840.812C840.829 267.619 840.933 267.9 841.125 268.143C841.321 268.381 841.581 268.567 841.905 268.699C842.229 268.831 842.593 268.897 842.998 268.897C843.42 268.897 843.793 268.822 844.117 268.673C844.441 268.524 844.694 268.317 844.877 268.053C845.061 267.789 845.152 267.484 845.152 267.139C845.152 266.79 845.054 266.481 844.858 266.212C844.666 265.94 844.389 265.727 844.027 265.573C843.669 265.42 843.243 265.343 842.749 265.343H841.528V263.31H842.749C843.166 263.31 843.535 263.238 843.855 263.093C844.178 262.948 844.43 262.748 844.609 262.492C844.788 262.232 844.877 261.93 844.877 261.585C844.877 261.256 844.798 260.969 844.641 260.722C844.487 260.47 844.27 260.274 843.989 260.134C843.712 259.993 843.388 259.923 843.017 259.923C842.642 259.923 842.299 259.991 841.988 260.127C841.677 260.259 841.428 260.449 841.24 260.696C841.053 260.943 840.953 261.233 840.94 261.565H838.287C838.3 260.811 838.515 260.146 838.933 259.571C839.35 258.996 839.913 258.546 840.62 258.222C841.332 257.894 842.135 257.73 843.03 257.73C843.933 257.73 844.724 257.894 845.401 258.222C846.079 258.55 846.605 258.994 846.98 259.552C847.36 260.106 847.547 260.728 847.543 261.418C847.547 262.151 847.319 262.763 846.859 263.253C846.403 263.743 845.808 264.054 845.075 264.186V264.288C846.039 264.412 846.771 264.746 847.274 265.292C847.781 265.833 848.033 266.511 848.029 267.325C848.033 268.07 847.818 268.733 847.383 269.312C846.953 269.892 846.358 270.348 845.6 270.68C844.841 271.013 843.972 271.179 842.992 271.179ZM855.151 271.288C854.051 271.283 853.105 271.013 852.313 270.476C851.525 269.939 850.917 269.161 850.491 268.143C850.069 267.124 849.86 265.899 849.865 264.467C849.865 263.04 850.076 261.823 850.498 260.817C850.924 259.812 851.531 259.047 852.319 258.523C853.112 257.994 854.056 257.73 855.151 257.73C856.246 257.73 857.188 257.994 857.976 258.523C858.769 259.051 859.378 259.818 859.804 260.824C860.23 261.825 860.441 263.04 860.437 264.467C860.437 265.903 860.224 267.131 859.798 268.149C859.376 269.168 858.771 269.945 857.983 270.482C857.194 271.019 856.25 271.288 855.151 271.288ZM855.151 268.993C855.901 268.993 856.5 268.616 856.947 267.862C857.395 267.107 857.616 265.976 857.612 264.467C857.612 263.474 857.51 262.648 857.305 261.987C857.105 261.327 856.819 260.83 856.449 260.498C856.082 260.165 855.65 259.999 855.151 259.999C854.405 259.999 853.809 260.372 853.361 261.118C852.914 261.864 852.688 262.98 852.684 264.467C852.684 265.473 852.784 266.312 852.984 266.986C853.189 267.655 853.476 268.158 853.847 268.494C854.218 268.827 854.652 268.993 855.151 268.993ZM874.112 255.934H876.38V272.602H874.112V255.934ZM871.88 262.342H874.652V264.268H871.88V262.342ZM870.386 256.222H872.6V271.81H870.386V256.222ZM862.538 266.878H863.708C865.76 266.878 867.47 266.806 869.45 266.446L869.63 268.39C867.614 268.786 865.85 268.84 863.708 268.84H862.538V266.878ZM862.538 257.86H868.694V259.786H864.914V267.814H862.538V257.86Z" fill="#AAAAAA"/>
<path d="M908.788 268.699V266.519L914.253 257.909H916.132V260.926H915.02L911.575 266.379V266.481H919.341V268.699H908.788ZM915.071 271V268.034L915.122 267.069V257.909H917.717V271H915.071ZM926.318 271.288C925.218 271.283 924.272 271.013 923.48 270.476C922.691 269.939 922.084 269.161 921.658 268.143C921.236 267.124 921.027 265.899 921.032 264.467C921.032 263.04 921.243 261.823 921.665 260.817C922.091 259.812 922.698 259.047 923.486 258.523C924.279 257.994 925.223 257.73 926.318 257.73C927.413 257.73 928.355 257.994 929.143 258.523C929.936 259.051 930.545 259.818 930.971 260.824C931.397 261.825 931.608 263.04 931.604 264.467C931.604 265.903 931.391 267.131 930.965 268.149C930.543 269.168 929.938 269.945 929.15 270.482C928.361 271.019 927.417 271.288 926.318 271.288ZM926.318 268.993C927.068 268.993 927.667 268.616 928.114 267.862C928.562 267.107 928.783 265.976 928.779 264.467C928.779 263.474 928.677 262.648 928.472 261.987C928.272 261.327 927.986 260.83 927.616 260.498C927.249 260.165 926.816 259.999 926.318 259.999C925.572 259.999 924.976 260.372 924.528 261.118C924.081 261.864 923.855 262.98 923.851 264.467C923.851 265.473 923.951 266.312 924.151 266.986C924.356 267.655 924.643 268.158 925.014 268.494C925.385 268.827 925.819 268.993 926.318 268.993ZM945.279 255.934H947.547V272.602H945.279V255.934ZM943.047 262.342H945.819V264.268H943.047V262.342ZM941.553 256.222H943.767V271.81H941.553V256.222ZM933.705 266.878H934.875C936.927 266.878 938.637 266.806 940.617 266.446L940.797 268.39C938.781 268.786 937.017 268.84 934.875 268.84H933.705V266.878ZM933.705 257.86H939.861V259.786H936.081V267.814H933.705V257.86Z" fill="#AAAAAA" fill-opacity="0.7"/>
<path d="M979.949 271.179C979.045 271.179 978.24 271.013 977.533 270.68C976.829 270.348 976.271 269.89 975.858 269.306C975.445 268.722 975.229 268.053 975.212 267.299H977.897C977.927 267.806 978.14 268.217 978.536 268.533C978.932 268.848 979.403 269.006 979.949 269.006C980.383 269.006 980.767 268.91 981.099 268.718C981.436 268.522 981.698 268.251 981.886 267.906C982.077 267.557 982.173 267.156 982.173 266.705C982.173 266.244 982.075 265.839 981.879 265.49C981.687 265.141 981.421 264.868 981.08 264.672C980.739 264.476 980.349 264.376 979.91 264.371C979.527 264.371 979.154 264.45 978.792 264.608C978.434 264.766 978.155 264.981 977.954 265.254L975.494 264.812L976.114 257.909H984.116V260.172H978.396L978.057 263.451H978.133C978.364 263.127 978.711 262.859 979.175 262.646C979.64 262.433 980.16 262.326 980.735 262.326C981.523 262.326 982.226 262.511 982.844 262.882C983.462 263.253 983.95 263.762 984.308 264.41C984.666 265.053 984.843 265.795 984.839 266.634C984.843 267.516 984.638 268.3 984.225 268.987C983.816 269.668 983.243 270.205 982.506 270.597C981.773 270.985 980.92 271.179 979.949 271.179ZM991.902 271.288C990.802 271.283 989.856 271.013 989.064 270.476C988.275 269.939 987.668 269.161 987.242 268.143C986.82 267.124 986.611 265.899 986.616 264.467C986.616 263.04 986.827 261.823 987.248 260.817C987.675 259.812 988.282 259.047 989.07 258.523C989.863 257.994 990.807 257.73 991.902 257.73C992.997 257.73 993.939 257.994 994.727 258.523C995.52 259.051 996.129 259.818 996.555 260.824C996.981 261.825 997.192 263.04 997.188 264.467C997.188 265.903 996.975 267.131 996.549 268.149C996.127 269.168 995.522 269.945 994.734 270.482C993.945 271.019 993.001 271.288 991.902 271.288ZM991.902 268.993C992.652 268.993 993.251 268.616 993.698 267.862C994.146 267.107 994.367 265.976 994.363 264.467C994.363 263.474 994.261 262.648 994.056 261.987C993.856 261.327 993.57 260.83 993.199 260.498C992.833 260.165 992.4 259.999 991.902 259.999C991.156 259.999 990.56 260.372 990.112 261.118C989.665 261.864 989.439 262.98 989.435 264.467C989.435 265.473 989.535 266.312 989.735 266.986C989.94 267.655 990.227 268.158 990.598 268.494C990.969 268.827 991.403 268.993 991.902 268.993ZM1010.86 255.934H1013.13V272.602H1010.86V255.934ZM1008.63 262.342H1011.4V264.268H1008.63V262.342ZM1007.14 256.222H1009.35V271.81H1007.14V256.222ZM999.289 266.878H1000.46C1002.51 266.878 1004.22 266.806 1006.2 266.446L1006.38 268.39C1004.36 268.786 1002.6 268.84 1000.46 268.84H999.289V266.878ZM999.289 257.86H1005.44V259.786H1001.66V267.814H999.289V257.86ZM1016.03 267.465C1016.01 266.66 1016.11 265.978 1016.33 265.42C1016.55 264.862 1016.87 264.437 1017.29 264.148C1017.72 263.858 1018.22 263.713 1018.79 263.713C1019.2 263.713 1019.58 263.796 1019.95 263.962C1020.31 264.129 1020.73 264.416 1021.19 264.825C1021.44 265.043 1021.65 265.209 1021.82 265.324C1021.99 265.435 1022.18 265.49 1022.41 265.49C1022.71 265.49 1022.96 265.373 1023.15 265.138C1023.35 264.9 1023.44 264.523 1023.43 264.007H1025.51C1025.54 264.817 1025.44 265.501 1025.22 266.059C1024.99 266.617 1024.67 267.041 1024.24 267.331C1023.81 267.621 1023.32 267.766 1022.75 267.766C1022.33 267.766 1021.93 267.678 1021.56 267.504C1021.2 267.325 1020.79 267.039 1020.34 266.647C1020.08 266.413 1019.87 266.244 1019.71 266.142C1019.55 266.036 1019.36 265.982 1019.15 265.982C1018.84 265.982 1018.59 266.097 1018.4 266.327C1018.2 266.553 1018.11 266.933 1018.12 267.465H1016.03Z" fill="#AAAAAA"/>
<g filter="url(#filter6_d_228_314)">
<path d="M625 228H665V234C665 239.523 660.523 244 655 244H635C629.477 244 625 239.523 625 234V228Z" fill="url(#paint0_linear_228_314)" shape-rendering="crispEdges"/>
</g>
<g filter="url(#filter7_d_228_314)">
<path d="M767 228H807V234C807 239.523 802.523 244 797 244H777C771.477 244 767 239.523 767 234V228Z" fill="url(#paint1_linear_228_314)" shape-rendering="crispEdges"/>
</g>
<g filter="url(#filter8_d_228_314)">
<path d="M838 228H878V234C878 239.523 873.523 244 868 244H848C842.477 244 838 239.523 838 234V228Z" fill="url(#paint2_linear_228_314)" shape-rendering="crispEdges"/>
</g>
<g filter="url(#filter9_d_228_314)">
<path d="M980 237H1020C1020 240.866 1016.87 244 1013 244H987C983.134 244 980 240.866 980 237Z" fill="url(#paint3_linear_228_314)" shape-rendering="crispEdges"/>
</g>
<g filter="url(#filter10_d_228_314)">
<path d="M696 96H736V234C736 239.523 731.523 244 726 244H706C700.477 244 696 239.523 696 234V96Z" fill="url(#paint4_linear_228_314)" shape-rendering="crispEdges"/>
</g>
<path d="M13.5142 91.3977C11.5066 91.3977 9.71686 91.0284 8.14489 90.2898C6.58239 89.5511 5.34186 88.5331 4.4233 87.2358C3.50473 85.9384 3.02652 84.4517 2.98864 82.7756H8.95455C9.02083 83.9025 9.49432 84.8163 10.375 85.517C11.2557 86.2178 12.3021 86.5682 13.5142 86.5682C14.4801 86.5682 15.3324 86.3551 16.071 85.929C16.8191 85.4934 17.4015 84.892 17.8182 84.125C18.2443 83.3485 18.4574 82.4583 18.4574 81.4545C18.4574 80.4318 18.2396 79.5322 17.804 78.7557C17.3778 77.9792 16.786 77.3731 16.0284 76.9375C15.2708 76.5019 14.4044 76.2794 13.429 76.2699C12.5767 76.2699 11.7481 76.4451 10.9432 76.7955C10.1477 77.1458 9.52746 77.6241 9.08239 78.2301L3.61364 77.25L4.99148 61.9091H22.7756V66.9375H10.0625L9.30966 74.2244H9.48011C9.99148 73.5047 10.7633 72.9081 11.7955 72.4347C12.8277 71.9612 13.983 71.7244 15.2614 71.7244C17.0133 71.7244 18.5758 72.1364 19.9489 72.9602C21.322 73.7841 22.4062 74.9157 23.2017 76.3551C23.9972 77.785 24.3902 79.4328 24.3807 81.2983C24.3902 83.2585 23.9356 85.0009 23.017 86.5256C22.108 88.0407 20.8343 89.2339 19.196 90.1051C17.5672 90.9669 15.6733 91.3977 13.5142 91.3977ZM39.2955 91.3977C37.2879 91.3977 35.4981 91.0284 33.9261 90.2898C32.3636 89.5511 31.1231 88.5331 30.2045 87.2358C29.286 85.9384 28.8078 84.4517 28.7699 82.7756H34.7358C34.8021 83.9025 35.2756 84.8163 36.1562 85.517C37.0369 86.2178 38.0833 86.5682 39.2955 86.5682C40.2614 86.5682 41.1136 86.3551 41.8523 85.929C42.6004 85.4934 43.1828 84.892 43.5994 84.125C44.0256 83.3485 44.2386 82.4583 44.2386 81.4545C44.2386 80.4318 44.0208 79.5322 43.5852 78.7557C43.1591 77.9792 42.5672 77.3731 41.8097 76.9375C41.0521 76.5019 40.1856 76.2794 39.2102 76.2699C38.358 76.2699 37.5294 76.4451 36.7244 76.7955C35.929 77.1458 35.3087 77.6241 34.8636 78.2301L29.3949 77.25L30.7727 61.9091H48.5568V66.9375H35.8438L35.0909 74.2244H35.2614C35.7727 73.5047 36.5445 72.9081 37.5767 72.4347C38.6089 71.9612 39.7642 71.7244 41.0426 71.7244C42.7945 71.7244 44.357 72.1364 45.7301 72.9602C47.1032 73.7841 48.1875 74.9157 48.983 76.3551C49.7784 77.785 50.1714 79.4328 50.1619 81.2983C50.1714 83.2585 49.7169 85.0009 48.7983 86.5256C47.8892 88.0407 46.6155 89.2339 44.9773 90.1051C43.3485 90.9669 41.4545 91.3977 39.2955 91.3977ZM70.375 85.5455V84.0114C70.375 82.8466 70.6212 81.7765 71.1136 80.8011C71.6155 79.8163 72.34 79.0303 73.2869 78.4432C74.2434 77.8466 75.4081 77.5483 76.7812 77.5483C78.1733 77.5483 79.3428 77.8419 80.2898 78.429C81.2462 79.0161 81.9659 79.8021 82.4489 80.7869C82.9413 81.7623 83.1875 82.8371 83.1875 84.0114V85.5455C83.1875 86.7102 82.9413 87.785 82.4489 88.7699C81.9564 89.7453 81.232 90.5265 80.2756 91.1136C79.3191 91.7102 78.1544 92.0085 76.7812 92.0085C75.3892 92.0085 74.2197 91.7102 73.2727 91.1136C72.3258 90.5265 71.6061 89.7453 71.1136 88.7699C70.6212 87.785 70.375 86.7102 70.375 85.5455ZM74.5085 84.0114V85.5455C74.5085 86.2178 74.6695 86.8523 74.9915 87.4489C75.3229 88.0455 75.9195 88.3438 76.7812 88.3438C77.643 88.3438 78.2301 88.0502 78.5426 87.4631C78.8646 86.8759 79.0256 86.2367 79.0256 85.5455V84.0114C79.0256 83.3201 78.8741 82.6761 78.571 82.0795C78.268 81.483 77.6714 81.1847 76.7812 81.1847C75.929 81.1847 75.3371 81.483 75.0057 82.0795C74.6742 82.6761 74.5085 83.3201 74.5085 84.0114ZM55.446 68.8977V67.3636C55.446 66.1894 55.697 65.1146 56.1989 64.1392C56.7008 63.1544 57.4252 62.3684 58.3722 61.7812C59.3286 61.1941 60.4839 60.9006 61.8381 60.9006C63.2396 60.9006 64.4138 61.1941 65.3608 61.7812C66.3078 62.3684 67.0275 63.1544 67.5199 64.1392C68.0123 65.1146 68.2585 66.1894 68.2585 67.3636V68.8977C68.2585 70.072 68.0076 71.1468 67.5057 72.1222C67.0133 73.0975 66.2888 73.8788 65.3324 74.4659C64.3854 75.0436 63.2206 75.3324 61.8381 75.3324C60.4555 75.3324 59.286 75.0388 58.3295 74.4517C57.3826 73.8551 56.6629 73.0739 56.1705 72.108C55.6875 71.1326 55.446 70.0625 55.446 68.8977ZM59.608 67.3636V68.8977C59.608 69.589 59.7689 70.2282 60.0909 70.8153C60.4223 71.4025 61.0047 71.696 61.8381 71.696C62.7093 71.696 63.3011 71.4025 63.6136 70.8153C63.9356 70.2282 64.0966 69.589 64.0966 68.8977V67.3636C64.0966 66.6723 63.9451 66.0284 63.642 65.4318C63.339 64.8352 62.7377 64.5369 61.8381 64.5369C60.9953 64.5369 60.4129 64.84 60.0909 65.446C59.7689 66.0521 59.608 66.6913 59.608 67.3636ZM57.321 91L77.321 61.9091H81.0426L61.0426 91H57.321Z" fill="#777CF0"/>
<path d="M486.785 85.8864V81.0426L498.93 61.9091H503.106V68.6136H500.634L492.978 80.7301V80.9574H510.237V85.8864H486.785ZM500.748 91V84.4091L500.862 82.2642V61.9091H506.629V91H500.748ZM524.96 91.3977C522.952 91.3977 521.162 91.0284 519.59 90.2898C518.028 89.5511 516.787 88.5331 515.869 87.2358C514.95 85.9384 514.472 84.4517 514.434 82.7756H520.4C520.466 83.9025 520.94 84.8163 521.82 85.517C522.701 86.2178 523.747 86.5682 524.96 86.5682C525.925 86.5682 526.778 86.3551 527.516 85.929C528.264 85.4934 528.847 84.892 529.263 84.125C529.69 83.3485 529.903 82.4583 529.903 81.4545C529.903 80.4318 529.685 79.5322 529.249 78.7557C528.823 77.9792 528.231 77.3731 527.474 76.9375C526.716 76.5019 525.85 76.2794 524.874 76.2699C524.022 76.2699 523.193 76.4451 522.388 76.7955C521.593 77.1458 520.973 77.6241 520.528 78.2301L515.059 77.25L516.437 61.9091H534.221V66.9375H521.508L520.755 74.2244H520.925C521.437 73.5047 522.209 72.9081 523.241 72.4347C524.273 71.9612 525.428 71.7244 526.707 71.7244C528.459 71.7244 530.021 72.1364 531.394 72.9602C532.767 73.7841 533.852 74.9157 534.647 76.3551C535.442 77.785 535.835 79.4328 535.826 81.2983C535.835 83.2585 535.381 85.0009 534.462 86.5256C533.553 88.0407 532.28 89.2339 530.641 90.1051C529.013 90.9669 527.119 91.3977 524.96 91.3977ZM556.039 85.5455V84.0114C556.039 82.8466 556.285 81.7765 556.778 80.8011C557.28 79.8163 558.004 79.0303 558.951 78.4432C559.907 77.8466 561.072 77.5483 562.445 77.5483C563.837 77.5483 565.007 77.8419 565.954 78.429C566.91 79.0161 567.63 79.8021 568.113 80.7869C568.605 81.7623 568.852 82.8371 568.852 84.0114V85.5455C568.852 86.7102 568.605 87.785 568.113 88.7699C567.621 89.7453 566.896 90.5265 565.94 91.1136C564.983 91.7102 563.818 92.0085 562.445 92.0085C561.053 92.0085 559.884 91.7102 558.937 91.1136C557.99 90.5265 557.27 89.7453 556.778 88.7699C556.285 87.785 556.039 86.7102 556.039 85.5455ZM560.173 84.0114V85.5455C560.173 86.2178 560.334 86.8523 560.656 87.4489C560.987 88.0455 561.584 88.3438 562.445 88.3438C563.307 88.3438 563.894 88.0502 564.207 87.4631C564.529 86.8759 564.69 86.2367 564.69 85.5455V84.0114C564.69 83.3201 564.538 82.6761 564.235 82.0795C563.932 81.483 563.335 81.1847 562.445 81.1847C561.593 81.1847 561.001 81.483 560.67 82.0795C560.338 82.6761 560.173 83.3201 560.173 84.0114ZM541.11 68.8977V67.3636C541.11 66.1894 541.361 65.1146 541.863 64.1392C542.365 63.1544 543.089 62.3684 544.036 61.7812C544.993 61.1941 546.148 60.9006 547.502 60.9006C548.904 60.9006 550.078 61.1941 551.025 61.7812C551.972 62.3684 552.692 63.1544 553.184 64.1392C553.676 65.1146 553.923 66.1894 553.923 67.3636V68.8977C553.923 70.072 553.672 71.1468 553.17 72.1222C552.677 73.0975 551.953 73.8788 550.996 74.4659C550.049 75.0436 548.885 75.3324 547.502 75.3324C546.12 75.3324 544.95 75.0388 543.994 74.4517C543.047 73.8551 542.327 73.0739 541.835 72.108C541.352 71.1326 541.11 70.0625 541.11 68.8977ZM545.272 67.3636V68.8977C545.272 69.589 545.433 70.2282 545.755 70.8153C546.086 71.4025 546.669 71.696 547.502 71.696C548.373 71.696 548.965 71.4025 549.278 70.8153C549.6 70.2282 549.761 69.589 549.761 68.8977V67.3636C549.761 66.6723 549.609 66.0284 549.306 65.4318C549.003 64.8352 548.402 64.5369 547.502 64.5369C546.659 64.5369 546.077 64.84 545.755 65.446C545.433 66.0521 545.272 66.6913 545.272 67.3636ZM542.985 91L562.985 61.9091H566.707L546.707 91H542.985Z" fill="#EF5862"/>
<path d="M88.3717 248.175C87.9562 253.337 87.734 258.532 87.7093 263.748L88.2093 263.751C88.2078 264.075 88.207 264.399 88.207 264.724H90.5475C90.5475 264.403 90.5482 264.083 90.5497 263.762L91.0497 263.765C91.074 258.637 91.2924 253.53 91.7009 248.455L91.2025 248.414C91.2539 247.776 91.3082 247.138 91.3656 246.501L91.8636 246.546C92.3229 241.443 92.9744 236.373 93.8138 231.347L93.3206 231.265C93.4261 230.633 93.5346 230.002 93.646 229.371L94.1384 229.458C95.0296 224.417 96.1102 219.421 97.3759 214.481L96.8915 214.356C97.0504 213.736 97.2123 213.117 97.377 212.498L97.8602 212.627C99.1769 207.683 100.68 202.797 102.364 197.98L101.892 197.815C102.103 197.211 102.317 196.607 102.534 196.005L103.005 196.174C104.738 191.365 106.653 186.625 108.745 181.967L108.289 181.762C108.551 181.178 108.816 180.595 109.084 180.014L109.538 180.223C111.676 175.582 113.991 171.025 116.478 166.561L116.041 166.317C116.353 165.758 116.667 165.2 116.984 164.644L117.418 164.891C119.946 160.456 122.645 156.115 125.512 151.879L125.097 151.599C125.456 151.069 125.818 150.54 126.182 150.013L126.593 150.298C129.493 146.101 132.558 142.011 135.785 138.037L135.397 137.722C135.8 137.225 136.206 136.73 136.615 136.237L137 136.556C140.251 132.631 143.661 128.824 147.227 125.144L146.868 124.796C147.09 124.566 147.314 124.337 147.538 124.108C147.759 123.882 147.981 123.656 148.203 123.432L148.559 123.783C152.116 120.182 155.795 116.736 159.586 113.449L159.259 113.071C159.736 112.658 160.215 112.246 160.696 111.837L161.02 112.218C164.872 108.943 168.837 105.831 172.905 102.884L172.611 102.479C173.123 102.109 173.636 101.741 174.151 101.375L174.44 101.783C178.56 98.8596 182.782 96.1053 187.097 93.5246L186.84 93.0956C187.382 92.7714 187.926 92.4499 188.471 92.1312L188.723 92.5628C193.079 90.0145 197.527 87.642 202.056 85.4497L201.839 84.9997C202.407 84.7245 202.977 84.4521 203.548 84.1826L203.762 84.6347C208.322 82.4824 212.962 80.5118 217.671 78.7273L217.494 78.2598C218.085 78.036 218.676 77.8152 219.269 77.5973L219.442 78.0666C224.17 76.3281 228.967 74.7765 233.821 73.4162L233.686 72.9348C234.294 72.7644 234.902 72.597 235.512 72.4327L235.642 72.9154C240.502 71.6054 245.418 70.4866 250.378 69.5637L250.287 69.0721C250.908 68.9566 251.529 68.8442 252.151 68.7348L252.238 69.2273C257.19 68.3567 262.185 67.681 267.214 67.2046L267.167 66.7068C267.795 66.6472 268.424 66.5908 269.053 66.5375L269.096 67.0357C274.1 66.6116 279.136 66.3849 284.193 66.3597L284.19 65.8597C284.506 65.8582 284.823 65.8574 285.139 65.8574C285.455 65.8574 285.771 65.8582 286.087 65.8597L286.084 66.3597C291.141 66.3849 296.177 66.6116 301.182 67.0357L301.224 66.5375C301.853 66.5908 302.482 66.6472 303.111 66.7068L303.064 67.2046C308.092 67.681 313.088 68.3568 318.04 69.2273L318.126 68.7348C318.748 68.8442 319.37 68.9566 319.991 69.0721L319.899 69.5637C324.86 70.4866 329.775 71.6054 334.635 72.9154L334.765 72.4327C335.375 72.597 335.984 72.7644 336.592 72.9348L336.457 73.4162C341.311 74.7765 346.107 76.3281 350.836 78.0666L351.008 77.5973C351.601 77.8152 352.193 78.036 352.783 78.2598L352.606 78.7273C357.316 80.5118 361.956 82.4824 366.516 84.6347L366.729 84.1826C367.3 84.4521 367.87 84.7245 368.439 84.9997L368.221 85.4497C372.75 87.642 377.198 90.0146 381.554 92.5628L381.807 92.1312C382.352 92.4499 382.895 92.7714 383.437 93.0956L383.18 93.5247C387.495 96.1053 391.717 98.8596 395.837 101.783L396.126 101.375C396.641 101.741 397.154 102.109 397.666 102.479L397.373 102.884C401.44 105.831 405.405 108.943 409.257 112.218L409.581 111.838C410.062 112.246 410.541 112.658 411.019 113.072L410.691 113.449C414.482 116.736 418.162 120.182 421.719 123.783L422.074 123.432C422.297 123.656 422.518 123.882 422.739 124.108C422.963 124.337 423.187 124.566 423.41 124.796L423.051 125.144C426.616 128.824 430.026 132.631 433.277 136.556L433.663 136.237C434.071 136.73 434.477 137.225 434.881 137.722L434.492 138.037C437.719 142.011 440.785 146.101 443.684 150.298L444.096 150.013C444.46 150.54 444.821 151.069 445.18 151.599L444.766 151.879C447.632 156.115 450.331 160.456 452.859 164.891L453.293 164.644C453.61 165.2 453.925 165.758 454.236 166.317L453.799 166.561C456.287 171.025 458.601 175.582 460.739 180.223L461.193 180.014C461.461 180.595 461.726 181.178 461.988 181.762L461.532 181.967C463.625 186.625 465.539 191.365 467.273 196.175L467.743 196.005C467.96 196.607 468.174 197.211 468.386 197.815L467.914 197.98C469.598 202.797 471.1 207.683 472.417 212.627L472.9 212.498C473.065 213.117 473.227 213.736 473.386 214.356L472.901 214.481C474.167 219.421 475.248 224.417 476.139 229.459L476.631 229.371C476.743 230.002 476.851 230.633 476.957 231.265L476.464 231.347C477.303 236.373 477.954 241.443 478.414 246.546L478.912 246.501C478.969 247.138 479.023 247.776 479.075 248.415L478.577 248.455C478.985 253.53 479.203 258.637 479.228 263.765L479.728 263.762C479.729 264.083 479.73 264.403 479.73 264.724H482.07C482.07 264.399 482.07 264.075 482.068 263.751L482.568 263.748C482.543 258.532 482.321 253.337 481.906 248.175L481.407 248.215C481.355 247.569 481.3 246.923 481.242 246.278L481.74 246.233C481.273 241.042 480.61 235.885 479.756 230.772L479.263 230.855C479.156 230.215 479.047 229.577 478.934 228.939L479.426 228.852C478.52 223.723 477.42 218.641 476.133 213.616L475.649 213.74C475.488 213.112 475.324 212.485 475.157 211.859L475.64 211.73C474.301 206.702 472.772 201.732 471.059 196.832L470.587 196.997C470.373 196.385 470.157 195.774 469.937 195.164L470.407 194.995C468.644 190.102 466.696 185.281 464.568 180.542L464.112 180.747C463.847 180.156 463.578 179.566 463.307 178.978L463.761 178.769C461.587 174.048 459.232 169.412 456.702 164.871L456.265 165.114C455.95 164.548 455.632 163.984 455.311 163.421L455.746 163.173C453.174 158.661 450.429 154.246 447.513 149.937L447.099 150.218C446.736 149.681 446.37 149.146 446.002 148.613L446.413 148.328C443.463 144.06 440.345 139.899 437.063 135.857L436.675 136.172C436.266 135.67 435.855 135.168 435.442 134.669L435.827 134.35C432.52 130.358 429.051 126.485 425.424 122.742L425.065 123.09C424.941 122.962 424.817 122.835 424.693 122.707C424.591 122.602 424.489 122.498 424.387 122.393C424.163 122.164 423.938 121.936 423.714 121.709L424.069 121.357C420.451 117.695 416.708 114.189 412.852 110.846L412.524 111.224C412.041 110.805 411.556 110.388 411.07 109.975L411.394 109.594C407.475 106.262 403.442 103.096 399.304 100.099L399.011 100.504C398.493 100.129 397.974 99.7563 397.453 99.3865L397.742 98.9788C393.552 96.005 389.257 93.2033 384.868 90.5782L384.611 91.0073C384.063 90.6792 383.513 90.3539 382.961 90.0314L383.214 89.5998C378.782 87.0077 374.258 84.5944 369.651 82.3643L369.433 82.8144C368.858 82.5359 368.281 82.2602 367.703 81.9874L367.916 81.5353C363.278 79.346 358.558 77.3414 353.767 75.5262L353.59 75.9938C352.992 75.7674 352.394 75.5439 351.794 75.3234L351.967 74.8541C347.157 73.0857 342.278 71.5073 337.34 70.1237L337.205 70.6052C336.59 70.4328 335.974 70.2634 335.357 70.0971L335.487 69.6143C330.544 68.2817 325.543 67.1437 320.497 66.2049L320.406 66.6964C319.778 66.5796 319.149 66.4658 318.519 66.3551L318.606 65.8626C313.569 64.9772 308.487 64.2898 303.372 63.8051L303.325 64.3029C302.689 64.2426 302.053 64.1855 301.416 64.1316L301.458 63.6333C296.367 63.202 291.245 62.9713 286.101 62.9458L286.098 63.4457C285.778 63.4442 285.459 63.4434 285.139 63.4434C284.819 63.4434 284.499 63.4442 284.179 63.4457L284.177 62.9458C279.033 62.9713 273.91 63.202 268.819 63.6333L268.862 64.1316C268.225 64.1855 267.588 64.2426 266.952 64.3029L266.905 63.8051C261.79 64.2898 256.709 64.9772 251.672 65.8626L251.758 66.3551C251.129 66.4658 250.5 66.5795 249.871 66.6964L249.78 66.2049C244.734 67.1437 239.734 68.2817 234.79 69.6143L234.921 70.0971C234.304 70.2634 233.688 70.4328 233.072 70.6052L232.937 70.1237C228 71.5073 223.121 73.0857 218.311 74.8541L218.483 75.3234C217.884 75.5439 217.285 75.7674 216.687 75.9938L216.51 75.5262C211.72 77.3414 207 79.346 202.361 81.5353L202.574 81.9874C201.996 82.2602 201.42 82.5359 200.844 82.8144L200.627 82.3643C196.02 84.5944 191.495 87.0077 187.064 89.5998L187.316 90.0314C186.765 90.3539 186.215 90.6792 185.666 91.0073L185.41 90.5782C181.021 93.2033 176.726 96.005 172.535 98.9788L172.825 99.3865C172.303 99.7563 171.784 100.129 171.266 100.504L170.973 100.099C166.835 103.096 162.802 106.262 158.884 109.594L159.208 109.975C158.721 110.388 158.236 110.805 157.753 111.224L157.426 110.846C153.569 114.189 149.826 117.695 146.208 121.357L146.564 121.709C146.339 121.936 146.115 122.164 145.891 122.393C145.664 122.625 145.438 122.857 145.212 123.09L144.853 122.742C141.226 126.485 137.757 130.358 134.45 134.35L134.835 134.669C134.422 135.168 134.011 135.669 133.603 136.172L133.214 135.857C129.932 139.899 126.814 144.059 123.864 148.328L124.276 148.613C123.907 149.146 123.542 149.681 123.178 150.218L122.764 149.937C119.849 154.246 117.103 158.661 114.532 163.173L114.966 163.421C114.645 163.984 114.327 164.548 114.012 165.114L113.575 164.871C111.045 169.412 108.691 174.048 106.516 178.768L106.97 178.978C106.699 179.566 106.431 180.156 106.165 180.747L105.709 180.542C103.581 185.281 101.633 190.102 99.8701 194.995L100.34 195.164C100.121 195.774 99.9039 196.385 99.69 196.997L99.218 196.832C97.5049 201.732 95.9764 206.702 94.637 211.73L95.1201 211.859C94.9534 212.485 94.7896 213.112 94.6287 213.74L94.1444 213.616C92.8569 218.641 91.7577 223.723 90.8512 228.852L91.3435 228.939C91.2307 229.577 91.1209 230.215 91.0142 230.855L90.521 230.772C89.6671 235.885 89.0044 241.042 88.5372 246.233L89.0352 246.278C88.9771 246.923 88.9221 247.568 88.8701 248.215L88.3717 248.175Z" stroke="#7A7A7A" stroke-dasharray="2 16"/>
<g filter="url(#filter11_f_228_314)">
<ellipse cx="283.037" cy="205.685" rx="90" ry="50" transform="rotate(1.07834 283.037 205.685)" fill="#A575CA" fill-opacity="0.3"/>
</g>
<path d="M516.288 271.933C524.73 271.383 531.192 264.119 530.246 255.712C524.39 203.667 504.04 154.542 471.657 114.755C439.786 75.5985 397.85 47.4404 351.204 33.623C342.393 31.013 333.533 36.8739 331.782 45.895C330.092 54.6042 335.682 63.0074 344.172 65.5798C384.513 77.8017 420.766 102.298 448.385 136.23C476.289 170.514 493.986 212.719 499.42 257.486C500.451 265.975 507.754 272.489 516.288 271.933Z" fill="url(#paint5_linear_228_314)"/>
<path d="M326.52 44.6616C328.15 35.8906 322.458 27.3705 313.617 26.1706C284.132 22.1684 254.158 23.7037 225.107 30.7511C190.836 39.0647 158.617 54.8625 130.547 77.1161C102.477 99.3697 79.1853 127.58 62.1884 159.911C47.5734 187.712 37.8942 218.023 33.5779 249.366C32.4078 257.863 38.7856 265.38 47.3291 266.141C55.9723 266.911 63.5349 260.477 64.7967 251.892C68.7159 225.226 77.0759 199.45 89.5318 175.757C104.41 147.456 124.797 122.763 149.367 103.284C173.938 83.8049 202.14 69.9768 232.138 62.6997C256.72 56.7365 282.056 55.282 307.032 58.3563C316.119 59.4748 324.848 53.6627 326.52 44.6616Z" fill="url(#paint6_linear_228_314)"/>
<path d="M248.254 179.55H253.804V183.7C253.804 193 249.654 201.15 240.554 204.2L237.104 198.85C245.004 196.3 248.254 190.05 248.254 183.7V179.55ZM249.654 179.55H255.004V183.4C255.004 189.55 258.004 195.25 265.354 197.6L261.904 202.8C253.354 199.85 249.654 192.4 249.654 183.4V179.55ZM269.604 177.15H276.254V204.25H269.604V177.15ZM260.554 205.45C270.354 205.45 276.404 208.8 276.404 214.45C276.404 220.15 270.354 223.45 260.554 223.45C250.754 223.45 244.704 220.15 244.704 214.45C244.704 208.8 250.754 205.45 260.554 205.45ZM260.554 210.6C254.554 210.6 251.354 211.85 251.354 214.45C251.354 217.05 254.554 218.35 260.554 218.35C266.604 218.35 269.804 217.05 269.804 214.45C269.804 211.85 266.604 210.6 260.554 210.6ZM261.154 185.55H270.554V190.95H261.154V185.55ZM315.25 177.1H321.95V223.55H315.25V177.1ZM285.8 180.8H292.4V192.05H301.95V180.8H308.55V212.75H285.8V180.8ZM292.4 197.2V207.4H301.95V197.2H292.4Z" fill="#5B586C"/>
<defs>
<filter id="filter0_i_228_314" x="625" y="41" width="40" height="207" filterUnits="userSpaceOnUse" color-interpolation-filters="sRGB">
<feFlood flood-opacity="0" result="BackgroundImageFix"/>
<feBlend mode="normal" in="SourceGraphic" in2="BackgroundImageFix" result="shape"/>
<feColorMatrix in="SourceAlpha" type="matrix" values="0 0 0 0 0 0 0 0 0 0 0 0 0 0 0 0 0 0 127 0" result="hardAlpha"/>
<feOffset dy="4"/>
<feGaussianBlur stdDeviation="2"/>
<feComposite in2="hardAlpha" operator="arithmetic" k2="-1" k3="1"/>
<feColorMatrix type="matrix" values="0 0 0 0 0 0 0 0 0 0 0 0 0 0 0 0 0 0 0.25 0"/>
<feBlend mode="normal" in2="shape" result="effect1_innerShadow_228_314"/>
</filter>
<filter id="filter1_i_228_314" x="696" y="41" width="40" height="207" filterUnits="userSpaceOnUse" color-interpolation-filters="sRGB">
<feFlood flood-opacity="0" result="BackgroundImageFix"/>
<feBlend mode="normal" in="SourceGraphic" in2="BackgroundImageFix" result="shape"/>
<feColorMatrix in="SourceAlpha" type="matrix" values="0 0 0 0 0 0 0 0 0 0 0 0 0 0 0 0 0 0 127 0" result="hardAlpha"/>
<feOffset dy="4"/>
<feGaussianBlur stdDeviation="2"/>
<feComposite in2="hardAlpha" operator="arithmetic" k2="-1" k3="1"/>
<feColorMatrix type="matrix" values="0 0 0 0 0 0 0 0 0 0 0 0 0 0 0 0 0 0 0.25 0"/>
<feBlend mode="normal" in2="shape" result="effect1_innerShadow_228_314"/>
</filter>
<filter id="filter2_i_228_314" x="767" y="41" width="40" height="207" filterUnits="userSpaceOnUse" color-interpolation-filters="sRGB">
<feFlood flood-opacity="0" result="BackgroundImageFix"/>
<feBlend mode="normal" in="SourceGraphic" in2="BackgroundImageFix" result="shape"/>
<feColorMatrix in="SourceAlpha" type="matrix" values="0 0 0 0 0 0 0 0 0 0 0 0 0 0 0 0 0 0 127 0" result="hardAlpha"/>
<feOffset dy="4"/>
<feGaussianBlur stdDeviation="2"/>
<feComposite in2="hardAlpha" operator="arithmetic" k2="-1" k3="1"/>
<feColorMatrix type="matrix" values="0 0 0 0 0 0 0 0 0 0 0 0 0 0 0 0 0 0 0.25 0"/>
<feBlend mode="normal" in2="shape" result="effect1_innerShadow_228_314"/>
</filter>
<filter id="filter3_i_228_314" x="838" y="41" width="40" height="207" filterUnits="userSpaceOnUse" color-interpolation-filters="sRGB">
<feFlood flood-opacity="0" result="BackgroundImageFix"/>
<feBlend mode="normal" in="SourceGraphic" in2="BackgroundImageFix" result="shape"/>
<feColorMatrix in="SourceAlpha" type="matrix" values="0 0 0 0 0 0 0 0 0 0 0 0 0 0 0 0 0 0 127 0" result="hardAlpha"/>
<feOffset dy="4"/>
<feGaussianBlur stdDeviation="2"/>
<feComposite in2="hardAlpha" operator="arithmetic" k2="-1" k3="1"/>
<feColorMatrix type="matrix" values="0 0 0 0 0 0 0 0 0 0 0 0 0 0 0 0 0 0 0.25 0"/>
<feBlend mode="normal" in2="shape" result="effect1_innerShadow_228_314"/>
</filter>
<filter id="filter4_i_228_314" x="909" y="41" width="40" height="207" filterUnits="userSpaceOnUse" color-interpolation-filters="sRGB">
<feFlood flood-opacity="0" result="BackgroundImageFix"/>
<feBlend mode="normal" in="SourceGraphic" in2="BackgroundImageFix" result="shape"/>
<feColorMatrix in="SourceAlpha" type="matrix" values="0 0 0 0 0 0 0 0 0 0 0 0 0 0 0 0 0 0 127 0" result="hardAlpha"/>
<feOffset dy="4"/>
<feGaussianBlur stdDeviation="2"/>
<feComposite in2="hardAlpha" operator="arithmetic" k2="-1" k3="1"/>
<feColorMatrix type="matrix" values="0 0 0 0 0 0 0 0 0 0 0 0 0 0 0 0 0 0 0.25 0"/>
<feBlend mode="normal" in2="shape" result="effect1_innerShadow_228_314"/>
</filter>
<filter id="filter5_i_228_314" x="980" y="41" width="40" height="207" filterUnits="userSpaceOnUse" color-interpolation-filters="sRGB">
<feFlood flood-opacity="0" result="BackgroundImageFix"/>
<feBlend mode="normal" in="SourceGraphic" in2="BackgroundImageFix" result="shape"/>
<feColorMatrix in="SourceAlpha" type="matrix" values="0 0 0 0 0 0 0 0 0 0 0 0 0 0 0 0 0 0 127 0" result="hardAlpha"/>
<feOffset dy="4"/>
<feGaussianBlur stdDeviation="2"/>
<feComposite in2="hardAlpha" operator="arithmetic" k2="-1" k3="1"/>
<feColorMatrix type="matrix" values="0 0 0 0 0 0 0 0 0 0 0 0 0 0 0 0 0 0 0.25 0"/>
<feBlend mode="normal" in2="shape" result="effect1_innerShadow_228_314"/>
</filter>
<filter id="filter6_d_228_314" x="621" y="224" width="48" height="24" filterUnits="userSpaceOnUse" color-interpolation-filters="sRGB">
<feFlood flood-opacity="0" result="BackgroundImageFix"/>
<feColorMatrix in="SourceAlpha" type="matrix" values="0 0 0 0 0 0 0 0 0 0 0 0 0 0 0 0 0 0 127 0" result="hardAlpha"/>
<feOffset/>
<feGaussianBlur stdDeviation="2"/>
<feComposite in2="hardAlpha" operator="out"/>
<feColorMatrix type="matrix" values="0 0 0 0 0 0 0 0 0 0 0 0 0 0 0 0 0 0 0.25 0"/>
<feBlend mode="normal" in2="BackgroundImageFix" result="effect1_dropShadow_228_314"/>
<feBlend mode="normal" in="SourceGraphic" in2="effect1_dropShadow_228_314" result="shape"/>
</filter>
<filter id="filter7_d_228_314" x="763" y="224" width="48" height="24" filterUnits="userSpaceOnUse" color-interpolation-filters="sRGB">
<feFlood flood-opacity="0" result="BackgroundImageFix"/>
<feColorMatrix in="SourceAlpha" type="matrix" values="0 0 0 0 0 0 0 0 0 0 0 0 0 0 0 0 0 0 127 0" result="hardAlpha"/>
<feOffset/>
<feGaussianBlur stdDeviation="2"/>
<feComposite in2="hardAlpha" operator="out"/>
<feColorMatrix type="matrix" values="0 0 0 0 0 0 0 0 0 0 0 0 0 0 0 0 0 0 0.25 0"/>
<feBlend mode="normal" in2="BackgroundImageFix" result="effect1_dropShadow_228_314"/>
<feBlend mode="normal" in="SourceGraphic" in2="effect1_dropShadow_228_314" result="shape"/>
</filter>
<filter id="filter8_d_228_314" x="834" y="224" width="48" height="24" filterUnits="userSpaceOnUse" color-interpolation-filters="sRGB">
<feFlood flood-opacity="0" result="BackgroundImageFix"/>
<feColorMatrix in="SourceAlpha" type="matrix" values="0 0 0 0 0 0 0 0 0 0 0 0 0 0 0 0 0 0 127 0" result="hardAlpha"/>
<feOffset/>
<feGaussianBlur stdDeviation="2"/>
<feComposite in2="hardAlpha" operator="out"/>
<feColorMatrix type="matrix" values="0 0 0 0 0 0 0 0 0 0 0 0 0 0 0 0 0 0 0.25 0"/>
<feBlend mode="normal" in2="BackgroundImageFix" result="effect1_dropShadow_228_314"/>
<feBlend mode="normal" in="SourceGraphic" in2="effect1_dropShadow_228_314" result="shape"/>
</filter>
<filter id="filter9_d_228_314" x="976" y="233" width="48" height="15" filterUnits="userSpaceOnUse" color-interpolation-filters="sRGB">
<feFlood flood-opacity="0" result="BackgroundImageFix"/>
<feColorMatrix in="SourceAlpha" type="matrix" values="0 0 0 0 0 0 0 0 0 0 0 0 0 0 0 0 0 0 127 0" result="hardAlpha"/>
<feOffset/>
<feGaussianBlur stdDeviation="2"/>
<feComposite in2="hardAlpha" operator="out"/>
<feColorMatrix type="matrix" values="0 0 0 0 0 0 0 0 0 0 0 0 0 0 0 0 0 0 0.25 0"/>
<feBlend mode="normal" in2="BackgroundImageFix" result="effect1_dropShadow_228_314"/>
<feBlend mode="normal" in="SourceGraphic" in2="effect1_dropShadow_228_314" result="shape"/>
</filter>
<filter id="filter10_d_228_314" x="692" y="92" width="48" height="156" filterUnits="userSpaceOnUse" color-interpolation-filters="sRGB">
<feFlood flood-opacity="0" result="BackgroundImageFix"/>
<feColorMatrix in="SourceAlpha" type="matrix" values="0 0 0 0 0 0 0 0 0 0 0 0 0 0 0 0 0 0 127 0" result="hardAlpha"/>
<feOffset/>
<feGaussianBlur stdDeviation="2"/>
<feComposite in2="hardAlpha" operator="out"/>
<feColorMatrix type="matrix" values="0 0 0 0 0 0 0 0 0 0 0 0 0 0 0 0 0 0 0.25 0"/>
<feBlend mode="normal" in2="BackgroundImageFix" result="effect1_dropShadow_228_314"/>
<feBlend mode="normal" in="SourceGraphic" in2="effect1_dropShadow_228_314" result="shape"/>
</filter>
<filter id="filter11_f_228_314" x="113.048" y="75.6646" width="339.979" height="260.041" filterUnits="userSpaceOnUse" color-interpolation-filters="sRGB">
<feFlood flood-opacity="0" result="BackgroundImageFix"/>
<feBlend mode="normal" in="SourceGraphic" in2="BackgroundImageFix" result="shape"/>
<feGaussianBlur stdDeviation="40" result="effect1_foregroundBlur_228_314"/>
</filter>
<linearGradient id="paint0_linear_228_314" x1="645" y1="45.5" x2="634.095" y2="239.401" gradientUnits="userSpaceOnUse">
<stop stop-color="#EB6B92" stop-opacity="0.38"/>
<stop offset="1" stop-color="#EB6B92"/>
</linearGradient>
<linearGradient id="paint1_linear_228_314" x1="787" y1="45.5" x2="776.095" y2="239.401" gradientUnits="userSpaceOnUse">
<stop stop-color="#EB6B92" stop-opacity="0.38"/>
<stop offset="1" stop-color="#EB6B92"/>
</linearGradient>
<linearGradient id="paint2_linear_228_314" x1="858" y1="45.5" x2="847.095" y2="239.401" gradientUnits="userSpaceOnUse">
<stop stop-color="#EB6B92" stop-opacity="0.38"/>
<stop offset="1" stop-color="#EB6B92"/>
</linearGradient>
<linearGradient id="paint3_linear_228_314" x1="1000" y1="157.156" x2="997.907" y2="242.205" gradientUnits="userSpaceOnUse">
<stop stop-color="#EB6B92" stop-opacity="0.38"/>
<stop offset="1" stop-color="#EB6B92"/>
</linearGradient>
<linearGradient id="paint4_linear_228_314" x1="716" y1="96" x2="717.42" y2="207.512" gradientUnits="userSpaceOnUse">
<stop stop-color="#EB6B92" stop-opacity="0.38"/>
<stop offset="1" stop-color="#EB6B92"/>
</linearGradient>
<linearGradient id="paint5_linear_228_314" x1="49.5" y1="271.5" x2="519" y2="270" gradientUnits="userSpaceOnUse">
<stop stop-color="#777CF0"/>
<stop offset="1" stop-color="#F05862"/>
</linearGradient>
<linearGradient id="paint6_linear_228_314" x1="532" y1="372" x2="54.3751" y2="240.793" gradientUnits="userSpaceOnUse">
<stop stop-color="#EB6B92"/>
<stop offset="1" stop-color="#777CF0"/>
</linearGradient>
</defs>
</svg>
