<svg width="1048" height="546" viewBox="0 0 1048 546" fill="none" xmlns="http://www.w3.org/2000/svg">
<path d="M22.7571 61.5455V87H17.3753V66.6538H17.2262L11.397 70.3079V65.5352L17.6985 61.5455H22.7571ZM38.1037 87.348C36.3471 87.348 34.7811 87.0249 33.4056 86.3786C32.0384 85.7322 30.9529 84.8415 30.1492 83.7063C29.3455 82.5711 28.927 81.2702 28.8939 79.8036H34.114C34.172 80.7897 34.5863 81.5893 35.3569 82.2024C36.1275 82.8156 37.0431 83.1222 38.1037 83.1222C38.9489 83.1222 39.6946 82.9357 40.341 82.5629C40.9955 82.1817 41.5051 81.6555 41.8697 80.9844C42.2426 80.3049 42.429 79.526 42.429 78.6477C42.429 77.7528 42.2384 76.9657 41.8573 76.2862C41.4844 75.6068 40.9665 75.0765 40.3037 74.6953C39.6408 74.3142 38.8826 74.1194 38.0292 74.1112C37.2834 74.1112 36.5584 74.2644 35.8541 74.571C35.1581 74.8776 34.6153 75.296 34.2259 75.8263L29.4407 74.9688L30.6464 61.5455H46.2074V65.9453H35.0835L34.4248 72.3214H34.5739C35.0214 71.6916 35.6967 71.1696 36.5998 70.7553C37.503 70.341 38.5139 70.1339 39.6325 70.1339C41.1654 70.1339 42.5326 70.4943 43.7341 71.2152C44.9355 71.9361 45.8843 72.9263 46.5803 74.1857C47.2763 75.4369 47.6202 76.8787 47.6119 78.511C47.6202 80.2262 47.2225 81.7508 46.4187 83.0849C45.6233 84.4106 44.5088 85.4547 43.0753 86.217C41.6501 86.971 39.9929 87.348 38.1037 87.348ZM65.2983 82.2273V80.8849C65.2983 79.8658 65.5138 78.9295 65.9446 78.076C66.3838 77.2143 67.0177 76.5265 67.8463 76.0128C68.6832 75.4908 69.7023 75.2298 70.9038 75.2298C72.1218 75.2298 73.1452 75.4866 73.9738 76.0004C74.8107 76.5141 75.4404 77.2018 75.863 78.0636C76.2938 78.917 76.5093 79.8575 76.5093 80.8849V82.2273C76.5093 83.2464 76.2938 84.1869 75.863 85.0487C75.4321 85.9021 74.7982 86.5857 73.9613 87.0994C73.1245 87.6214 72.1053 87.8825 70.9038 87.8825C69.6858 87.8825 68.6625 87.6214 67.8339 87.0994C67.0053 86.5857 66.3755 85.9021 65.9446 85.0487C65.5138 84.1869 65.2983 83.2464 65.2983 82.2273ZM68.9152 80.8849V82.2273C68.9152 82.8156 69.056 83.3707 69.3378 83.8928C69.6278 84.4148 70.1498 84.6758 70.9038 84.6758C71.6578 84.6758 72.1716 84.4189 72.445 83.9052C72.7267 83.3915 72.8676 82.8321 72.8676 82.2273V80.8849C72.8676 80.2801 72.735 79.7166 72.4699 79.1946C72.2047 78.6726 71.6827 78.4116 70.9038 78.4116C70.1581 78.4116 69.6402 78.6726 69.3502 79.1946C69.0602 79.7166 68.9152 80.2801 68.9152 80.8849ZM52.2355 67.6605V66.3182C52.2355 65.2907 52.4551 64.3503 52.8942 63.4968C53.3334 62.6351 53.9673 61.9473 54.7959 61.4336C55.6327 60.9199 56.6436 60.663 57.8285 60.663C59.0549 60.663 60.0823 60.9199 60.9109 61.4336C61.7395 61.9473 62.3692 62.6351 62.8001 63.4968C63.231 64.3503 63.4464 65.2907 63.4464 66.3182V67.6605C63.4464 68.688 63.2268 69.6284 62.7877 70.4819C62.3568 71.3353 61.7229 72.0189 60.8861 72.5327C60.0575 73.0381 59.0383 73.2908 57.8285 73.2908C56.6188 73.2908 55.5955 73.034 54.7586 72.5202C53.93 71.9982 53.3002 71.3146 52.8694 70.4695C52.4468 69.616 52.2355 68.6797 52.2355 67.6605ZM55.8772 66.3182V67.6605C55.8772 68.2654 56.018 68.8247 56.2998 69.3384C56.5898 69.8522 57.0994 70.109 57.8285 70.109C58.5908 70.109 59.1087 69.8522 59.3821 69.3384C59.6639 68.8247 59.8047 68.2654 59.8047 67.6605V66.3182C59.8047 65.7133 59.6722 65.1499 59.407 64.6278C59.1419 64.1058 58.6157 63.8448 57.8285 63.8448C57.0911 63.8448 56.5815 64.11 56.2998 64.6403C56.018 65.1706 55.8772 65.7299 55.8772 66.3182ZM53.8761 87L71.3761 61.5455H74.6325L57.1325 87H53.8761Z" fill="#777CF0"/>
<path d="M513.171 87.348C511.257 87.348 509.554 87.0373 508.062 86.4158C506.579 85.7861 505.415 84.9285 504.57 83.843C503.725 82.7576 503.302 81.5271 503.302 80.1516C503.302 79.091 503.542 78.1174 504.023 77.2308C504.512 76.3359 505.175 75.5943 506.012 75.006C506.849 74.4094 507.785 74.0283 508.821 73.8626V73.6886C507.462 73.4151 506.36 72.7564 505.515 71.7124C504.669 70.66 504.247 69.4379 504.247 68.0458C504.247 66.7283 504.632 65.5559 505.403 64.5284C506.173 63.4927 507.23 62.6806 508.572 62.0923C509.923 61.4957 511.456 61.1974 513.171 61.1974C514.886 61.1974 516.415 61.4957 517.757 62.0923C519.108 62.6889 520.168 63.5051 520.939 64.5408C521.709 65.5683 522.099 66.7366 522.107 68.0458C522.099 69.4461 521.668 70.6683 520.815 71.7124C519.961 72.7564 518.867 73.4151 517.533 73.6886V73.8626C518.553 74.0283 519.476 74.4094 520.305 75.006C521.142 75.5943 521.805 76.3359 522.294 77.2308C522.791 78.1174 523.044 79.091 523.052 80.1516C523.044 81.5271 522.617 82.7576 521.772 83.843C520.926 84.9285 519.758 85.7861 518.267 86.4158C516.783 87.0373 515.085 87.348 513.171 87.348ZM513.171 83.3956C514.024 83.3956 514.77 83.2423 515.408 82.9357C516.046 82.6209 516.543 82.19 516.899 81.6431C517.264 81.0879 517.446 80.4499 517.446 79.729C517.446 78.9916 517.26 78.3411 516.887 77.7777C516.514 77.206 516.009 76.7585 515.371 76.4354C514.733 76.1039 513.999 75.9382 513.171 75.9382C512.35 75.9382 511.617 76.1039 510.971 76.4354C510.325 76.7585 509.815 77.206 509.442 77.7777C509.077 78.3411 508.895 78.9916 508.895 79.729C508.895 80.4499 509.073 81.0879 509.43 81.6431C509.786 82.19 510.287 82.6209 510.934 82.9357C511.58 83.2423 512.326 83.3956 513.171 83.3956ZM513.171 72.0231C513.883 72.0231 514.517 71.8781 515.072 71.5881C515.628 71.2981 516.063 70.8962 516.377 70.3825C516.692 69.8687 516.85 69.2763 516.85 68.6051C516.85 67.9422 516.692 67.3622 516.377 66.8651C516.063 66.3596 515.632 65.966 515.085 65.6843C514.538 65.3943 513.9 65.2493 513.171 65.2493C512.45 65.2493 511.812 65.3943 511.257 65.6843C510.702 65.966 510.267 66.3596 509.952 66.8651C509.645 67.3622 509.492 67.9422 509.492 68.6051C509.492 69.2763 509.649 69.8687 509.964 70.3825C510.279 70.8962 510.714 71.2981 511.269 71.5881C511.824 71.8781 512.458 72.0231 513.171 72.0231ZM536.112 87.348C534.355 87.348 532.789 87.0249 531.413 86.3786C530.046 85.7322 528.961 84.8415 528.157 83.7063C527.353 82.5711 526.935 81.2702 526.902 79.8036H532.122C532.18 80.7897 532.594 81.5893 533.365 82.2024C534.135 82.8156 535.051 83.1222 536.112 83.1222C536.957 83.1222 537.702 82.9357 538.349 82.5629C539.003 82.1817 539.513 81.6555 539.878 80.9844C540.25 80.3049 540.437 79.526 540.437 78.6477C540.437 77.7528 540.246 76.9657 539.865 76.2862C539.492 75.6068 538.974 75.0765 538.311 74.6953C537.649 74.3142 536.89 74.1194 536.037 74.1112C535.291 74.1112 534.566 74.2644 533.862 74.571C533.166 74.8776 532.623 75.296 532.234 75.8263L527.449 74.9688L528.654 61.5455H544.215V65.9453H533.091L532.433 72.3214H532.582C533.029 71.6916 533.704 71.1696 534.608 70.7553C535.511 70.341 536.522 70.1339 537.64 70.1339C539.173 70.1339 540.54 70.4943 541.742 71.2152C542.943 71.9361 543.892 72.9263 544.588 74.1857C545.284 75.4369 545.628 76.8787 545.62 78.511C545.628 80.2262 545.23 81.7508 544.427 83.0849C543.631 84.4106 542.517 85.4547 541.083 86.217C539.658 86.971 538.001 87.348 536.112 87.348ZM563.306 82.2273V80.8849C563.306 79.8658 563.522 78.9295 563.952 78.076C564.392 77.2143 565.025 76.5265 565.854 76.0128C566.691 75.4908 567.71 75.2298 568.912 75.2298C570.13 75.2298 571.153 75.4866 571.982 76.0004C572.818 76.5141 573.448 77.2018 573.871 78.0636C574.302 78.917 574.517 79.8575 574.517 80.8849V82.2273C574.517 83.2464 574.302 84.1869 573.871 85.0487C573.44 85.9021 572.806 86.5857 571.969 87.0994C571.132 87.6214 570.113 87.8825 568.912 87.8825C567.694 87.8825 566.67 87.6214 565.842 87.0994C565.013 86.5857 564.383 85.9021 563.952 85.0487C563.522 84.1869 563.306 83.2464 563.306 82.2273ZM566.923 80.8849V82.2273C566.923 82.8156 567.064 83.3707 567.346 83.8928C567.636 84.4148 568.158 84.6758 568.912 84.6758C569.666 84.6758 570.179 84.4189 570.453 83.9052C570.735 83.3915 570.875 82.8321 570.875 82.2273V80.8849C570.875 80.2801 570.743 79.7166 570.478 79.1946C570.213 78.6726 569.691 78.4116 568.912 78.4116C568.166 78.4116 567.648 78.6726 567.358 79.1946C567.068 79.7166 566.923 80.2801 566.923 80.8849ZM550.243 67.6605V66.3182C550.243 65.2907 550.463 64.3503 550.902 63.4968C551.341 62.6351 551.975 61.9473 552.804 61.4336C553.641 60.9199 554.651 60.663 555.836 60.663C557.063 60.663 558.09 60.9199 558.919 61.4336C559.747 61.9473 560.377 62.6351 560.808 63.4968C561.239 64.3503 561.454 65.2907 561.454 66.3182V67.6605C561.454 68.688 561.235 69.6284 560.795 70.4819C560.365 71.3353 559.731 72.0189 558.894 72.5327C558.065 73.0381 557.046 73.2908 555.836 73.2908C554.627 73.2908 553.603 73.034 552.766 72.5202C551.938 71.9982 551.308 71.3146 550.877 70.4695C550.455 69.616 550.243 68.6797 550.243 67.6605ZM553.885 66.3182V67.6605C553.885 68.2654 554.026 68.8247 554.308 69.3384C554.598 69.8522 555.107 70.109 555.836 70.109C556.599 70.109 557.117 69.8522 557.39 69.3384C557.672 68.8247 557.813 68.2654 557.813 67.6605V66.3182C557.813 65.7133 557.68 65.1499 557.415 64.6278C557.15 64.1058 556.624 63.8448 555.836 63.8448C555.099 63.8448 554.589 64.11 554.308 64.6403C554.026 65.1706 553.885 65.7299 553.885 66.3182ZM551.884 87L569.384 61.5455H572.64L555.14 87H551.884Z" fill="#EF5862"/>
<path d="M90.2232 246.728C89.7943 251.865 89.5649 257.033 89.5395 262.224L90.0395 262.226C90.0379 262.549 90.0371 262.871 90.0371 263.194H92.4473C92.4473 262.875 92.448 262.556 92.4496 262.238L92.9496 262.24C92.9746 257.138 93.2001 252.057 93.6217 247.007L93.1235 246.965C93.1765 246.33 93.2326 245.695 93.2918 245.061L93.7897 245.108C94.2636 240.033 94.9356 234.991 95.8015 229.994L95.3088 229.908C95.4176 229.28 95.5295 228.653 95.6444 228.026L96.1362 228.117C97.0546 223.108 98.1679 218.145 99.4717 213.238L98.9884 213.11C99.1521 212.494 99.3187 211.879 99.4882 211.265L99.9702 211.398C101.325 206.494 102.87 201.648 104.602 196.87L104.131 196.7C104.349 196.101 104.569 195.503 104.792 194.906L105.26 195.081C107.039 190.319 109.003 185.628 111.149 181.017L110.696 180.806C110.964 180.228 111.236 179.652 111.511 179.076L111.962 179.292C114.15 174.708 116.517 170.207 119.061 165.798L118.628 165.548C118.946 164.996 119.267 164.446 119.591 163.897L120.022 164.151C122.6 159.78 125.353 155.503 128.275 151.33L127.865 151.043C128.23 150.521 128.598 150.001 128.969 149.482L129.376 149.773C132.324 145.648 135.439 141.628 138.717 137.722L138.334 137.4C138.743 136.913 139.155 136.427 139.57 135.942L139.949 136.267C143.243 132.419 146.696 128.685 150.305 125.075L149.952 124.722C150.177 124.496 150.403 124.271 150.63 124.047C150.858 123.821 151.086 123.596 151.315 123.371L151.665 123.728C155.328 120.135 159.118 116.697 163.024 113.419L162.703 113.036C163.194 112.624 163.687 112.214 164.182 111.807L164.5 112.193C168.458 108.936 172.533 105.842 176.714 102.914L176.427 102.504C176.953 102.137 177.479 101.772 178.008 101.409L178.291 101.821C182.515 98.9242 186.843 96.1957 191.267 93.6403L191.017 93.2074C191.572 92.8868 192.128 92.5689 192.686 92.2537L192.932 92.689C197.388 90.172 201.937 87.8292 206.569 85.6652L206.358 85.2122C206.939 84.941 207.521 84.6725 208.104 84.4068L208.311 84.8618C212.965 82.7421 217.7 80.8018 222.505 79.0454L222.334 78.5758C222.936 78.3558 223.539 78.1386 224.143 77.9244L224.31 78.3956C229.126 76.6877 234.011 75.1638 238.954 73.8282L238.824 73.3455C239.442 73.1783 240.062 73.0141 240.682 72.8529L240.808 73.3368C245.75 72.0524 250.748 70.9556 255.792 70.051L255.703 69.5589C256.334 69.4458 256.966 69.3356 257.598 69.2285L257.681 69.7215C262.711 68.8692 267.785 68.2076 272.893 67.7412L272.847 67.2433C273.485 67.185 274.124 67.1298 274.763 67.0776L274.803 67.576C279.884 67.1611 284.996 66.9392 290.129 66.9146L290.127 66.4146C290.447 66.4131 290.768 66.4123 291.089 66.4123C291.41 66.4123 291.731 66.4131 292.051 66.4146L292.049 66.9146C297.182 66.9392 302.294 67.1611 307.375 67.576L307.416 67.0776C308.055 67.1298 308.693 67.185 309.331 67.2433L309.286 67.7412C314.393 68.2076 319.467 68.8692 324.497 69.7215L324.58 69.2285C325.212 69.3356 325.844 69.4458 326.475 69.5589L326.386 70.051C331.43 70.9556 336.428 72.0524 341.37 73.3368L341.496 72.8529C342.116 73.0142 342.736 73.1783 343.354 73.3455L343.224 73.8282C348.167 75.1638 353.052 76.6877 357.868 78.3956L358.035 77.9244C358.639 78.1387 359.242 78.3558 359.844 78.5758L359.673 79.0454C364.478 80.8018 369.213 82.7421 373.867 84.8618L374.074 84.4068C374.658 84.6725 375.24 84.941 375.82 85.2123L375.609 85.6653C380.241 87.8292 384.79 90.172 389.246 92.689L389.492 92.2537C390.05 92.5689 390.606 92.8868 391.161 93.2074L390.911 93.6403C395.335 96.1958 399.664 98.9243 403.887 101.821L404.17 101.409C404.699 101.772 405.226 102.137 405.751 102.504L405.464 102.914C409.645 105.842 413.72 108.936 417.679 112.193L417.996 111.807C418.491 112.214 418.984 112.624 419.475 113.036L419.154 113.419C423.06 116.697 426.85 120.135 430.513 123.728L430.863 123.371C431.092 123.596 431.32 123.821 431.548 124.047C431.657 124.154 431.766 124.262 431.874 124.37C431.992 124.487 432.109 124.604 432.226 124.722L431.873 125.075C435.482 128.685 438.935 132.419 442.229 136.267L442.609 135.942C443.023 136.427 443.435 136.913 443.844 137.4L443.461 137.722C446.739 141.628 449.854 145.648 452.802 149.773L453.209 149.482C453.58 150.001 453.948 150.521 454.313 151.043L453.903 151.33C456.825 155.503 459.578 159.78 462.156 164.151L462.587 163.897C462.911 164.446 463.232 164.996 463.55 165.548L463.117 165.798C465.661 170.207 468.029 174.708 470.216 179.292L470.668 179.076C470.942 179.652 471.214 180.228 471.482 180.806L471.029 181.017C473.175 185.628 475.14 190.319 476.918 195.081L477.387 194.906C477.61 195.503 477.83 196.101 478.047 196.7L477.577 196.87C479.308 201.648 480.853 206.494 482.208 211.398L482.69 211.265C482.859 211.879 483.026 212.494 483.19 213.11L482.706 213.238C484.01 218.145 485.124 223.108 486.042 228.117L486.534 228.026C486.649 228.653 486.76 229.28 486.869 229.908L486.377 229.994C487.242 234.991 487.915 240.033 488.388 245.108L488.886 245.061C488.945 245.695 489.002 246.33 489.055 246.965L488.556 247.007C488.978 252.057 489.204 257.138 489.229 262.24L489.729 262.238C489.73 262.556 489.731 262.875 489.731 263.194H492.141C492.141 262.872 492.14 262.549 492.139 262.226L492.639 262.224C492.613 257.034 492.384 251.865 491.955 246.728L491.457 246.77C491.403 246.127 491.346 245.485 491.286 244.843L491.784 244.797C491.302 239.634 490.618 234.506 489.738 229.422L489.245 229.508C489.135 228.872 489.022 228.237 488.905 227.603L489.397 227.513C488.463 222.418 487.331 217.369 486.004 212.378L485.521 212.507C485.355 211.883 485.187 211.261 485.015 210.64L485.497 210.507C484.119 205.518 482.548 200.589 480.786 195.729L480.316 195.899C480.096 195.293 479.874 194.688 479.648 194.084L480.116 193.909C478.307 189.065 476.309 184.293 474.126 179.602L473.673 179.813C473.401 179.229 473.126 178.645 472.848 178.063L473.299 177.848C471.074 173.185 468.665 168.606 466.078 164.121L465.645 164.371C465.323 163.813 464.998 163.256 464.67 162.701L465.101 162.446C462.478 158.001 459.678 153.65 456.706 149.404L456.296 149.691C455.926 149.163 455.554 148.637 455.179 148.112L455.586 147.821C452.587 143.625 449.418 139.536 446.084 135.562L445.701 135.884C445.286 135.39 444.869 134.898 444.45 134.408L444.83 134.083C441.48 130.168 437.967 126.37 434.296 122.698L433.942 123.052C433.714 122.823 433.485 122.596 433.256 122.369C433.025 122.14 432.794 121.912 432.562 121.685L432.913 121.328C429.186 117.672 425.331 114.175 421.358 110.841L421.036 111.224C420.539 110.807 420.04 110.392 419.54 109.98L419.857 109.594C415.83 106.281 411.685 103.134 407.432 100.156L407.146 100.565C406.614 100.193 406.081 99.8233 405.546 99.4564L405.829 99.0441C401.532 96.0971 397.129 93.3216 392.629 90.7222L392.379 91.1552C391.817 90.8307 391.254 90.5089 390.689 90.1899L390.935 89.7545C386.403 87.1941 381.775 84.8111 377.063 82.6099L376.852 83.0629C376.264 82.7883 375.675 82.5165 375.084 82.2476L375.292 81.7926C370.558 79.6364 365.741 77.6627 360.853 75.8761L360.681 76.3457C360.072 76.123 359.462 75.9033 358.85 75.6864L359.017 75.2151C354.118 73.4778 349.149 71.9277 344.121 70.5691L343.991 71.0518C343.365 70.8826 342.738 70.7164 342.11 70.5532L342.236 70.0693C337.209 68.7627 332.125 67.6471 326.994 66.7269L326.906 67.2191C326.267 67.1046 325.628 66.9931 324.988 66.8847L325.072 66.3917C319.955 65.5247 314.794 64.8518 309.599 64.3773L309.553 64.8753C308.908 64.8163 308.261 64.7604 307.615 64.7076L307.655 64.2092C302.487 63.7872 297.287 63.5615 292.066 63.5365L292.063 64.0365C291.739 64.035 291.414 64.0342 291.089 64.0342C290.764 64.0342 290.44 64.035 290.115 64.0365L290.113 63.5365C284.891 63.5615 279.691 63.7872 274.523 64.2092L274.564 64.7076C273.917 64.7604 273.271 64.8163 272.625 64.8753L272.579 64.3773C267.384 64.8518 262.223 65.5247 257.106 66.3917L257.19 66.8847C256.55 66.9931 255.911 67.1046 255.273 67.2191L255.184 66.7269C250.054 67.6471 244.969 68.7627 239.942 70.0693L240.068 70.5532C239.44 70.7164 238.813 70.8826 238.187 71.0517L238.057 70.5691C233.029 71.9276 228.06 73.4778 223.161 75.2151L223.328 75.6864C222.716 75.9032 222.106 76.123 221.497 76.3457L221.325 75.8761C216.437 77.6627 211.62 79.6364 206.886 81.7926L207.094 82.2476C206.503 82.5165 205.914 82.7883 205.326 83.0629L205.115 82.6099C200.403 84.8111 195.775 87.1941 191.243 89.7545L191.489 90.1899C190.924 90.5089 190.361 90.8306 189.799 91.1551L189.549 90.7222C185.049 93.3216 180.646 96.097 176.349 99.044L176.632 99.4564C176.097 99.8233 175.564 100.193 175.033 100.565L174.746 100.156C170.493 103.134 166.348 106.281 162.321 109.594L162.639 109.98C162.138 110.392 161.639 110.807 161.142 111.224L160.82 110.841C156.847 114.175 152.992 117.672 149.266 121.328L149.616 121.685C149.384 121.912 149.153 122.14 148.922 122.368C148.693 122.596 148.464 122.823 148.236 123.052L147.882 122.698C144.211 126.37 140.699 130.168 137.348 134.083L137.728 134.408C137.309 134.898 136.892 135.39 136.477 135.884L136.094 135.562C132.76 139.535 129.591 143.625 126.593 147.821L126.999 148.112C126.624 148.636 126.252 149.163 125.882 149.691L125.473 149.404C122.5 153.65 119.7 158.001 117.078 162.446L117.508 162.701C117.181 163.256 116.856 163.813 116.533 164.371L116.1 164.121C113.513 168.606 111.104 173.185 108.879 177.848L109.33 178.063C109.052 178.645 108.777 179.229 108.505 179.813L108.052 179.602C105.869 184.293 103.871 189.065 102.062 193.909L102.53 194.084C102.304 194.688 102.082 195.293 101.862 195.899L101.392 195.729C99.6306 200.589 98.0587 205.518 96.6809 210.507L97.1629 210.64C96.9912 211.261 96.8226 211.883 96.657 212.507L96.1738 212.378C94.8476 217.369 93.7151 222.418 92.7809 227.513L93.2727 227.603C93.1564 228.237 93.0432 228.872 92.9331 229.508L92.4405 229.422C91.5597 234.506 90.8761 239.634 90.394 244.797L90.8919 244.843C90.8319 245.485 90.7751 246.127 90.7215 246.77L90.2232 246.728Z" stroke="#7A7A7A" stroke-dasharray="2 16"/>
<g filter="url(#filter0_f_323_332)">
<ellipse cx="91.8773" cy="49.4752" rx="91.8773" ry="49.4752" transform="matrix(0.999834 0.0182412 -0.0194159 0.999811 198.043 153.635)" fill="#A575CA" fill-opacity="0.3"/>
</g>
<path d="M526.877 270.58C535.531 270.034 542.162 262.584 541.144 253.973C535.267 204.238 515.592 157.183 484.33 118.552C449.813 75.8969 402.98 45.7465 350.672 32.5049C298.364 19.2633 243.323 23.6243 193.589 44.9509C148.512 64.2802 109.936 96.628 82.4079 137.951C77.6434 145.103 80.0452 154.658 87.3435 159.195C94.9321 163.913 104.875 161.401 109.92 154.026C133.902 118.964 167.063 91.4978 205.671 74.9421C249.205 56.2745 297.384 52.4572 343.17 64.0479C388.956 75.6385 429.95 102.03 460.164 139.366C487.096 172.648 504.204 213.071 509.642 255.843C510.741 264.492 518.177 271.13 526.877 270.58Z" fill="url(#paint0_linear_323_332)"/>
<path d="M79.895 164.143C72.1743 159.63 62.2067 162.302 58.3151 170.354C45.8121 196.223 37.6083 224.032 34.0405 252.643C32.9538 261.357 39.6385 268.933 48.4005 269.519C57.194 270.107 64.7374 263.431 65.9055 254.695C69.0921 230.866 75.9566 207.699 86.2439 186.057C89.9934 178.169 87.4351 168.551 79.895 164.143Z" fill="url(#paint1_linear_323_332)"/>
<path d="M254.254 179.55H259.804V183.7C259.804 193 255.654 201.15 246.554 204.2L243.104 198.85C251.004 196.3 254.254 190.05 254.254 183.7V179.55ZM255.654 179.55H261.004V183.4C261.004 189.55 264.004 195.25 271.354 197.6L267.904 202.8C259.354 199.85 255.654 192.4 255.654 183.4V179.55ZM275.604 177.15H282.254V204.25H275.604V177.15ZM266.554 205.45C276.354 205.45 282.404 208.8 282.404 214.45C282.404 220.15 276.354 223.45 266.554 223.45C256.754 223.45 250.704 220.15 250.704 214.45C250.704 208.8 256.754 205.45 266.554 205.45ZM266.554 210.6C260.554 210.6 257.354 211.85 257.354 214.45C257.354 217.05 260.554 218.35 266.554 218.35C272.604 218.35 275.804 217.05 275.804 214.45C275.804 211.85 272.604 210.6 266.554 210.6ZM267.154 185.55H276.554V190.95H267.154V185.55ZM321.25 177.1H327.95V223.55H321.25V177.1ZM291.8 180.8H298.4V192.05H307.95V180.8H314.55V212.75H291.8V180.8ZM298.4 197.2V207.4H307.95V197.2H298.4Z" fill="#5B586C"/>
<g filter="url(#filter1_i_323_332)">
<rect x="637" y="41" width="41" height="203" rx="10" fill="#F4F4F4"/>
</g>
<g filter="url(#filter2_i_323_332)">
<rect x="709" y="41" width="40" height="203" rx="10" fill="#F4F4F4"/>
</g>
<g filter="url(#filter3_i_323_332)">
<rect x="781" y="41" width="40" height="203" rx="10" fill="#F4F4F4"/>
</g>
<g filter="url(#filter4_d_323_332)">
<path d="M781 130H821V234C821 239.523 816.523 244 811 244H791C785.477 244 781 239.523 781 234V130Z" fill="url(#paint2_linear_323_332)" shape-rendering="crispEdges"/>
</g>
<g filter="url(#filter5_i_323_332)">
<rect x="853" y="41" width="40" height="203" rx="10" fill="#F4F4F4"/>
</g>
<g filter="url(#filter6_d_323_332)">
<path d="M853 216H893V234C893 239.523 888.523 244 883 244H863C857.477 244 853 239.523 853 234V216Z" fill="url(#paint3_linear_323_332)" shape-rendering="crispEdges"/>
</g>
<g filter="url(#filter7_i_323_332)">
<rect x="925" y="41" width="40" height="203" rx="10" fill="#F4F4F4"/>
</g>
<g filter="url(#filter8_i_323_332)">
<rect x="996" y="41" width="41" height="203" rx="10" fill="#F4F4F4"/>
</g>
<path d="M642.42 5.81818V24H638.576V9.46697H638.469L634.306 12.0771V8.66797L638.807 5.81818H642.42ZM653.87 24.3995C652.343 24.3936 651.029 24.0178 649.928 23.272C648.834 22.5263 647.99 21.4461 647.398 20.0316C646.812 18.6171 646.522 16.9155 646.528 14.9268C646.528 12.9441 646.821 11.2544 647.407 9.8576C647.999 8.46082 648.842 7.39844 649.937 6.67045C651.038 5.93655 652.349 5.5696 653.87 5.5696C655.391 5.5696 656.699 5.93655 657.794 6.67045C658.895 7.40436 659.741 8.4697 660.333 9.86648C660.925 11.2573 661.218 12.9441 661.212 14.9268C661.212 16.9214 660.916 18.6259 660.324 20.0405C659.738 21.455 658.898 22.5352 657.803 23.2809C656.708 24.0266 655.397 24.3995 653.87 24.3995ZM653.87 21.2124C654.912 21.2124 655.743 20.6886 656.365 19.641C656.986 18.5934 657.294 17.022 657.288 14.9268C657.288 13.5478 657.146 12.3996 656.862 11.4822C656.584 10.5649 656.187 9.87535 655.672 9.41371C655.163 8.95206 654.563 8.72124 653.87 8.72124C652.834 8.72124 652.006 9.23911 651.384 10.2749C650.763 11.3106 650.449 12.8613 650.443 14.9268C650.443 16.3236 650.582 17.4896 650.861 18.4247C651.145 19.3539 651.544 20.0523 652.059 20.5199C652.574 20.9815 653.178 21.2124 653.87 21.2124ZM673.905 20.5909V19.6321C673.905 18.9041 674.059 18.2353 674.367 17.6257C674.681 17.0102 675.133 16.5189 675.725 16.152C676.323 15.7791 677.051 15.5927 677.909 15.5927C678.779 15.5927 679.51 15.7762 680.102 16.1431C680.7 16.5101 681.15 17.0013 681.451 17.6168C681.759 18.2264 681.913 18.8982 681.913 19.6321V20.5909C681.913 21.3189 681.759 21.9906 681.451 22.6062C681.144 23.2158 680.691 23.7041 680.093 24.071C679.495 24.4439 678.767 24.6303 677.909 24.6303C677.039 24.6303 676.308 24.4439 675.716 24.071C675.124 23.7041 674.675 23.2158 674.367 22.6062C674.059 21.9906 673.905 21.3189 673.905 20.5909ZM676.489 19.6321V20.5909C676.489 21.0111 676.589 21.4077 676.791 21.7805C676.998 22.1534 677.371 22.3398 677.909 22.3398C678.448 22.3398 678.815 22.1564 679.01 21.7894C679.211 21.4225 679.312 21.023 679.312 20.5909V19.6321C679.312 19.2 679.217 18.7976 679.028 18.4247C678.838 18.0518 678.466 17.8654 677.909 17.8654C677.377 17.8654 677.007 18.0518 676.799 18.4247C676.592 18.7976 676.489 19.2 676.489 19.6321ZM664.575 10.1861V9.22727C664.575 8.49337 664.732 7.82161 665.045 7.212C665.359 6.59647 665.812 6.10523 666.403 5.73828C667.001 5.37133 667.723 5.18785 668.57 5.18785C669.446 5.18785 670.18 5.37133 670.771 5.73828C671.363 6.10523 671.813 6.59647 672.121 7.212C672.429 7.82161 672.582 8.49337 672.582 9.22727V10.1861C672.582 10.92 672.426 11.5917 672.112 12.2013C671.804 12.811 671.351 13.2992 670.754 13.6662C670.162 14.0272 669.434 14.2077 668.57 14.2077C667.706 14.2077 666.975 14.0243 666.377 13.6573C665.785 13.2844 665.335 12.7962 665.027 12.1925C664.726 11.5829 664.575 10.9141 664.575 10.1861ZM667.176 9.22727V10.1861C667.176 10.6181 667.276 11.0176 667.478 11.3846C667.685 11.7515 668.049 11.935 668.57 11.935C669.114 11.935 669.484 11.7515 669.679 11.3846C669.881 11.0176 669.981 10.6181 669.981 10.1861V9.22727C669.981 8.79522 669.887 8.39276 669.697 8.01989C669.508 7.64702 669.132 7.46058 668.57 7.46058C668.043 7.46058 667.679 7.64998 667.478 8.02876C667.276 8.40755 667.176 8.80705 667.176 9.22727ZM665.747 24L678.247 5.81818H680.573L668.073 24H665.747Z" fill="#EB6B92"/>
<path d="M704.924 24V21.2301L711.396 15.2376C711.946 14.7049 712.408 14.2255 712.781 13.7994C713.16 13.3732 713.447 12.956 713.642 12.5476C713.837 12.1333 713.935 11.6864 713.935 11.207C713.935 10.6744 713.814 10.2157 713.571 9.83097C713.328 9.44034 712.997 9.14145 712.577 8.9343C712.156 8.72124 711.68 8.6147 711.147 8.6147C710.591 8.6147 710.106 8.72715 709.691 8.95206C709.277 9.17696 708.957 9.49953 708.733 9.91974C708.508 10.34 708.395 10.8401 708.395 11.4201H704.746C704.746 10.2305 705.016 9.19768 705.554 8.32173C706.093 7.44579 706.847 6.76811 707.818 6.28871C708.789 5.8093 709.907 5.5696 711.174 5.5696C712.476 5.5696 713.609 5.80043 714.574 6.26207C715.545 6.7178 716.299 7.35109 716.838 8.16193C717.377 8.97277 717.646 9.90199 717.646 10.9496C717.646 11.6361 717.51 12.3138 717.237 12.9826C716.971 13.6514 716.495 14.3942 715.808 15.2109C715.122 16.0218 714.154 16.9954 712.905 18.1317L710.251 20.733V20.8572H717.886V24H704.924ZM721.39 24L728.927 9.08523V8.96094H720.147V5.81818H732.905V9.00533L725.358 24H721.39ZM745.491 20.5909V19.6321C745.491 18.9041 745.645 18.2353 745.953 17.6257C746.267 17.0102 746.719 16.5189 747.311 16.152C747.909 15.7791 748.637 15.5927 749.495 15.5927C750.365 15.5927 751.096 15.7762 751.688 16.1431C752.286 16.5101 752.736 17.0013 753.037 17.6168C753.345 18.2264 753.499 18.8982 753.499 19.6321V20.5909C753.499 21.3189 753.345 21.9906 753.037 22.6062C752.73 23.2158 752.277 23.7041 751.679 24.071C751.081 24.4439 750.353 24.6303 749.495 24.6303C748.625 24.6303 747.894 24.4439 747.302 24.071C746.71 23.7041 746.261 23.2158 745.953 22.6062C745.645 21.9906 745.491 21.3189 745.491 20.5909ZM748.075 19.6321V20.5909C748.075 21.0111 748.175 21.4077 748.377 21.7805C748.584 22.1534 748.957 22.3398 749.495 22.3398C750.034 22.3398 750.401 22.1564 750.596 21.7894C750.797 21.4225 750.898 21.023 750.898 20.5909V19.6321C750.898 19.2 750.803 18.7976 750.614 18.4247C750.424 18.0518 750.051 17.8654 749.495 17.8654C748.962 17.8654 748.593 18.0518 748.385 18.4247C748.178 18.7976 748.075 19.2 748.075 19.6321ZM736.161 10.1861V9.22727C736.161 8.49337 736.317 7.82161 736.631 7.212C736.945 6.59647 737.398 6.10523 737.989 5.73828C738.587 5.37133 739.309 5.18785 740.156 5.18785C741.032 5.18785 741.765 5.37133 742.357 5.73828C742.949 6.10523 743.399 6.59647 743.707 7.212C744.015 7.82161 744.168 8.49337 744.168 9.22727V10.1861C744.168 10.92 744.012 11.5917 743.698 12.2013C743.39 12.811 742.937 13.2992 742.34 13.6662C741.748 14.0272 741.02 14.2077 740.156 14.2077C739.292 14.2077 738.561 14.0243 737.963 13.6573C737.371 13.2844 736.921 12.7962 736.613 12.1925C736.312 11.5829 736.161 10.9141 736.161 10.1861ZM738.762 9.22727V10.1861C738.762 10.6181 738.862 11.0176 739.064 11.3846C739.271 11.7515 739.635 11.935 740.156 11.935C740.7 11.935 741.07 11.7515 741.265 11.3846C741.467 11.0176 741.567 10.6181 741.567 10.1861V9.22727C741.567 8.79522 741.473 8.39276 741.283 8.01989C741.094 7.64702 740.718 7.46058 740.156 7.46058C739.629 7.46058 739.265 7.64998 739.064 8.02876C738.862 8.40755 738.762 8.80705 738.762 9.22727ZM737.332 24L749.832 5.81818H752.158L739.658 24H737.332Z" fill="#EB6B92"/>
<path d="M782.759 24.2486C781.504 24.2486 780.386 24.0178 779.403 23.5561C778.426 23.0945 777.651 22.4582 777.077 21.6474C776.503 20.8365 776.204 19.9073 776.18 18.8597H779.909C779.951 19.564 780.246 20.1352 780.797 20.5732C781.347 21.0111 782.001 21.2301 782.759 21.2301C783.363 21.2301 783.895 21.0969 784.357 20.8306C784.824 20.5584 785.188 20.1825 785.449 19.7031C785.715 19.2178 785.848 18.6615 785.848 18.0341C785.848 17.3949 785.712 16.8326 785.44 16.3473C785.174 15.862 784.804 15.4832 784.33 15.2109C783.857 14.9387 783.315 14.7996 782.706 14.7937C782.173 14.7937 781.655 14.9032 781.152 15.1222C780.655 15.3411 780.267 15.64 779.989 16.0188L776.571 15.4062L777.432 5.81818H788.547V8.96094H780.602L780.131 13.5153H780.238C780.557 13.0655 781.04 12.6926 781.685 12.3967C782.33 12.1007 783.052 11.9528 783.851 11.9528C784.946 11.9528 785.922 12.2102 786.781 12.7251C787.639 13.2401 788.316 13.9473 788.814 14.8469C789.311 15.7406 789.556 16.7705 789.55 17.9364C789.556 19.1616 789.272 20.2506 788.698 21.2035C788.13 22.1504 787.334 22.8962 786.31 23.4407C785.292 23.9793 784.108 24.2486 782.759 24.2486ZM798.872 24.2486C797.617 24.2486 796.499 24.0178 795.516 23.5561C794.54 23.0945 793.764 22.4582 793.19 21.6474C792.616 20.8365 792.317 19.9073 792.294 18.8597H796.022C796.064 19.564 796.36 20.1352 796.91 20.5732C797.461 21.0111 798.115 21.2301 798.872 21.2301C799.476 21.2301 800.009 21.0969 800.47 20.8306C800.938 20.5584 801.302 20.1825 801.562 19.7031C801.828 19.2178 801.962 18.6615 801.962 18.0341C801.962 17.3949 801.826 16.8326 801.553 16.3473C801.287 15.862 800.917 15.4832 800.444 15.2109C799.97 14.9387 799.429 14.7996 798.819 14.7937C798.286 14.7937 797.768 14.9032 797.265 15.1222C796.768 15.3411 796.38 15.64 796.102 16.0188L792.684 15.4062L793.545 5.81818H804.661V8.96094H796.715L796.244 13.5153H796.351C796.67 13.0655 797.153 12.6926 797.798 12.3967C798.443 12.1007 799.165 11.9528 799.964 11.9528C801.059 11.9528 802.036 12.2102 802.894 12.7251C803.752 13.2401 804.43 13.9473 804.927 14.8469C805.424 15.7406 805.67 16.7705 805.664 17.9364C805.67 19.1616 805.386 20.2506 804.811 21.2035C804.243 22.1504 803.447 22.8962 802.423 23.4407C801.405 23.9793 800.222 24.2486 798.872 24.2486ZM818.297 20.5909V19.6321C818.297 18.9041 818.451 18.2353 818.759 17.6257C819.072 17.0102 819.525 16.5189 820.117 16.152C820.715 15.7791 821.443 15.5927 822.301 15.5927C823.171 15.5927 823.902 15.7762 824.494 16.1431C825.091 16.5101 825.541 17.0013 825.843 17.6168C826.151 18.2264 826.305 18.8982 826.305 19.6321V20.5909C826.305 21.3189 826.151 21.9906 825.843 22.6062C825.535 23.2158 825.083 23.7041 824.485 24.071C823.887 24.4439 823.159 24.6303 822.301 24.6303C821.431 24.6303 820.7 24.4439 820.108 24.071C819.516 23.7041 819.066 23.2158 818.759 22.6062C818.451 21.9906 818.297 21.3189 818.297 20.5909ZM820.88 19.6321V20.5909C820.88 21.0111 820.981 21.4077 821.182 21.7805C821.389 22.1534 821.762 22.3398 822.301 22.3398C822.839 22.3398 823.206 22.1564 823.402 21.7894C823.603 21.4225 823.703 21.023 823.703 20.5909V19.6321C823.703 19.2 823.609 18.7976 823.419 18.4247C823.23 18.0518 822.857 17.8654 822.301 17.8654C821.768 17.8654 821.398 18.0518 821.191 18.4247C820.984 18.7976 820.88 19.2 820.88 19.6321ZM808.966 10.1861V9.22727C808.966 8.49337 809.123 7.82161 809.437 7.212C809.75 6.59647 810.203 6.10523 810.795 5.73828C811.393 5.37133 812.115 5.18785 812.961 5.18785C813.837 5.18785 814.571 5.37133 815.163 5.73828C815.755 6.10523 816.205 6.59647 816.512 7.212C816.82 7.82161 816.974 8.49337 816.974 9.22727V10.1861C816.974 10.92 816.817 11.5917 816.504 12.2013C816.196 12.811 815.743 13.2992 815.145 13.6662C814.553 14.0272 813.825 14.2077 812.961 14.2077C812.097 14.2077 811.366 14.0243 810.768 13.6573C810.177 13.2844 809.727 12.7962 809.419 12.1925C809.117 11.5829 808.966 10.9141 808.966 10.1861ZM811.567 9.22727V10.1861C811.567 10.6181 811.668 11.0176 811.869 11.3846C812.076 11.7515 812.44 11.935 812.961 11.935C813.506 11.935 813.876 11.7515 814.071 11.3846C814.272 11.0176 814.373 10.6181 814.373 10.1861V9.22727C814.373 8.79522 814.278 8.39276 814.089 8.01989C813.899 7.64702 813.524 7.46058 812.961 7.46058C812.435 7.46058 812.071 7.64998 811.869 8.02876C811.668 8.40755 811.567 8.80705 811.567 9.22727ZM810.138 24L822.638 5.81818H824.964L812.464 24H810.138Z" fill="#EB6B92"/>
<path d="M862.25 24.2486C860.883 24.2486 859.667 24.0266 858.601 23.5827C857.542 23.1329 856.71 22.5204 856.107 21.745C855.503 20.9697 855.201 20.0908 855.201 19.1083C855.201 18.3507 855.373 17.6553 855.716 17.022C856.065 16.3828 856.539 15.8531 857.136 15.4329C857.734 15.0067 858.403 14.7345 859.143 14.6161V14.4918C858.172 14.2965 857.385 13.826 856.781 13.0803C856.178 12.3286 855.876 11.4556 855.876 10.4613C855.876 9.52024 856.151 8.68276 856.701 7.94886C857.252 7.20904 858.006 6.62902 858.965 6.20881C859.93 5.78267 861.025 5.5696 862.25 5.5696C863.475 5.5696 864.567 5.78267 865.526 6.20881C866.491 6.63494 867.248 7.21792 867.799 7.95774C868.349 8.69164 868.627 9.52616 868.633 10.4613C868.627 11.4615 868.32 12.3345 867.71 13.0803C867.1 13.826 866.319 14.2965 865.366 14.4918V14.6161C866.094 14.7345 866.754 15.0067 867.346 15.4329C867.944 15.8531 868.417 16.3828 868.766 17.022C869.121 17.6553 869.302 18.3507 869.308 19.1083C869.302 20.0908 868.997 20.9697 868.394 21.745C867.79 22.5204 866.955 23.1329 865.89 23.5827C864.831 24.0266 863.617 24.2486 862.25 24.2486ZM862.25 21.4254C862.86 21.4254 863.392 21.3159 863.848 21.0969C864.304 20.872 864.659 20.5643 864.913 20.1737C865.174 19.7771 865.304 19.3214 865.304 18.8065C865.304 18.2797 865.171 17.8151 864.905 17.4126C864.638 17.0043 864.277 16.6847 863.821 16.4538C863.366 16.2171 862.842 16.0987 862.25 16.0987C861.664 16.0987 861.14 16.2171 860.679 16.4538C860.217 16.6847 859.853 17.0043 859.587 17.4126C859.326 17.8151 859.196 18.2797 859.196 18.8065C859.196 19.3214 859.323 19.7771 859.578 20.1737C859.832 20.5643 860.19 20.872 860.652 21.0969C861.114 21.3159 861.646 21.4254 862.25 21.4254ZM862.25 13.3022C862.759 13.3022 863.212 13.1986 863.608 12.9915C864.005 12.7843 864.316 12.4973 864.541 12.1303C864.765 11.7634 864.878 11.3402 864.878 10.8608C864.878 10.3873 864.765 9.97301 864.541 9.6179C864.316 9.25686 864.008 8.97573 863.617 8.7745C863.227 8.56735 862.771 8.46378 862.25 8.46378C861.735 8.46378 861.279 8.56735 860.883 8.7745C860.486 8.97573 860.176 9.25686 859.951 9.6179C859.732 9.97301 859.622 10.3873 859.622 10.8608C859.622 11.3402 859.735 11.7634 859.96 12.1303C860.184 12.4973 860.495 12.7843 860.892 12.9915C861.288 13.1986 861.741 13.3022 862.25 13.3022ZM881.948 20.5909V19.6321C881.948 18.9041 882.102 18.2353 882.409 17.6257C882.723 17.0102 883.176 16.5189 883.768 16.152C884.365 15.7791 885.093 15.5927 885.952 15.5927C886.822 15.5927 887.553 15.7762 888.144 16.1431C888.742 16.5101 889.192 17.0013 889.494 17.6168C889.802 18.2264 889.956 18.8982 889.956 19.6321V20.5909C889.956 21.3189 889.802 21.9906 889.494 22.6062C889.186 23.2158 888.733 23.7041 888.136 24.071C887.538 24.4439 886.81 24.6303 885.952 24.6303C885.082 24.6303 884.351 24.4439 883.759 24.071C883.167 23.7041 882.717 23.2158 882.409 22.6062C882.102 21.9906 881.948 21.3189 881.948 20.5909ZM884.531 19.6321V20.5909C884.531 21.0111 884.632 21.4077 884.833 21.7805C885.04 22.1534 885.413 22.3398 885.952 22.3398C886.49 22.3398 886.857 22.1564 887.053 21.7894C887.254 21.4225 887.354 21.023 887.354 20.5909V19.6321C887.354 19.2 887.26 18.7976 887.07 18.4247C886.881 18.0518 886.508 17.8654 885.952 17.8654C885.419 17.8654 885.049 18.0518 884.842 18.4247C884.635 18.7976 884.531 19.2 884.531 19.6321ZM872.617 10.1861V9.22727C872.617 8.49337 872.774 7.82161 873.088 7.212C873.401 6.59647 873.854 6.10523 874.446 5.73828C875.044 5.37133 875.766 5.18785 876.612 5.18785C877.488 5.18785 878.222 5.37133 878.814 5.73828C879.406 6.10523 879.856 6.59647 880.163 7.212C880.471 7.82161 880.625 8.49337 880.625 9.22727V10.1861C880.625 10.92 880.468 11.5917 880.154 12.2013C879.847 12.811 879.394 13.2992 878.796 13.6662C878.204 14.0272 877.476 14.2077 876.612 14.2077C875.748 14.2077 875.017 14.0243 874.419 13.6573C873.827 13.2844 873.378 12.7962 873.07 12.1925C872.768 11.5829 872.617 10.9141 872.617 10.1861ZM875.218 9.22727V10.1861C875.218 10.6181 875.319 11.0176 875.52 11.3846C875.727 11.7515 876.091 11.935 876.612 11.935C877.157 11.935 877.527 11.7515 877.722 11.3846C877.923 11.0176 878.024 10.6181 878.024 10.1861V9.22727C878.024 8.79522 877.929 8.39276 877.74 8.01989C877.55 7.64702 877.174 7.46058 876.612 7.46058C876.085 7.46058 875.721 7.64998 875.52 8.02876C875.319 8.40755 875.218 8.80705 875.218 9.22727ZM873.789 24L886.289 5.81818H888.615L876.115 24H873.789Z" fill="#EB6B92"/>
<path d="M644.877 257.909V271H642.11V260.536H642.033L639.035 262.415V259.961L642.276 257.909H644.877ZM653.122 271.288C652.022 271.283 651.076 271.013 650.284 270.476C649.495 269.939 648.888 269.161 648.462 268.143C648.04 267.124 647.831 265.899 647.835 264.467C647.835 263.04 648.046 261.823 648.468 260.817C648.894 259.812 649.502 259.047 650.29 258.523C651.083 257.994 652.026 257.73 653.122 257.73C654.217 257.73 655.159 257.994 655.947 258.523C656.74 259.051 657.349 259.818 657.775 260.824C658.201 261.825 658.412 263.04 658.408 264.467C658.408 265.903 658.195 267.131 657.769 268.149C657.347 269.168 656.742 269.945 655.953 270.482C655.165 271.019 654.221 271.288 653.122 271.288ZM653.122 268.993C653.872 268.993 654.47 268.616 654.918 267.862C655.365 267.107 655.587 265.976 655.583 264.467C655.583 263.474 655.48 262.648 655.276 261.987C655.075 261.327 654.79 260.83 654.419 260.498C654.053 260.165 653.62 259.999 653.122 259.999C652.376 259.999 651.779 260.372 651.332 261.118C650.884 261.864 650.659 262.98 650.654 264.467C650.654 265.473 650.754 266.312 650.955 266.986C651.159 267.655 651.447 268.158 651.818 268.494C652.188 268.827 652.623 268.993 653.122 268.993ZM672.082 255.934H674.35V272.602H672.082V255.934ZM669.85 262.342H672.622V264.268H669.85V262.342ZM668.356 256.222H670.57V271.81H668.356V256.222ZM660.508 266.878H661.678C663.73 266.878 665.44 266.806 667.42 266.446L667.6 268.39C665.584 268.786 663.82 268.84 661.678 268.84H660.508V266.878ZM660.508 257.86H666.664V259.786H662.884V267.814H660.508V257.86Z" fill="#AAAAAA"/>
<path d="M701.637 271V269.006L706.297 264.691C706.693 264.308 707.026 263.962 707.294 263.656C707.567 263.349 707.774 263.048 707.914 262.754C708.055 262.456 708.125 262.134 708.125 261.789C708.125 261.406 708.038 261.075 707.863 260.798C707.688 260.517 707.45 260.302 707.147 260.153C706.845 259.999 706.502 259.923 706.118 259.923C705.718 259.923 705.368 260.004 705.07 260.165C704.771 260.327 704.541 260.56 704.379 260.862C704.218 261.165 704.137 261.525 704.137 261.942H701.509C701.509 261.086 701.703 260.342 702.091 259.712C702.479 259.081 703.022 258.593 703.721 258.248C704.42 257.903 705.225 257.73 706.137 257.73C707.075 257.73 707.891 257.896 708.585 258.229C709.284 258.557 709.828 259.013 710.215 259.597C710.603 260.18 710.797 260.849 710.797 261.604C710.797 262.098 710.699 262.586 710.503 263.067C710.311 263.549 709.968 264.084 709.474 264.672C708.98 265.256 708.283 265.957 707.384 266.775L705.472 268.648V268.737H710.97V271H701.637ZM718.108 271.288C717.009 271.283 716.063 271.013 715.27 270.476C714.482 269.939 713.874 269.161 713.448 268.143C713.026 267.124 712.817 265.899 712.822 264.467C712.822 263.04 713.033 261.823 713.455 260.817C713.881 259.812 714.488 259.047 715.276 258.523C716.069 257.994 717.013 257.73 718.108 257.73C719.203 257.73 720.145 257.994 720.933 258.523C721.726 259.051 722.335 259.818 722.761 260.824C723.188 261.825 723.398 263.04 723.394 264.467C723.394 265.903 723.181 267.131 722.755 268.149C722.333 269.168 721.728 269.945 720.94 270.482C720.151 271.019 719.207 271.288 718.108 271.288ZM718.108 268.993C718.858 268.993 719.457 268.616 719.904 267.862C720.352 267.107 720.573 265.976 720.569 264.467C720.569 263.474 720.467 262.648 720.262 261.987C720.062 261.327 719.776 260.83 719.406 260.498C719.039 260.165 718.607 259.999 718.108 259.999C717.362 259.999 716.766 260.372 716.318 261.118C715.871 261.864 715.645 262.98 715.641 264.467C715.641 265.473 715.741 266.312 715.941 266.986C716.146 267.655 716.433 268.158 716.804 268.494C717.175 268.827 717.609 268.993 718.108 268.993ZM737.069 255.934H739.337V272.602H737.069V255.934ZM734.837 262.342H737.609V264.268H734.837V262.342ZM733.343 256.222H735.557V271.81H733.343V256.222ZM725.495 266.878H726.665C728.717 266.878 730.427 266.806 732.407 266.446L732.587 268.39C730.571 268.786 728.807 268.84 726.665 268.84H725.495V266.878ZM725.495 257.86H731.651V259.786H727.871V267.814H725.495V257.86ZM741.603 268.768H756.687V270.712H741.603V268.768ZM747.939 265.564H750.333V269.776H747.939V265.564ZM747.921 259.408H750.045V259.768C750.045 262.954 747.507 265.528 742.935 266.122L742.071 264.232C746.121 263.746 747.921 261.676 747.921 259.768V259.408ZM748.245 259.408H750.351V259.768C750.351 261.676 752.151 263.746 756.201 264.232L755.337 266.122C750.765 265.528 748.245 262.954 748.245 259.768V259.408ZM742.881 258.184H755.391V260.11H742.881V258.184ZM747.939 256.15H750.333V258.976H747.939V256.15Z" fill="#AAAAAA"/>
<path d="M773.137 271V269.006L777.797 264.691C778.193 264.308 778.526 263.962 778.794 263.656C779.067 263.349 779.274 263.048 779.414 262.754C779.555 262.456 779.625 262.134 779.625 261.789C779.625 261.406 779.538 261.075 779.363 260.798C779.188 260.517 778.95 260.302 778.647 260.153C778.345 259.999 778.002 259.923 777.618 259.923C777.218 259.923 776.868 260.004 776.57 260.165C776.271 260.327 776.041 260.56 775.879 260.862C775.718 261.165 775.637 261.525 775.637 261.942H773.009C773.009 261.086 773.203 260.342 773.591 259.712C773.979 259.081 774.522 258.593 775.221 258.248C775.92 257.903 776.725 257.73 777.637 257.73C778.575 257.73 779.391 257.896 780.085 258.229C780.784 258.557 781.328 259.013 781.715 259.597C782.103 260.18 782.297 260.849 782.297 261.604C782.297 262.098 782.199 262.586 782.003 263.067C781.811 263.549 781.468 264.084 780.974 264.672C780.48 265.256 779.783 265.957 778.884 266.775L776.972 268.648V268.737H782.47V271H773.137ZM789.608 271.288C788.509 271.283 787.563 271.013 786.77 270.476C785.982 269.939 785.374 269.161 784.948 268.143C784.526 267.124 784.317 265.899 784.322 264.467C784.322 263.04 784.533 261.823 784.955 260.817C785.381 259.812 785.988 259.047 786.776 258.523C787.569 257.994 788.513 257.73 789.608 257.73C790.703 257.73 791.645 257.994 792.433 258.523C793.226 259.051 793.835 259.818 794.261 260.824C794.688 261.825 794.898 263.04 794.894 264.467C794.894 265.903 794.681 267.131 794.255 268.149C793.833 269.168 793.228 269.945 792.44 270.482C791.651 271.019 790.707 271.288 789.608 271.288ZM789.608 268.993C790.358 268.993 790.957 268.616 791.404 267.862C791.852 267.107 792.073 265.976 792.069 264.467C792.069 263.474 791.967 262.648 791.762 261.987C791.562 261.327 791.276 260.83 790.906 260.498C790.539 260.165 790.107 259.999 789.608 259.999C788.862 259.999 788.266 260.372 787.818 261.118C787.371 261.864 787.145 262.98 787.141 264.467C787.141 265.473 787.241 266.312 787.441 266.986C787.646 267.655 787.933 268.158 788.304 268.494C788.675 268.827 789.109 268.993 789.608 268.993ZM808.569 255.934H810.837V272.602H808.569V255.934ZM806.337 262.342H809.109V264.268H806.337V262.342ZM804.843 256.222H807.057V271.81H804.843V256.222ZM796.995 266.878H798.165C800.217 266.878 801.927 266.806 803.907 266.446L804.087 268.39C802.071 268.786 800.307 268.84 798.165 268.84H796.995V266.878ZM796.995 257.86H803.151V259.786H799.371V267.814H796.995V257.86ZM813.805 257.662H827.377V259.552H813.805V257.662ZM813.103 266.716H828.187V268.642H813.103V266.716ZM819.421 268.408H821.815V272.62H819.421V268.408ZM820.627 260.2C824.209 260.2 826.333 261.208 826.333 263.062C826.333 264.898 824.209 265.924 820.627 265.924C817.027 265.924 814.903 264.898 814.903 263.062C814.903 261.208 817.027 260.2 820.627 260.2ZM820.627 261.982C818.449 261.982 817.387 262.306 817.387 263.062C817.387 263.818 818.449 264.142 820.627 264.142C822.805 264.142 823.867 263.818 823.867 263.062C823.867 262.306 822.805 261.982 820.627 261.982ZM819.421 255.916H821.815V258.922H819.421V255.916Z" fill="#AAAAAA"/>
<path d="M857.992 271.179C857.037 271.179 856.187 271.015 855.441 270.687C854.7 270.354 854.114 269.898 853.683 269.319C853.257 268.735 853.038 268.062 853.025 267.299H855.812C855.829 267.619 855.933 267.9 856.125 268.143C856.321 268.381 856.581 268.567 856.905 268.699C857.229 268.831 857.593 268.897 857.998 268.897C858.42 268.897 858.793 268.822 859.117 268.673C859.441 268.524 859.694 268.317 859.877 268.053C860.061 267.789 860.152 267.484 860.152 267.139C860.152 266.79 860.054 266.481 859.858 266.212C859.666 265.94 859.389 265.727 859.027 265.573C858.669 265.42 858.243 265.343 857.749 265.343H856.528V263.31H857.749C858.166 263.31 858.535 263.238 858.855 263.093C859.178 262.948 859.43 262.748 859.609 262.492C859.788 262.232 859.877 261.93 859.877 261.585C859.877 261.256 859.798 260.969 859.641 260.722C859.487 260.47 859.27 260.274 858.989 260.134C858.712 259.993 858.388 259.923 858.017 259.923C857.642 259.923 857.299 259.991 856.988 260.127C856.677 260.259 856.428 260.449 856.24 260.696C856.053 260.943 855.953 261.233 855.94 261.565H853.287C853.3 260.811 853.515 260.146 853.933 259.571C854.35 258.996 854.913 258.546 855.62 258.222C856.332 257.894 857.135 257.73 858.03 257.73C858.933 257.73 859.724 257.894 860.401 258.222C861.079 258.55 861.605 258.994 861.98 259.552C862.36 260.106 862.547 260.728 862.543 261.418C862.547 262.151 862.319 262.763 861.859 263.253C861.403 263.743 860.808 264.054 860.075 264.186V264.288C861.039 264.412 861.771 264.746 862.274 265.292C862.781 265.833 863.033 266.511 863.029 267.325C863.033 268.07 862.818 268.733 862.383 269.312C861.953 269.892 861.358 270.348 860.6 270.68C859.841 271.013 858.972 271.179 857.992 271.179ZM870.151 271.288C869.051 271.283 868.105 271.013 867.313 270.476C866.525 269.939 865.917 269.161 865.491 268.143C865.069 267.124 864.86 265.899 864.865 264.467C864.865 263.04 865.076 261.823 865.498 260.817C865.924 259.812 866.531 259.047 867.319 258.523C868.112 257.994 869.056 257.73 870.151 257.73C871.246 257.73 872.188 257.994 872.976 258.523C873.769 259.051 874.378 259.818 874.804 260.824C875.23 261.825 875.441 263.04 875.437 264.467C875.437 265.903 875.224 267.131 874.798 268.149C874.376 269.168 873.771 269.945 872.983 270.482C872.194 271.019 871.25 271.288 870.151 271.288ZM870.151 268.993C870.901 268.993 871.5 268.616 871.947 267.862C872.395 267.107 872.616 265.976 872.612 264.467C872.612 263.474 872.51 262.648 872.305 261.987C872.105 261.327 871.819 260.83 871.449 260.498C871.082 260.165 870.65 259.999 870.151 259.999C869.405 259.999 868.809 260.372 868.361 261.118C867.914 261.864 867.688 262.98 867.684 264.467C867.684 265.473 867.784 266.312 867.984 266.986C868.189 267.655 868.476 268.158 868.847 268.494C869.218 268.827 869.652 268.993 870.151 268.993ZM889.112 255.934H891.38V272.602H889.112V255.934ZM886.88 262.342H889.652V264.268H886.88V262.342ZM885.386 256.222H887.6V271.81H885.386V256.222ZM877.538 266.878H878.708C880.76 266.878 882.47 266.806 884.45 266.446L884.63 268.39C882.614 268.786 880.85 268.84 878.708 268.84H877.538V266.878ZM877.538 257.86H883.694V259.786H879.914V267.814H877.538V257.86Z" fill="#AAAAAA"/>
<path d="M924.288 268.699V266.519L929.753 257.909H931.632V260.926H930.52L927.075 266.379V266.481H934.841V268.699H924.288ZM930.571 271V268.034L930.622 267.069V257.909H933.217V271H930.571ZM941.818 271.288C940.718 271.283 939.772 271.013 938.98 270.476C938.191 269.939 937.584 269.161 937.158 268.143C936.736 267.124 936.527 265.899 936.532 264.467C936.532 263.04 936.743 261.823 937.165 260.817C937.591 259.812 938.198 259.047 938.986 258.523C939.779 257.994 940.723 257.73 941.818 257.73C942.913 257.73 943.855 257.994 944.643 258.523C945.436 259.051 946.045 259.818 946.471 260.824C946.897 261.825 947.108 263.04 947.104 264.467C947.104 265.903 946.891 267.131 946.465 268.149C946.043 269.168 945.438 269.945 944.65 270.482C943.861 271.019 942.917 271.288 941.818 271.288ZM941.818 268.993C942.568 268.993 943.167 268.616 943.614 267.862C944.062 267.107 944.283 265.976 944.279 264.467C944.279 263.474 944.177 262.648 943.972 261.987C943.772 261.327 943.486 260.83 943.116 260.498C942.749 260.165 942.316 259.999 941.818 259.999C941.072 259.999 940.476 260.372 940.028 261.118C939.581 261.864 939.355 262.98 939.351 264.467C939.351 265.473 939.451 266.312 939.651 266.986C939.856 267.655 940.143 268.158 940.514 268.494C940.885 268.827 941.319 268.993 941.818 268.993ZM960.779 255.934H963.047V272.602H960.779V255.934ZM958.547 262.342H961.319V264.268H958.547V262.342ZM957.053 256.222H959.267V271.81H957.053V256.222ZM949.205 266.878H950.375C952.427 266.878 954.137 266.806 956.117 266.446L956.297 268.39C954.281 268.786 952.517 268.84 950.375 268.84H949.205V266.878ZM949.205 257.86H955.361V259.786H951.581V267.814H949.205V257.86Z" fill="#AAAAAA" fill-opacity="0.7"/>
<path d="M996.449 271.179C995.545 271.179 994.74 271.013 994.033 270.68C993.329 270.348 992.771 269.89 992.358 269.306C991.945 268.722 991.729 268.053 991.712 267.299H994.397C994.427 267.806 994.64 268.217 995.036 268.533C995.432 268.848 995.903 269.006 996.449 269.006C996.883 269.006 997.267 268.91 997.599 268.718C997.936 268.522 998.198 268.251 998.386 267.906C998.577 267.557 998.673 267.156 998.673 266.705C998.673 266.244 998.575 265.839 998.379 265.49C998.187 265.141 997.921 264.868 997.58 264.672C997.239 264.476 996.849 264.376 996.41 264.371C996.027 264.371 995.654 264.45 995.292 264.608C994.934 264.766 994.655 264.981 994.454 265.254L991.994 264.812L992.614 257.909H1000.62V260.172H994.896L994.557 263.451H994.633C994.864 263.127 995.211 262.859 995.675 262.646C996.14 262.433 996.66 262.326 997.235 262.326C998.023 262.326 998.726 262.511 999.344 262.882C999.962 263.253 1000.45 263.762 1000.81 264.41C1001.17 265.053 1001.34 265.795 1001.34 266.634C1001.34 267.516 1001.14 268.3 1000.73 268.987C1000.32 269.668 999.743 270.205 999.006 270.597C998.273 270.985 997.42 271.179 996.449 271.179ZM1008.4 271.288C1007.3 271.283 1006.36 271.013 1005.56 270.476C1004.78 269.939 1004.17 269.161 1003.74 268.143C1003.32 267.124 1003.11 265.899 1003.12 264.467C1003.12 263.04 1003.33 261.823 1003.75 260.817C1004.17 259.812 1004.78 259.047 1005.57 258.523C1006.36 257.994 1007.31 257.73 1008.4 257.73C1009.5 257.73 1010.44 257.994 1011.23 258.523C1012.02 259.051 1012.63 259.818 1013.06 260.824C1013.48 261.825 1013.69 263.04 1013.69 264.467C1013.69 265.903 1013.48 267.131 1013.05 268.149C1012.63 269.168 1012.02 269.945 1011.23 270.482C1010.45 271.019 1009.5 271.288 1008.4 271.288ZM1008.4 268.993C1009.15 268.993 1009.75 268.616 1010.2 267.862C1010.65 267.107 1010.87 265.976 1010.86 264.467C1010.86 263.474 1010.76 262.648 1010.56 261.987C1010.36 261.327 1010.07 260.83 1009.7 260.498C1009.33 260.165 1008.9 259.999 1008.4 259.999C1007.66 259.999 1007.06 260.372 1006.61 261.118C1006.16 261.864 1005.94 262.98 1005.93 264.467C1005.93 265.473 1006.03 266.312 1006.23 266.986C1006.44 267.655 1006.73 268.158 1007.1 268.494C1007.47 268.827 1007.9 268.993 1008.4 268.993ZM1027.36 255.934H1029.63V272.602H1027.36V255.934ZM1025.13 262.342H1027.9V264.268H1025.13V262.342ZM1023.64 256.222H1025.85V271.81H1023.64V256.222ZM1015.79 266.878H1016.96C1019.01 266.878 1020.72 266.806 1022.7 266.446L1022.88 268.39C1020.86 268.786 1019.1 268.84 1016.96 268.84H1015.79V266.878ZM1015.79 257.86H1021.94V259.786H1018.16V267.814H1015.79V257.86ZM1032.53 267.465C1032.51 266.66 1032.61 265.978 1032.83 265.42C1033.05 264.862 1033.37 264.437 1033.79 264.148C1034.22 263.858 1034.72 263.713 1035.29 263.713C1035.7 263.713 1036.08 263.796 1036.45 263.962C1036.81 264.129 1037.23 264.416 1037.69 264.825C1037.94 265.043 1038.15 265.209 1038.32 265.324C1038.49 265.435 1038.68 265.49 1038.91 265.49C1039.21 265.49 1039.46 265.373 1039.65 265.138C1039.85 264.9 1039.94 264.523 1039.93 264.007H1042.01C1042.04 264.817 1041.94 265.501 1041.72 266.059C1041.49 266.617 1041.17 267.041 1040.74 267.331C1040.31 267.621 1039.82 267.766 1039.25 267.766C1038.83 267.766 1038.43 267.678 1038.06 267.504C1037.7 267.325 1037.29 267.039 1036.84 266.647C1036.58 266.413 1036.37 266.244 1036.21 266.142C1036.05 266.036 1035.86 265.982 1035.65 265.982C1035.34 265.982 1035.09 266.097 1034.9 266.327C1034.7 266.553 1034.61 266.933 1034.62 267.465H1032.53Z" fill="#AAAAAA" fill-opacity="0.7"/>
<g filter="url(#filter9_d_323_332)">
<path d="M709 185H749V234C749 239.523 744.523 244 739 244H719C713.477 244 709 239.523 709 234V185Z" fill="url(#paint4_linear_323_332)" shape-rendering="crispEdges"/>
</g>
<g filter="url(#filter10_d_323_332)">
<path d="M637 216H678V234C678 239.523 673.523 244 668 244H647C641.477 244 637 239.523 637 234V216Z" fill="url(#paint5_linear_323_332)" shape-rendering="crispEdges"/>
</g>
<defs>
<filter id="filter0_f_323_332" x="117.078" y="75.2817" width="343.732" height="258.99" filterUnits="userSpaceOnUse" color-interpolation-filters="sRGB">
<feFlood flood-opacity="0" result="BackgroundImageFix"/>
<feBlend mode="normal" in="SourceGraphic" in2="BackgroundImageFix" result="shape"/>
<feGaussianBlur stdDeviation="40" result="effect1_foregroundBlur_323_332"/>
</filter>
<filter id="filter1_i_323_332" x="637" y="41" width="41" height="207" filterUnits="userSpaceOnUse" color-interpolation-filters="sRGB">
<feFlood flood-opacity="0" result="BackgroundImageFix"/>
<feBlend mode="normal" in="SourceGraphic" in2="BackgroundImageFix" result="shape"/>
<feColorMatrix in="SourceAlpha" type="matrix" values="0 0 0 0 0 0 0 0 0 0 0 0 0 0 0 0 0 0 127 0" result="hardAlpha"/>
<feOffset dy="4"/>
<feGaussianBlur stdDeviation="2"/>
<feComposite in2="hardAlpha" operator="arithmetic" k2="-1" k3="1"/>
<feColorMatrix type="matrix" values="0 0 0 0 0 0 0 0 0 0 0 0 0 0 0 0 0 0 0.25 0"/>
<feBlend mode="normal" in2="shape" result="effect1_innerShadow_323_332"/>
</filter>
<filter id="filter2_i_323_332" x="709" y="41" width="40" height="207" filterUnits="userSpaceOnUse" color-interpolation-filters="sRGB">
<feFlood flood-opacity="0" result="BackgroundImageFix"/>
<feBlend mode="normal" in="SourceGraphic" in2="BackgroundImageFix" result="shape"/>
<feColorMatrix in="SourceAlpha" type="matrix" values="0 0 0 0 0 0 0 0 0 0 0 0 0 0 0 0 0 0 127 0" result="hardAlpha"/>
<feOffset dy="4"/>
<feGaussianBlur stdDeviation="2"/>
<feComposite in2="hardAlpha" operator="arithmetic" k2="-1" k3="1"/>
<feColorMatrix type="matrix" values="0 0 0 0 0 0 0 0 0 0 0 0 0 0 0 0 0 0 0.25 0"/>
<feBlend mode="normal" in2="shape" result="effect1_innerShadow_323_332"/>
</filter>
<filter id="filter3_i_323_332" x="781" y="41" width="40" height="207" filterUnits="userSpaceOnUse" color-interpolation-filters="sRGB">
<feFlood flood-opacity="0" result="BackgroundImageFix"/>
<feBlend mode="normal" in="SourceGraphic" in2="BackgroundImageFix" result="shape"/>
<feColorMatrix in="SourceAlpha" type="matrix" values="0 0 0 0 0 0 0 0 0 0 0 0 0 0 0 0 0 0 127 0" result="hardAlpha"/>
<feOffset dy="4"/>
<feGaussianBlur stdDeviation="2"/>
<feComposite in2="hardAlpha" operator="arithmetic" k2="-1" k3="1"/>
<feColorMatrix type="matrix" values="0 0 0 0 0 0 0 0 0 0 0 0 0 0 0 0 0 0 0.25 0"/>
<feBlend mode="normal" in2="shape" result="effect1_innerShadow_323_332"/>
</filter>
<filter id="filter4_d_323_332" x="777" y="126" width="48" height="122" filterUnits="userSpaceOnUse" color-interpolation-filters="sRGB">
<feFlood flood-opacity="0" result="BackgroundImageFix"/>
<feColorMatrix in="SourceAlpha" type="matrix" values="0 0 0 0 0 0 0 0 0 0 0 0 0 0 0 0 0 0 127 0" result="hardAlpha"/>
<feOffset/>
<feGaussianBlur stdDeviation="2"/>
<feComposite in2="hardAlpha" operator="out"/>
<feColorMatrix type="matrix" values="0 0 0 0 0 0 0 0 0 0 0 0 0 0 0 0 0 0 0.25 0"/>
<feBlend mode="normal" in2="BackgroundImageFix" result="effect1_dropShadow_323_332"/>
<feBlend mode="normal" in="SourceGraphic" in2="effect1_dropShadow_323_332" result="shape"/>
</filter>
<filter id="filter5_i_323_332" x="853" y="41" width="40" height="207" filterUnits="userSpaceOnUse" color-interpolation-filters="sRGB">
<feFlood flood-opacity="0" result="BackgroundImageFix"/>
<feBlend mode="normal" in="SourceGraphic" in2="BackgroundImageFix" result="shape"/>
<feColorMatrix in="SourceAlpha" type="matrix" values="0 0 0 0 0 0 0 0 0 0 0 0 0 0 0 0 0 0 127 0" result="hardAlpha"/>
<feOffset dy="4"/>
<feGaussianBlur stdDeviation="2"/>
<feComposite in2="hardAlpha" operator="arithmetic" k2="-1" k3="1"/>
<feColorMatrix type="matrix" values="0 0 0 0 0 0 0 0 0 0 0 0 0 0 0 0 0 0 0.25 0"/>
<feBlend mode="normal" in2="shape" result="effect1_innerShadow_323_332"/>
</filter>
<filter id="filter6_d_323_332" x="849" y="212" width="48" height="36" filterUnits="userSpaceOnUse" color-interpolation-filters="sRGB">
<feFlood flood-opacity="0" result="BackgroundImageFix"/>
<feColorMatrix in="SourceAlpha" type="matrix" values="0 0 0 0 0 0 0 0 0 0 0 0 0 0 0 0 0 0 127 0" result="hardAlpha"/>
<feOffset/>
<feGaussianBlur stdDeviation="2"/>
<feComposite in2="hardAlpha" operator="out"/>
<feColorMatrix type="matrix" values="0 0 0 0 0 0 0 0 0 0 0 0 0 0 0 0 0 0 0.25 0"/>
<feBlend mode="normal" in2="BackgroundImageFix" result="effect1_dropShadow_323_332"/>
<feBlend mode="normal" in="SourceGraphic" in2="effect1_dropShadow_323_332" result="shape"/>
</filter>
<filter id="filter7_i_323_332" x="925" y="41" width="40" height="207" filterUnits="userSpaceOnUse" color-interpolation-filters="sRGB">
<feFlood flood-opacity="0" result="BackgroundImageFix"/>
<feBlend mode="normal" in="SourceGraphic" in2="BackgroundImageFix" result="shape"/>
<feColorMatrix in="SourceAlpha" type="matrix" values="0 0 0 0 0 0 0 0 0 0 0 0 0 0 0 0 0 0 127 0" result="hardAlpha"/>
<feOffset dy="4"/>
<feGaussianBlur stdDeviation="2"/>
<feComposite in2="hardAlpha" operator="arithmetic" k2="-1" k3="1"/>
<feColorMatrix type="matrix" values="0 0 0 0 0 0 0 0 0 0 0 0 0 0 0 0 0 0 0.25 0"/>
<feBlend mode="normal" in2="shape" result="effect1_innerShadow_323_332"/>
</filter>
<filter id="filter8_i_323_332" x="996" y="41" width="41" height="207" filterUnits="userSpaceOnUse" color-interpolation-filters="sRGB">
<feFlood flood-opacity="0" result="BackgroundImageFix"/>
<feBlend mode="normal" in="SourceGraphic" in2="BackgroundImageFix" result="shape"/>
<feColorMatrix in="SourceAlpha" type="matrix" values="0 0 0 0 0 0 0 0 0 0 0 0 0 0 0 0 0 0 127 0" result="hardAlpha"/>
<feOffset dy="4"/>
<feGaussianBlur stdDeviation="2"/>
<feComposite in2="hardAlpha" operator="arithmetic" k2="-1" k3="1"/>
<feColorMatrix type="matrix" values="0 0 0 0 0 0 0 0 0 0 0 0 0 0 0 0 0 0 0.25 0"/>
<feBlend mode="normal" in2="shape" result="effect1_innerShadow_323_332"/>
</filter>
<filter id="filter9_d_323_332" x="705" y="181" width="48" height="67" filterUnits="userSpaceOnUse" color-interpolation-filters="sRGB">
<feFlood flood-opacity="0" result="BackgroundImageFix"/>
<feColorMatrix in="SourceAlpha" type="matrix" values="0 0 0 0 0 0 0 0 0 0 0 0 0 0 0 0 0 0 127 0" result="hardAlpha"/>
<feOffset/>
<feGaussianBlur stdDeviation="2"/>
<feComposite in2="hardAlpha" operator="out"/>
<feColorMatrix type="matrix" values="0 0 0 0 0 0 0 0 0 0 0 0 0 0 0 0 0 0 0.25 0"/>
<feBlend mode="normal" in2="BackgroundImageFix" result="effect1_dropShadow_323_332"/>
<feBlend mode="normal" in="SourceGraphic" in2="effect1_dropShadow_323_332" result="shape"/>
</filter>
<filter id="filter10_d_323_332" x="633" y="212" width="49" height="36" filterUnits="userSpaceOnUse" color-interpolation-filters="sRGB">
<feFlood flood-opacity="0" result="BackgroundImageFix"/>
<feColorMatrix in="SourceAlpha" type="matrix" values="0 0 0 0 0 0 0 0 0 0 0 0 0 0 0 0 0 0 127 0" result="hardAlpha"/>
<feOffset/>
<feGaussianBlur stdDeviation="2"/>
<feComposite in2="hardAlpha" operator="out"/>
<feColorMatrix type="matrix" values="0 0 0 0 0 0 0 0 0 0 0 0 0 0 0 0 0 0 0.25 0"/>
<feBlend mode="normal" in2="BackgroundImageFix" result="effect1_dropShadow_323_332"/>
<feBlend mode="normal" in="SourceGraphic" in2="effect1_dropShadow_323_332" result="shape"/>
</filter>
<linearGradient id="paint0_linear_323_332" x1="49.7561" y1="270.147" x2="529.71" y2="268.565" gradientUnits="userSpaceOnUse">
<stop stop-color="#777CF0"/>
<stop offset="1" stop-color="#F05862"/>
</linearGradient>
<linearGradient id="paint1_linear_323_332" x1="543" y1="369.692" x2="57.897" y2="232.467" gradientUnits="userSpaceOnUse">
<stop stop-color="#EB6B92"/>
<stop offset="1" stop-color="#777CF0"/>
</linearGradient>
<linearGradient id="paint2_linear_323_332" x1="801" y1="130" x2="801.842" y2="215.9" gradientUnits="userSpaceOnUse">
<stop stop-color="#EB6B92" stop-opacity="0.38"/>
<stop offset="1" stop-color="#EB6B92"/>
</linearGradient>
<linearGradient id="paint3_linear_323_332" x1="873" y1="216" x2="873.051" y2="237.1" gradientUnits="userSpaceOnUse">
<stop stop-color="#EB6B92" stop-opacity="0.38"/>
<stop offset="1" stop-color="#EB6B92"/>
</linearGradient>
<linearGradient id="paint4_linear_323_332" x1="729" y1="185" x2="729.226" y2="229.46" gradientUnits="userSpaceOnUse">
<stop stop-color="#EB6B92" stop-opacity="0.38"/>
<stop offset="1" stop-color="#EB6B92"/>
</linearGradient>
<linearGradient id="paint5_linear_323_332" x1="657.5" y1="216" x2="657.55" y2="237.1" gradientUnits="userSpaceOnUse">
<stop stop-color="#EB6B92" stop-opacity="0.38"/>
<stop offset="1" stop-color="#EB6B92"/>
</linearGradient>
</defs>
</svg>
