<svg width="526" height="390" viewBox="0 0 526 390" fill="none" xmlns="http://www.w3.org/2000/svg">
<path d="M470.884 106.572H496.054V109.722H470.884V106.572ZM481.384 108.162H485.344V118.362H481.384V108.162ZM473.764 91.6324H477.724V94.7824H489.124V91.6324H493.084V103.932H473.764V91.6324ZM477.724 97.9024V100.752H489.124V97.9024H477.724ZM513.541 97.3024H518.821V100.542H513.541V97.3024ZM517.741 90.5824H521.731V107.082H517.741V90.5824ZM512.311 107.682C518.191 107.682 521.821 109.692 521.821 113.052C521.821 116.442 518.191 118.392 512.311 118.392C506.431 118.392 502.801 116.442 502.801 113.052C502.801 109.692 506.431 107.682 512.311 107.682ZM512.311 110.712C508.711 110.712 506.791 111.462 506.791 113.052C506.791 114.612 508.711 115.362 512.311 115.362C515.941 115.362 517.861 114.612 517.861 113.052C517.861 111.462 515.941 110.712 512.311 110.712ZM504.901 93.3724H508.141V95.1124C508.141 100.422 505.681 105.282 500.371 107.082L498.331 103.932C502.921 102.372 504.901 98.6824 504.901 95.1124V93.3724ZM505.741 93.3724H508.951V95.1124C508.951 98.3824 510.841 101.772 515.221 103.242L513.271 106.392C508.111 104.682 505.741 100.062 505.741 95.1124V93.3724ZM499.411 92.2624H514.351V95.4424H499.411V92.2624Z" fill="#333333"/>
<path d="M475.47 61.1475H477.726C478.448 61.1475 479.044 61.0254 479.513 60.7812C479.981 60.5273 480.328 60.1758 480.553 59.7266C480.787 59.2676 480.904 58.7354 480.904 58.1299C480.904 57.583 480.797 57.0996 480.582 56.6797C480.377 56.25 480.06 55.918 479.63 55.6836C479.2 55.4395 478.658 55.3174 478.004 55.3174C477.486 55.3174 477.008 55.4199 476.568 55.625C476.129 55.8301 475.777 56.1182 475.514 56.4893C475.25 56.8604 475.118 57.3096 475.118 57.8369H470.885C470.885 56.665 471.197 55.6445 471.822 54.7754C472.457 53.9062 473.307 53.2275 474.371 52.7393C475.436 52.251 476.607 52.0068 477.887 52.0068C479.332 52.0068 480.597 52.2412 481.681 52.71C482.765 53.1689 483.609 53.8477 484.215 54.7461C484.82 55.6445 485.123 56.7578 485.123 58.0859C485.123 58.7598 484.967 59.4141 484.654 60.0488C484.342 60.6738 483.893 61.2402 483.307 61.748C482.73 62.2461 482.027 62.6465 481.197 62.9492C480.367 63.2422 479.435 63.3887 478.399 63.3887H475.47V61.1475ZM475.47 64.3555V62.1729H478.399C479.562 62.1729 480.582 62.3047 481.461 62.5684C482.34 62.832 483.077 63.2129 483.673 63.7109C484.269 64.1992 484.718 64.7803 485.021 65.4541C485.323 66.1182 485.475 66.8555 485.475 67.666C485.475 68.6621 485.284 69.5508 484.903 70.332C484.522 71.1035 483.985 71.7578 483.292 72.2949C482.608 72.832 481.808 73.2422 480.89 73.5254C479.972 73.7988 478.971 73.9355 477.887 73.9355C476.988 73.9355 476.104 73.8135 475.235 73.5693C474.376 73.3154 473.595 72.9395 472.892 72.4414C472.198 71.9336 471.642 71.2988 471.222 70.5371C470.812 69.7656 470.606 68.8525 470.606 67.7979H474.84C474.84 68.3447 474.977 68.833 475.25 69.2627C475.523 69.6924 475.899 70.0293 476.378 70.2734C476.866 70.5176 477.408 70.6396 478.004 70.6396C478.678 70.6396 479.254 70.5176 479.732 70.2734C480.221 70.0195 480.592 69.668 480.846 69.2188C481.109 68.7598 481.241 68.2275 481.241 67.6221C481.241 66.8408 481.1 66.2158 480.816 65.7471C480.533 65.2686 480.128 64.917 479.601 64.6924C479.073 64.4678 478.448 64.3555 477.726 64.3555H475.47ZM502.73 61.1035V64.7949C502.73 66.3965 502.56 67.7783 502.218 68.9404C501.876 70.0928 501.383 71.04 500.738 71.7822C500.104 72.5146 499.347 73.0566 498.468 73.4082C497.589 73.7598 496.612 73.9355 495.538 73.9355C494.679 73.9355 493.878 73.8281 493.136 73.6133C492.394 73.3887 491.725 73.042 491.129 72.5732C490.543 72.1045 490.035 71.5137 489.605 70.8008C489.186 70.0781 488.863 69.2188 488.639 68.2227C488.414 67.2266 488.302 66.084 488.302 64.7949V61.1035C488.302 59.502 488.473 58.1299 488.814 56.9873C489.166 55.835 489.659 54.8926 490.294 54.1602C490.938 53.4277 491.7 52.8906 492.579 52.5488C493.458 52.1973 494.435 52.0215 495.509 52.0215C496.368 52.0215 497.164 52.1338 497.896 52.3584C498.639 52.5732 499.308 52.9102 499.903 53.3691C500.499 53.8281 501.007 54.4189 501.427 55.1416C501.847 55.8545 502.169 56.709 502.394 57.7051C502.618 58.6914 502.73 59.8242 502.73 61.1035ZM498.497 65.3516V60.5322C498.497 59.7607 498.453 59.0869 498.365 58.5107C498.287 57.9346 498.165 57.4463 497.999 57.0459C497.833 56.6357 497.628 56.3037 497.384 56.0498C497.14 55.7959 496.861 55.6104 496.549 55.4932C496.236 55.376 495.89 55.3174 495.509 55.3174C495.03 55.3174 494.605 55.4102 494.234 55.5957C493.873 55.7812 493.565 56.0791 493.312 56.4893C493.058 56.8896 492.862 57.4268 492.726 58.1006C492.599 58.7646 492.535 59.5752 492.535 60.5322V65.3516C492.535 66.123 492.574 66.8018 492.652 67.3877C492.74 67.9736 492.867 68.4766 493.033 68.8965C493.209 69.3066 493.414 69.6436 493.648 69.9072C493.893 70.1611 494.171 70.3467 494.483 70.4639C494.806 70.5811 495.157 70.6396 495.538 70.6396C496.007 70.6396 496.422 70.5469 496.783 70.3613C497.154 70.166 497.467 69.8633 497.721 69.4531C497.984 69.0332 498.18 68.4863 498.307 67.8125C498.434 67.1387 498.497 66.3184 498.497 65.3516ZM505.543 57.5439V56.416C505.543 55.6055 505.719 54.8682 506.07 54.2041C506.422 53.54 506.939 53.0078 507.623 52.6074C508.307 52.207 509.146 52.0068 510.143 52.0068C511.168 52.0068 512.022 52.207 512.706 52.6074C513.399 53.0078 513.917 53.54 514.259 54.2041C514.61 54.8682 514.786 55.6055 514.786 56.416V57.5439C514.786 58.335 514.61 59.0625 514.259 59.7266C513.917 60.3906 513.404 60.9229 512.721 61.3232C512.037 61.7236 511.192 61.9238 510.187 61.9238C509.171 61.9238 508.316 61.7236 507.623 61.3232C506.939 60.9229 506.422 60.3906 506.07 59.7266C505.719 59.0625 505.543 58.335 505.543 57.5439ZM508.341 56.416V57.5439C508.341 57.8857 508.404 58.2129 508.531 58.5254C508.668 58.8281 508.873 59.0771 509.146 59.2725C509.43 59.458 509.771 59.5508 510.172 59.5508C510.592 59.5508 510.934 59.458 511.197 59.2725C511.461 59.0771 511.656 58.8281 511.783 58.5254C511.91 58.2129 511.974 57.8857 511.974 57.5439V56.416C511.974 56.0547 511.905 55.7227 511.769 55.4199C511.642 55.1074 511.441 54.8584 511.168 54.6729C510.904 54.4775 510.562 54.3799 510.143 54.3799C509.752 54.3799 509.42 54.4775 509.146 54.6729C508.873 54.8584 508.668 55.1074 508.531 55.4199C508.404 55.7227 508.341 56.0547 508.341 56.416ZM515.738 69.541V68.4131C515.738 67.6123 515.914 66.8799 516.266 66.2158C516.627 65.5518 517.149 65.0195 517.833 64.6191C518.526 64.2188 519.376 64.0186 520.382 64.0186C521.397 64.0186 522.247 64.2188 522.931 64.6191C523.614 65.0195 524.132 65.5518 524.483 66.2158C524.835 66.8799 525.011 67.6123 525.011 68.4131V69.541C525.011 70.3418 524.835 71.0742 524.483 71.7383C524.142 72.4023 523.629 72.9346 522.945 73.335C522.262 73.7354 521.417 73.9355 520.411 73.9355C519.396 73.9355 518.541 73.7354 517.848 73.335C517.154 72.9346 516.627 72.4023 516.266 71.7383C515.914 71.0742 515.738 70.3418 515.738 69.541ZM518.551 68.4131V69.541C518.551 69.8926 518.629 70.2246 518.785 70.5371C518.941 70.8496 519.156 71.0986 519.43 71.2842C519.713 71.4697 520.04 71.5625 520.411 71.5625C520.88 71.5625 521.246 71.4697 521.51 71.2842C521.773 71.0986 521.954 70.8496 522.052 70.5371C522.159 70.2246 522.213 69.8926 522.213 69.541V68.4131C522.213 68.0615 522.145 67.7344 522.008 67.4316C521.871 67.1191 521.666 66.8701 521.393 66.6846C521.129 66.4893 520.792 66.3916 520.382 66.3916C519.972 66.3916 519.63 66.4893 519.356 66.6846C519.093 66.8701 518.893 67.1191 518.756 67.4316C518.619 67.7344 518.551 68.0615 518.551 68.4131ZM521.422 55.3613L511.007 72.0312L508.956 70.9473L519.371 54.2773L521.422 55.3613Z" fill="#FF703B"/>
<path d="M473.974 318.76H491.584V321.94H473.974V318.76ZM470.884 328.87H496.024V332.02H470.884V328.87ZM489.184 318.76H493.114V320.98C493.114 323.41 493.114 326.2 492.244 329.86L488.314 329.47C489.184 325.9 489.184 323.35 489.184 320.98V318.76ZM483.454 334.36C489.454 334.36 493.204 336.37 493.204 339.82C493.204 343.27 489.454 345.25 483.454 345.25C477.424 345.25 473.674 343.27 473.674 339.82C473.674 336.37 477.424 334.36 483.454 334.36ZM483.454 337.57C479.704 337.57 477.694 338.26 477.694 339.82C477.694 341.35 479.704 342.07 483.454 342.07C487.204 342.07 489.184 341.35 489.184 339.82C489.184 338.26 487.204 337.57 483.454 337.57ZM513.541 324.19H518.821V327.43H513.541V324.19ZM517.741 317.47H521.731V333.97H517.741V317.47ZM512.311 334.57C518.191 334.57 521.821 336.58 521.821 339.94C521.821 343.33 518.191 345.28 512.311 345.28C506.431 345.28 502.801 343.33 502.801 339.94C502.801 336.58 506.431 334.57 512.311 334.57ZM512.311 337.6C508.711 337.6 506.791 338.35 506.791 339.94C506.791 341.5 508.711 342.25 512.311 342.25C515.941 342.25 517.861 341.5 517.861 339.94C517.861 338.35 515.941 337.6 512.311 337.6ZM504.901 320.26H508.141V322C508.141 327.31 505.681 332.17 500.371 333.97L498.331 330.82C502.921 329.26 504.901 325.57 504.901 322V320.26ZM505.741 320.26H508.951V322C508.951 325.27 510.841 328.66 515.221 330.13L513.271 333.28C508.111 331.57 505.741 326.95 505.741 322V320.26ZM499.411 319.15H514.351V322.33H499.411V319.15Z" fill="#333333"/>
<path d="M482.032 283.302H482.647V286.671H482.398C481.285 286.671 480.294 286.837 479.425 287.169C478.556 287.501 477.818 287.975 477.213 288.59C476.617 289.195 476.158 289.928 475.836 290.787C475.523 291.646 475.367 292.608 475.367 293.673V297.218C475.367 297.979 475.44 298.653 475.587 299.239C475.743 299.815 475.963 300.299 476.246 300.689C476.539 301.07 476.881 301.358 477.271 301.554C477.662 301.739 478.102 301.832 478.59 301.832C479.049 301.832 479.464 301.734 479.835 301.539C480.216 301.344 480.538 301.07 480.802 300.719C481.075 300.357 481.28 299.938 481.417 299.459C481.563 298.971 481.637 298.438 481.637 297.862C481.637 297.286 481.563 296.754 481.417 296.266C481.28 295.777 481.075 295.357 480.802 295.006C480.528 294.645 480.196 294.366 479.806 294.171C479.415 293.976 478.976 293.878 478.487 293.878C477.823 293.878 477.237 294.034 476.729 294.347C476.231 294.649 475.841 295.04 475.558 295.519C475.274 295.997 475.123 296.5 475.104 297.027L473.829 296.207C473.858 295.455 474.015 294.742 474.298 294.068C474.591 293.395 474.991 292.799 475.499 292.281C476.017 291.754 476.637 291.344 477.359 291.051C478.082 290.748 478.897 290.597 479.806 290.597C480.802 290.597 481.676 290.787 482.428 291.168C483.189 291.549 483.824 292.071 484.332 292.735C484.84 293.399 485.221 294.166 485.475 295.035C485.729 295.904 485.855 296.832 485.855 297.818C485.855 298.854 485.685 299.815 485.343 300.704C485.011 301.593 484.527 302.369 483.893 303.033C483.268 303.697 482.516 304.215 481.637 304.586C480.758 304.957 479.771 305.143 478.678 305.143C477.545 305.143 476.515 304.938 475.587 304.527C474.669 304.107 473.878 303.521 473.214 302.77C472.55 302.018 472.037 301.124 471.676 300.089C471.324 299.054 471.148 297.921 471.148 296.69V295.05C471.148 293.331 471.397 291.759 471.896 290.333C472.403 288.897 473.131 287.657 474.078 286.612C475.025 285.558 476.168 284.742 477.506 284.166C478.844 283.59 480.353 283.302 482.032 283.302ZM502.73 292.311V296.002C502.73 297.604 502.56 298.985 502.218 300.147C501.876 301.3 501.383 302.247 500.738 302.989C500.104 303.722 499.347 304.264 498.468 304.615C497.589 304.967 496.612 305.143 495.538 305.143C494.679 305.143 493.878 305.035 493.136 304.82C492.394 304.596 491.725 304.249 491.129 303.78C490.543 303.312 490.035 302.721 489.605 302.008C489.186 301.285 488.863 300.426 488.639 299.43C488.414 298.434 488.302 297.291 488.302 296.002V292.311C488.302 290.709 488.473 289.337 488.814 288.194C489.166 287.042 489.659 286.1 490.294 285.367C490.938 284.635 491.7 284.098 492.579 283.756C493.458 283.404 494.435 283.229 495.509 283.229C496.368 283.229 497.164 283.341 497.896 283.565C498.639 283.78 499.308 284.117 499.903 284.576C500.499 285.035 501.007 285.626 501.427 286.349C501.847 287.062 502.169 287.916 502.394 288.912C502.618 289.898 502.73 291.031 502.73 292.311ZM498.497 296.559V291.739C498.497 290.968 498.453 290.294 498.365 289.718C498.287 289.142 498.165 288.653 497.999 288.253C497.833 287.843 497.628 287.511 497.384 287.257C497.14 287.003 496.861 286.817 496.549 286.7C496.236 286.583 495.89 286.524 495.509 286.524C495.03 286.524 494.605 286.617 494.234 286.803C493.873 286.988 493.565 287.286 493.312 287.696C493.058 288.097 492.862 288.634 492.726 289.308C492.599 289.972 492.535 290.782 492.535 291.739V296.559C492.535 297.33 492.574 298.009 492.652 298.595C492.74 299.181 492.867 299.684 493.033 300.104C493.209 300.514 493.414 300.851 493.648 301.114C493.893 301.368 494.171 301.554 494.483 301.671C494.806 301.788 495.157 301.847 495.538 301.847C496.007 301.847 496.422 301.754 496.783 301.568C497.154 301.373 497.467 301.07 497.721 300.66C497.984 300.24 498.18 299.693 498.307 299.02C498.434 298.346 498.497 297.525 498.497 296.559ZM505.543 288.751V287.623C505.543 286.812 505.719 286.075 506.07 285.411C506.422 284.747 506.939 284.215 507.623 283.814C508.307 283.414 509.146 283.214 510.143 283.214C511.168 283.214 512.022 283.414 512.706 283.814C513.399 284.215 513.917 284.747 514.259 285.411C514.61 286.075 514.786 286.812 514.786 287.623V288.751C514.786 289.542 514.61 290.27 514.259 290.934C513.917 291.598 513.404 292.13 512.721 292.53C512.037 292.931 511.192 293.131 510.187 293.131C509.171 293.131 508.316 292.931 507.623 292.53C506.939 292.13 506.422 291.598 506.07 290.934C505.719 290.27 505.543 289.542 505.543 288.751ZM508.341 287.623V288.751C508.341 289.093 508.404 289.42 508.531 289.732C508.668 290.035 508.873 290.284 509.146 290.479C509.43 290.665 509.771 290.758 510.172 290.758C510.592 290.758 510.934 290.665 511.197 290.479C511.461 290.284 511.656 290.035 511.783 289.732C511.91 289.42 511.974 289.093 511.974 288.751V287.623C511.974 287.262 511.905 286.93 511.769 286.627C511.642 286.314 511.441 286.065 511.168 285.88C510.904 285.685 510.562 285.587 510.143 285.587C509.752 285.587 509.42 285.685 509.146 285.88C508.873 286.065 508.668 286.314 508.531 286.627C508.404 286.93 508.341 287.262 508.341 287.623ZM515.738 300.748V299.62C515.738 298.819 515.914 298.087 516.266 297.423C516.627 296.759 517.149 296.227 517.833 295.826C518.526 295.426 519.376 295.226 520.382 295.226C521.397 295.226 522.247 295.426 522.931 295.826C523.614 296.227 524.132 296.759 524.483 297.423C524.835 298.087 525.011 298.819 525.011 299.62V300.748C525.011 301.549 524.835 302.281 524.483 302.945C524.142 303.609 523.629 304.142 522.945 304.542C522.262 304.942 521.417 305.143 520.411 305.143C519.396 305.143 518.541 304.942 517.848 304.542C517.154 304.142 516.627 303.609 516.266 302.945C515.914 302.281 515.738 301.549 515.738 300.748ZM518.551 299.62V300.748C518.551 301.1 518.629 301.432 518.785 301.744C518.941 302.057 519.156 302.306 519.43 302.491C519.713 302.677 520.04 302.77 520.411 302.77C520.88 302.77 521.246 302.677 521.51 302.491C521.773 302.306 521.954 302.057 522.052 301.744C522.159 301.432 522.213 301.1 522.213 300.748V299.62C522.213 299.269 522.145 298.941 522.008 298.639C521.871 298.326 521.666 298.077 521.393 297.892C521.129 297.696 520.792 297.599 520.382 297.599C519.972 297.599 519.63 297.696 519.356 297.892C519.093 298.077 518.893 298.326 518.756 298.639C518.619 298.941 518.551 299.269 518.551 299.62ZM521.422 286.568L511.007 303.238L508.956 302.154L519.371 285.484L521.422 286.568Z" fill="#39CEF3"/>
<path d="M20.9347 86.0443H24.9547V113.824H20.9347V86.0443ZM12.7447 88.9243H16.7047C16.7047 97.4143 13.8247 104.374 3.95473 109.144L1.88473 105.964C9.86473 102.124 12.7447 97.0843 12.7447 89.6443V88.9243ZM3.35473 88.9243H14.6347V92.0743H3.35473V88.9243ZM30.4724 104.314H32.8124C37.4924 104.314 41.0624 104.254 45.2024 103.594L45.5624 106.774C41.3624 107.434 37.5824 107.554 32.8124 107.554H30.4724V104.314ZM30.4724 88.3543H43.5224V91.5943H34.4924V105.364H30.4724V88.3543ZM33.5324 96.0643H43.1324V99.1843H33.5324V96.0643ZM47.1524 86.0443H51.1724V113.824H47.1524V86.0443ZM50.2724 96.5743H55.1924V99.8743H50.2724V96.5743Z" fill="#333333"/>
<path d="M9.50195 52.2705V73.6426H5.2832V57.1338L0.214844 58.7451V55.4199L9.04785 52.2705H9.50195ZM30.8008 61.1035V64.7949C30.8008 66.3965 30.6299 67.7783 30.2881 68.9404C29.9463 70.0928 29.4531 71.04 28.8086 71.7822C28.1738 72.5146 27.417 73.0566 26.5381 73.4082C25.6592 73.7598 24.6826 73.9355 23.6084 73.9355C22.749 73.9355 21.9482 73.8281 21.2061 73.6133C20.4639 73.3887 19.7949 73.042 19.1992 72.5732C18.6133 72.1045 18.1055 71.5137 17.6758 70.8008C17.2559 70.0781 16.9336 69.2188 16.709 68.2227C16.4844 67.2266 16.3721 66.084 16.3721 64.7949V61.1035C16.3721 59.502 16.543 58.1299 16.8848 56.9873C17.2363 55.835 17.7295 54.8926 18.3643 54.1602C19.0088 53.4277 19.7705 52.8906 20.6494 52.5488C21.5283 52.1973 22.5049 52.0215 23.5791 52.0215C24.4385 52.0215 25.2344 52.1338 25.9668 52.3584C26.709 52.5732 27.3779 52.9102 27.9736 53.3691C28.5693 53.8281 29.0771 54.4189 29.4971 55.1416C29.917 55.8545 30.2393 56.709 30.4639 57.7051C30.6885 58.6914 30.8008 59.8242 30.8008 61.1035ZM26.5674 65.3516V60.5322C26.5674 59.7607 26.5234 59.0869 26.4355 58.5107C26.3574 57.9346 26.2354 57.4463 26.0693 57.0459C25.9033 56.6357 25.6982 56.3037 25.4541 56.0498C25.21 55.7959 24.9316 55.6104 24.6191 55.4932C24.3066 55.376 23.96 55.3174 23.5791 55.3174C23.1006 55.3174 22.6758 55.4102 22.3047 55.5957C21.9434 55.7812 21.6357 56.0791 21.3818 56.4893C21.1279 56.8896 20.9326 57.4268 20.7959 58.1006C20.6689 58.7646 20.6055 59.5752 20.6055 60.5322V65.3516C20.6055 66.123 20.6445 66.8018 20.7227 67.3877C20.8105 67.9736 20.9375 68.4766 21.1035 68.8965C21.2793 69.3066 21.4844 69.6436 21.7188 69.9072C21.9629 70.1611 22.2412 70.3467 22.5537 70.4639C22.876 70.5811 23.2275 70.6396 23.6084 70.6396C24.0771 70.6396 24.4922 70.5469 24.8535 70.3613C25.2246 70.166 25.5371 69.8633 25.791 69.4531C26.0547 69.0332 26.25 68.4863 26.377 67.8125C26.5039 67.1387 26.5674 66.3184 26.5674 65.3516ZM33.6133 57.5439V56.416C33.6133 55.6055 33.7891 54.8682 34.1406 54.2041C34.4922 53.54 35.0098 53.0078 35.6934 52.6074C36.377 52.207 37.2168 52.0068 38.2129 52.0068C39.2383 52.0068 40.0928 52.207 40.7764 52.6074C41.4697 53.0078 41.9873 53.54 42.3291 54.2041C42.6807 54.8682 42.8564 55.6055 42.8564 56.416V57.5439C42.8564 58.335 42.6807 59.0625 42.3291 59.7266C41.9873 60.3906 41.4746 60.9229 40.791 61.3232C40.1074 61.7236 39.2627 61.9238 38.2568 61.9238C37.2412 61.9238 36.3867 61.7236 35.6934 61.3232C35.0098 60.9229 34.4922 60.3906 34.1406 59.7266C33.7891 59.0625 33.6133 58.335 33.6133 57.5439ZM36.4111 56.416V57.5439C36.4111 57.8857 36.4746 58.2129 36.6016 58.5254C36.7383 58.8281 36.9434 59.0771 37.2168 59.2725C37.5 59.458 37.8418 59.5508 38.2422 59.5508C38.6621 59.5508 39.0039 59.458 39.2676 59.2725C39.5312 59.0771 39.7266 58.8281 39.8535 58.5254C39.9805 58.2129 40.0439 57.8857 40.0439 57.5439V56.416C40.0439 56.0547 39.9756 55.7227 39.8389 55.4199C39.7119 55.1074 39.5117 54.8584 39.2383 54.6729C38.9746 54.4775 38.6328 54.3799 38.2129 54.3799C37.8223 54.3799 37.4902 54.4775 37.2168 54.6729C36.9434 54.8584 36.7383 55.1074 36.6016 55.4199C36.4746 55.7227 36.4111 56.0547 36.4111 56.416ZM43.8086 69.541V68.4131C43.8086 67.6123 43.9844 66.8799 44.3359 66.2158C44.6973 65.5518 45.2197 65.0195 45.9033 64.6191C46.5967 64.2188 47.4463 64.0186 48.4521 64.0186C49.4678 64.0186 50.3174 64.2188 51.001 64.6191C51.6846 65.0195 52.2021 65.5518 52.5537 66.2158C52.9053 66.8799 53.0811 67.6123 53.0811 68.4131V69.541C53.0811 70.3418 52.9053 71.0742 52.5537 71.7383C52.2119 72.4023 51.6992 72.9346 51.0156 73.335C50.332 73.7354 49.4873 73.9355 48.4814 73.9355C47.4658 73.9355 46.6113 73.7354 45.918 73.335C45.2246 72.9346 44.6973 72.4023 44.3359 71.7383C43.9844 71.0742 43.8086 70.3418 43.8086 69.541ZM46.6211 68.4131V69.541C46.6211 69.8926 46.6992 70.2246 46.8555 70.5371C47.0117 70.8496 47.2266 71.0986 47.5 71.2842C47.7832 71.4697 48.1104 71.5625 48.4814 71.5625C48.9502 71.5625 49.3164 71.4697 49.5801 71.2842C49.8438 71.0986 50.0244 70.8496 50.1221 70.5371C50.2295 70.2246 50.2832 69.8926 50.2832 69.541V68.4131C50.2832 68.0615 50.2148 67.7344 50.0781 67.4316C49.9414 67.1191 49.7363 66.8701 49.4629 66.6846C49.1992 66.4893 48.8623 66.3916 48.4521 66.3916C48.042 66.3916 47.7002 66.4893 47.4268 66.6846C47.1631 66.8701 46.9629 67.1191 46.8262 67.4316C46.6895 67.7344 46.6211 68.0615 46.6211 68.4131ZM49.4922 55.3613L39.0771 72.0312L37.0264 70.9473L47.4414 54.2773L49.4922 55.3613Z" fill="#9AD960"/>
<g filter="url(#filter0_d_226_313)">
<ellipse cx="268.31" cy="191" rx="138.781" ry="145" fill="white"/>
</g>
<path d="M373.813 191.33C384.858 191.33 393.963 182.329 392.351 171.402C390.383 158.064 386.445 145.084 380.644 132.936C371.983 114.8 359.407 99.015 343.908 86.8266C328.409 74.6382 310.411 66.3799 291.335 62.7032C278.673 60.263 265.766 59.8854 253.067 61.5473C242.295 62.957 236.288 74.0041 239.175 84.4776L243.924 101.708C246.907 112.533 258.331 118.454 269.558 118.611C273.469 118.665 277.381 119.065 281.252 119.811C291.859 121.855 301.867 126.447 310.485 133.224C319.102 140.001 326.095 148.778 330.91 158.862C332.86 162.945 334.432 167.198 335.611 171.561C338.494 182.224 347.187 191.33 358.232 191.33H373.813Z" fill="url(#paint0_linear_226_313)"/>
<path d="M232.926 87.7085C229.256 77.0583 217.407 71.4145 207.673 77.0837C198.313 82.5353 189.658 89.2219 181.925 96.9796C174.359 104.569 176.036 116.813 184.384 123.532L197.257 133.892C206.104 141.013 219.078 138.931 228.181 132.141V132.141C236.844 125.679 242.248 114.767 238.728 104.549L232.926 87.7085Z" fill="url(#paint1_linear_226_313)"/>
<path d="M77.6836 64.8267H156.4L189.277 83.9838" stroke="#CDCDCD" stroke-width="2" stroke-dasharray="2 2"/>
<path d="M458.619 64.8267H379.903L347.026 83.9838" stroke="#CDCDCD" stroke-width="2" stroke-dasharray="2 2"/>
<path d="M458.619 302.31H394.445L362.516 284.804" stroke="#CDCDCD" stroke-width="2" stroke-dasharray="2 2"/>
<path d="M184.592 134.208C175.677 127.536 162.868 129.383 157.818 139.307C151.937 150.863 147.839 163.309 145.706 176.21C142.467 195.81 143.853 215.907 149.753 234.86C155.653 253.814 165.899 271.086 179.655 285.267C193.41 299.448 210.284 310.136 228.9 316.456C247.515 322.777 267.344 324.552 286.767 321.636C306.19 318.721 324.656 311.197 340.657 299.68C356.658 288.163 369.741 272.979 378.836 255.367C384.87 243.685 389.036 231.155 391.218 218.242C393.058 207.353 384.042 198.25 372.999 198.13L357.722 197.965C346.675 197.846 337.896 206.882 334.705 217.459C333.459 221.586 331.836 225.602 329.847 229.452C324.79 239.244 317.516 247.686 308.619 254.09C299.723 260.494 289.455 264.677 278.656 266.298C267.857 267.919 256.832 266.932 246.482 263.418C236.132 259.903 226.75 253.961 219.102 246.077C211.454 238.192 205.757 228.589 202.477 218.05C199.196 207.512 198.425 196.338 200.227 185.441C200.945 181.094 202.065 176.841 203.563 172.735C207.318 162.442 205.783 150.066 197.011 143.501L184.592 134.208Z" fill="#39CEF3"/>
<defs>
<filter id="filter0_d_226_313" x="79.5293" y="0" width="377.562" height="390" filterUnits="userSpaceOnUse" color-interpolation-filters="sRGB">
<feFlood flood-opacity="0" result="BackgroundImageFix"/>
<feColorMatrix in="SourceAlpha" type="matrix" values="0 0 0 0 0 0 0 0 0 0 0 0 0 0 0 0 0 0 127 0" result="hardAlpha"/>
<feOffset dy="4"/>
<feGaussianBlur stdDeviation="25"/>
<feComposite in2="hardAlpha" operator="out"/>
<feColorMatrix type="matrix" values="0 0 0 0 0 0 0 0 0 0 0 0 0 0 0 0 0 0 0.08 0"/>
<feBlend mode="normal" in2="BackgroundImageFix" result="effect1_dropShadow_226_313"/>
<feBlend mode="normal" in="SourceGraphic" in2="effect1_dropShadow_226_313" result="shape"/>
</filter>
<linearGradient id="paint0_linear_226_313" x1="355.64" y1="60.5602" x2="134.39" y2="267.195" gradientUnits="userSpaceOnUse">
<stop stop-color="#FF4906"/>
<stop offset="0.515519" stop-color="#FF8B60"/>
<stop offset="1" stop-color="#FFA685"/>
</linearGradient>
<linearGradient id="paint1_linear_226_313" x1="268.626" y1="60.5332" x2="268.626" y2="322.128" gradientUnits="userSpaceOnUse">
<stop stop-color="#A1DC67"/>
<stop offset="1" stop-color="#72CA3D"/>
</linearGradient>
</defs>
</svg>
