<svg width="526" height="390" viewBox="0 0 526 390" fill="none" xmlns="http://www.w3.org/2000/svg">
<path d="M470.884 106.572H496.054V109.722H470.884V106.572ZM481.384 108.162H485.344V118.362H481.384V108.162ZM473.764 91.6324H477.724V94.7824H489.124V91.6324H493.084V103.932H473.764V91.6324ZM477.724 97.9024V100.752H489.124V97.9024H477.724ZM513.541 97.3024H518.821V100.542H513.541V97.3024ZM517.741 90.5824H521.731V107.082H517.741V90.5824ZM512.311 107.682C518.191 107.682 521.821 109.692 521.821 113.052C521.821 116.442 518.191 118.392 512.311 118.392C506.431 118.392 502.801 116.442 502.801 113.052C502.801 109.692 506.431 107.682 512.311 107.682ZM512.311 110.712C508.711 110.712 506.791 111.462 506.791 113.052C506.791 114.612 508.711 115.362 512.311 115.362C515.941 115.362 517.861 114.612 517.861 113.052C517.861 111.462 515.941 110.712 512.311 110.712ZM504.901 93.3724H508.141V95.1124C508.141 100.422 505.681 105.282 500.371 107.082L498.331 103.932C502.921 102.372 504.901 98.6824 504.901 95.1124V93.3724ZM505.741 93.3724H508.951V95.1124C508.951 98.3824 510.841 101.772 515.221 103.242L513.271 106.392C508.111 104.682 505.741 100.062 505.741 95.1124V93.3724ZM499.411 92.2624H514.351V95.4424H499.411V92.2624Z" fill="#333333"/>
<path d="M485.519 67.7979C485.519 69.1357 485.206 70.2637 484.581 71.1816C483.956 72.0898 483.097 72.7783 482.003 73.2471C480.919 73.7061 479.688 73.9355 478.312 73.9355C476.935 73.9355 475.699 73.7061 474.605 73.2471C473.512 72.7783 472.647 72.0898 472.013 71.1816C471.378 70.2637 471.061 69.1357 471.061 67.7979C471.061 66.8994 471.241 66.0889 471.603 65.3662C471.964 64.6338 472.467 64.0088 473.111 63.4912C473.766 62.9639 474.532 62.5635 475.411 62.29C476.29 62.0068 477.247 61.8652 478.282 61.8652C479.669 61.8652 480.909 62.1094 482.003 62.5977C483.097 63.0859 483.956 63.7744 484.581 64.6631C485.206 65.5518 485.519 66.5967 485.519 67.7979ZM481.271 67.5195C481.271 66.8652 481.144 66.3037 480.89 65.835C480.646 65.3564 480.299 64.9902 479.85 64.7363C479.4 64.4824 478.878 64.3555 478.282 64.3555C477.687 64.3555 477.164 64.4824 476.715 64.7363C476.266 64.9902 475.914 65.3564 475.66 65.835C475.416 66.3037 475.294 66.8652 475.294 67.5195C475.294 68.1641 475.416 68.7207 475.66 69.1895C475.914 69.6582 476.266 70.0195 476.715 70.2734C477.174 70.5176 477.706 70.6396 478.312 70.6396C478.917 70.6396 479.439 70.5176 479.879 70.2734C480.328 70.0195 480.67 69.6582 480.904 69.1895C481.148 68.7207 481.271 68.1641 481.271 67.5195ZM485.064 57.9688C485.064 59.0527 484.776 60.0146 484.2 60.8545C483.624 61.6846 482.823 62.334 481.798 62.8027C480.782 63.2715 479.62 63.5059 478.312 63.5059C476.993 63.5059 475.821 63.2715 474.796 62.8027C473.771 62.334 472.97 61.6846 472.394 60.8545C471.817 60.0146 471.529 59.0527 471.529 57.9688C471.529 56.6797 471.817 55.5957 472.394 54.7168C472.979 53.8281 473.78 53.1543 474.796 52.6953C475.821 52.2363 476.983 52.0068 478.282 52.0068C479.601 52.0068 480.768 52.2363 481.783 52.6953C482.809 53.1543 483.609 53.8281 484.186 54.7168C484.771 55.5957 485.064 56.6797 485.064 57.9688ZM480.846 58.1592C480.846 57.583 480.743 57.085 480.538 56.665C480.333 56.2354 480.04 55.9033 479.659 55.6689C479.288 55.4346 478.829 55.3174 478.282 55.3174C477.755 55.3174 477.301 55.4297 476.92 55.6543C476.549 55.8789 476.261 56.2061 476.056 56.6357C475.86 57.0557 475.763 57.5635 475.763 58.1592C475.763 58.7354 475.86 59.2432 476.056 59.6826C476.261 60.1123 476.554 60.4492 476.935 60.6934C477.315 60.9375 477.774 61.0596 478.312 61.0596C478.849 61.0596 479.303 60.9375 479.674 60.6934C480.055 60.4492 480.343 60.1123 480.538 59.6826C480.743 59.2432 480.846 58.7354 480.846 58.1592ZM488.316 57.5439V56.416C488.316 55.6055 488.492 54.8682 488.844 54.2041C489.195 53.54 489.713 53.0078 490.396 52.6074C491.08 52.207 491.92 52.0068 492.916 52.0068C493.941 52.0068 494.796 52.207 495.479 52.6074C496.173 53.0078 496.69 53.54 497.032 54.2041C497.384 54.8682 497.56 55.6055 497.56 56.416V57.5439C497.56 58.335 497.384 59.0625 497.032 59.7266C496.69 60.3906 496.178 60.9229 495.494 61.3232C494.811 61.7236 493.966 61.9238 492.96 61.9238C491.944 61.9238 491.09 61.7236 490.396 61.3232C489.713 60.9229 489.195 60.3906 488.844 59.7266C488.492 59.0625 488.316 58.335 488.316 57.5439ZM491.114 56.416V57.5439C491.114 57.8857 491.178 58.2129 491.305 58.5254C491.441 58.8281 491.646 59.0771 491.92 59.2725C492.203 59.458 492.545 59.5508 492.945 59.5508C493.365 59.5508 493.707 59.458 493.971 59.2725C494.234 59.0771 494.43 58.8281 494.557 58.5254C494.684 58.2129 494.747 57.8857 494.747 57.5439V56.416C494.747 56.0547 494.679 55.7227 494.542 55.4199C494.415 55.1074 494.215 54.8584 493.941 54.6729C493.678 54.4775 493.336 54.3799 492.916 54.3799C492.525 54.3799 492.193 54.4775 491.92 54.6729C491.646 54.8584 491.441 55.1074 491.305 55.4199C491.178 55.7227 491.114 56.0547 491.114 56.416ZM498.512 69.541V68.4131C498.512 67.6123 498.688 66.8799 499.039 66.2158C499.4 65.5518 499.923 65.0195 500.606 64.6191C501.3 64.2188 502.149 64.0186 503.155 64.0186C504.171 64.0186 505.021 64.2188 505.704 64.6191C506.388 65.0195 506.905 65.5518 507.257 66.2158C507.608 66.8799 507.784 67.6123 507.784 68.4131V69.541C507.784 70.3418 507.608 71.0742 507.257 71.7383C506.915 72.4023 506.402 72.9346 505.719 73.335C505.035 73.7354 504.19 73.9355 503.185 73.9355C502.169 73.9355 501.314 73.7354 500.621 73.335C499.928 72.9346 499.4 72.4023 499.039 71.7383C498.688 71.0742 498.512 70.3418 498.512 69.541ZM501.324 68.4131V69.541C501.324 69.8926 501.402 70.2246 501.559 70.5371C501.715 70.8496 501.93 71.0986 502.203 71.2842C502.486 71.4697 502.813 71.5625 503.185 71.5625C503.653 71.5625 504.02 71.4697 504.283 71.2842C504.547 71.0986 504.728 70.8496 504.825 70.5371C504.933 70.2246 504.986 69.8926 504.986 69.541V68.4131C504.986 68.0615 504.918 67.7344 504.781 67.4316C504.645 67.1191 504.439 66.8701 504.166 66.6846C503.902 66.4893 503.565 66.3916 503.155 66.3916C502.745 66.3916 502.403 66.4893 502.13 66.6846C501.866 66.8701 501.666 67.1191 501.529 67.4316C501.393 67.7344 501.324 68.0615 501.324 68.4131ZM504.195 55.3613L493.78 72.0312L491.729 70.9473L502.145 54.2773L504.195 55.3613Z" fill="#FF703B"/>
<path d="M473.974 318.76H491.584V321.94H473.974V318.76ZM470.884 328.87H496.024V332.02H470.884V328.87ZM489.184 318.76H493.114V320.98C493.114 323.41 493.114 326.2 492.244 329.86L488.314 329.47C489.184 325.9 489.184 323.35 489.184 320.98V318.76ZM483.454 334.36C489.454 334.36 493.204 336.37 493.204 339.82C493.204 343.27 489.454 345.25 483.454 345.25C477.424 345.25 473.674 343.27 473.674 339.82C473.674 336.37 477.424 334.36 483.454 334.36ZM483.454 337.57C479.704 337.57 477.694 338.26 477.694 339.82C477.694 341.35 479.704 342.07 483.454 342.07C487.204 342.07 489.184 341.35 489.184 339.82C489.184 338.26 487.204 337.57 483.454 337.57ZM513.541 324.19H518.821V327.43H513.541V324.19ZM517.741 317.47H521.731V333.97H517.741V317.47ZM512.311 334.57C518.191 334.57 521.821 336.58 521.821 339.94C521.821 343.33 518.191 345.28 512.311 345.28C506.431 345.28 502.801 343.33 502.801 339.94C502.801 336.58 506.431 334.57 512.311 334.57ZM512.311 337.6C508.711 337.6 506.791 338.35 506.791 339.94C506.791 341.5 508.711 342.25 512.311 342.25C515.941 342.25 517.861 341.5 517.861 339.94C517.861 338.35 515.941 337.6 512.311 337.6ZM504.901 320.26H508.141V322C508.141 327.31 505.681 332.17 500.371 333.97L498.331 330.82C502.921 329.26 504.901 325.57 504.901 322V320.26ZM505.741 320.26H508.951V322C508.951 325.27 510.841 328.66 515.221 330.13L513.271 333.28C508.111 331.57 505.741 326.95 505.741 322V320.26ZM499.411 319.15H514.351V322.33H499.411V319.15Z" fill="#333333"/>
<path d="M485.636 283.521V285.792L477.389 304.85H472.936L481.183 286.817H470.562V283.521H485.636ZM492.345 295.138L488.976 294.332L490.191 283.521H502.174V286.935H493.663L493.136 291.666C493.419 291.5 493.849 291.324 494.425 291.139C495.001 290.943 495.646 290.846 496.358 290.846C497.394 290.846 498.312 291.007 499.112 291.329C499.913 291.651 500.592 292.12 501.148 292.735C501.715 293.351 502.145 294.103 502.438 294.991C502.73 295.88 502.877 296.886 502.877 298.009C502.877 298.956 502.73 299.859 502.438 300.719C502.145 301.568 501.7 302.33 501.104 303.004C500.509 303.668 499.762 304.19 498.863 304.571C497.965 304.952 496.9 305.143 495.67 305.143C494.752 305.143 493.863 305.006 493.004 304.732C492.154 304.459 491.388 304.054 490.704 303.517C490.03 302.979 489.488 302.33 489.078 301.568C488.678 300.797 488.468 299.918 488.448 298.932H492.638C492.696 299.537 492.853 300.06 493.106 300.499C493.37 300.929 493.717 301.261 494.146 301.495C494.576 301.729 495.079 301.847 495.655 301.847C496.192 301.847 496.651 301.744 497.032 301.539C497.413 301.334 497.721 301.051 497.955 300.689C498.189 300.318 498.36 299.889 498.468 299.4C498.585 298.902 498.644 298.365 498.644 297.789C498.644 297.213 498.575 296.69 498.438 296.222C498.302 295.753 498.092 295.348 497.809 295.006C497.525 294.664 497.164 294.4 496.725 294.215C496.295 294.029 495.792 293.937 495.216 293.937C494.435 293.937 493.829 294.059 493.399 294.303C492.979 294.547 492.628 294.825 492.345 295.138ZM505.543 288.751V287.623C505.543 286.812 505.719 286.075 506.07 285.411C506.422 284.747 506.939 284.215 507.623 283.814C508.307 283.414 509.146 283.214 510.143 283.214C511.168 283.214 512.022 283.414 512.706 283.814C513.399 284.215 513.917 284.747 514.259 285.411C514.61 286.075 514.786 286.812 514.786 287.623V288.751C514.786 289.542 514.61 290.27 514.259 290.934C513.917 291.598 513.404 292.13 512.721 292.53C512.037 292.931 511.192 293.131 510.187 293.131C509.171 293.131 508.316 292.931 507.623 292.53C506.939 292.13 506.422 291.598 506.07 290.934C505.719 290.27 505.543 289.542 505.543 288.751ZM508.341 287.623V288.751C508.341 289.093 508.404 289.42 508.531 289.732C508.668 290.035 508.873 290.284 509.146 290.479C509.43 290.665 509.771 290.758 510.172 290.758C510.592 290.758 510.934 290.665 511.197 290.479C511.461 290.284 511.656 290.035 511.783 289.732C511.91 289.42 511.974 289.093 511.974 288.751V287.623C511.974 287.262 511.905 286.93 511.769 286.627C511.642 286.314 511.441 286.065 511.168 285.88C510.904 285.685 510.562 285.587 510.143 285.587C509.752 285.587 509.42 285.685 509.146 285.88C508.873 286.065 508.668 286.314 508.531 286.627C508.404 286.93 508.341 287.262 508.341 287.623ZM515.738 300.748V299.62C515.738 298.819 515.914 298.087 516.266 297.423C516.627 296.759 517.149 296.227 517.833 295.826C518.526 295.426 519.376 295.226 520.382 295.226C521.397 295.226 522.247 295.426 522.931 295.826C523.614 296.227 524.132 296.759 524.483 297.423C524.835 298.087 525.011 298.819 525.011 299.62V300.748C525.011 301.549 524.835 302.281 524.483 302.945C524.142 303.609 523.629 304.142 522.945 304.542C522.262 304.942 521.417 305.143 520.411 305.143C519.396 305.143 518.541 304.942 517.848 304.542C517.154 304.142 516.627 303.609 516.266 302.945C515.914 302.281 515.738 301.549 515.738 300.748ZM518.551 299.62V300.748C518.551 301.1 518.629 301.432 518.785 301.744C518.941 302.057 519.156 302.306 519.43 302.491C519.713 302.677 520.04 302.77 520.411 302.77C520.88 302.77 521.246 302.677 521.51 302.491C521.773 302.306 521.954 302.057 522.052 301.744C522.159 301.432 522.213 301.1 522.213 300.748V299.62C522.213 299.269 522.145 298.941 522.008 298.639C521.871 298.326 521.666 298.077 521.393 297.892C521.129 297.696 520.792 297.599 520.382 297.599C519.972 297.599 519.63 297.696 519.356 297.892C519.093 298.077 518.893 298.326 518.756 298.639C518.619 298.941 518.551 299.269 518.551 299.62ZM521.422 286.568L511.007 303.238L508.956 302.154L519.371 285.484L521.422 286.568Z" fill="#39CEF3"/>
<path d="M20.9347 86.0443H24.9547V113.824H20.9347V86.0443ZM12.7447 88.9243H16.7047C16.7047 97.4143 13.8247 104.374 3.95473 109.144L1.88473 105.964C9.86473 102.124 12.7447 97.0843 12.7447 89.6443V88.9243ZM3.35473 88.9243H14.6347V92.0743H3.35473V88.9243ZM30.4724 104.314H32.8124C37.4924 104.314 41.0624 104.254 45.2024 103.594L45.5624 106.774C41.3624 107.434 37.5824 107.554 32.8124 107.554H30.4724V104.314ZM30.4724 88.3543H43.5224V91.5943H34.4924V105.364H30.4724V88.3543ZM33.5324 96.0643H43.1324V99.1843H33.5324V96.0643ZM47.1524 86.0443H51.1724V113.824H47.1524V86.0443ZM50.2724 96.5743H55.1924V99.8743H50.2724V96.5743Z" fill="#333333"/>
<path d="M9.50195 52.2705V73.6426H5.2832V57.1338L0.214844 58.7451V55.4199L9.04785 52.2705H9.50195ZM30.9326 52.3145V54.585L22.6855 73.6426H18.2324L26.4795 55.6104H15.8594V52.3145H30.9326ZM33.6133 57.5439V56.416C33.6133 55.6055 33.7891 54.8682 34.1406 54.2041C34.4922 53.54 35.0098 53.0078 35.6934 52.6074C36.377 52.207 37.2168 52.0068 38.2129 52.0068C39.2383 52.0068 40.0928 52.207 40.7764 52.6074C41.4697 53.0078 41.9873 53.54 42.3291 54.2041C42.6807 54.8682 42.8564 55.6055 42.8564 56.416V57.5439C42.8564 58.335 42.6807 59.0625 42.3291 59.7266C41.9873 60.3906 41.4746 60.9229 40.791 61.3232C40.1074 61.7236 39.2627 61.9238 38.2568 61.9238C37.2412 61.9238 36.3867 61.7236 35.6934 61.3232C35.0098 60.9229 34.4922 60.3906 34.1406 59.7266C33.7891 59.0625 33.6133 58.335 33.6133 57.5439ZM36.4111 56.416V57.5439C36.4111 57.8857 36.4746 58.2129 36.6016 58.5254C36.7383 58.8281 36.9434 59.0771 37.2168 59.2725C37.5 59.458 37.8418 59.5508 38.2422 59.5508C38.6621 59.5508 39.0039 59.458 39.2676 59.2725C39.5312 59.0771 39.7266 58.8281 39.8535 58.5254C39.9805 58.2129 40.0439 57.8857 40.0439 57.5439V56.416C40.0439 56.0547 39.9756 55.7227 39.8389 55.4199C39.7119 55.1074 39.5117 54.8584 39.2383 54.6729C38.9746 54.4775 38.6328 54.3799 38.2129 54.3799C37.8223 54.3799 37.4902 54.4775 37.2168 54.6729C36.9434 54.8584 36.7383 55.1074 36.6016 55.4199C36.4746 55.7227 36.4111 56.0547 36.4111 56.416ZM43.8086 69.541V68.4131C43.8086 67.6123 43.9844 66.8799 44.3359 66.2158C44.6973 65.5518 45.2197 65.0195 45.9033 64.6191C46.5967 64.2188 47.4463 64.0186 48.4521 64.0186C49.4678 64.0186 50.3174 64.2188 51.001 64.6191C51.6846 65.0195 52.2021 65.5518 52.5537 66.2158C52.9053 66.8799 53.0811 67.6123 53.0811 68.4131V69.541C53.0811 70.3418 52.9053 71.0742 52.5537 71.7383C52.2119 72.4023 51.6992 72.9346 51.0156 73.335C50.332 73.7354 49.4873 73.9355 48.4814 73.9355C47.4658 73.9355 46.6113 73.7354 45.918 73.335C45.2246 72.9346 44.6973 72.4023 44.3359 71.7383C43.9844 71.0742 43.8086 70.3418 43.8086 69.541ZM46.6211 68.4131V69.541C46.6211 69.8926 46.6992 70.2246 46.8555 70.5371C47.0117 70.8496 47.2266 71.0986 47.5 71.2842C47.7832 71.4697 48.1104 71.5625 48.4814 71.5625C48.9502 71.5625 49.3164 71.4697 49.5801 71.2842C49.8438 71.0986 50.0244 70.8496 50.1221 70.5371C50.2295 70.2246 50.2832 69.8926 50.2832 69.541V68.4131C50.2832 68.0615 50.2148 67.7344 50.0781 67.4316C49.9414 67.1191 49.7363 66.8701 49.4629 66.6846C49.1992 66.4893 48.8623 66.3916 48.4521 66.3916C48.042 66.3916 47.7002 66.4893 47.4268 66.6846C47.1631 66.8701 46.9629 67.1191 46.8262 67.4316C46.6895 67.7344 46.6211 68.0615 46.6211 68.4131ZM49.4922 55.3613L39.0771 72.0312L37.0264 70.9473L47.4414 54.2773L49.4922 55.3613Z" fill="#9AD960"/>
<g filter="url(#filter0_d_325_333)">
<ellipse cx="268.31" cy="191" rx="138.781" ry="145" fill="white"/>
</g>
<path d="M297.488 84.3085C300.318 73.8161 294.245 62.7996 283.462 61.4549C274.215 60.3019 264.873 60.2304 255.611 61.2419C244.8 62.4225 238.563 73.3602 241.248 83.8992L246.117 103.004C248.641 112.908 258.898 118.531 269.118 118.606V118.606C279.345 118.682 289.696 113.203 292.359 103.328L297.488 84.3085Z" fill="url(#paint0_linear_325_333)"/>
<path d="M232.926 87.7085C229.256 77.0583 217.408 71.4145 207.674 77.0837C197.537 82.9873 188.206 90.3519 179.966 98.9879C171.335 108.035 164.042 118.328 158.296 129.525C153.352 139.16 158.786 150.427 168.935 154.206L183.789 159.738C194.344 163.668 205.865 157.865 212.291 148.614C214.412 145.56 216.764 142.674 219.329 139.986C222.038 137.147 224.959 134.555 228.059 132.231C236.725 125.738 242.243 114.752 238.716 104.514L232.926 87.7085Z" fill="url(#paint1_linear_325_333)"/>
<path d="M77.6836 64.8267H156.4L189.277 83.9838" stroke="#CDCDCD" stroke-width="2" stroke-dasharray="2 2"/>
<path d="M458.619 64.8267H379.903L347.026 83.9838" stroke="#CDCDCD" stroke-width="2" stroke-dasharray="2 2"/>
<path d="M458.619 302.31H394.445L362.516 284.804" stroke="#CDCDCD" stroke-width="2" stroke-dasharray="2 2"/>
<path d="M169.089 164.784C158.53 161.363 147.036 167.199 145.397 178.177C142.763 195.819 143.851 213.905 148.68 231.224C155.322 255.038 168.744 276.347 187.275 292.491C205.805 308.635 228.622 318.899 252.879 322.004C277.136 325.109 301.759 320.917 323.677 309.95C345.595 298.983 363.838 281.727 376.128 260.336C388.418 238.944 394.213 214.364 392.789 189.661C391.364 164.958 382.785 141.226 368.119 121.426C357.495 107.081 344.017 95.2606 328.639 86.6748C318.943 81.2613 307.316 86.8551 303.625 97.3287L298.351 112.295C294.699 122.657 300.352 133.823 309.202 140.334C314.763 144.425 319.72 149.354 323.888 154.981C332.042 165.99 336.813 179.184 337.604 192.919C338.396 206.654 335.175 220.321 328.341 232.215C321.508 244.108 311.365 253.703 299.179 259.8C286.992 265.898 273.302 268.229 259.815 266.502C246.328 264.776 233.641 259.069 223.339 250.093C213.036 241.117 205.573 229.269 201.88 216.028C199.978 209.207 199.12 202.171 199.302 195.16C199.587 184.173 194.137 172.902 183.681 169.513L169.089 164.784Z" fill="#39CEF3"/>
<defs>
<filter id="filter0_d_325_333" x="79.5293" y="0" width="377.562" height="390" filterUnits="userSpaceOnUse" color-interpolation-filters="sRGB">
<feFlood flood-opacity="0" result="BackgroundImageFix"/>
<feColorMatrix in="SourceAlpha" type="matrix" values="0 0 0 0 0 0 0 0 0 0 0 0 0 0 0 0 0 0 127 0" result="hardAlpha"/>
<feOffset dy="4"/>
<feGaussianBlur stdDeviation="25"/>
<feComposite in2="hardAlpha" operator="out"/>
<feColorMatrix type="matrix" values="0 0 0 0 0 0 0 0 0 0 0 0 0 0 0 0 0 0 0.08 0"/>
<feBlend mode="normal" in2="BackgroundImageFix" result="effect1_dropShadow_325_333"/>
<feBlend mode="normal" in="SourceGraphic" in2="effect1_dropShadow_325_333" result="shape"/>
</filter>
<linearGradient id="paint0_linear_325_333" x1="355.64" y1="60.5602" x2="134.39" y2="267.195" gradientUnits="userSpaceOnUse">
<stop stop-color="#FF4906"/>
<stop offset="0.515519" stop-color="#FF8B60"/>
<stop offset="1" stop-color="#FFA685"/>
</linearGradient>
<linearGradient id="paint1_linear_325_333" x1="268.626" y1="60.5332" x2="268.626" y2="322.128" gradientUnits="userSpaceOnUse">
<stop stop-color="#A1DC67"/>
<stop offset="1" stop-color="#72CA3D"/>
</linearGradient>
</defs>
</svg>
