<svg width="410" height="296" viewBox="0 0 410 296" fill="none" xmlns="http://www.w3.org/2000/svg">
<g filter="url(#filter0_b_305_313)">
<path d="M93 37H94" stroke="#F19C9C" stroke-width="20" stroke-linecap="round"/>
</g>
<g filter="url(#filter1_b_305_313)">
<path d="M119 37H120" stroke="#F0939A" stroke-width="20" stroke-linecap="round"/>
</g>
<g filter="url(#filter2_b_305_313)">
<path d="M146 37H147" stroke="#EE7796" stroke-width="20" stroke-linecap="round"/>
</g>
<g filter="url(#filter3_b_305_313)">
<path d="M172 37H173" stroke="#EC7198" stroke-width="20" stroke-linecap="round"/>
</g>
<g filter="url(#filter4_b_305_313)">
<path d="M198 37H199" stroke="#EC739A" stroke-width="20" stroke-linecap="round"/>
</g>
<g filter="url(#filter5_b_305_313)">
<path d="M224 37H225" stroke="#E97CA3" stroke-width="20" stroke-linecap="round"/>
</g>
<g filter="url(#filter6_b_305_313)">
<path d="M250 37H251" stroke="#E880A8" stroke-width="20" stroke-linecap="round"/>
</g>
<g filter="url(#filter7_b_305_313)">
<path d="M275 37H276" stroke="#E787AE" stroke-width="20" stroke-linecap="round"/>
</g>
<g filter="url(#filter8_b_305_313)">
<path d="M301 37H302" stroke="#E498BF" stroke-width="20" stroke-linecap="round"/>
</g>
<g filter="url(#filter9_b_305_313)">
<path d="M326 37H327" stroke="#DFADD4" stroke-width="20" stroke-linecap="round"/>
</g>
<g filter="url(#filter10_b_305_313)">
<path d="M93 111H94" stroke="#F19C9C" stroke-width="20" stroke-linecap="round"/>
</g>
<g filter="url(#filter11_b_305_313)">
<path d="M119 111H120" stroke="#F0939A" stroke-width="20" stroke-linecap="round"/>
</g>
<g filter="url(#filter12_b_305_313)">
<path d="M146 111H147" stroke="#EE7796" stroke-width="20" stroke-linecap="round"/>
</g>
<g filter="url(#filter13_b_305_313)">
<path d="M172 111H173" stroke="#EC7198" stroke-width="20" stroke-linecap="round"/>
</g>
<g filter="url(#filter14_b_305_313)">
<path d="M198 111H199" stroke="#EC739A" stroke-width="20" stroke-linecap="round"/>
</g>
<g filter="url(#filter15_b_305_313)">
<path d="M224 111H225" stroke="#E97CA3" stroke-width="20" stroke-linecap="round"/>
</g>
<g filter="url(#filter16_b_305_313)">
<path d="M93 185H94" stroke="#F19C9C" stroke-width="20" stroke-linecap="round"/>
</g>
<g filter="url(#filter17_b_305_313)">
<path d="M119 185H120" stroke="#F0939A" stroke-width="20" stroke-linecap="round"/>
</g>
<g filter="url(#filter18_b_305_313)">
<path d="M146 185H147" stroke="#EE7796" stroke-width="20" stroke-linecap="round"/>
</g>
<g filter="url(#filter19_b_305_313)">
<path d="M172 185H173" stroke="#EC7198" stroke-width="20" stroke-linecap="round"/>
</g>
<g filter="url(#filter20_b_305_313)">
<path d="M198 185H199" stroke="#EC739A" stroke-width="20" stroke-linecap="round"/>
</g>
<g filter="url(#filter21_b_305_313)">
<path d="M224 185H225" stroke="#E97CA3" stroke-width="20" stroke-linecap="round"/>
</g>
<g filter="url(#filter22_b_305_313)">
<path d="M93 259H94" stroke="#F19C9C" stroke-width="20" stroke-linecap="round"/>
</g>
<g filter="url(#filter23_b_305_313)">
<path d="M119 259H120" stroke="#F0939A" stroke-width="20" stroke-linecap="round"/>
</g>
<g filter="url(#filter24_b_305_313)">
<path d="M146 259H147" stroke="#EE7796" stroke-width="20" stroke-linecap="round"/>
</g>
<g filter="url(#filter25_b_305_313)">
<path d="M172 259H173" stroke="#EC7198" stroke-width="20" stroke-linecap="round"/>
</g>
<g filter="url(#filter26_b_305_313)">
<path d="M198 259H199" stroke="#EC739A" stroke-width="20" stroke-linecap="round"/>
</g>
<path d="M23.3752 24.09C23.3752 22.0833 23.9585 20.4967 25.1252 19.33C26.2919 18.1633 27.8785 17.58 29.8852 17.58H52.9852C53.3119 18.0933 53.5919 18.77 53.8252 19.61C54.1052 20.45 54.2452 21.3367 54.2452 22.27C54.2452 24.0433 53.8485 25.3033 53.0552 26.05C52.3085 26.7967 51.3052 27.17 50.0452 27.17H35.2752V33.68H51.0252C51.3519 34.1933 51.6319 34.87 51.8652 35.71C52.1452 36.5033 52.2852 37.3667 52.2852 38.3C52.2852 40.0733 51.9119 41.3333 51.1652 42.08C50.4185 42.8267 49.4152 43.2 48.1552 43.2H35.2752V50.55H53.2652C53.5919 51.0633 53.8719 51.74 54.1052 52.58C54.3852 53.42 54.5252 54.3067 54.5252 55.24C54.5252 57.0133 54.1285 58.2967 53.3352 59.09C52.5885 59.8367 51.5852 60.21 50.3252 60.21H29.8852C27.8785 60.21 26.2919 59.6267 25.1252 58.46C23.9585 57.2933 23.3752 55.7067 23.3752 53.7V24.09Z" fill="#EB6B92"/>
<path d="M35.3127 117.13C33.2593 116.43 31.3927 115.73 29.7127 115.03C28.0327 114.283 26.586 113.397 25.3727 112.37C24.1593 111.343 23.2027 110.13 22.5027 108.73C21.8493 107.283 21.5227 105.533 21.5227 103.48C21.5227 99.5133 23.0393 96.34 26.0727 93.96C29.1527 91.58 33.446 90.39 38.9527 90.39C40.9593 90.39 42.826 90.53 44.5527 90.81C46.2793 91.09 47.7493 91.5333 48.9627 92.14C50.2227 92.7 51.2027 93.4467 51.9027 94.38C52.6027 95.2667 52.9527 96.3167 52.9527 97.53C52.9527 98.7433 52.6727 99.7933 52.1127 100.68C51.5527 101.52 50.876 102.243 50.0827 102.85C49.056 102.197 47.6793 101.637 45.9527 101.17C44.226 100.657 42.336 100.4 40.2827 100.4C38.1827 100.4 36.6427 100.703 35.6627 101.31C34.6827 101.87 34.1927 102.593 34.1927 103.48C34.1927 104.18 34.496 104.763 35.1027 105.23C35.7093 105.65 36.6193 106.047 37.8327 106.42L41.5427 107.61C45.9293 109.01 49.2893 110.807 51.6227 113C54.0027 115.147 55.1927 118.087 55.1927 121.82C55.1927 125.787 53.6293 129.007 50.5027 131.48C47.376 133.907 42.7793 135.12 36.7127 135.12C34.566 135.12 32.5593 134.933 30.6927 134.56C28.8727 134.233 27.2627 133.743 25.8627 133.09C24.5093 132.39 23.436 131.55 22.6427 130.57C21.896 129.543 21.5227 128.377 21.5227 127.07C21.5227 125.717 21.9193 124.573 22.7127 123.64C23.506 122.66 24.3693 121.913 25.3027 121.4C26.6093 122.427 28.196 123.313 30.0627 124.06C31.976 124.807 34.0527 125.18 36.2927 125.18C38.5793 125.18 40.1893 124.83 41.1227 124.13C42.056 123.43 42.5227 122.613 42.5227 121.68C42.5227 120.747 42.1493 120.047 41.4027 119.58C40.656 119.067 39.606 118.577 38.2527 118.11L35.3127 117.13Z" fill="#EB6B92"/>
<path d="M21.1418 175.38C20.8151 174.867 20.5118 174.167 20.2318 173.28C19.9518 172.393 19.8118 171.46 19.8118 170.48C19.8118 168.66 20.2084 167.353 21.0018 166.56C21.8418 165.767 22.9151 165.37 24.2218 165.37H54.7418C55.0684 165.883 55.3718 166.583 55.6518 167.47C55.9318 168.357 56.0718 169.29 56.0718 170.27C56.0718 172.09 55.6518 173.397 54.8118 174.19C54.0184 174.983 52.9684 175.38 51.6618 175.38H43.8918V207.72C43.3784 207.86 42.5618 208 41.4418 208.14C40.3684 208.28 39.2951 208.35 38.2218 208.35C37.1484 208.35 36.1918 208.257 35.3518 208.07C34.5584 207.93 33.8818 207.65 33.3218 207.23C32.7618 206.81 32.3418 206.227 32.0618 205.48C31.7818 204.733 31.6418 203.753 31.6418 202.54V175.38H21.1418Z" fill="#EB6B92"/>
<path d="M35.8262 239.58C36.3395 239.487 37.1562 239.37 38.2762 239.23C39.3962 239.043 40.4695 238.95 41.4962 238.95C42.5695 238.95 43.5028 239.043 44.2962 239.23C45.1362 239.37 45.8362 239.65 46.3962 240.07C46.9562 240.49 47.3762 241.073 47.6562 241.82C47.9362 242.567 48.0762 243.547 48.0762 244.76V270.66C48.0762 274.813 46.8862 277.94 44.5062 280.04C42.1262 282.093 38.6262 283.12 34.0062 283.12C31.5795 283.12 29.6195 282.747 28.1262 282C27.0528 281.487 26.2595 280.787 25.7462 279.9C25.2795 279.013 25.0462 278.01 25.0462 276.89C25.0462 275.957 25.1628 275.14 25.3962 274.44C25.6762 273.74 26.0028 273.18 26.3762 272.76C27.2628 272.947 28.0095 273.087 28.6162 273.18C29.2695 273.227 29.9695 273.25 30.7162 273.25C32.5362 273.25 33.8428 272.807 34.6362 271.92C35.4295 270.987 35.8262 269.633 35.8262 267.86V239.58Z" fill="#EB6B92"/>
<path d="M375.945 51.82C375.615 51.91 375.09 52 374.37 52.09C373.68 52.18 372.99 52.225 372.3 52.225C371.61 52.225 370.995 52.165 370.455 52.045C369.945 51.955 369.51 51.775 369.15 51.505C368.79 51.235 368.52 50.86 368.34 50.38C368.16 49.9 368.07 49.27 368.07 48.49V24.73C368.4 24.67 368.925 24.595 369.645 24.505C370.365 24.385 371.055 24.325 371.715 24.325C372.405 24.325 373.005 24.385 373.515 24.505C374.055 24.595 374.505 24.775 374.865 25.045C375.225 25.315 375.495 25.69 375.675 26.17C375.855 26.65 375.945 27.28 375.945 28.06V51.82Z" fill="#5B586C"/>
<path d="M384.359 125.055C383.939 125.475 383.324 125.79 382.514 126C381.734 126.24 380.789 126.36 379.679 126.36C378.569 126.36 377.519 126.195 376.529 125.865C375.539 125.535 374.729 124.74 374.099 123.48L369.644 114.39C369.194 113.46 368.789 112.59 368.429 111.78C368.069 110.94 367.679 109.98 367.259 108.9L366.989 108.945C367.109 110.565 367.169 112.215 367.169 113.895C367.199 115.575 367.214 117.225 367.214 118.845V125.82C366.884 125.91 366.374 126 365.684 126.09C365.024 126.18 364.364 126.225 363.704 126.225C363.044 126.225 362.459 126.18 361.949 126.09C361.439 126 361.019 125.82 360.689 125.55C360.359 125.28 360.104 124.92 359.924 124.47C359.744 123.99 359.654 123.375 359.654 122.625V100.125C360.074 99.525 360.719 99.075 361.589 98.775C362.459 98.475 363.389 98.325 364.379 98.325C365.489 98.325 366.539 98.505 367.529 98.865C368.549 99.195 369.359 99.975 369.959 101.205L374.459 110.295C374.909 111.225 375.314 112.11 375.674 112.95C376.034 113.76 376.424 114.705 376.844 115.785L377.069 115.74C376.949 114.12 376.874 112.5 376.844 110.88C376.814 109.26 376.799 107.64 376.799 106.02V98.73C377.129 98.64 377.624 98.55 378.284 98.46C378.974 98.37 379.649 98.325 380.309 98.325C381.629 98.325 382.634 98.565 383.324 99.045C384.014 99.495 384.359 100.455 384.359 101.925V125.055Z" fill="#5B586C"/>
<path d="M382.142 172.73C382.352 173.06 382.532 173.51 382.682 174.08C382.862 174.62 382.952 175.19 382.952 175.79C382.952 176.96 382.697 177.8 382.187 178.31C381.707 178.79 381.047 179.03 380.207 179.03H370.757V184.115H380.612C380.852 184.445 381.047 184.88 381.197 185.42C381.377 185.96 381.467 186.53 381.467 187.13C381.467 188.27 381.212 189.095 380.702 189.605C380.222 190.085 379.562 190.325 378.722 190.325H370.847V199.82C370.517 199.91 369.992 200 369.272 200.09C368.582 200.18 367.892 200.225 367.202 200.225C366.512 200.225 365.897 200.165 365.357 200.045C364.847 199.955 364.412 199.775 364.052 199.505C363.692 199.235 363.422 198.86 363.242 198.38C363.062 197.9 362.972 197.27 362.972 196.49V176.915C362.972 175.625 363.347 174.605 364.097 173.855C364.847 173.105 365.867 172.73 367.157 172.73H382.142Z" fill="#5B586C"/>
<path d="M372.066 259.375C373.326 259.375 374.286 259.09 374.946 258.52C375.636 257.92 375.981 257.02 375.981 255.82C375.981 254.68 375.621 253.81 374.901 253.21C374.211 252.58 373.191 252.265 371.841 252.265C371.361 252.265 370.956 252.28 370.626 252.31C370.326 252.31 370.011 252.34 369.681 252.4V259.375H372.066ZM369.726 273.82C369.396 273.91 368.871 274 368.151 274.09C367.461 274.18 366.771 274.225 366.081 274.225C365.391 274.225 364.776 274.165 364.236 274.045C363.726 273.955 363.291 273.775 362.931 273.505C362.571 273.235 362.301 272.86 362.121 272.38C361.941 271.9 361.851 271.27 361.851 270.49V249.295C361.851 248.665 362.016 248.185 362.346 247.855C362.706 247.495 363.186 247.21 363.786 247C364.806 246.64 365.961 246.385 367.251 246.235C368.571 246.055 369.891 245.965 371.211 245.965C375.351 245.965 378.516 246.85 380.706 248.62C382.896 250.39 383.991 252.79 383.991 255.82C383.991 257.29 383.751 258.625 383.271 259.825C382.821 260.995 382.131 262.015 381.201 262.885C380.301 263.725 379.146 264.385 377.736 264.865C376.356 265.315 374.751 265.54 372.921 265.54H369.726V273.82Z" fill="#5B586C"/>
<defs>
<filter id="filter0_b_305_313" x="-17" y="-73" width="221" height="220" filterUnits="userSpaceOnUse" color-interpolation-filters="sRGB">
<feFlood flood-opacity="0" result="BackgroundImageFix"/>
<feGaussianBlur in="BackgroundImageFix" stdDeviation="50"/>
<feComposite in2="SourceAlpha" operator="in" result="effect1_backgroundBlur_305_313"/>
<feBlend mode="normal" in="SourceGraphic" in2="effect1_backgroundBlur_305_313" result="shape"/>
</filter>
<filter id="filter1_b_305_313" x="9" y="-73" width="221" height="220" filterUnits="userSpaceOnUse" color-interpolation-filters="sRGB">
<feFlood flood-opacity="0" result="BackgroundImageFix"/>
<feGaussianBlur in="BackgroundImageFix" stdDeviation="50"/>
<feComposite in2="SourceAlpha" operator="in" result="effect1_backgroundBlur_305_313"/>
<feBlend mode="normal" in="SourceGraphic" in2="effect1_backgroundBlur_305_313" result="shape"/>
</filter>
<filter id="filter2_b_305_313" x="36" y="-73" width="221" height="220" filterUnits="userSpaceOnUse" color-interpolation-filters="sRGB">
<feFlood flood-opacity="0" result="BackgroundImageFix"/>
<feGaussianBlur in="BackgroundImageFix" stdDeviation="50"/>
<feComposite in2="SourceAlpha" operator="in" result="effect1_backgroundBlur_305_313"/>
<feBlend mode="normal" in="SourceGraphic" in2="effect1_backgroundBlur_305_313" result="shape"/>
</filter>
<filter id="filter3_b_305_313" x="62" y="-73" width="221" height="220" filterUnits="userSpaceOnUse" color-interpolation-filters="sRGB">
<feFlood flood-opacity="0" result="BackgroundImageFix"/>
<feGaussianBlur in="BackgroundImageFix" stdDeviation="50"/>
<feComposite in2="SourceAlpha" operator="in" result="effect1_backgroundBlur_305_313"/>
<feBlend mode="normal" in="SourceGraphic" in2="effect1_backgroundBlur_305_313" result="shape"/>
</filter>
<filter id="filter4_b_305_313" x="88" y="-73" width="221" height="220" filterUnits="userSpaceOnUse" color-interpolation-filters="sRGB">
<feFlood flood-opacity="0" result="BackgroundImageFix"/>
<feGaussianBlur in="BackgroundImageFix" stdDeviation="50"/>
<feComposite in2="SourceAlpha" operator="in" result="effect1_backgroundBlur_305_313"/>
<feBlend mode="normal" in="SourceGraphic" in2="effect1_backgroundBlur_305_313" result="shape"/>
</filter>
<filter id="filter5_b_305_313" x="114" y="-73" width="221" height="220" filterUnits="userSpaceOnUse" color-interpolation-filters="sRGB">
<feFlood flood-opacity="0" result="BackgroundImageFix"/>
<feGaussianBlur in="BackgroundImageFix" stdDeviation="50"/>
<feComposite in2="SourceAlpha" operator="in" result="effect1_backgroundBlur_305_313"/>
<feBlend mode="normal" in="SourceGraphic" in2="effect1_backgroundBlur_305_313" result="shape"/>
</filter>
<filter id="filter6_b_305_313" x="140" y="-73" width="221" height="220" filterUnits="userSpaceOnUse" color-interpolation-filters="sRGB">
<feFlood flood-opacity="0" result="BackgroundImageFix"/>
<feGaussianBlur in="BackgroundImageFix" stdDeviation="50"/>
<feComposite in2="SourceAlpha" operator="in" result="effect1_backgroundBlur_305_313"/>
<feBlend mode="normal" in="SourceGraphic" in2="effect1_backgroundBlur_305_313" result="shape"/>
</filter>
<filter id="filter7_b_305_313" x="165" y="-73" width="221" height="220" filterUnits="userSpaceOnUse" color-interpolation-filters="sRGB">
<feFlood flood-opacity="0" result="BackgroundImageFix"/>
<feGaussianBlur in="BackgroundImageFix" stdDeviation="50"/>
<feComposite in2="SourceAlpha" operator="in" result="effect1_backgroundBlur_305_313"/>
<feBlend mode="normal" in="SourceGraphic" in2="effect1_backgroundBlur_305_313" result="shape"/>
</filter>
<filter id="filter8_b_305_313" x="191" y="-73" width="221" height="220" filterUnits="userSpaceOnUse" color-interpolation-filters="sRGB">
<feFlood flood-opacity="0" result="BackgroundImageFix"/>
<feGaussianBlur in="BackgroundImageFix" stdDeviation="50"/>
<feComposite in2="SourceAlpha" operator="in" result="effect1_backgroundBlur_305_313"/>
<feBlend mode="normal" in="SourceGraphic" in2="effect1_backgroundBlur_305_313" result="shape"/>
</filter>
<filter id="filter9_b_305_313" x="216" y="-73" width="221" height="220" filterUnits="userSpaceOnUse" color-interpolation-filters="sRGB">
<feFlood flood-opacity="0" result="BackgroundImageFix"/>
<feGaussianBlur in="BackgroundImageFix" stdDeviation="50"/>
<feComposite in2="SourceAlpha" operator="in" result="effect1_backgroundBlur_305_313"/>
<feBlend mode="normal" in="SourceGraphic" in2="effect1_backgroundBlur_305_313" result="shape"/>
</filter>
<filter id="filter10_b_305_313" x="-17" y="1" width="221" height="220" filterUnits="userSpaceOnUse" color-interpolation-filters="sRGB">
<feFlood flood-opacity="0" result="BackgroundImageFix"/>
<feGaussianBlur in="BackgroundImageFix" stdDeviation="50"/>
<feComposite in2="SourceAlpha" operator="in" result="effect1_backgroundBlur_305_313"/>
<feBlend mode="normal" in="SourceGraphic" in2="effect1_backgroundBlur_305_313" result="shape"/>
</filter>
<filter id="filter11_b_305_313" x="9" y="1" width="221" height="220" filterUnits="userSpaceOnUse" color-interpolation-filters="sRGB">
<feFlood flood-opacity="0" result="BackgroundImageFix"/>
<feGaussianBlur in="BackgroundImageFix" stdDeviation="50"/>
<feComposite in2="SourceAlpha" operator="in" result="effect1_backgroundBlur_305_313"/>
<feBlend mode="normal" in="SourceGraphic" in2="effect1_backgroundBlur_305_313" result="shape"/>
</filter>
<filter id="filter12_b_305_313" x="36" y="1" width="221" height="220" filterUnits="userSpaceOnUse" color-interpolation-filters="sRGB">
<feFlood flood-opacity="0" result="BackgroundImageFix"/>
<feGaussianBlur in="BackgroundImageFix" stdDeviation="50"/>
<feComposite in2="SourceAlpha" operator="in" result="effect1_backgroundBlur_305_313"/>
<feBlend mode="normal" in="SourceGraphic" in2="effect1_backgroundBlur_305_313" result="shape"/>
</filter>
<filter id="filter13_b_305_313" x="62" y="1" width="221" height="220" filterUnits="userSpaceOnUse" color-interpolation-filters="sRGB">
<feFlood flood-opacity="0" result="BackgroundImageFix"/>
<feGaussianBlur in="BackgroundImageFix" stdDeviation="50"/>
<feComposite in2="SourceAlpha" operator="in" result="effect1_backgroundBlur_305_313"/>
<feBlend mode="normal" in="SourceGraphic" in2="effect1_backgroundBlur_305_313" result="shape"/>
</filter>
<filter id="filter14_b_305_313" x="88" y="1" width="221" height="220" filterUnits="userSpaceOnUse" color-interpolation-filters="sRGB">
<feFlood flood-opacity="0" result="BackgroundImageFix"/>
<feGaussianBlur in="BackgroundImageFix" stdDeviation="50"/>
<feComposite in2="SourceAlpha" operator="in" result="effect1_backgroundBlur_305_313"/>
<feBlend mode="normal" in="SourceGraphic" in2="effect1_backgroundBlur_305_313" result="shape"/>
</filter>
<filter id="filter15_b_305_313" x="114" y="1" width="221" height="220" filterUnits="userSpaceOnUse" color-interpolation-filters="sRGB">
<feFlood flood-opacity="0" result="BackgroundImageFix"/>
<feGaussianBlur in="BackgroundImageFix" stdDeviation="50"/>
<feComposite in2="SourceAlpha" operator="in" result="effect1_backgroundBlur_305_313"/>
<feBlend mode="normal" in="SourceGraphic" in2="effect1_backgroundBlur_305_313" result="shape"/>
</filter>
<filter id="filter16_b_305_313" x="-17" y="75" width="221" height="220" filterUnits="userSpaceOnUse" color-interpolation-filters="sRGB">
<feFlood flood-opacity="0" result="BackgroundImageFix"/>
<feGaussianBlur in="BackgroundImageFix" stdDeviation="50"/>
<feComposite in2="SourceAlpha" operator="in" result="effect1_backgroundBlur_305_313"/>
<feBlend mode="normal" in="SourceGraphic" in2="effect1_backgroundBlur_305_313" result="shape"/>
</filter>
<filter id="filter17_b_305_313" x="9" y="75" width="221" height="220" filterUnits="userSpaceOnUse" color-interpolation-filters="sRGB">
<feFlood flood-opacity="0" result="BackgroundImageFix"/>
<feGaussianBlur in="BackgroundImageFix" stdDeviation="50"/>
<feComposite in2="SourceAlpha" operator="in" result="effect1_backgroundBlur_305_313"/>
<feBlend mode="normal" in="SourceGraphic" in2="effect1_backgroundBlur_305_313" result="shape"/>
</filter>
<filter id="filter18_b_305_313" x="36" y="75" width="221" height="220" filterUnits="userSpaceOnUse" color-interpolation-filters="sRGB">
<feFlood flood-opacity="0" result="BackgroundImageFix"/>
<feGaussianBlur in="BackgroundImageFix" stdDeviation="50"/>
<feComposite in2="SourceAlpha" operator="in" result="effect1_backgroundBlur_305_313"/>
<feBlend mode="normal" in="SourceGraphic" in2="effect1_backgroundBlur_305_313" result="shape"/>
</filter>
<filter id="filter19_b_305_313" x="62" y="75" width="221" height="220" filterUnits="userSpaceOnUse" color-interpolation-filters="sRGB">
<feFlood flood-opacity="0" result="BackgroundImageFix"/>
<feGaussianBlur in="BackgroundImageFix" stdDeviation="50"/>
<feComposite in2="SourceAlpha" operator="in" result="effect1_backgroundBlur_305_313"/>
<feBlend mode="normal" in="SourceGraphic" in2="effect1_backgroundBlur_305_313" result="shape"/>
</filter>
<filter id="filter20_b_305_313" x="88" y="75" width="221" height="220" filterUnits="userSpaceOnUse" color-interpolation-filters="sRGB">
<feFlood flood-opacity="0" result="BackgroundImageFix"/>
<feGaussianBlur in="BackgroundImageFix" stdDeviation="50"/>
<feComposite in2="SourceAlpha" operator="in" result="effect1_backgroundBlur_305_313"/>
<feBlend mode="normal" in="SourceGraphic" in2="effect1_backgroundBlur_305_313" result="shape"/>
</filter>
<filter id="filter21_b_305_313" x="114" y="75" width="221" height="220" filterUnits="userSpaceOnUse" color-interpolation-filters="sRGB">
<feFlood flood-opacity="0" result="BackgroundImageFix"/>
<feGaussianBlur in="BackgroundImageFix" stdDeviation="50"/>
<feComposite in2="SourceAlpha" operator="in" result="effect1_backgroundBlur_305_313"/>
<feBlend mode="normal" in="SourceGraphic" in2="effect1_backgroundBlur_305_313" result="shape"/>
</filter>
<filter id="filter22_b_305_313" x="-17" y="149" width="221" height="220" filterUnits="userSpaceOnUse" color-interpolation-filters="sRGB">
<feFlood flood-opacity="0" result="BackgroundImageFix"/>
<feGaussianBlur in="BackgroundImageFix" stdDeviation="50"/>
<feComposite in2="SourceAlpha" operator="in" result="effect1_backgroundBlur_305_313"/>
<feBlend mode="normal" in="SourceGraphic" in2="effect1_backgroundBlur_305_313" result="shape"/>
</filter>
<filter id="filter23_b_305_313" x="9" y="149" width="221" height="220" filterUnits="userSpaceOnUse" color-interpolation-filters="sRGB">
<feFlood flood-opacity="0" result="BackgroundImageFix"/>
<feGaussianBlur in="BackgroundImageFix" stdDeviation="50"/>
<feComposite in2="SourceAlpha" operator="in" result="effect1_backgroundBlur_305_313"/>
<feBlend mode="normal" in="SourceGraphic" in2="effect1_backgroundBlur_305_313" result="shape"/>
</filter>
<filter id="filter24_b_305_313" x="36" y="149" width="221" height="220" filterUnits="userSpaceOnUse" color-interpolation-filters="sRGB">
<feFlood flood-opacity="0" result="BackgroundImageFix"/>
<feGaussianBlur in="BackgroundImageFix" stdDeviation="50"/>
<feComposite in2="SourceAlpha" operator="in" result="effect1_backgroundBlur_305_313"/>
<feBlend mode="normal" in="SourceGraphic" in2="effect1_backgroundBlur_305_313" result="shape"/>
</filter>
<filter id="filter25_b_305_313" x="62" y="149" width="221" height="220" filterUnits="userSpaceOnUse" color-interpolation-filters="sRGB">
<feFlood flood-opacity="0" result="BackgroundImageFix"/>
<feGaussianBlur in="BackgroundImageFix" stdDeviation="50"/>
<feComposite in2="SourceAlpha" operator="in" result="effect1_backgroundBlur_305_313"/>
<feBlend mode="normal" in="SourceGraphic" in2="effect1_backgroundBlur_305_313" result="shape"/>
</filter>
<filter id="filter26_b_305_313" x="88" y="149" width="221" height="220" filterUnits="userSpaceOnUse" color-interpolation-filters="sRGB">
<feFlood flood-opacity="0" result="BackgroundImageFix"/>
<feGaussianBlur in="BackgroundImageFix" stdDeviation="50"/>
<feComposite in2="SourceAlpha" operator="in" result="effect1_backgroundBlur_305_313"/>
<feBlend mode="normal" in="SourceGraphic" in2="effect1_backgroundBlur_305_313" result="shape"/>
</filter>
</defs>
</svg>
