<svg width="527" height="368" viewBox="0 0 527 368" fill="none" xmlns="http://www.w3.org/2000/svg">
<g filter="url(#filter0_d_310_317)">
<circle cx="268" cy="180" r="134" fill="white"/>
</g>
<path d="M373 182C384.046 182 393.155 172.995 391.495 162.075C387.699 137.108 376.825 113.703 360.046 94.954C343.447 76.4064 322.03 63.4897 298.593 57.6018C287.839 54.9003 278.118 63.3574 277.315 74.4158L276.096 91.1891C275.299 102.164 283.731 111.455 293.964 115.499C303.737 119.361 312.614 125.52 319.846 133.6C327.202 141.82 332.517 151.649 335.47 162.245C338.437 172.884 347.123 182 358.169 182H373Z" fill="url(#paint0_linear_310_317)"/>
<path d="M268.5 78C268.5 66.9543 259.486 57.8319 248.591 59.6486C231.972 62.4196 216.022 68.6429 201.777 78.0082C181.914 91.0665 166.217 109.673 156.586 131.576C146.955 153.478 143.803 177.737 147.511 201.416C151.219 225.094 161.63 247.177 177.481 264.99C193.332 282.804 213.945 295.583 236.824 301.783C259.703 307.982 283.866 307.335 306.389 299.92C328.912 292.505 348.828 278.639 363.727 260.003C374.471 246.562 382.274 231.056 386.715 214.511C389.573 203.861 381.46 193.972 370.495 192.81L356.179 191.293C345.175 190.127 335.573 198.325 331.355 208.555C328.872 214.577 325.544 220.244 321.446 225.369C313.163 235.731 302.089 243.441 289.566 247.563C277.044 251.686 263.609 252.046 250.888 248.599C238.167 245.152 226.707 238.047 217.893 228.143C209.08 218.238 203.292 205.961 201.23 192.795C199.168 179.63 200.921 166.142 206.276 153.964C211.631 141.786 220.358 131.441 231.402 124.181C236.817 120.62 242.675 117.877 248.793 116.005C259.355 112.773 268.5 104.102 268.5 93.056L268.5 78Z" fill="#39CEF3"/>
<path d="M471.884 110.264H497.054V113.414H471.884V110.264ZM482.384 111.854H486.344V122.054H482.384V111.854ZM474.764 95.3238H478.724V98.4738H490.124V95.3238H494.084V107.624H474.764V95.3238ZM478.724 101.594V104.444H490.124V101.594H478.724ZM514.541 100.994H519.821V104.234H514.541V100.994ZM518.741 94.2738H522.731V110.774H518.741V94.2738ZM513.311 111.374C519.191 111.374 522.821 113.384 522.821 116.744C522.821 120.134 519.191 122.084 513.311 122.084C507.431 122.084 503.801 120.134 503.801 116.744C503.801 113.384 507.431 111.374 513.311 111.374ZM513.311 114.404C509.711 114.404 507.791 115.154 507.791 116.744C507.791 118.304 509.711 119.054 513.311 119.054C516.941 119.054 518.861 118.304 518.861 116.744C518.861 115.154 516.941 114.404 513.311 114.404ZM505.901 97.0638H509.141V98.8038C509.141 104.114 506.681 108.974 501.371 110.774L499.331 107.624C503.921 106.064 505.901 102.374 505.901 98.8038V97.0638ZM506.741 97.0638H509.951V98.8038C509.951 102.074 511.841 105.464 516.221 106.934L514.271 110.084C509.111 108.374 506.741 103.754 506.741 98.8038V97.0638ZM500.411 95.9538H515.351V99.1338H500.411V95.9538Z" fill="#333333"/>
<path d="M486.738 74.3281V77.624H472.148V74.8115L479.048 67.4141C479.741 66.6426 480.288 65.9639 480.688 65.3779C481.089 64.7822 481.377 64.25 481.553 63.7812C481.738 63.3027 481.831 62.8486 481.831 62.4189C481.831 61.7744 481.724 61.2227 481.509 60.7637C481.294 60.2949 480.977 59.9336 480.557 59.6797C480.146 59.4258 479.639 59.2988 479.033 59.2988C478.389 59.2988 477.832 59.4551 477.363 59.7676C476.904 60.0801 476.553 60.5146 476.309 61.0713C476.074 61.6279 475.957 62.2578 475.957 62.9609H471.724C471.724 61.6914 472.026 60.5293 472.632 59.4746C473.237 58.4102 474.092 57.5654 475.195 56.9404C476.299 56.3057 477.607 55.9883 479.121 55.9883C480.615 55.9883 481.875 56.2324 482.9 56.7207C483.936 57.1992 484.717 57.8926 485.244 58.8008C485.781 59.6992 486.05 60.7734 486.05 62.0234C486.05 62.7266 485.938 63.415 485.713 64.0889C485.488 64.7529 485.166 65.417 484.746 66.0811C484.336 66.7354 483.838 67.3994 483.252 68.0732C482.666 68.7471 482.017 69.4453 481.304 70.168L477.598 74.3281H486.738ZM503.73 65.085V68.7764C503.73 70.3779 503.56 71.7598 503.218 72.9219C502.876 74.0742 502.383 75.0215 501.738 75.7637C501.104 76.4961 500.347 77.0381 499.468 77.3896C498.589 77.7412 497.612 77.917 496.538 77.917C495.679 77.917 494.878 77.8096 494.136 77.5947C493.394 77.3701 492.725 77.0234 492.129 76.5547C491.543 76.0859 491.035 75.4951 490.605 74.7822C490.186 74.0596 489.863 73.2002 489.639 72.2041C489.414 71.208 489.302 70.0654 489.302 68.7764V65.085C489.302 63.4834 489.473 62.1113 489.814 60.9688C490.166 59.8164 490.659 58.874 491.294 58.1416C491.938 57.4092 492.7 56.8721 493.579 56.5303C494.458 56.1787 495.435 56.0029 496.509 56.0029C497.368 56.0029 498.164 56.1152 498.896 56.3398C499.639 56.5547 500.308 56.8916 500.903 57.3506C501.499 57.8096 502.007 58.4004 502.427 59.123C502.847 59.8359 503.169 60.6904 503.394 61.6865C503.618 62.6729 503.73 63.8057 503.73 65.085ZM499.497 69.333V64.5137C499.497 63.7422 499.453 63.0684 499.365 62.4922C499.287 61.916 499.165 61.4277 498.999 61.0273C498.833 60.6172 498.628 60.2852 498.384 60.0312C498.14 59.7773 497.861 59.5918 497.549 59.4746C497.236 59.3574 496.89 59.2988 496.509 59.2988C496.03 59.2988 495.605 59.3916 495.234 59.5771C494.873 59.7627 494.565 60.0605 494.312 60.4707C494.058 60.8711 493.862 61.4082 493.726 62.082C493.599 62.7461 493.535 63.5566 493.535 64.5137V69.333C493.535 70.1045 493.574 70.7832 493.652 71.3691C493.74 71.9551 493.867 72.458 494.033 72.8779C494.209 73.2881 494.414 73.625 494.648 73.8887C494.893 74.1426 495.171 74.3281 495.483 74.4453C495.806 74.5625 496.157 74.6211 496.538 74.6211C497.007 74.6211 497.422 74.5283 497.783 74.3428C498.154 74.1475 498.467 73.8447 498.721 73.4346C498.984 73.0146 499.18 72.4678 499.307 71.7939C499.434 71.1201 499.497 70.2998 499.497 69.333ZM506.543 61.5254V60.3975C506.543 59.5869 506.719 58.8496 507.07 58.1855C507.422 57.5215 507.939 56.9893 508.623 56.5889C509.307 56.1885 510.146 55.9883 511.143 55.9883C512.168 55.9883 513.022 56.1885 513.706 56.5889C514.399 56.9893 514.917 57.5215 515.259 58.1855C515.61 58.8496 515.786 59.5869 515.786 60.3975V61.5254C515.786 62.3164 515.61 63.0439 515.259 63.708C514.917 64.3721 514.404 64.9043 513.721 65.3047C513.037 65.7051 512.192 65.9053 511.187 65.9053C510.171 65.9053 509.316 65.7051 508.623 65.3047C507.939 64.9043 507.422 64.3721 507.07 63.708C506.719 63.0439 506.543 62.3164 506.543 61.5254ZM509.341 60.3975V61.5254C509.341 61.8672 509.404 62.1943 509.531 62.5068C509.668 62.8096 509.873 63.0586 510.146 63.2539C510.43 63.4395 510.771 63.5322 511.172 63.5322C511.592 63.5322 511.934 63.4395 512.197 63.2539C512.461 63.0586 512.656 62.8096 512.783 62.5068C512.91 62.1943 512.974 61.8672 512.974 61.5254V60.3975C512.974 60.0361 512.905 59.7041 512.769 59.4014C512.642 59.0889 512.441 58.8398 512.168 58.6543C511.904 58.459 511.562 58.3613 511.143 58.3613C510.752 58.3613 510.42 58.459 510.146 58.6543C509.873 58.8398 509.668 59.0889 509.531 59.4014C509.404 59.7041 509.341 60.0361 509.341 60.3975ZM516.738 73.5225V72.3945C516.738 71.5938 516.914 70.8613 517.266 70.1973C517.627 69.5332 518.149 69.001 518.833 68.6006C519.526 68.2002 520.376 68 521.382 68C522.397 68 523.247 68.2002 523.931 68.6006C524.614 69.001 525.132 69.5332 525.483 70.1973C525.835 70.8613 526.011 71.5938 526.011 72.3945V73.5225C526.011 74.3232 525.835 75.0557 525.483 75.7197C525.142 76.3838 524.629 76.916 523.945 77.3164C523.262 77.7168 522.417 77.917 521.411 77.917C520.396 77.917 519.541 77.7168 518.848 77.3164C518.154 76.916 517.627 76.3838 517.266 75.7197C516.914 75.0557 516.738 74.3232 516.738 73.5225ZM519.551 72.3945V73.5225C519.551 73.874 519.629 74.2061 519.785 74.5186C519.941 74.8311 520.156 75.0801 520.43 75.2656C520.713 75.4512 521.04 75.5439 521.411 75.5439C521.88 75.5439 522.246 75.4512 522.51 75.2656C522.773 75.0801 522.954 74.8311 523.052 74.5186C523.159 74.2061 523.213 73.874 523.213 73.5225V72.3945C523.213 72.043 523.145 71.7158 523.008 71.4131C522.871 71.1006 522.666 70.8516 522.393 70.666C522.129 70.4707 521.792 70.373 521.382 70.373C520.972 70.373 520.63 70.4707 520.356 70.666C520.093 70.8516 519.893 71.1006 519.756 71.4131C519.619 71.7158 519.551 72.043 519.551 72.3945ZM522.422 59.3428L512.007 76.0127L509.956 74.9287L520.371 58.2588L522.422 59.3428Z" fill="#FF703B"/>
<path d="M5.88473 91.057H23.4947V94.237H5.88473V91.057ZM2.79473 101.167H27.9347V104.317H2.79473V101.167ZM21.0947 91.057H25.0247V93.277C25.0247 95.707 25.0247 98.497 24.1547 102.157L20.2247 101.767C21.0947 98.197 21.0947 95.647 21.0947 93.277V91.057ZM15.3647 106.657C21.3647 106.657 25.1147 108.667 25.1147 112.117C25.1147 115.567 21.3647 117.547 15.3647 117.547C9.33473 117.547 5.58473 115.567 5.58473 112.117C5.58473 108.667 9.33473 106.657 15.3647 106.657ZM15.3647 109.867C11.6147 109.867 9.60473 110.557 9.60473 112.117C9.60473 113.647 11.6147 114.367 15.3647 114.367C19.1147 114.367 21.0947 113.647 21.0947 112.117C21.0947 110.557 19.1147 109.867 15.3647 109.867ZM45.4524 96.487H50.7324V99.727H45.4524V96.487ZM49.6524 89.767H53.6424V106.267H49.6524V89.767ZM44.2224 106.867C50.1024 106.867 53.7324 108.877 53.7324 112.237C53.7324 115.627 50.1024 117.577 44.2224 117.577C38.3424 117.577 34.7124 115.627 34.7124 112.237C34.7124 108.877 38.3424 106.867 44.2224 106.867ZM44.2224 109.897C40.6224 109.897 38.7024 110.647 38.7024 112.237C38.7024 113.797 40.6224 114.547 44.2224 114.547C47.8524 114.547 49.7724 113.797 49.7724 112.237C49.7724 110.647 47.8524 109.897 44.2224 109.897ZM36.8124 92.557H40.0524V94.297C40.0524 99.607 37.5924 104.467 32.2824 106.267L30.2424 103.117C34.8324 101.557 36.8124 97.867 36.8124 94.297V92.557ZM37.6524 92.557H40.8624V94.297C40.8624 97.567 42.7524 100.957 47.1324 102.427L45.1824 105.577C40.0224 103.867 37.6524 99.247 37.6524 94.297V92.557ZM31.3224 91.447H46.2624V94.627H31.3224V91.447Z" fill="#333333"/>
<path d="M14.5889 71.7793C14.5889 73.1172 14.2764 74.2451 13.6514 75.1631C13.0264 76.0713 12.167 76.7598 11.0732 77.2285C9.98926 77.6875 8.75879 77.917 7.38184 77.917C6.00488 77.917 4.76953 77.6875 3.67578 77.2285C2.58203 76.7598 1.71777 76.0713 1.08301 75.1631C0.448242 74.2451 0.130859 73.1172 0.130859 71.7793C0.130859 70.8809 0.311523 70.0703 0.672852 69.3477C1.03418 68.6152 1.53711 67.9902 2.18164 67.4727C2.83594 66.9453 3.60254 66.5449 4.48145 66.2715C5.36035 65.9883 6.31738 65.8467 7.35254 65.8467C8.73926 65.8467 9.97949 66.0908 11.0732 66.5791C12.167 67.0674 13.0264 67.7559 13.6514 68.6445C14.2764 69.5332 14.5889 70.5781 14.5889 71.7793ZM10.3408 71.501C10.3408 70.8467 10.2139 70.2852 9.95996 69.8164C9.71582 69.3379 9.36914 68.9717 8.91992 68.7178C8.4707 68.4639 7.94824 68.3369 7.35254 68.3369C6.75684 68.3369 6.23438 68.4639 5.78516 68.7178C5.33594 68.9717 4.98438 69.3379 4.73047 69.8164C4.48633 70.2852 4.36426 70.8467 4.36426 71.501C4.36426 72.1455 4.48633 72.7021 4.73047 73.1709C4.98438 73.6396 5.33594 74.001 5.78516 74.2549C6.24414 74.499 6.77637 74.6211 7.38184 74.6211C7.9873 74.6211 8.50977 74.499 8.94922 74.2549C9.39844 74.001 9.74023 73.6396 9.97461 73.1709C10.2188 72.7021 10.3408 72.1455 10.3408 71.501ZM14.1348 61.9502C14.1348 63.0342 13.8467 63.9961 13.2705 64.8359C12.6943 65.666 11.8936 66.3154 10.8682 66.7842C9.85254 67.2529 8.69043 67.4873 7.38184 67.4873C6.06348 67.4873 4.8916 67.2529 3.86621 66.7842C2.84082 66.3154 2.04004 65.666 1.46387 64.8359C0.887695 63.9961 0.599609 63.0342 0.599609 61.9502C0.599609 60.6611 0.887695 59.5771 1.46387 58.6982C2.0498 57.8096 2.85059 57.1357 3.86621 56.6768C4.8916 56.2178 6.05371 55.9883 7.35254 55.9883C8.6709 55.9883 9.83789 56.2178 10.8535 56.6768C11.8789 57.1357 12.6797 57.8096 13.2559 58.6982C13.8418 59.5771 14.1348 60.6611 14.1348 61.9502ZM9.91602 62.1406C9.91602 61.5645 9.81348 61.0664 9.6084 60.6465C9.40332 60.2168 9.11035 59.8848 8.72949 59.6504C8.3584 59.416 7.89941 59.2988 7.35254 59.2988C6.8252 59.2988 6.37109 59.4111 5.99023 59.6357C5.61914 59.8604 5.33105 60.1875 5.12598 60.6172C4.93066 61.0371 4.83301 61.5449 4.83301 62.1406C4.83301 62.7168 4.93066 63.2246 5.12598 63.6641C5.33105 64.0938 5.62402 64.4307 6.00488 64.6748C6.38574 64.9189 6.84473 65.041 7.38184 65.041C7.91895 65.041 8.37305 64.9189 8.74414 64.6748C9.125 64.4307 9.41309 64.0938 9.6084 63.6641C9.81348 63.2246 9.91602 62.7168 9.91602 62.1406ZM31.8008 65.085V68.7764C31.8008 70.3779 31.6299 71.7598 31.2881 72.9219C30.9463 74.0742 30.4531 75.0215 29.8086 75.7637C29.1738 76.4961 28.417 77.0381 27.5381 77.3896C26.6592 77.7412 25.6826 77.917 24.6084 77.917C23.749 77.917 22.9482 77.8096 22.2061 77.5947C21.4639 77.3701 20.7949 77.0234 20.1992 76.5547C19.6133 76.0859 19.1055 75.4951 18.6758 74.7822C18.2559 74.0596 17.9336 73.2002 17.709 72.2041C17.4844 71.208 17.3721 70.0654 17.3721 68.7764V65.085C17.3721 63.4834 17.543 62.1113 17.8848 60.9688C18.2363 59.8164 18.7295 58.874 19.3643 58.1416C20.0088 57.4092 20.7705 56.8721 21.6494 56.5303C22.5283 56.1787 23.5049 56.0029 24.5791 56.0029C25.4385 56.0029 26.2344 56.1152 26.9668 56.3398C27.709 56.5547 28.3779 56.8916 28.9736 57.3506C29.5693 57.8096 30.0771 58.4004 30.4971 59.123C30.917 59.8359 31.2393 60.6904 31.4639 61.6865C31.6885 62.6729 31.8008 63.8057 31.8008 65.085ZM27.5674 69.333V64.5137C27.5674 63.7422 27.5234 63.0684 27.4355 62.4922C27.3574 61.916 27.2354 61.4277 27.0693 61.0273C26.9033 60.6172 26.6982 60.2852 26.4541 60.0312C26.21 59.7773 25.9316 59.5918 25.6191 59.4746C25.3066 59.3574 24.96 59.2988 24.5791 59.2988C24.1006 59.2988 23.6758 59.3916 23.3047 59.5771C22.9434 59.7627 22.6357 60.0605 22.3818 60.4707C22.1279 60.8711 21.9326 61.4082 21.7959 62.082C21.6689 62.7461 21.6055 63.5566 21.6055 64.5137V69.333C21.6055 70.1045 21.6445 70.7832 21.7227 71.3691C21.8105 71.9551 21.9375 72.458 22.1035 72.8779C22.2793 73.2881 22.4844 73.625 22.7188 73.8887C22.9629 74.1426 23.2412 74.3281 23.5537 74.4453C23.876 74.5625 24.2275 74.6211 24.6084 74.6211C25.0771 74.6211 25.4922 74.5283 25.8535 74.3428C26.2246 74.1475 26.5371 73.8447 26.791 73.4346C27.0547 73.0146 27.25 72.4678 27.377 71.7939C27.5039 71.1201 27.5674 70.2998 27.5674 69.333ZM34.6133 61.5254V60.3975C34.6133 59.5869 34.7891 58.8496 35.1406 58.1855C35.4922 57.5215 36.0098 56.9893 36.6934 56.5889C37.377 56.1885 38.2168 55.9883 39.2129 55.9883C40.2383 55.9883 41.0928 56.1885 41.7764 56.5889C42.4697 56.9893 42.9873 57.5215 43.3291 58.1855C43.6807 58.8496 43.8564 59.5869 43.8564 60.3975V61.5254C43.8564 62.3164 43.6807 63.0439 43.3291 63.708C42.9873 64.3721 42.4746 64.9043 41.791 65.3047C41.1074 65.7051 40.2627 65.9053 39.2568 65.9053C38.2412 65.9053 37.3867 65.7051 36.6934 65.3047C36.0098 64.9043 35.4922 64.3721 35.1406 63.708C34.7891 63.0439 34.6133 62.3164 34.6133 61.5254ZM37.4111 60.3975V61.5254C37.4111 61.8672 37.4746 62.1943 37.6016 62.5068C37.7383 62.8096 37.9434 63.0586 38.2168 63.2539C38.5 63.4395 38.8418 63.5322 39.2422 63.5322C39.6621 63.5322 40.0039 63.4395 40.2676 63.2539C40.5312 63.0586 40.7266 62.8096 40.8535 62.5068C40.9805 62.1943 41.0439 61.8672 41.0439 61.5254V60.3975C41.0439 60.0361 40.9756 59.7041 40.8389 59.4014C40.7119 59.0889 40.5117 58.8398 40.2383 58.6543C39.9746 58.459 39.6328 58.3613 39.2129 58.3613C38.8223 58.3613 38.4902 58.459 38.2168 58.6543C37.9434 58.8398 37.7383 59.0889 37.6016 59.4014C37.4746 59.7041 37.4111 60.0361 37.4111 60.3975ZM44.8086 73.5225V72.3945C44.8086 71.5938 44.9844 70.8613 45.3359 70.1973C45.6973 69.5332 46.2197 69.001 46.9033 68.6006C47.5967 68.2002 48.4463 68 49.4521 68C50.4678 68 51.3174 68.2002 52.001 68.6006C52.6846 69.001 53.2021 69.5332 53.5537 70.1973C53.9053 70.8613 54.0811 71.5938 54.0811 72.3945V73.5225C54.0811 74.3232 53.9053 75.0557 53.5537 75.7197C53.2119 76.3838 52.6992 76.916 52.0156 77.3164C51.332 77.7168 50.4873 77.917 49.4814 77.917C48.4658 77.917 47.6113 77.7168 46.918 77.3164C46.2246 76.916 45.6973 76.3838 45.3359 75.7197C44.9844 75.0557 44.8086 74.3232 44.8086 73.5225ZM47.6211 72.3945V73.5225C47.6211 73.874 47.6992 74.2061 47.8555 74.5186C48.0117 74.8311 48.2266 75.0801 48.5 75.2656C48.7832 75.4512 49.1104 75.5439 49.4814 75.5439C49.9502 75.5439 50.3164 75.4512 50.5801 75.2656C50.8438 75.0801 51.0244 74.8311 51.1221 74.5186C51.2295 74.2061 51.2832 73.874 51.2832 73.5225V72.3945C51.2832 72.043 51.2148 71.7158 51.0781 71.4131C50.9414 71.1006 50.7363 70.8516 50.4629 70.666C50.1992 70.4707 49.8623 70.373 49.4521 70.373C49.042 70.373 48.7002 70.4707 48.4268 70.666C48.1631 70.8516 47.9629 71.1006 47.8262 71.4131C47.6895 71.7158 47.6211 72.043 47.6211 72.3945ZM50.4922 59.3428L40.0771 76.0127L38.0264 74.9287L48.4414 58.2588L50.4922 59.3428Z" fill="#39CEF3"/>
<path d="M78.6836 68.6973H157.4L190.277 87.7223" stroke="#CDCDCD" stroke-width="2" stroke-dasharray="2 2"/>
<path d="M459.619 68.6973H380.903L348.026 87.7223" stroke="#CDCDCD" stroke-width="2" stroke-dasharray="2 2"/>
<defs>
<filter id="filter0_d_310_317" x="84" y="0" width="368" height="368" filterUnits="userSpaceOnUse" color-interpolation-filters="sRGB">
<feFlood flood-opacity="0" result="BackgroundImageFix"/>
<feColorMatrix in="SourceAlpha" type="matrix" values="0 0 0 0 0 0 0 0 0 0 0 0 0 0 0 0 0 0 127 0" result="hardAlpha"/>
<feOffset dy="4"/>
<feGaussianBlur stdDeviation="25"/>
<feComposite in2="hardAlpha" operator="out"/>
<feColorMatrix type="matrix" values="0 0 0 0 0 0 0 0 0 0 0 0 0 0 0 0 0 0 0.08 0"/>
<feBlend mode="normal" in2="BackgroundImageFix" result="effect1_dropShadow_310_317"/>
<feBlend mode="normal" in="SourceGraphic" in2="effect1_dropShadow_310_317" result="shape"/>
</filter>
<linearGradient id="paint0_linear_310_317" x1="355.342" y1="54.0264" x2="138.711" y2="257.982" gradientUnits="userSpaceOnUse">
<stop stop-color="#FF4906"/>
<stop offset="0.515519" stop-color="#FF8B60"/>
<stop offset="1" stop-color="#FFA685"/>
</linearGradient>
</defs>
</svg>
