<svg width="880" height="588" viewBox="0 0 880 588" fill="none" xmlns="http://www.w3.org/2000/svg">
<path d="M778.485 96.8812H801.965V101.161H778.485V96.8812ZM775.085 122.041H808.565V126.361H775.085V122.041ZM786.925 109.321H792.245V124.161H786.925V109.321ZM800.045 96.8812H805.365V100.441C805.365 105.081 805.365 110.281 803.885 118.201L798.565 117.601C800.045 110.241 800.045 104.881 800.045 100.441V96.8812ZM839.362 98.3212H845.762V102.641H839.362V98.3212ZM839.362 106.361H845.762V110.681H839.362V106.361ZM822.162 95.7612C827.882 95.7612 832.242 99.5212 832.242 104.761C832.242 109.961 827.882 113.721 822.162 113.721C816.442 113.721 812.082 109.961 812.082 104.761C812.082 99.5212 816.442 95.7612 822.162 95.7612ZM822.162 100.201C819.362 100.201 817.282 101.921 817.282 104.761C817.282 107.641 819.362 109.281 822.162 109.281C824.962 109.281 827.042 107.641 827.042 104.761C827.042 101.921 824.962 100.201 822.162 100.201ZM835.682 93.7612H841.002V115.361H835.682V93.7612ZM828.922 116.161C836.562 116.161 841.442 118.921 841.442 123.481C841.442 128.081 836.562 130.801 828.922 130.801C821.242 130.801 816.362 128.081 816.362 123.481C816.362 118.921 821.242 116.161 828.922 116.161ZM828.922 120.361C824.202 120.361 821.642 121.361 821.642 123.481C821.642 125.641 824.202 126.641 828.922 126.641C833.642 126.641 836.162 125.641 836.162 123.481C836.162 121.361 833.642 120.361 828.922 120.361ZM874.039 93.7212H879.399V130.881H874.039V93.7212ZM859.439 96.3212C865.039 96.3212 869.159 101.441 869.159 109.521C869.159 117.681 865.039 122.801 859.439 122.801C853.839 122.801 849.719 117.681 849.719 109.521C849.719 101.441 853.839 96.3212 859.439 96.3212ZM859.439 101.161C856.679 101.161 854.799 104.081 854.799 109.521C854.799 115.041 856.679 118.001 859.439 118.001C862.199 118.001 864.039 115.041 864.039 109.521C864.039 104.081 862.199 101.161 859.439 101.161Z" fill="#5B586C"/>
<path d="M781.16 62.7861H784.168C785.132 62.7861 785.926 62.6234 786.551 62.2979C787.176 61.9593 787.638 61.4906 787.938 60.8916C788.25 60.2796 788.406 59.57 788.406 58.7627C788.406 58.0335 788.263 57.389 787.977 56.8291C787.703 56.2562 787.28 55.8135 786.707 55.501C786.134 55.1755 785.411 55.0127 784.539 55.0127C783.849 55.0127 783.211 55.1494 782.625 55.4229C782.039 55.6963 781.57 56.0804 781.219 56.5752C780.867 57.07 780.691 57.6689 780.691 58.3721H775.047C775.047 56.8096 775.464 55.4489 776.297 54.29C777.143 53.1312 778.276 52.2262 779.695 51.5752C781.115 50.9242 782.677 50.5986 784.383 50.5986C786.31 50.5986 787.996 50.9111 789.441 51.5361C790.887 52.1481 792.013 53.0531 792.82 54.251C793.628 55.4489 794.031 56.9333 794.031 58.7041C794.031 59.6025 793.823 60.4749 793.406 61.3213C792.99 62.1546 792.391 62.9098 791.609 63.5869C790.841 64.251 789.904 64.7848 788.797 65.1885C787.69 65.5791 786.447 65.7744 785.066 65.7744H781.16V62.7861ZM781.16 67.0635V64.1533H785.066C786.616 64.1533 787.977 64.3291 789.148 64.6807C790.32 65.0322 791.303 65.54 792.098 66.2041C792.892 66.8551 793.491 67.6299 793.895 68.5283C794.298 69.4137 794.5 70.3968 794.5 71.4775C794.5 72.8057 794.246 73.9906 793.738 75.0322C793.23 76.0609 792.514 76.9333 791.59 77.6494C790.678 78.3656 789.611 78.9124 788.387 79.29C787.163 79.6546 785.828 79.8369 784.383 79.8369C783.185 79.8369 782.007 79.6742 780.848 79.3486C779.702 79.0101 778.66 78.5088 777.723 77.8447C776.798 77.1676 776.056 76.3213 775.496 75.3057C774.949 74.277 774.676 73.0596 774.676 71.6533H780.32C780.32 72.3825 780.503 73.0335 780.867 73.6064C781.232 74.1794 781.733 74.6286 782.371 74.9541C783.022 75.2796 783.745 75.4424 784.539 75.4424C785.438 75.4424 786.206 75.2796 786.844 74.9541C787.495 74.6156 787.99 74.1468 788.328 73.5479C788.68 72.9359 788.855 72.2262 788.855 71.4189C788.855 70.3773 788.667 69.5439 788.289 68.9189C787.911 68.2809 787.371 67.8122 786.668 67.5127C785.965 67.2132 785.132 67.0635 784.168 67.0635H781.16ZM817.508 62.7275V67.6494C817.508 69.7848 817.28 71.6273 816.824 73.1768C816.368 74.7132 815.711 75.9762 814.852 76.9658C814.005 77.9424 812.996 78.665 811.824 79.1338C810.652 79.6025 809.35 79.8369 807.918 79.8369C806.772 79.8369 805.704 79.6937 804.715 79.4072C803.725 79.1077 802.833 78.6455 802.039 78.0205C801.258 77.3955 800.581 76.6077 800.008 75.6572C799.448 74.6937 799.018 73.5479 798.719 72.2197C798.419 70.8916 798.27 69.3682 798.27 67.6494V62.7275C798.27 60.5921 798.497 58.7627 798.953 57.2393C799.422 55.7028 800.079 54.4463 800.926 53.4697C801.785 52.4932 802.801 51.777 803.973 51.3213C805.145 50.8525 806.447 50.6182 807.879 50.6182C809.025 50.6182 810.086 50.7679 811.062 51.0674C812.052 51.3538 812.944 51.8031 813.738 52.415C814.533 53.027 815.21 53.8148 815.77 54.7783C816.329 55.7288 816.759 56.8682 817.059 58.1963C817.358 59.5114 817.508 61.0218 817.508 62.7275ZM811.863 68.3916V61.9658C811.863 60.9372 811.805 60.0387 811.688 59.2705C811.583 58.5023 811.421 57.8512 811.199 57.3174C810.978 56.7705 810.704 56.3278 810.379 55.9893C810.053 55.6507 809.682 55.4033 809.266 55.2471C808.849 55.0908 808.387 55.0127 807.879 55.0127C807.241 55.0127 806.674 55.1364 806.18 55.3838C805.698 55.6312 805.288 56.0283 804.949 56.5752C804.611 57.109 804.35 57.8252 804.168 58.7236C803.999 59.609 803.914 60.6898 803.914 61.9658V68.3916C803.914 69.4202 803.966 70.3252 804.07 71.1064C804.188 71.8877 804.357 72.5583 804.578 73.1182C804.812 73.665 805.086 74.1143 805.398 74.4658C805.724 74.8044 806.095 75.0518 806.512 75.208C806.941 75.3643 807.41 75.4424 807.918 75.4424C808.543 75.4424 809.096 75.3187 809.578 75.0713C810.073 74.8109 810.49 74.4072 810.828 73.8604C811.18 73.3005 811.44 72.5713 811.609 71.6729C811.779 70.7744 811.863 69.6807 811.863 68.3916ZM821.258 57.9814V56.4775C821.258 55.3968 821.492 54.4137 821.961 53.5283C822.43 52.6429 823.12 51.9333 824.031 51.3994C824.943 50.8656 826.062 50.5986 827.391 50.5986C828.758 50.5986 829.897 50.8656 830.809 51.3994C831.733 51.9333 832.423 52.6429 832.879 53.5283C833.348 54.4137 833.582 55.3968 833.582 56.4775V57.9814C833.582 59.0361 833.348 60.0062 832.879 60.8916C832.423 61.777 831.74 62.4867 830.828 63.0205C829.917 63.5544 828.79 63.8213 827.449 63.8213C826.095 63.8213 824.956 63.5544 824.031 63.0205C823.12 62.4867 822.43 61.777 821.961 60.8916C821.492 60.0062 821.258 59.0361 821.258 57.9814ZM824.988 56.4775V57.9814C824.988 58.4372 825.073 58.8734 825.242 59.29C825.424 59.6937 825.698 60.0257 826.062 60.2861C826.44 60.5335 826.896 60.6572 827.43 60.6572C827.99 60.6572 828.445 60.5335 828.797 60.2861C829.148 60.0257 829.409 59.6937 829.578 59.29C829.747 58.8734 829.832 58.4372 829.832 57.9814V56.4775C829.832 55.9958 829.741 55.5531 829.559 55.1494C829.389 54.7327 829.122 54.4007 828.758 54.1533C828.406 53.8929 827.951 53.7627 827.391 53.7627C826.87 53.7627 826.427 53.8929 826.062 54.1533C825.698 54.4007 825.424 54.7327 825.242 55.1494C825.073 55.5531 824.988 55.9958 824.988 56.4775ZM834.852 73.9775V72.4736C834.852 71.4059 835.086 70.4294 835.555 69.5439C836.036 68.6585 836.733 67.9489 837.645 67.415C838.569 66.8812 839.702 66.6143 841.043 66.6143C842.397 66.6143 843.53 66.8812 844.441 67.415C845.353 67.9489 846.043 68.6585 846.512 69.5439C846.98 70.4294 847.215 71.4059 847.215 72.4736V73.9775C847.215 75.0452 846.98 76.0218 846.512 76.9072C846.056 77.7926 845.372 78.5023 844.461 79.0361C843.549 79.57 842.423 79.8369 841.082 79.8369C839.728 79.8369 838.589 79.57 837.664 79.0361C836.74 78.5023 836.036 77.7926 835.555 76.9072C835.086 76.0218 834.852 75.0452 834.852 73.9775ZM838.602 72.4736V73.9775C838.602 74.4463 838.706 74.889 838.914 75.3057C839.122 75.7223 839.409 76.0544 839.773 76.3018C840.151 76.5492 840.587 76.6729 841.082 76.6729C841.707 76.6729 842.195 76.5492 842.547 76.3018C842.898 76.0544 843.139 75.7223 843.27 75.3057C843.413 74.889 843.484 74.4463 843.484 73.9775V72.4736C843.484 72.0049 843.393 71.5687 843.211 71.165C843.029 70.7484 842.755 70.4163 842.391 70.1689C842.039 69.9085 841.59 69.7783 841.043 69.7783C840.496 69.7783 840.04 69.9085 839.676 70.1689C839.324 70.4163 839.057 70.7484 838.875 71.165C838.693 71.5687 838.602 72.0049 838.602 72.4736ZM842.43 55.0713L828.543 77.2979L825.809 75.8525L839.695 53.626L842.43 55.0713Z" fill="#777CFF"/>
<path d="M789.005 483.908H793.685V485.628C793.685 492.748 788.085 498.788 778.365 500.228L776.285 495.948C784.805 494.828 789.005 489.988 789.005 485.628V483.908ZM790.005 483.908H794.645V485.628C794.645 489.948 798.885 494.828 807.365 495.948L805.325 500.228C795.605 498.788 790.005 492.748 790.005 485.628V483.908ZM789.045 506.308H794.325V519.868H789.045V506.308ZM775.085 502.948H808.565V507.268H775.085V502.948ZM835.522 482.788H840.882V519.948H835.522V482.788ZM839.682 496.508H846.242V500.868H839.682V496.508ZM813.282 506.628H816.402C822.642 506.628 827.562 506.428 833.002 505.468L833.522 509.868C827.922 510.868 822.842 511.028 816.402 511.028H813.282V506.628ZM813.282 486.228H830.562V490.508H818.562V508.748H813.282V486.228Z" fill="#5B586C"/>
<path d="M794.852 464.118V468.513H775.398V464.763L784.598 454.899C785.522 453.871 786.251 452.966 786.785 452.185C787.319 451.39 787.703 450.681 787.938 450.056C788.185 449.418 788.309 448.812 788.309 448.239C788.309 447.38 788.165 446.644 787.879 446.032C787.592 445.407 787.169 444.925 786.609 444.587C786.062 444.248 785.385 444.079 784.578 444.079C783.719 444.079 782.977 444.287 782.352 444.704C781.74 445.121 781.271 445.7 780.945 446.442C780.633 447.185 780.477 448.024 780.477 448.962H774.832C774.832 447.269 775.236 445.72 776.043 444.313C776.85 442.894 777.99 441.768 779.461 440.935C780.932 440.088 782.677 439.665 784.695 439.665C786.688 439.665 788.367 439.991 789.734 440.642C791.115 441.28 792.156 442.204 792.859 443.415C793.576 444.613 793.934 446.045 793.934 447.712C793.934 448.649 793.784 449.567 793.484 450.466C793.185 451.351 792.755 452.237 792.195 453.122C791.648 453.994 790.984 454.88 790.203 455.778C789.422 456.677 788.556 457.608 787.605 458.571L782.664 464.118H794.852ZM803.66 455.563L799.168 454.489L800.789 440.075H816.766V444.626H805.418L804.715 450.935C805.092 450.713 805.665 450.479 806.434 450.231C807.202 449.971 808.061 449.841 809.012 449.841C810.392 449.841 811.616 450.056 812.684 450.485C813.751 450.915 814.656 451.54 815.398 452.36C816.154 453.181 816.727 454.183 817.117 455.368C817.508 456.553 817.703 457.894 817.703 459.392C817.703 460.655 817.508 461.859 817.117 463.005C816.727 464.138 816.134 465.153 815.34 466.052C814.546 466.937 813.549 467.634 812.352 468.142C811.154 468.649 809.734 468.903 808.094 468.903C806.87 468.903 805.685 468.721 804.539 468.356C803.406 467.992 802.384 467.451 801.473 466.735C800.574 466.019 799.852 465.153 799.305 464.138C798.771 463.109 798.491 461.937 798.465 460.622H804.051C804.129 461.429 804.337 462.126 804.676 462.712C805.027 463.285 805.49 463.728 806.062 464.04C806.635 464.353 807.306 464.509 808.074 464.509C808.79 464.509 809.402 464.372 809.91 464.099C810.418 463.825 810.828 463.448 811.141 462.966C811.453 462.471 811.681 461.898 811.824 461.247C811.98 460.583 812.059 459.867 812.059 459.099C812.059 458.33 811.967 457.634 811.785 457.009C811.603 456.384 811.323 455.843 810.945 455.388C810.568 454.932 810.086 454.58 809.5 454.333C808.927 454.086 808.257 453.962 807.488 453.962C806.447 453.962 805.639 454.125 805.066 454.45C804.507 454.776 804.038 455.147 803.66 455.563ZM821.258 447.048V445.544C821.258 444.463 821.492 443.48 821.961 442.595C822.43 441.709 823.12 441 824.031 440.466C824.943 439.932 826.062 439.665 827.391 439.665C828.758 439.665 829.897 439.932 830.809 440.466C831.733 441 832.423 441.709 832.879 442.595C833.348 443.48 833.582 444.463 833.582 445.544V447.048C833.582 448.103 833.348 449.073 832.879 449.958C832.423 450.843 831.74 451.553 830.828 452.087C829.917 452.621 828.79 452.888 827.449 452.888C826.095 452.888 824.956 452.621 824.031 452.087C823.12 451.553 822.43 450.843 821.961 449.958C821.492 449.073 821.258 448.103 821.258 447.048ZM824.988 445.544V447.048C824.988 447.504 825.073 447.94 825.242 448.356C825.424 448.76 825.698 449.092 826.062 449.353C826.44 449.6 826.896 449.724 827.43 449.724C827.99 449.724 828.445 449.6 828.797 449.353C829.148 449.092 829.409 448.76 829.578 448.356C829.747 447.94 829.832 447.504 829.832 447.048V445.544C829.832 445.062 829.741 444.619 829.559 444.216C829.389 443.799 829.122 443.467 828.758 443.22C828.406 442.959 827.951 442.829 827.391 442.829C826.87 442.829 826.427 442.959 826.062 443.22C825.698 443.467 825.424 443.799 825.242 444.216C825.073 444.619 824.988 445.062 824.988 445.544ZM834.852 463.044V461.54C834.852 460.472 835.086 459.496 835.555 458.61C836.036 457.725 836.733 457.015 837.645 456.481C838.569 455.948 839.702 455.681 841.043 455.681C842.397 455.681 843.53 455.948 844.441 456.481C845.353 457.015 846.043 457.725 846.512 458.61C846.98 459.496 847.215 460.472 847.215 461.54V463.044C847.215 464.112 846.98 465.088 846.512 465.974C846.056 466.859 845.372 467.569 844.461 468.103C843.549 468.636 842.423 468.903 841.082 468.903C839.728 468.903 838.589 468.636 837.664 468.103C836.74 467.569 836.036 466.859 835.555 465.974C835.086 465.088 834.852 464.112 834.852 463.044ZM838.602 461.54V463.044C838.602 463.513 838.706 463.955 838.914 464.372C839.122 464.789 839.409 465.121 839.773 465.368C840.151 465.616 840.587 465.739 841.082 465.739C841.707 465.739 842.195 465.616 842.547 465.368C842.898 465.121 843.139 464.789 843.27 464.372C843.413 463.955 843.484 463.513 843.484 463.044V461.54C843.484 461.071 843.393 460.635 843.211 460.231C843.029 459.815 842.755 459.483 842.391 459.235C842.039 458.975 841.59 458.845 841.043 458.845C840.496 458.845 840.04 458.975 839.676 459.235C839.324 459.483 839.057 459.815 838.875 460.231C838.693 460.635 838.602 461.071 838.602 461.54ZM842.43 444.138L828.543 466.364L825.809 464.919L839.695 442.692L842.43 444.138Z" fill="#93CCE7"/>
<path d="M1.64 511.108H35.16V515.468H1.64V511.108ZM5.16 485.228H10.44V491.228H26.24V485.228H31.52V504.988H5.16V485.228ZM10.44 495.348V500.788H26.24V495.348H10.44ZM63.7969 482.788H69.1569V519.948H63.7969V482.788ZM49.1969 485.388C54.7969 485.388 58.9169 490.508 58.9169 498.588C58.9169 506.748 54.7969 511.868 49.1969 511.868C43.5969 511.868 39.4769 506.748 39.4769 498.588C39.4769 490.508 43.5969 485.388 49.1969 485.388ZM49.1969 490.228C46.4369 490.228 44.5569 493.148 44.5569 498.588C44.5569 504.108 46.4369 507.068 49.1969 507.068C51.9569 507.068 53.7969 504.108 53.7969 498.588C53.7969 493.148 51.9569 490.228 49.1969 490.228ZM75.2338 511.468H108.754V515.788H75.2338V511.468ZM89.2738 504.468H94.5938V513.228H89.2738V504.468ZM78.9938 485.228H104.994V497.548H84.3538V503.788H79.0738V493.388H99.7138V489.428H78.9938V485.228ZM79.0738 501.668H105.834V505.948H79.0738V501.668ZM115.431 486.228H138.911V490.428H115.431V486.228ZM112.031 510.708H145.511V515.028H112.031V510.708ZM136.111 486.228H141.391V490.628C141.391 495.828 141.391 500.868 140.071 508.468L134.751 508.028C136.111 500.908 136.111 495.628 136.111 490.628V486.228Z" fill="#5B586C"/>
<path d="M21.4062 464.118V468.513H1.95312V464.763L11.1523 454.899C12.0768 453.871 12.806 452.966 13.3398 452.185C13.8737 451.39 14.2578 450.681 14.4922 450.056C14.7396 449.418 14.8633 448.812 14.8633 448.239C14.8633 447.38 14.7201 446.644 14.4336 446.032C14.1471 445.407 13.724 444.925 13.1641 444.587C12.6172 444.248 11.9401 444.079 11.1328 444.079C10.2734 444.079 9.53125 444.287 8.90625 444.704C8.29427 445.121 7.82552 445.7 7.5 446.442C7.1875 447.185 7.03125 448.024 7.03125 448.962H1.38672C1.38672 447.269 1.79036 445.72 2.59766 444.313C3.40495 442.894 4.54427 441.768 6.01562 440.935C7.48698 440.088 9.23177 439.665 11.25 439.665C13.2422 439.665 14.9219 439.991 16.2891 440.642C17.6693 441.28 18.7109 442.204 19.4141 443.415C20.1302 444.613 20.4883 446.045 20.4883 447.712C20.4883 448.649 20.3385 449.567 20.0391 450.466C19.7396 451.351 19.3099 452.237 18.75 453.122C18.2031 453.994 17.5391 454.88 16.7578 455.778C15.9766 456.677 15.1107 457.608 14.1602 458.571L9.21875 464.118H21.4062ZM44.0625 451.794V456.716C44.0625 458.851 43.8346 460.694 43.3789 462.243C42.9232 463.78 42.2656 465.043 41.4062 466.032C40.5599 467.009 39.5508 467.731 38.3789 468.2C37.207 468.669 35.9049 468.903 34.4727 468.903C33.3268 468.903 32.2591 468.76 31.2695 468.474C30.2799 468.174 29.388 467.712 28.5938 467.087C27.8125 466.462 27.1354 465.674 26.5625 464.724C26.0026 463.76 25.5729 462.614 25.2734 461.286C24.974 459.958 24.8242 458.435 24.8242 456.716V451.794C24.8242 449.659 25.0521 447.829 25.5078 446.306C25.9766 444.769 26.6341 443.513 27.4805 442.536C28.3398 441.56 29.3555 440.843 30.5273 440.388C31.6992 439.919 33.0013 439.685 34.4336 439.685C35.5794 439.685 36.6406 439.834 37.6172 440.134C38.6068 440.42 39.4987 440.869 40.293 441.481C41.0872 442.093 41.7643 442.881 42.3242 443.845C42.8841 444.795 43.3138 445.935 43.6133 447.263C43.9128 448.578 44.0625 450.088 44.0625 451.794ZM38.418 457.458V451.032C38.418 450.004 38.3594 449.105 38.2422 448.337C38.138 447.569 37.9753 446.918 37.7539 446.384C37.5326 445.837 37.2591 445.394 36.9336 445.056C36.6081 444.717 36.237 444.47 35.8203 444.313C35.4036 444.157 34.9414 444.079 34.4336 444.079C33.7956 444.079 33.2292 444.203 32.7344 444.45C32.2526 444.698 31.8424 445.095 31.5039 445.642C31.1654 446.175 30.9049 446.892 30.7227 447.79C30.5534 448.675 30.4688 449.756 30.4688 451.032V457.458C30.4688 458.487 30.5208 459.392 30.625 460.173C30.7422 460.954 30.9115 461.625 31.1328 462.185C31.3672 462.731 31.6406 463.181 31.9531 463.532C32.2786 463.871 32.6497 464.118 33.0664 464.274C33.4961 464.431 33.9648 464.509 34.4727 464.509C35.0977 464.509 35.651 464.385 36.1328 464.138C36.6276 463.877 37.0443 463.474 37.3828 462.927C37.7344 462.367 37.9948 461.638 38.1641 460.739C38.3333 459.841 38.418 458.747 38.418 457.458ZM47.8125 447.048V445.544C47.8125 444.463 48.0469 443.48 48.5156 442.595C48.9844 441.709 49.6745 441 50.5859 440.466C51.4974 439.932 52.6172 439.665 53.9453 439.665C55.3125 439.665 56.4518 439.932 57.3633 440.466C58.2878 441 58.9779 441.709 59.4336 442.595C59.9023 443.48 60.1367 444.463 60.1367 445.544V447.048C60.1367 448.103 59.9023 449.073 59.4336 449.958C58.9779 450.843 58.2943 451.553 57.3828 452.087C56.4714 452.621 55.3451 452.888 54.0039 452.888C52.6497 452.888 51.5104 452.621 50.5859 452.087C49.6745 451.553 48.9844 450.843 48.5156 449.958C48.0469 449.073 47.8125 448.103 47.8125 447.048ZM51.543 445.544V447.048C51.543 447.504 51.6276 447.94 51.7969 448.356C51.9792 448.76 52.2526 449.092 52.6172 449.353C52.9948 449.6 53.4505 449.724 53.9844 449.724C54.5443 449.724 55 449.6 55.3516 449.353C55.7031 449.092 55.9635 448.76 56.1328 448.356C56.3021 447.94 56.3867 447.504 56.3867 447.048V445.544C56.3867 445.062 56.2956 444.619 56.1133 444.216C55.944 443.799 55.6771 443.467 55.3125 443.22C54.9609 442.959 54.5052 442.829 53.9453 442.829C53.4245 442.829 52.9818 442.959 52.6172 443.22C52.2526 443.467 51.9792 443.799 51.7969 444.216C51.6276 444.619 51.543 445.062 51.543 445.544ZM61.4062 463.044V461.54C61.4062 460.472 61.6406 459.496 62.1094 458.61C62.5911 457.725 63.2878 457.015 64.1992 456.481C65.1237 455.948 66.2565 455.681 67.5977 455.681C68.9518 455.681 70.0846 455.948 70.9961 456.481C71.9076 457.015 72.5977 457.725 73.0664 458.61C73.5352 459.496 73.7695 460.472 73.7695 461.54V463.044C73.7695 464.112 73.5352 465.088 73.0664 465.974C72.6107 466.859 71.9271 467.569 71.0156 468.103C70.1042 468.636 68.9779 468.903 67.6367 468.903C66.2826 468.903 65.1432 468.636 64.2188 468.103C63.2943 467.569 62.5911 466.859 62.1094 465.974C61.6406 465.088 61.4062 464.112 61.4062 463.044ZM65.1562 461.54V463.044C65.1562 463.513 65.2604 463.955 65.4688 464.372C65.6771 464.789 65.9635 465.121 66.3281 465.368C66.7057 465.616 67.1419 465.739 67.6367 465.739C68.2617 465.739 68.75 465.616 69.1016 465.368C69.4531 465.121 69.694 464.789 69.8242 464.372C69.9674 463.955 70.0391 463.513 70.0391 463.044V461.54C70.0391 461.071 69.9479 460.635 69.7656 460.231C69.5833 459.815 69.3099 459.483 68.9453 459.235C68.5938 458.975 68.1445 458.845 67.5977 458.845C67.0508 458.845 66.5951 458.975 66.2305 459.235C65.8789 459.483 65.612 459.815 65.4297 460.231C65.2474 460.635 65.1562 461.071 65.1562 461.54ZM68.9844 444.138L55.0977 466.364L52.3633 464.919L66.25 442.692L68.9844 444.138Z" fill="#EF8A98"/>
<path d="M1.6 281.126H35.12V285.366H1.6V281.126ZM15.68 283.886H21V291.166H15.68V283.886ZM5.4 288.366H30.96V298.606H10.76V302.766H5.48V294.726H25.64V292.486H5.4V288.366ZM5.48 300.966H31.96V305.086H5.48V300.966ZM4.56 269.406H13.2V273.646H4.56V269.406ZM11.6 269.406H16.8V271.926C16.8 274.766 16.8 278.606 15 283.326L9.96 282.126C11.6 277.566 11.6 274.646 11.6 271.926V269.406ZM19 269.406H28.52V273.646H19V269.406ZM26.08 269.406H31.2V271.526C31.2 274.206 31.2 278.046 29.68 283.046L24.52 282.366C26.08 277.406 26.08 274.086 26.08 271.526V269.406ZM40.4369 284.006H43.5969C51.2369 284.006 55.6769 283.886 60.7569 283.046L61.2769 287.206C56.0769 288.046 51.3969 288.166 43.5969 288.166H40.4369V284.006ZM40.4369 270.166H58.2369V274.366H45.7169V285.766H40.4369V270.166ZM44.0769 277.046H57.1569V281.206H44.0769V277.046ZM63.8369 268.286H69.1969V288.926H63.8369V268.286ZM44.5569 290.486H49.7969V293.566H63.9169V290.486H69.1969V304.926H44.5569V290.486ZM49.7969 297.646V300.686H63.9169V297.646H49.7969Z" fill="#5B586C"/>
<path d="M15.6641 225.475V253.971H10.0391V231.959L3.28125 234.107V229.674L15.0586 225.475H15.6641ZM30.2148 241.021L25.7227 239.947L27.3438 225.533H43.3203V230.084H31.9727L31.2695 236.393C31.6471 236.171 32.2201 235.937 32.9883 235.689C33.7565 235.429 34.6159 235.299 35.5664 235.299C36.9466 235.299 38.1706 235.514 39.2383 235.943C40.306 236.373 41.2109 236.998 41.9531 237.818C42.7083 238.639 43.2812 239.641 43.6719 240.826C44.0625 242.011 44.2578 243.352 44.2578 244.85C44.2578 246.113 44.0625 247.317 43.6719 248.463C43.2812 249.596 42.6888 250.611 41.8945 251.51C41.1003 252.395 40.1042 253.092 38.9062 253.6C37.7083 254.107 36.2891 254.361 34.6484 254.361C33.4245 254.361 32.2396 254.179 31.0938 253.814C29.9609 253.45 28.9388 252.91 28.0273 252.193C27.1289 251.477 26.4062 250.611 25.8594 249.596C25.3255 248.567 25.0456 247.395 25.0195 246.08H30.6055C30.6836 246.887 30.8919 247.584 31.2305 248.17C31.582 248.743 32.0443 249.186 32.6172 249.498C33.1901 249.811 33.8607 249.967 34.6289 249.967C35.3451 249.967 35.957 249.83 36.4648 249.557C36.9727 249.283 37.3828 248.906 37.6953 248.424C38.0078 247.929 38.2357 247.356 38.3789 246.705C38.5352 246.041 38.6133 245.325 38.6133 244.557C38.6133 243.788 38.5221 243.092 38.3398 242.467C38.1576 241.842 37.8776 241.301 37.5 240.846C37.1224 240.39 36.6406 240.038 36.0547 239.791C35.4818 239.544 34.8112 239.42 34.043 239.42C33.0013 239.42 32.194 239.583 31.6211 239.908C31.0612 240.234 30.5924 240.605 30.2148 241.021ZM47.8125 232.506V231.002C47.8125 229.921 48.0469 228.938 48.5156 228.053C48.9844 227.167 49.6745 226.458 50.5859 225.924C51.4974 225.39 52.6172 225.123 53.9453 225.123C55.3125 225.123 56.4518 225.39 57.3633 225.924C58.2878 226.458 58.9779 227.167 59.4336 228.053C59.9023 228.938 60.1367 229.921 60.1367 231.002V232.506C60.1367 233.561 59.9023 234.531 59.4336 235.416C58.9779 236.301 58.2943 237.011 57.3828 237.545C56.4714 238.079 55.3451 238.346 54.0039 238.346C52.6497 238.346 51.5104 238.079 50.5859 237.545C49.6745 237.011 48.9844 236.301 48.5156 235.416C48.0469 234.531 47.8125 233.561 47.8125 232.506ZM51.543 231.002V232.506C51.543 232.962 51.6276 233.398 51.7969 233.814C51.9792 234.218 52.2526 234.55 52.6172 234.811C52.9948 235.058 53.4505 235.182 53.9844 235.182C54.5443 235.182 55 235.058 55.3516 234.811C55.7031 234.55 55.9635 234.218 56.1328 233.814C56.3021 233.398 56.3867 232.962 56.3867 232.506V231.002C56.3867 230.52 56.2956 230.077 56.1133 229.674C55.944 229.257 55.6771 228.925 55.3125 228.678C54.9609 228.417 54.5052 228.287 53.9453 228.287C53.4245 228.287 52.9818 228.417 52.6172 228.678C52.2526 228.925 51.9792 229.257 51.7969 229.674C51.6276 230.077 51.543 230.52 51.543 231.002ZM61.4062 248.502V246.998C61.4062 245.93 61.6406 244.954 62.1094 244.068C62.5911 243.183 63.2878 242.473 64.1992 241.939C65.1237 241.406 66.2565 241.139 67.5977 241.139C68.9518 241.139 70.0846 241.406 70.9961 241.939C71.9076 242.473 72.5977 243.183 73.0664 244.068C73.5352 244.954 73.7695 245.93 73.7695 246.998V248.502C73.7695 249.57 73.5352 250.546 73.0664 251.432C72.6107 252.317 71.9271 253.027 71.0156 253.561C70.1042 254.094 68.9779 254.361 67.6367 254.361C66.2826 254.361 65.1432 254.094 64.2188 253.561C63.2943 253.027 62.5911 252.317 62.1094 251.432C61.6406 250.546 61.4062 249.57 61.4062 248.502ZM65.1562 246.998V248.502C65.1562 248.971 65.2604 249.413 65.4688 249.83C65.6771 250.247 65.9635 250.579 66.3281 250.826C66.7057 251.074 67.1419 251.197 67.6367 251.197C68.2617 251.197 68.75 251.074 69.1016 250.826C69.4531 250.579 69.694 250.247 69.8242 249.83C69.9674 249.413 70.0391 248.971 70.0391 248.502V246.998C70.0391 246.529 69.9479 246.093 69.7656 245.689C69.5833 245.273 69.3099 244.941 68.9453 244.693C68.5938 244.433 68.1445 244.303 67.5977 244.303C67.0508 244.303 66.5951 244.433 66.2305 244.693C65.8789 244.941 65.612 245.273 65.4297 245.689C65.2474 246.093 65.1562 246.529 65.1562 246.998ZM68.9844 229.596L55.0977 251.822L52.3633 250.377L66.25 228.15L68.9844 229.596Z" fill="#96DCE1"/>
<path d="M27.12 93.7612H32.48V130.801H27.12V93.7612ZM16.2 97.6012H21.48C21.48 108.921 17.64 118.201 4.48 124.561L1.72 120.321C12.36 115.201 16.2 108.481 16.2 98.5612V97.6012ZM3.68 97.6012H18.72V101.801H3.68V97.6012ZM39.8369 118.121H42.9569C49.1969 118.121 53.9569 118.041 59.4769 117.161L59.9569 121.401C54.3569 122.281 49.3169 122.441 42.9569 122.441H39.8369V118.121ZM39.8369 96.8412H57.2369V101.161H45.1969V119.521H39.8369V96.8412ZM43.9169 107.121H56.7169V111.281H43.9169V107.121ZM62.0769 93.7612H67.4369V130.801H62.0769V93.7612ZM66.2369 107.801H72.7969V112.201H66.2369V107.801Z" fill="#5B586C"/>
<path d="M15.6641 50.9502V79.4463H10.0391V57.4346L3.28125 59.583V55.1494L15.0586 50.9502H15.6641ZM44.0625 62.7275V67.6494C44.0625 69.7848 43.8346 71.6273 43.3789 73.1768C42.9232 74.7132 42.2656 75.9762 41.4062 76.9658C40.5599 77.9424 39.5508 78.665 38.3789 79.1338C37.207 79.6025 35.9049 79.8369 34.4727 79.8369C33.3268 79.8369 32.2591 79.6937 31.2695 79.4072C30.2799 79.1077 29.388 78.6455 28.5938 78.0205C27.8125 77.3955 27.1354 76.6077 26.5625 75.6572C26.0026 74.6937 25.5729 73.5479 25.2734 72.2197C24.974 70.8916 24.8242 69.3682 24.8242 67.6494V62.7275C24.8242 60.5921 25.0521 58.7627 25.5078 57.2393C25.9766 55.7028 26.6341 54.4463 27.4805 53.4697C28.3398 52.4932 29.3555 51.777 30.5273 51.3213C31.6992 50.8525 33.0013 50.6182 34.4336 50.6182C35.5794 50.6182 36.6406 50.7679 37.6172 51.0674C38.6068 51.3538 39.4987 51.8031 40.293 52.415C41.0872 53.027 41.7643 53.8148 42.3242 54.7783C42.8841 55.7288 43.3138 56.8682 43.6133 58.1963C43.9128 59.5114 44.0625 61.0218 44.0625 62.7275ZM38.418 68.3916V61.9658C38.418 60.9372 38.3594 60.0387 38.2422 59.2705C38.138 58.5023 37.9753 57.8512 37.7539 57.3174C37.5326 56.7705 37.2591 56.3278 36.9336 55.9893C36.6081 55.6507 36.237 55.4033 35.8203 55.2471C35.4036 55.0908 34.9414 55.0127 34.4336 55.0127C33.7956 55.0127 33.2292 55.1364 32.7344 55.3838C32.2526 55.6312 31.8424 56.0283 31.5039 56.5752C31.1654 57.109 30.9049 57.8252 30.7227 58.7236C30.5534 59.609 30.4688 60.6898 30.4688 61.9658V68.3916C30.4688 69.4202 30.5208 70.3252 30.625 71.1064C30.7422 71.8877 30.9115 72.5583 31.1328 73.1182C31.3672 73.665 31.6406 74.1143 31.9531 74.4658C32.2786 74.8044 32.6497 75.0518 33.0664 75.208C33.4961 75.3643 33.9648 75.4424 34.4727 75.4424C35.0977 75.4424 35.651 75.3187 36.1328 75.0713C36.6276 74.8109 37.0443 74.4072 37.3828 73.8604C37.7344 73.3005 37.9948 72.5713 38.1641 71.6729C38.3333 70.7744 38.418 69.6807 38.418 68.3916ZM47.8125 57.9814V56.4775C47.8125 55.3968 48.0469 54.4137 48.5156 53.5283C48.9844 52.6429 49.6745 51.9333 50.5859 51.3994C51.4974 50.8656 52.6172 50.5986 53.9453 50.5986C55.3125 50.5986 56.4518 50.8656 57.3633 51.3994C58.2878 51.9333 58.9779 52.6429 59.4336 53.5283C59.9023 54.4137 60.1367 55.3968 60.1367 56.4775V57.9814C60.1367 59.0361 59.9023 60.0062 59.4336 60.8916C58.9779 61.777 58.2943 62.4867 57.3828 63.0205C56.4714 63.5544 55.3451 63.8213 54.0039 63.8213C52.6497 63.8213 51.5104 63.5544 50.5859 63.0205C49.6745 62.4867 48.9844 61.777 48.5156 60.8916C48.0469 60.0062 47.8125 59.0361 47.8125 57.9814ZM51.543 56.4775V57.9814C51.543 58.4372 51.6276 58.8734 51.7969 59.29C51.9792 59.6937 52.2526 60.0257 52.6172 60.2861C52.9948 60.5335 53.4505 60.6572 53.9844 60.6572C54.5443 60.6572 55 60.5335 55.3516 60.2861C55.7031 60.0257 55.9635 59.6937 56.1328 59.29C56.3021 58.8734 56.3867 58.4372 56.3867 57.9814V56.4775C56.3867 55.9958 56.2956 55.5531 56.1133 55.1494C55.944 54.7327 55.6771 54.4007 55.3125 54.1533C54.9609 53.8929 54.5052 53.7627 53.9453 53.7627C53.4245 53.7627 52.9818 53.8929 52.6172 54.1533C52.2526 54.4007 51.9792 54.7327 51.7969 55.1494C51.6276 55.5531 51.543 55.9958 51.543 56.4775ZM61.4062 73.9775V72.4736C61.4062 71.4059 61.6406 70.4294 62.1094 69.5439C62.5911 68.6585 63.2878 67.9489 64.1992 67.415C65.1237 66.8812 66.2565 66.6143 67.5977 66.6143C68.9518 66.6143 70.0846 66.8812 70.9961 67.415C71.9076 67.9489 72.5977 68.6585 73.0664 69.5439C73.5352 70.4294 73.7695 71.4059 73.7695 72.4736V73.9775C73.7695 75.0452 73.5352 76.0218 73.0664 76.9072C72.6107 77.7926 71.9271 78.5023 71.0156 79.0361C70.1042 79.57 68.9779 79.8369 67.6367 79.8369C66.2826 79.8369 65.1432 79.57 64.2188 79.0361C63.2943 78.5023 62.5911 77.7926 62.1094 76.9072C61.6406 76.0218 61.4062 75.0452 61.4062 73.9775ZM65.1562 72.4736V73.9775C65.1562 74.4463 65.2604 74.889 65.4688 75.3057C65.6771 75.7223 65.9635 76.0544 66.3281 76.3018C66.7057 76.5492 67.1419 76.6729 67.6367 76.6729C68.2617 76.6729 68.75 76.5492 69.1016 76.3018C69.4531 76.0544 69.694 75.7223 69.8242 75.3057C69.9674 74.889 70.0391 74.4463 70.0391 73.9775V72.4736C70.0391 72.0049 69.9479 71.5687 69.7656 71.165C69.5833 70.7484 69.3099 70.4163 68.9453 70.1689C68.5938 69.9085 68.1445 69.7783 67.5977 69.7783C67.0508 69.7783 66.5951 69.9085 66.2305 70.1689C65.8789 70.4163 65.612 70.7484 65.4297 71.165C65.2474 71.5687 65.1562 72.0049 65.1562 72.4736ZM68.9844 55.0713L55.0977 77.2979L52.3633 75.8525L66.25 53.626L68.9844 55.0713Z" fill="#89D9AD"/>
<g filter="url(#filter0_d_107_964)">
<ellipse cx="420.013" cy="290" rx="243.574" ry="244" fill="white"/>
</g>
<path d="M620.284 290.555C631.329 290.555 640.378 281.583 639.377 270.582C636.904 243.387 629.394 216.83 617.171 192.291C601.971 161.773 579.899 135.211 552.697 114.701C525.494 94.1904 493.906 80.2936 460.424 74.1067C433.507 69.1329 405.959 69.2514 379.191 74.3931C368.351 76.4753 362.238 87.6451 365.287 98.2539L381.23 153.714C384.284 164.337 395.386 170.292 406.363 169.005C418.44 167.588 430.698 167.982 442.729 170.205C461.346 173.645 478.909 181.372 494.035 192.776C509.16 204.18 521.432 218.949 529.884 235.918C535.353 246.9 539.126 258.608 541.107 270.644C542.901 281.543 551.689 290.555 562.735 290.555H620.284Z" fill="url(#paint0_linear_107_964)"/>
<path d="M352.924 102.306C349.186 91.9027 337.667 86.4226 327.653 91.104C301.888 103.149 278.698 120.091 259.377 140.987C251.887 149.087 253.577 161.699 262.312 168.439L307.924 203.635C316.679 210.391 329.159 208.611 337.24 201.061C344.443 194.331 352.433 188.497 361.035 183.688C370.669 178.303 376.168 166.993 372.436 156.607L352.924 102.306Z" fill="url(#paint1_linear_107_964)"/>
<path d="M254.891 178.875C245.721 172.693 233.188 175.09 227.881 184.791C215.699 207.063 207.431 231.325 203.495 256.515C199.558 281.712 200.029 307.352 204.838 332.294C206.931 343.147 218.126 349.255 228.742 346.177L284.027 330.147C294.628 327.073 300.559 315.981 299.257 305.02C297.941 293.944 298.139 282.709 299.87 271.628C301.602 260.545 304.842 249.785 309.475 239.64C314.059 229.604 311.803 217.238 302.654 211.071L254.891 178.875Z" fill="url(#paint2_linear_107_964)"/>
<path d="M232.719 358.57C222.341 362.327 216.886 373.83 221.557 383.83C237.189 417.3 261.034 446.393 290.998 468.311C320.946 490.217 355.85 504.109 392.415 508.841C403.371 510.259 412.677 501.552 413.09 490.513L415.247 432.834C415.66 421.797 406.983 412.679 396.161 410.469C379.03 406.97 362.769 399.811 348.524 389.391C334.278 378.971 322.519 365.633 313.976 350.351C308.582 340.702 297.243 335.208 286.849 338.971L232.719 358.57Z" fill="url(#paint3_linear_107_964)"/>
<path d="M425.429 490.595C425.698 501.638 434.889 510.466 445.862 509.193C493.921 503.615 539.011 482.262 573.924 448.174C608.847 414.077 631.315 369.456 638.108 321.457C639.656 310.522 631.068 301.109 620.038 300.556L562.561 297.674C551.527 297.121 542.299 305.685 539.962 316.482C534.912 339.82 523.116 361.324 505.837 378.195C488.565 395.059 466.813 406.317 443.405 410.779C432.555 412.847 423.758 421.85 424.027 432.892L425.429 490.595Z" fill="url(#paint4_linear_107_964)"/>
<path d="M85.4453 77.6807H223.6L281.303 109.918" stroke="#CDCDCD" stroke-width="2" stroke-dasharray="2 2"/>
<path d="M754.026 77.6807H615.871L558.168 109.918" stroke="#CDCDCD" stroke-width="2" stroke-dasharray="2 2"/>
<path d="M754.026 477.308H641.394L585.355 447.85" stroke="#CDCDCD" stroke-width="2" stroke-dasharray="2 2"/>
<path d="M85.4453 477.308H192.529L254.671 451.74" stroke="#CDCDCD" stroke-width="2" stroke-dasharray="2 2"/>
<path d="M85.4453 253.872H144.258L194.749 253.872" stroke="#CDCDCD" stroke-width="2" stroke-dasharray="2 2"/>
<defs>
<filter id="filter0_d_107_964" x="126.438" y="0" width="587.148" height="588" filterUnits="userSpaceOnUse" color-interpolation-filters="sRGB">
<feFlood flood-opacity="0" result="BackgroundImageFix"/>
<feColorMatrix in="SourceAlpha" type="matrix" values="0 0 0 0 0 0 0 0 0 0 0 0 0 0 0 0 0 0 127 0" result="hardAlpha"/>
<feOffset dy="4"/>
<feGaussianBlur stdDeviation="25"/>
<feComposite in2="hardAlpha" operator="out"/>
<feColorMatrix type="matrix" values="0 0 0 0 0 0 0 0 0 0 0 0 0 0 0 0 0 0 0.08 0"/>
<feBlend mode="normal" in2="BackgroundImageFix" result="effect1_dropShadow_107_964"/>
<feBlend mode="normal" in="SourceGraphic" in2="effect1_dropShadow_107_964" result="shape"/>
</filter>
<linearGradient id="paint0_linear_107_964" x1="573.287" y1="70.5005" x2="200.235" y2="433.887" gradientUnits="userSpaceOnUse">
<stop stop-color="#936EF1"/>
<stop offset="1" stop-color="#777CFF" stop-opacity="0.333333"/>
</linearGradient>
<linearGradient id="paint1_linear_107_964" x1="359" y1="134" x2="291" y2="180" gradientUnits="userSpaceOnUse">
<stop stop-color="#89D9AD" stop-opacity="0.8"/>
<stop offset="1" stop-color="#89D9AD"/>
</linearGradient>
<linearGradient id="paint2_linear_107_964" x1="251" y1="336.5" x2="281" y2="198.5" gradientUnits="userSpaceOnUse">
<stop stop-color="#96DCE1"/>
<stop offset="1" stop-color="#96DCE1" stop-opacity="0.8"/>
</linearGradient>
<linearGradient id="paint3_linear_107_964" x1="416" y1="501" x2="421" y2="75" gradientUnits="userSpaceOnUse">
<stop stop-color="#EF8A98"/>
<stop offset="1" stop-color="#EF8A98" stop-opacity="0"/>
</linearGradient>
<linearGradient id="paint4_linear_107_964" x1="585" y1="303.5" x2="434" y2="500" gradientUnits="userSpaceOnUse">
<stop offset="0.222515" stop-color="#93CCE7"/>
<stop offset="1" stop-color="#93CCE7" stop-opacity="0.5"/>
</linearGradient>
</defs>
</svg>
