<svg width="1043" height="550" viewBox="0 0 1043 550" fill="none" xmlns="http://www.w3.org/2000/svg">
<g filter="url(#filter0_i_228_314)">
<rect x="637" y="41" width="40" height="203" rx="10" fill="#F4F4F4"/>
</g>
<g filter="url(#filter1_i_228_314)">
<rect x="708" y="41" width="40" height="203" rx="10" fill="#F4F4F4"/>
</g>
<g filter="url(#filter2_i_228_314)">
<rect x="779" y="41" width="40" height="203" rx="10" fill="#F4F4F4"/>
</g>
<g filter="url(#filter3_i_228_314)">
<rect x="850" y="41" width="40" height="203" rx="10" fill="#F4F4F4"/>
</g>
<g filter="url(#filter4_i_228_314)">
<rect x="921" y="41" width="40" height="203" rx="10" fill="#F4F4F4"/>
</g>
<g filter="url(#filter5_i_228_314)">
<rect x="992" y="41" width="40" height="203" rx="10" fill="#F4F4F4"/>
</g>
<path d="M635.928 20.804V17.7766L643.519 5.81818H646.129V10.0085H644.584L639.799 17.5813V17.7234H650.585V20.804H635.928ZM644.655 24V19.8807L644.726 18.5401V5.81818H648.33V24H644.655ZM659.787 24.2486C658.532 24.2486 657.414 24.0178 656.431 23.5561C655.455 23.0945 654.679 22.4582 654.105 21.6474C653.531 20.8365 653.232 19.9073 653.209 18.8597H656.937C656.979 19.564 657.275 20.1352 657.825 20.5732C658.376 21.0111 659.03 21.2301 659.787 21.2301C660.391 21.2301 660.924 21.0969 661.385 20.8306C661.853 20.5584 662.217 20.1825 662.477 19.7031C662.744 19.2178 662.877 18.6615 662.877 18.0341C662.877 17.3949 662.741 16.8326 662.468 16.3473C662.202 15.862 661.832 15.4832 661.359 15.2109C660.885 14.9387 660.344 14.7996 659.734 14.7937C659.201 14.7937 658.683 14.9032 658.18 15.1222C657.683 15.3411 657.295 15.64 657.017 16.0188L653.599 15.4062L654.46 5.81818H665.576V8.96094H657.63L657.159 13.5153H657.266C657.585 13.0655 658.068 12.6926 658.713 12.3967C659.358 12.1007 660.08 11.9528 660.879 11.9528C661.974 11.9528 662.951 12.2102 663.809 12.7251C664.667 13.2401 665.345 13.9473 665.842 14.8469C666.339 15.7406 666.585 16.7705 666.579 17.9364C666.585 19.1616 666.301 20.2506 665.726 21.2035C665.158 22.1504 664.362 22.8962 663.338 23.4407C662.32 23.9793 661.137 24.2486 659.787 24.2486ZM679.212 20.5909V19.6321C679.212 18.9041 679.366 18.2353 679.674 17.6257C679.987 17.0102 680.44 16.5189 681.032 16.152C681.63 15.7791 682.358 15.5927 683.216 15.5927C684.086 15.5927 684.817 15.7762 685.409 16.1431C686.006 16.5101 686.456 17.0013 686.758 17.6168C687.066 18.2264 687.22 18.8982 687.22 19.6321V20.5909C687.22 21.3189 687.066 21.9906 686.758 22.6062C686.45 23.2158 685.998 23.7041 685.4 24.071C684.802 24.4439 684.074 24.6303 683.216 24.6303C682.346 24.6303 681.615 24.4439 681.023 24.071C680.431 23.7041 679.981 23.2158 679.674 22.6062C679.366 21.9906 679.212 21.3189 679.212 20.5909ZM681.795 19.6321V20.5909C681.795 21.0111 681.896 21.4077 682.097 21.7805C682.304 22.1534 682.677 22.3398 683.216 22.3398C683.754 22.3398 684.121 22.1564 684.317 21.7894C684.518 21.4225 684.619 21.023 684.619 20.5909V19.6321C684.619 19.2 684.524 18.7976 684.334 18.4247C684.145 18.0518 683.772 17.8654 683.216 17.8654C682.683 17.8654 682.313 18.0518 682.106 18.4247C681.899 18.7976 681.795 19.2 681.795 19.6321ZM669.881 10.1861V9.22727C669.881 8.49337 670.038 7.82161 670.352 7.212C670.666 6.59647 671.118 6.10523 671.71 5.73828C672.308 5.37133 673.03 5.18785 673.876 5.18785C674.752 5.18785 675.486 5.37133 676.078 5.73828C676.67 6.10523 677.12 6.59647 677.427 7.212C677.735 7.82161 677.889 8.49337 677.889 9.22727V10.1861C677.889 10.92 677.732 11.5917 677.419 12.2013C677.111 12.811 676.658 13.2992 676.06 13.6662C675.468 14.0272 674.74 14.2077 673.876 14.2077C673.012 14.2077 672.281 14.0243 671.684 13.6573C671.092 13.2844 670.642 12.7962 670.334 12.1925C670.032 11.5829 669.881 10.9141 669.881 10.1861ZM672.483 9.22727V10.1861C672.483 10.6181 672.583 11.0176 672.784 11.3846C672.992 11.7515 673.355 11.935 673.876 11.935C674.421 11.935 674.791 11.7515 674.986 11.3846C675.187 11.0176 675.288 10.6181 675.288 10.1861V9.22727C675.288 8.79522 675.193 8.39276 675.004 8.01989C674.814 7.64702 674.439 7.46058 673.876 7.46058C673.35 7.46058 672.986 7.64998 672.784 8.02876C672.583 8.40755 672.483 8.80705 672.483 9.22727ZM671.053 24L683.553 5.81818H685.879L673.379 24H671.053Z" fill="#EB6B92"/>
<path d="M708.71 24.2486C707.455 24.2486 706.336 24.0178 705.354 23.5561C704.377 23.0945 703.602 22.4582 703.028 21.6474C702.454 20.8365 702.155 19.9073 702.131 18.8597H705.86C705.901 19.564 706.197 20.1352 706.748 20.5732C707.298 21.0111 707.952 21.2301 708.71 21.2301C709.313 21.2301 709.846 21.0969 710.308 20.8306C710.775 20.5584 711.139 20.1825 711.4 19.7031C711.666 19.2178 711.799 18.6615 711.799 18.0341C711.799 17.3949 711.663 16.8326 711.391 16.3473C711.124 15.862 710.754 15.4832 710.281 15.2109C709.807 14.9387 709.266 14.7996 708.656 14.7937C708.124 14.7937 707.606 14.9032 707.103 15.1222C706.606 15.3411 706.218 15.64 705.94 16.0188L702.522 15.4062L703.383 5.81818H714.498V8.96094H706.552L706.082 13.5153H706.188C706.508 13.0655 706.99 12.6926 707.635 12.3967C708.28 12.1007 709.003 11.9528 709.802 11.9528C710.896 11.9528 711.873 12.2102 712.731 12.7251C713.589 13.2401 714.267 13.9473 714.764 14.8469C715.261 15.7406 715.507 16.7705 715.501 17.9364C715.507 19.1616 715.223 20.2506 714.649 21.2035C714.081 22.1504 713.285 22.8962 712.261 23.4407C711.243 23.9793 710.059 24.2486 708.71 24.2486ZM725.311 24.3995C723.784 24.3936 722.47 24.0178 721.369 23.272C720.274 22.5263 719.431 21.4461 718.839 20.0316C718.253 18.6171 717.963 16.9155 717.969 14.9268C717.969 12.9441 718.262 11.2544 718.848 9.8576C719.44 8.46082 720.283 7.39844 721.378 6.67045C722.479 5.93655 723.79 5.5696 725.311 5.5696C726.832 5.5696 728.14 5.93655 729.235 6.67045C730.336 7.40436 731.182 8.4697 731.774 9.86648C732.366 11.2573 732.659 12.9441 732.653 14.9268C732.653 16.9214 732.357 18.6259 731.765 20.0405C731.179 21.455 730.339 22.5352 729.244 23.2809C728.149 24.0266 726.838 24.3995 725.311 24.3995ZM725.311 21.2124C726.353 21.2124 727.184 20.6886 727.806 19.641C728.427 18.5934 728.735 17.022 728.729 14.9268C728.729 13.5478 728.587 12.3996 728.303 11.4822C728.025 10.5649 727.628 9.87535 727.113 9.41371C726.604 8.95206 726.004 8.72124 725.311 8.72124C724.275 8.72124 723.447 9.23911 722.825 10.2749C722.204 11.3106 721.89 12.8613 721.884 14.9268C721.884 16.3236 722.023 17.4896 722.302 18.4247C722.586 19.3539 722.985 20.0523 723.5 20.5199C724.015 20.9815 724.619 21.2124 725.311 21.2124ZM745.346 20.5909V19.6321C745.346 18.9041 745.5 18.2353 745.808 17.6257C746.122 17.0102 746.574 16.5189 747.166 16.152C747.764 15.7791 748.492 15.5927 749.35 15.5927C750.22 15.5927 750.951 15.7762 751.543 16.1431C752.141 16.5101 752.591 17.0013 752.892 17.6168C753.2 18.2264 753.354 18.8982 753.354 19.6321V20.5909C753.354 21.3189 753.2 21.9906 752.892 22.6062C752.585 23.2158 752.132 23.7041 751.534 24.071C750.936 24.4439 750.208 24.6303 749.35 24.6303C748.48 24.6303 747.749 24.4439 747.157 24.071C746.565 23.7041 746.116 23.2158 745.808 22.6062C745.5 21.9906 745.346 21.3189 745.346 20.5909ZM747.93 19.6321V20.5909C747.93 21.0111 748.03 21.4077 748.231 21.7805C748.439 22.1534 748.812 22.3398 749.35 22.3398C749.889 22.3398 750.256 22.1564 750.451 21.7894C750.652 21.4225 750.753 21.023 750.753 20.5909V19.6321C750.753 19.2 750.658 18.7976 750.469 18.4247C750.279 18.0518 749.906 17.8654 749.35 17.8654C748.817 17.8654 748.448 18.0518 748.24 18.4247C748.033 18.7976 747.93 19.2 747.93 19.6321ZM736.016 10.1861V9.22727C736.016 8.49337 736.172 7.82161 736.486 7.212C736.8 6.59647 737.253 6.10523 737.844 5.73828C738.442 5.37133 739.164 5.18785 740.011 5.18785C740.887 5.18785 741.62 5.37133 742.212 5.73828C742.804 6.10523 743.254 6.59647 743.562 7.212C743.87 7.82161 744.023 8.49337 744.023 9.22727V10.1861C744.023 10.92 743.867 11.5917 743.553 12.2013C743.245 12.811 742.792 13.2992 742.195 13.6662C741.603 14.0272 740.875 14.2077 740.011 14.2077C739.146 14.2077 738.416 14.0243 737.818 13.6573C737.226 13.2844 736.776 12.7962 736.468 12.1925C736.167 11.5829 736.016 10.9141 736.016 10.1861ZM738.617 9.22727V10.1861C738.617 10.6181 738.717 11.0176 738.919 11.3846C739.126 11.7515 739.49 11.935 740.011 11.935C740.555 11.935 740.925 11.7515 741.12 11.3846C741.322 11.0176 741.422 10.6181 741.422 10.1861V9.22727C741.422 8.79522 741.327 8.39276 741.138 8.01989C740.949 7.64702 740.573 7.46058 740.011 7.46058C739.484 7.46058 739.12 7.64998 738.919 8.02876C738.717 8.40755 738.617 8.80705 738.617 9.22727ZM737.187 24L749.687 5.81818H752.013L739.513 24H737.187Z" fill="#EB6B92"/>
<path d="M788.316 24.2486C787.061 24.2486 785.942 24.0178 784.96 23.5561C783.983 23.0945 783.208 22.4582 782.634 21.6474C782.06 20.8365 781.761 19.9073 781.737 18.8597H785.466C785.507 19.564 785.803 20.1352 786.354 20.5732C786.904 21.0111 787.558 21.2301 788.316 21.2301C788.919 21.2301 789.452 21.0969 789.914 20.8306C790.381 20.5584 790.745 20.1825 791.006 19.7031C791.272 19.2178 791.405 18.6615 791.405 18.0341C791.405 17.3949 791.269 16.8326 790.997 16.3473C790.73 15.862 790.36 15.4832 789.887 15.2109C789.413 14.9387 788.872 14.7996 788.262 14.7937C787.73 14.7937 787.212 14.9032 786.709 15.1222C786.211 15.3411 785.824 15.64 785.546 16.0188L782.128 15.4062L782.989 5.81818H794.104V8.96094H786.158L785.688 13.5153H785.794C786.114 13.0655 786.596 12.6926 787.241 12.3967C787.886 12.1007 788.608 11.9528 789.407 11.9528C790.502 11.9528 791.479 12.2102 792.337 12.7251C793.195 13.2401 793.873 13.9473 794.37 14.8469C794.867 15.7406 795.113 16.7705 795.107 17.9364C795.113 19.1616 794.829 20.2506 794.255 21.2035C793.687 22.1504 792.891 22.8962 791.867 23.4407C790.849 23.9793 789.665 24.2486 788.316 24.2486ZM807.74 20.5909V19.6321C807.74 18.9041 807.894 18.2353 808.202 17.6257C808.516 17.0102 808.968 16.5189 809.56 16.152C810.158 15.7791 810.886 15.5927 811.744 15.5927C812.614 15.5927 813.345 15.7762 813.937 16.1431C814.535 16.5101 814.985 17.0013 815.286 17.6168C815.594 18.2264 815.748 18.8982 815.748 19.6321V20.5909C815.748 21.3189 815.594 21.9906 815.286 22.6062C814.979 23.2158 814.526 23.7041 813.928 24.071C813.33 24.4439 812.602 24.6303 811.744 24.6303C810.874 24.6303 810.143 24.4439 809.551 24.071C808.959 23.7041 808.51 23.2158 808.202 22.6062C807.894 21.9906 807.74 21.3189 807.74 20.5909ZM810.324 19.6321V20.5909C810.324 21.0111 810.424 21.4077 810.626 21.7805C810.833 22.1534 811.206 22.3398 811.744 22.3398C812.283 22.3398 812.65 22.1564 812.845 21.7894C813.046 21.4225 813.147 21.023 813.147 20.5909V19.6321C813.147 19.2 813.052 18.7976 812.863 18.4247C812.673 18.0518 812.3 17.8654 811.744 17.8654C811.211 17.8654 810.842 18.0518 810.634 18.4247C810.427 18.7976 810.324 19.2 810.324 19.6321ZM798.41 10.1861V9.22727C798.41 8.49337 798.566 7.82161 798.88 7.212C799.194 6.59647 799.647 6.10523 800.238 5.73828C800.836 5.37133 801.558 5.18785 802.405 5.18785C803.281 5.18785 804.015 5.37133 804.606 5.73828C805.198 6.10523 805.648 6.59647 805.956 7.212C806.264 7.82161 806.417 8.49337 806.417 9.22727V10.1861C806.417 10.92 806.261 11.5917 805.947 12.2013C805.639 12.811 805.186 13.2992 804.589 13.6662C803.997 14.0272 803.269 14.2077 802.405 14.2077C801.541 14.2077 800.81 14.0243 800.212 13.6573C799.62 13.2844 799.17 12.7962 798.862 12.1925C798.561 11.5829 798.41 10.9141 798.41 10.1861ZM801.011 9.22727V10.1861C801.011 10.6181 801.111 11.0176 801.313 11.3846C801.52 11.7515 801.884 11.935 802.405 11.935C802.949 11.935 803.319 11.7515 803.514 11.3846C803.716 11.0176 803.816 10.6181 803.816 10.1861V9.22727C803.816 8.79522 803.722 8.39276 803.532 8.01989C803.343 7.64702 802.967 7.46058 802.405 7.46058C801.878 7.46058 801.514 7.64998 801.313 8.02876C801.111 8.40755 801.011 8.80705 801.011 9.22727ZM799.581 24L812.081 5.81818H814.407L801.907 24H799.581Z" fill="#EB6B92"/>
<path d="M644.377 257.909V271H641.61V260.536H641.533L638.535 262.415V259.961L641.776 257.909H644.377ZM652.622 271.288C651.522 271.283 650.576 271.013 649.784 270.476C648.995 269.939 648.388 269.161 647.962 268.143C647.54 267.124 647.331 265.899 647.335 264.467C647.335 263.04 647.546 261.823 647.968 260.817C648.394 259.812 649.002 259.047 649.79 258.523C650.583 257.994 651.526 257.73 652.622 257.73C653.717 257.73 654.659 257.994 655.447 258.523C656.24 259.051 656.849 259.818 657.275 260.824C657.701 261.825 657.912 263.04 657.908 264.467C657.908 265.903 657.695 267.131 657.269 268.149C656.847 269.168 656.242 269.945 655.453 270.482C654.665 271.019 653.721 271.288 652.622 271.288ZM652.622 268.993C653.372 268.993 653.97 268.616 654.418 267.862C654.865 267.107 655.087 265.976 655.083 264.467C655.083 263.474 654.98 262.648 654.776 261.987C654.575 261.327 654.29 260.83 653.919 260.498C653.553 260.165 653.12 259.999 652.622 259.999C651.876 259.999 651.279 260.372 650.832 261.118C650.384 261.864 650.159 262.98 650.154 264.467C650.154 265.473 650.254 266.312 650.455 266.986C650.659 267.655 650.947 268.158 651.318 268.494C651.688 268.827 652.123 268.993 652.622 268.993ZM671.582 255.934H673.85V272.602H671.582V255.934ZM669.35 262.342H672.122V264.268H669.35V262.342ZM667.856 256.222H670.07V271.81H667.856V256.222ZM660.008 266.878H661.178C663.23 266.878 664.94 266.806 666.92 266.446L667.1 268.39C665.084 268.786 663.32 268.84 661.178 268.84H660.008V266.878ZM660.008 257.86H666.164V259.786H662.384V267.814H660.008V257.86Z" fill="#AAAAAA"/>
<path d="M700.137 271V269.006L704.797 264.691C705.193 264.308 705.526 263.962 705.794 263.656C706.067 263.349 706.274 263.048 706.414 262.754C706.555 262.456 706.625 262.134 706.625 261.789C706.625 261.406 706.538 261.075 706.363 260.798C706.188 260.517 705.95 260.302 705.647 260.153C705.345 259.999 705.002 259.923 704.618 259.923C704.218 259.923 703.868 260.004 703.57 260.165C703.271 260.327 703.041 260.56 702.879 260.862C702.718 261.165 702.637 261.525 702.637 261.942H700.009C700.009 261.086 700.203 260.342 700.591 259.712C700.979 259.081 701.522 258.593 702.221 258.248C702.92 257.903 703.725 257.73 704.637 257.73C705.575 257.73 706.391 257.896 707.085 258.229C707.784 258.557 708.328 259.013 708.715 259.597C709.103 260.18 709.297 260.849 709.297 261.604C709.297 262.098 709.199 262.586 709.003 263.067C708.811 263.549 708.468 264.084 707.974 264.672C707.48 265.256 706.783 265.957 705.884 266.775L703.972 268.648V268.737H709.47V271H700.137ZM716.608 271.288C715.509 271.283 714.563 271.013 713.77 270.476C712.982 269.939 712.374 269.161 711.948 268.143C711.526 267.124 711.317 265.899 711.322 264.467C711.322 263.04 711.533 261.823 711.955 260.817C712.381 259.812 712.988 259.047 713.776 258.523C714.569 257.994 715.513 257.73 716.608 257.73C717.703 257.73 718.645 257.994 719.433 258.523C720.226 259.051 720.835 259.818 721.261 260.824C721.688 261.825 721.898 263.04 721.894 264.467C721.894 265.903 721.681 267.131 721.255 268.149C720.833 269.168 720.228 269.945 719.44 270.482C718.651 271.019 717.707 271.288 716.608 271.288ZM716.608 268.993C717.358 268.993 717.957 268.616 718.404 267.862C718.852 267.107 719.073 265.976 719.069 264.467C719.069 263.474 718.967 262.648 718.762 261.987C718.562 261.327 718.276 260.83 717.906 260.498C717.539 260.165 717.107 259.999 716.608 259.999C715.862 259.999 715.266 260.372 714.818 261.118C714.371 261.864 714.145 262.98 714.141 264.467C714.141 265.473 714.241 266.312 714.441 266.986C714.646 267.655 714.933 268.158 715.304 268.494C715.675 268.827 716.109 268.993 716.608 268.993ZM735.569 255.934H737.837V272.602H735.569V255.934ZM733.337 262.342H736.109V264.268H733.337V262.342ZM731.843 256.222H734.057V271.81H731.843V256.222ZM723.995 266.878H725.165C727.217 266.878 728.927 266.806 730.907 266.446L731.087 268.39C729.071 268.786 727.307 268.84 725.165 268.84H723.995V266.878ZM723.995 257.86H730.151V259.786H726.371V267.814H723.995V257.86ZM740.103 268.768H755.187V270.712H740.103V268.768ZM746.439 265.564H748.833V269.776H746.439V265.564ZM746.421 259.408H748.545V259.768C748.545 262.954 746.007 265.528 741.435 266.122L740.571 264.232C744.621 263.746 746.421 261.676 746.421 259.768V259.408ZM746.745 259.408H748.851V259.768C748.851 261.676 750.651 263.746 754.701 264.232L753.837 266.122C749.265 265.528 746.745 262.954 746.745 259.768V259.408ZM741.381 258.184H753.891V260.11H741.381V258.184ZM746.439 256.15H748.833V258.976H746.439V256.15Z" fill="#AAAAAA"/>
<path d="M771.137 271V269.006L775.797 264.691C776.193 264.308 776.526 263.962 776.794 263.656C777.067 263.349 777.274 263.048 777.414 262.754C777.555 262.456 777.625 262.134 777.625 261.789C777.625 261.406 777.538 261.075 777.363 260.798C777.188 260.517 776.95 260.302 776.647 260.153C776.345 259.999 776.002 259.923 775.618 259.923C775.218 259.923 774.868 260.004 774.57 260.165C774.271 260.327 774.041 260.56 773.879 260.862C773.718 261.165 773.637 261.525 773.637 261.942H771.009C771.009 261.086 771.203 260.342 771.591 259.712C771.979 259.081 772.522 258.593 773.221 258.248C773.92 257.903 774.725 257.73 775.637 257.73C776.575 257.73 777.391 257.896 778.085 258.229C778.784 258.557 779.328 259.013 779.715 259.597C780.103 260.18 780.297 260.849 780.297 261.604C780.297 262.098 780.199 262.586 780.003 263.067C779.811 263.549 779.468 264.084 778.974 264.672C778.48 265.256 777.783 265.957 776.884 266.775L774.972 268.648V268.737H780.47V271H771.137ZM787.608 271.288C786.509 271.283 785.563 271.013 784.77 270.476C783.982 269.939 783.374 269.161 782.948 268.143C782.526 267.124 782.317 265.899 782.322 264.467C782.322 263.04 782.533 261.823 782.955 260.817C783.381 259.812 783.988 259.047 784.776 258.523C785.569 257.994 786.513 257.73 787.608 257.73C788.703 257.73 789.645 257.994 790.433 258.523C791.226 259.051 791.835 259.818 792.261 260.824C792.688 261.825 792.898 263.04 792.894 264.467C792.894 265.903 792.681 267.131 792.255 268.149C791.833 269.168 791.228 269.945 790.44 270.482C789.651 271.019 788.707 271.288 787.608 271.288ZM787.608 268.993C788.358 268.993 788.957 268.616 789.404 267.862C789.852 267.107 790.073 265.976 790.069 264.467C790.069 263.474 789.967 262.648 789.762 261.987C789.562 261.327 789.276 260.83 788.906 260.498C788.539 260.165 788.107 259.999 787.608 259.999C786.862 259.999 786.266 260.372 785.818 261.118C785.371 261.864 785.145 262.98 785.141 264.467C785.141 265.473 785.241 266.312 785.441 266.986C785.646 267.655 785.933 268.158 786.304 268.494C786.675 268.827 787.109 268.993 787.608 268.993ZM806.569 255.934H808.837V272.602H806.569V255.934ZM804.337 262.342H807.109V264.268H804.337V262.342ZM802.843 256.222H805.057V271.81H802.843V256.222ZM794.995 266.878H796.165C798.217 266.878 799.927 266.806 801.907 266.446L802.087 268.39C800.071 268.786 798.307 268.84 796.165 268.84H794.995V266.878ZM794.995 257.86H801.151V259.786H797.371V267.814H794.995V257.86ZM811.805 257.662H825.377V259.552H811.805V257.662ZM811.103 266.716H826.187V268.642H811.103V266.716ZM817.421 268.408H819.815V272.62H817.421V268.408ZM818.627 260.2C822.209 260.2 824.333 261.208 824.333 263.062C824.333 264.898 822.209 265.924 818.627 265.924C815.027 265.924 812.903 264.898 812.903 263.062C812.903 261.208 815.027 260.2 818.627 260.2ZM818.627 261.982C816.449 261.982 815.387 262.306 815.387 263.062C815.387 263.818 816.449 264.142 818.627 264.142C820.805 264.142 821.867 263.818 821.867 263.062C821.867 262.306 820.805 261.982 818.627 261.982ZM817.421 255.916H819.815V258.922H817.421V255.916Z" fill="#AAAAAA"/>
<path d="M854.992 271.179C854.037 271.179 853.187 271.015 852.441 270.687C851.7 270.354 851.114 269.898 850.683 269.319C850.257 268.735 850.038 268.062 850.025 267.299H852.812C852.829 267.619 852.933 267.9 853.125 268.143C853.321 268.381 853.581 268.567 853.905 268.699C854.229 268.831 854.593 268.897 854.998 268.897C855.42 268.897 855.793 268.822 856.117 268.673C856.441 268.524 856.694 268.317 856.877 268.053C857.061 267.789 857.152 267.484 857.152 267.139C857.152 266.79 857.054 266.481 856.858 266.212C856.666 265.94 856.389 265.727 856.027 265.573C855.669 265.42 855.243 265.343 854.749 265.343H853.528V263.31H854.749C855.166 263.31 855.535 263.238 855.855 263.093C856.178 262.948 856.43 262.748 856.609 262.492C856.788 262.232 856.877 261.93 856.877 261.585C856.877 261.256 856.798 260.969 856.641 260.722C856.487 260.47 856.27 260.274 855.989 260.134C855.712 259.993 855.388 259.923 855.017 259.923C854.642 259.923 854.299 259.991 853.988 260.127C853.677 260.259 853.428 260.449 853.24 260.696C853.053 260.943 852.953 261.233 852.94 261.565H850.287C850.3 260.811 850.515 260.146 850.933 259.571C851.35 258.996 851.913 258.546 852.62 258.222C853.332 257.894 854.135 257.73 855.03 257.73C855.933 257.73 856.724 257.894 857.401 258.222C858.079 258.55 858.605 258.994 858.98 259.552C859.36 260.106 859.547 260.728 859.543 261.418C859.547 262.151 859.319 262.763 858.859 263.253C858.403 263.743 857.808 264.054 857.075 264.186V264.288C858.039 264.412 858.771 264.746 859.274 265.292C859.781 265.833 860.033 266.511 860.029 267.325C860.033 268.07 859.818 268.733 859.383 269.312C858.953 269.892 858.358 270.348 857.6 270.68C856.841 271.013 855.972 271.179 854.992 271.179ZM867.151 271.288C866.051 271.283 865.105 271.013 864.313 270.476C863.525 269.939 862.917 269.161 862.491 268.143C862.069 267.124 861.86 265.899 861.865 264.467C861.865 263.04 862.076 261.823 862.498 260.817C862.924 259.812 863.531 259.047 864.319 258.523C865.112 257.994 866.056 257.73 867.151 257.73C868.246 257.73 869.188 257.994 869.976 258.523C870.769 259.051 871.378 259.818 871.804 260.824C872.23 261.825 872.441 263.04 872.437 264.467C872.437 265.903 872.224 267.131 871.798 268.149C871.376 269.168 870.771 269.945 869.983 270.482C869.194 271.019 868.25 271.288 867.151 271.288ZM867.151 268.993C867.901 268.993 868.5 268.616 868.947 267.862C869.395 267.107 869.616 265.976 869.612 264.467C869.612 263.474 869.51 262.648 869.305 261.987C869.105 261.327 868.819 260.83 868.449 260.498C868.082 260.165 867.65 259.999 867.151 259.999C866.405 259.999 865.809 260.372 865.361 261.118C864.914 261.864 864.688 262.98 864.684 264.467C864.684 265.473 864.784 266.312 864.984 266.986C865.189 267.655 865.476 268.158 865.847 268.494C866.218 268.827 866.652 268.993 867.151 268.993ZM886.112 255.934H888.38V272.602H886.112V255.934ZM883.88 262.342H886.652V264.268H883.88V262.342ZM882.386 256.222H884.6V271.81H882.386V256.222ZM874.538 266.878H875.708C877.76 266.878 879.47 266.806 881.45 266.446L881.63 268.39C879.614 268.786 877.85 268.84 875.708 268.84H874.538V266.878ZM874.538 257.86H880.694V259.786H876.914V267.814H874.538V257.86Z" fill="#AAAAAA"/>
<path d="M920.788 268.699V266.519L926.253 257.909H928.132V260.926H927.02L923.575 266.379V266.481H931.341V268.699H920.788ZM927.071 271V268.034L927.122 267.069V257.909H929.717V271H927.071ZM938.318 271.288C937.218 271.283 936.272 271.013 935.48 270.476C934.691 269.939 934.084 269.161 933.658 268.143C933.236 267.124 933.027 265.899 933.032 264.467C933.032 263.04 933.243 261.823 933.665 260.817C934.091 259.812 934.698 259.047 935.486 258.523C936.279 257.994 937.223 257.73 938.318 257.73C939.413 257.73 940.355 257.994 941.143 258.523C941.936 259.051 942.545 259.818 942.971 260.824C943.397 261.825 943.608 263.04 943.604 264.467C943.604 265.903 943.391 267.131 942.965 268.149C942.543 269.168 941.938 269.945 941.15 270.482C940.361 271.019 939.417 271.288 938.318 271.288ZM938.318 268.993C939.068 268.993 939.667 268.616 940.114 267.862C940.562 267.107 940.783 265.976 940.779 264.467C940.779 263.474 940.677 262.648 940.472 261.987C940.272 261.327 939.986 260.83 939.616 260.498C939.249 260.165 938.816 259.999 938.318 259.999C937.572 259.999 936.976 260.372 936.528 261.118C936.081 261.864 935.855 262.98 935.851 264.467C935.851 265.473 935.951 266.312 936.151 266.986C936.356 267.655 936.643 268.158 937.014 268.494C937.385 268.827 937.819 268.993 938.318 268.993ZM957.279 255.934H959.547V272.602H957.279V255.934ZM955.047 262.342H957.819V264.268H955.047V262.342ZM953.553 256.222H955.767V271.81H953.553V256.222ZM945.705 266.878H946.875C948.927 266.878 950.637 266.806 952.617 266.446L952.797 268.39C950.781 268.786 949.017 268.84 946.875 268.84H945.705V266.878ZM945.705 257.86H951.861V259.786H948.081V267.814H945.705V257.86Z" fill="#AAAAAA" fill-opacity="0.7"/>
<path d="M991.949 271.179C991.045 271.179 990.24 271.013 989.533 270.68C988.829 270.348 988.271 269.89 987.858 269.306C987.445 268.722 987.229 268.053 987.212 267.299H989.897C989.927 267.806 990.14 268.217 990.536 268.533C990.932 268.848 991.403 269.006 991.949 269.006C992.383 269.006 992.767 268.91 993.099 268.718C993.436 268.522 993.698 268.251 993.886 267.906C994.077 267.557 994.173 267.156 994.173 266.705C994.173 266.244 994.075 265.839 993.879 265.49C993.687 265.141 993.421 264.868 993.08 264.672C992.739 264.476 992.349 264.376 991.91 264.371C991.527 264.371 991.154 264.45 990.792 264.608C990.434 264.766 990.155 264.981 989.954 265.254L987.494 264.812L988.114 257.909H996.116V260.172H990.396L990.057 263.451H990.133C990.364 263.127 990.711 262.859 991.175 262.646C991.64 262.433 992.16 262.326 992.735 262.326C993.523 262.326 994.226 262.511 994.844 262.882C995.462 263.253 995.95 263.762 996.308 264.41C996.666 265.053 996.843 265.795 996.839 266.634C996.843 267.516 996.638 268.3 996.225 268.987C995.816 269.668 995.243 270.205 994.506 270.597C993.773 270.985 992.92 271.179 991.949 271.179ZM1003.9 271.288C1002.8 271.283 1001.86 271.013 1001.06 270.476C1000.28 269.939 999.668 269.161 999.242 268.143C998.82 267.124 998.611 265.899 998.616 264.467C998.616 263.04 998.827 261.823 999.248 260.817C999.675 259.812 1000.28 259.047 1001.07 258.523C1001.86 257.994 1002.81 257.73 1003.9 257.73C1005 257.73 1005.94 257.994 1006.73 258.523C1007.52 259.051 1008.13 259.818 1008.56 260.824C1008.98 261.825 1009.19 263.04 1009.19 264.467C1009.19 265.903 1008.98 267.131 1008.55 268.149C1008.13 269.168 1007.52 269.945 1006.73 270.482C1005.95 271.019 1005 271.288 1003.9 271.288ZM1003.9 268.993C1004.65 268.993 1005.25 268.616 1005.7 267.862C1006.15 267.107 1006.37 265.976 1006.36 264.467C1006.36 263.474 1006.26 262.648 1006.06 261.987C1005.86 261.327 1005.57 260.83 1005.2 260.498C1004.83 260.165 1004.4 259.999 1003.9 259.999C1003.16 259.999 1002.56 260.372 1002.11 261.118C1001.66 261.864 1001.44 262.98 1001.43 264.467C1001.43 265.473 1001.53 266.312 1001.73 266.986C1001.94 267.655 1002.23 268.158 1002.6 268.494C1002.97 268.827 1003.4 268.993 1003.9 268.993ZM1022.86 255.934H1025.13V272.602H1022.86V255.934ZM1020.63 262.342H1023.4V264.268H1020.63V262.342ZM1019.14 256.222H1021.35V271.81H1019.14V256.222ZM1011.29 266.878H1012.46C1014.51 266.878 1016.22 266.806 1018.2 266.446L1018.38 268.39C1016.36 268.786 1014.6 268.84 1012.46 268.84H1011.29V266.878ZM1011.29 257.86H1017.44V259.786H1013.66V267.814H1011.29V257.86ZM1028.03 267.465C1028.01 266.66 1028.11 265.978 1028.33 265.42C1028.55 264.862 1028.87 264.437 1029.29 264.148C1029.72 263.858 1030.22 263.713 1030.79 263.713C1031.2 263.713 1031.58 263.796 1031.95 263.962C1032.31 264.129 1032.73 264.416 1033.19 264.825C1033.44 265.043 1033.65 265.209 1033.82 265.324C1033.99 265.435 1034.18 265.49 1034.41 265.49C1034.71 265.49 1034.96 265.373 1035.15 265.138C1035.35 264.9 1035.44 264.523 1035.43 264.007H1037.51C1037.54 264.817 1037.44 265.501 1037.22 266.059C1036.99 266.617 1036.67 267.041 1036.24 267.331C1035.81 267.621 1035.32 267.766 1034.75 267.766C1034.33 267.766 1033.93 267.678 1033.56 267.504C1033.2 267.325 1032.79 267.039 1032.34 266.647C1032.08 266.413 1031.87 266.244 1031.71 266.142C1031.55 266.036 1031.36 265.982 1031.15 265.982C1030.84 265.982 1030.59 266.097 1030.4 266.327C1030.2 266.553 1030.11 266.933 1030.12 267.465H1028.03Z" fill="#AAAAAA"/>
<g filter="url(#filter6_d_228_314)">
<path d="M637 166H677V234C677 239.523 672.523 244 667 244H647C641.477 244 637 239.523 637 234V166Z" fill="url(#paint0_linear_228_314)" shape-rendering="crispEdges"/>
</g>
<g filter="url(#filter7_d_228_314)">
<path d="M779 228H819V234C819 239.523 814.523 244 809 244H789C783.477 244 779 239.523 779 234V228Z" fill="url(#paint1_linear_228_314)" shape-rendering="crispEdges"/>
</g>
<g filter="url(#filter8_d_228_314)">
<path d="M708 145H748V234C748 239.523 743.523 244 738 244H718C712.477 244 708 239.523 708 234V145Z" fill="url(#paint2_linear_228_314)" shape-rendering="crispEdges"/>
</g>
<path d="M11.5778 85.8864V81.0426L23.7227 61.9091H27.8988V68.6136H25.4272L17.771 80.7301V80.9574H35.0295V85.8864H11.5778ZM25.5408 91V84.4091L25.6545 82.2642V61.9091H31.4215V91H25.5408ZM39.1275 91V86.5682L49.4826 76.9801C50.3633 76.1278 51.1019 75.3608 51.6985 74.679C52.3046 73.9972 52.7638 73.3295 53.0763 72.6761C53.3888 72.0133 53.5451 71.2983 53.5451 70.5312C53.5451 69.679 53.351 68.9451 52.9627 68.3295C52.5745 67.7045 52.0442 67.2263 51.3718 66.8949C50.6995 66.554 49.9371 66.3835 49.0849 66.3835C48.1947 66.3835 47.4182 66.5634 46.7553 66.9233C46.0924 67.2831 45.5811 67.7992 45.2212 68.4716C44.8614 69.1439 44.6815 69.9441 44.6815 70.8722H38.8434C38.8434 68.9687 39.2743 67.3163 40.136 65.9148C40.9978 64.5133 42.2051 63.429 43.7582 62.6619C45.3112 61.8949 47.101 61.5114 49.1275 61.5114C51.2108 61.5114 53.0243 61.8807 54.5678 62.6193C56.1209 63.3485 57.3282 64.3617 58.19 65.6591C59.0517 66.9564 59.4826 68.4432 59.4826 70.1193C59.4826 71.2178 59.2648 72.3021 58.8292 73.3722C58.4031 74.4422 57.6407 75.6307 56.5423 76.9375C55.4438 78.2348 53.8955 79.7926 51.8974 81.6108L47.6502 85.7727V85.9716H59.8661V91H39.1275ZM80.2461 85.5455V84.0114C80.2461 82.8466 80.4923 81.7765 80.9847 80.8011C81.4866 79.8163 82.2111 79.0303 83.158 78.4432C84.1145 77.8466 85.2792 77.5483 86.6523 77.5483C88.0444 77.5483 89.2139 77.8419 90.1609 78.429C91.1173 79.0161 91.837 79.8021 92.32 80.7869C92.8124 81.7623 93.0586 82.8371 93.0586 84.0114V85.5455C93.0586 86.7102 92.8124 87.785 92.32 88.7699C91.8275 89.7453 91.1031 90.5265 90.1467 91.1136C89.1902 91.7102 88.0255 92.0085 86.6523 92.0085C85.2603 92.0085 84.0908 91.7102 83.1438 91.1136C82.1969 90.5265 81.4772 89.7453 80.9847 88.7699C80.4923 87.785 80.2461 86.7102 80.2461 85.5455ZM84.3796 84.0114V85.5455C84.3796 86.2178 84.5406 86.8523 84.8626 87.4489C85.194 88.0455 85.7906 88.3438 86.6523 88.3438C87.5141 88.3438 88.1012 88.0502 88.4137 87.4631C88.7357 86.8759 88.8967 86.2367 88.8967 85.5455V84.0114C88.8967 83.3201 88.7451 82.6761 88.4421 82.0795C88.1391 81.483 87.5425 81.1847 86.6523 81.1847C85.8001 81.1847 85.2082 81.483 84.8768 82.0795C84.5453 82.6761 84.3796 83.3201 84.3796 84.0114ZM65.3171 68.8977V67.3636C65.3171 66.1894 65.5681 65.1146 66.07 64.1392C66.5719 63.1544 67.2963 62.3684 68.2433 61.7812C69.1997 61.1941 70.355 60.9006 71.7092 60.9006C73.1107 60.9006 74.2849 61.1941 75.2319 61.7812C76.1789 62.3684 76.8986 63.1544 77.391 64.1392C77.8834 65.1146 78.1296 66.1894 78.1296 67.3636V68.8977C78.1296 70.072 77.8787 71.1468 77.3768 72.1222C76.8844 73.0975 76.1599 73.8788 75.2035 74.4659C74.2565 75.0436 73.0917 75.3324 71.7092 75.3324C70.3266 75.3324 69.1571 75.0388 68.2006 74.4517C67.2537 73.8551 66.534 73.0739 66.0415 72.108C65.5586 71.1326 65.3171 70.0625 65.3171 68.8977ZM69.479 67.3636V68.8977C69.479 69.589 69.64 70.2282 69.962 70.8153C70.2934 71.4025 70.8758 71.696 71.7092 71.696C72.5804 71.696 73.1722 71.4025 73.4847 70.8153C73.8067 70.2282 73.9677 69.589 73.9677 68.8977V67.3636C73.9677 66.6723 73.8162 66.0284 73.5131 65.4318C73.2101 64.8352 72.6088 64.5369 71.7092 64.5369C70.8664 64.5369 70.284 64.84 69.962 65.446C69.64 66.0521 69.479 66.6913 69.479 67.3636ZM67.1921 91L87.1921 61.9091H90.9137L70.9137 91H67.1921Z" fill="#777CF0"/>
<path d="M510.182 91.3977C508.175 91.3977 506.385 91.0284 504.813 90.2898C503.25 89.5511 502.01 88.5331 501.091 87.2358C500.173 85.9384 499.694 84.4517 499.657 82.7756H505.623C505.689 83.9025 506.162 84.8163 507.043 85.517C507.924 86.2178 508.97 86.5682 510.182 86.5682C511.148 86.5682 512 86.3551 512.739 85.929C513.487 85.4934 514.069 84.892 514.486 84.125C514.912 83.3485 515.125 82.4583 515.125 81.4545C515.125 80.4318 514.908 79.5322 514.472 78.7557C514.046 77.9792 513.454 77.3731 512.696 76.9375C511.939 76.5019 511.072 76.2794 510.097 76.2699C509.245 76.2699 508.416 76.4451 507.611 76.7955C506.816 77.1458 506.195 77.6241 505.75 78.2301L500.282 77.25L501.659 61.9091H519.444V66.9375H506.73L505.978 74.2244H506.148C506.659 73.5047 507.431 72.9081 508.463 72.4347C509.496 71.9612 510.651 71.7244 511.929 71.7244C513.681 71.7244 515.244 72.1364 516.617 72.9602C517.99 73.7841 519.074 74.9157 519.87 76.3551C520.665 77.785 521.058 79.4328 521.049 81.2983C521.058 83.2585 520.604 85.0009 519.685 86.5256C518.776 88.0407 517.502 89.2339 515.864 90.1051C514.235 90.9669 512.341 91.3977 510.182 91.3977ZM536.191 91.3977C534.003 91.3977 532.057 91.0426 530.353 90.3324C528.658 89.6127 527.327 88.6326 526.361 87.392C525.395 86.1515 524.912 84.7453 524.912 83.1733C524.912 81.9612 525.187 80.8485 525.736 79.8352C526.295 78.8125 527.052 77.965 528.009 77.2926C528.965 76.6108 530.035 76.1752 531.219 75.9858V75.7869C529.666 75.4744 528.407 74.7216 527.441 73.5284C526.475 72.3258 525.992 70.929 525.992 69.3381C525.992 67.8324 526.432 66.4924 527.313 65.3182C528.194 64.1345 529.401 63.2064 530.935 62.5341C532.479 61.8523 534.23 61.5114 536.191 61.5114C538.151 61.5114 539.898 61.8523 541.432 62.5341C542.976 63.2159 544.188 64.1487 545.069 65.3324C545.949 66.5066 546.394 67.8419 546.404 69.3381C546.394 70.9384 545.902 72.3352 544.926 73.5284C543.951 74.7216 542.701 75.4744 541.176 75.7869V75.9858C542.341 76.1752 543.397 76.6108 544.344 77.2926C545.301 77.965 546.058 78.8125 546.617 79.8352C547.185 80.8485 547.474 81.9612 547.483 83.1733C547.474 84.7453 546.986 86.1515 546.02 87.392C545.054 88.6326 543.719 89.6127 542.015 90.3324C540.319 91.0426 538.378 91.3977 536.191 91.3977ZM536.191 86.8807C537.166 86.8807 538.018 86.7055 538.748 86.3551C539.477 85.9953 540.045 85.5028 540.452 84.8778C540.869 84.2434 541.077 83.5142 541.077 82.6903C541.077 81.8475 540.864 81.1042 540.438 80.4602C540.012 79.8068 539.434 79.2955 538.705 78.9261C537.976 78.5473 537.138 78.358 536.191 78.358C535.253 78.358 534.415 78.5473 533.676 78.9261C532.938 79.2955 532.355 79.8068 531.929 80.4602C531.513 81.1042 531.304 81.8475 531.304 82.6903C531.304 83.5142 531.508 84.2434 531.915 84.8778C532.322 85.5028 532.895 85.9953 533.634 86.3551C534.373 86.7055 535.225 86.8807 536.191 86.8807ZM536.191 73.8835C537.005 73.8835 537.73 73.7178 538.364 73.3864C538.998 73.0549 539.496 72.5956 539.855 72.0085C540.215 71.4214 540.395 70.7443 540.395 69.9773C540.395 69.2197 540.215 68.5568 539.855 67.9886C539.496 67.411 539.003 66.9612 538.378 66.6392C537.753 66.3078 537.024 66.142 536.191 66.142C535.367 66.142 534.638 66.3078 534.003 66.6392C533.369 66.9612 532.872 67.411 532.512 67.9886C532.161 68.5568 531.986 69.2197 531.986 69.9773C531.986 70.7443 532.166 71.4214 532.526 72.0085C532.886 72.5956 533.383 73.0549 534.017 73.3864C534.652 73.7178 535.376 73.8835 536.191 73.8835ZM567.707 85.5455V84.0114C567.707 82.8466 567.953 81.7765 568.446 80.8011C568.948 79.8163 569.672 79.0303 570.619 78.4432C571.575 77.8466 572.74 77.5483 574.113 77.5483C575.505 77.5483 576.675 77.8419 577.622 78.429C578.578 79.0161 579.298 79.8021 579.781 80.7869C580.273 81.7623 580.52 82.8371 580.52 84.0114V85.5455C580.52 86.7102 580.273 87.785 579.781 88.7699C579.288 89.7453 578.564 90.5265 577.608 91.1136C576.651 91.7102 575.486 92.0085 574.113 92.0085C572.721 92.0085 571.552 91.7102 570.605 91.1136C569.658 90.5265 568.938 89.7453 568.446 88.7699C567.953 87.785 567.707 86.7102 567.707 85.5455ZM571.841 84.0114V85.5455C571.841 86.2178 572.002 86.8523 572.324 87.4489C572.655 88.0455 573.252 88.3438 574.113 88.3438C574.975 88.3438 575.562 88.0502 575.875 87.4631C576.197 86.8759 576.358 86.2367 576.358 85.5455V84.0114C576.358 83.3201 576.206 82.6761 575.903 82.0795C575.6 81.483 575.003 81.1847 574.113 81.1847C573.261 81.1847 572.669 81.483 572.338 82.0795C572.006 82.6761 571.841 83.3201 571.841 84.0114ZM552.778 68.8977V67.3636C552.778 66.1894 553.029 65.1146 553.531 64.1392C554.033 63.1544 554.757 62.3684 555.704 61.7812C556.661 61.1941 557.816 60.9006 559.17 60.9006C560.572 60.9006 561.746 61.1941 562.693 61.7812C563.64 62.3684 564.359 63.1544 564.852 64.1392C565.344 65.1146 565.591 66.1894 565.591 67.3636V68.8977C565.591 70.072 565.34 71.1468 564.838 72.1222C564.345 73.0975 563.621 73.8788 562.664 74.4659C561.717 75.0436 560.553 75.3324 559.17 75.3324C557.788 75.3324 556.618 75.0388 555.662 74.4517C554.715 73.8551 553.995 73.0739 553.502 72.108C553.02 71.1326 552.778 70.0625 552.778 68.8977ZM556.94 67.3636V68.8977C556.94 69.589 557.101 70.2282 557.423 70.8153C557.754 71.4025 558.337 71.696 559.17 71.696C560.041 71.696 560.633 71.4025 560.946 70.8153C561.268 70.2282 561.429 69.589 561.429 68.8977V67.3636C561.429 66.6723 561.277 66.0284 560.974 65.4318C560.671 64.8352 560.07 64.5369 559.17 64.5369C558.327 64.5369 557.745 64.84 557.423 65.446C557.101 66.0521 556.94 66.6913 556.94 67.3636ZM554.653 91L574.653 61.9091H578.375L558.375 91H554.653Z" fill="#EF5862"/>
<path d="M100.372 248.175C99.9562 253.337 99.734 258.532 99.7093 263.748L100.209 263.751C100.208 264.075 100.207 264.399 100.207 264.724H102.547C102.547 264.403 102.548 264.083 102.55 263.762L103.05 263.765C103.074 258.637 103.292 253.53 103.701 248.455L103.202 248.414C103.254 247.776 103.308 247.138 103.366 246.501L103.864 246.546C104.323 241.443 104.974 236.373 105.814 231.347L105.321 231.265C105.426 230.633 105.535 230.002 105.646 229.371L106.138 229.458C107.03 224.417 108.11 219.421 109.376 214.481L108.892 214.356C109.05 213.736 109.212 213.117 109.377 212.498L109.86 212.627C111.177 207.683 112.68 202.797 114.364 197.98L113.892 197.815C114.103 197.211 114.317 196.607 114.534 196.005L115.005 196.174C116.738 191.365 118.653 186.625 120.745 181.967L120.289 181.762C120.551 181.178 120.816 180.595 121.084 180.014L121.538 180.223C123.676 175.582 125.991 171.025 128.478 166.561L128.041 166.317C128.353 165.758 128.667 165.2 128.984 164.644L129.418 164.891C131.946 160.456 134.645 156.115 137.512 151.879L137.097 151.599C137.456 151.069 137.818 150.54 138.182 150.013L138.593 150.298C141.493 146.101 144.558 142.011 147.785 138.037L147.397 137.722C147.8 137.225 148.206 136.73 148.615 136.237L149 136.556C152.251 132.631 155.661 128.824 159.227 125.144L158.868 124.796C159.09 124.566 159.314 124.337 159.538 124.108C159.759 123.882 159.981 123.656 160.203 123.432L160.559 123.783C164.116 120.182 167.795 116.736 171.586 113.449L171.259 113.071C171.736 112.658 172.215 112.246 172.696 111.837L173.02 112.218C176.872 108.943 180.837 105.831 184.905 102.884L184.611 102.479C185.123 102.109 185.636 101.741 186.151 101.375L186.44 101.783C190.56 98.8596 194.782 96.1053 199.097 93.5246L198.84 93.0956C199.382 92.7714 199.926 92.4499 200.471 92.1312L200.723 92.5628C205.079 90.0145 209.527 87.642 214.056 85.4497L213.839 84.9997C214.407 84.7245 214.977 84.4521 215.548 84.1826L215.762 84.6347C220.322 82.4824 224.962 80.5118 229.671 78.7273L229.494 78.2598C230.085 78.036 230.676 77.8152 231.269 77.5973L231.442 78.0666C236.17 76.3281 240.967 74.7765 245.821 73.4162L245.686 72.9348C246.294 72.7644 246.902 72.597 247.512 72.4327L247.642 72.9154C252.502 71.6054 257.418 70.4866 262.378 69.5637L262.287 69.0721C262.908 68.9566 263.529 68.8442 264.151 68.7348L264.238 69.2273C269.19 68.3567 274.185 67.681 279.214 67.2046L279.167 66.7068C279.795 66.6472 280.424 66.5908 281.053 66.5375L281.096 67.0357C286.1 66.6116 291.136 66.3849 296.193 66.3597L296.19 65.8597C296.506 65.8582 296.823 65.8574 297.139 65.8574C297.455 65.8574 297.771 65.8582 298.087 65.8597L298.084 66.3597C303.141 66.3849 308.177 66.6116 313.182 67.0357L313.224 66.5375C313.853 66.5908 314.482 66.6472 315.111 66.7068L315.064 67.2046C320.092 67.681 325.088 68.3568 330.04 69.2273L330.126 68.7348C330.748 68.8442 331.37 68.9566 331.991 69.0721L331.899 69.5637C336.86 70.4866 341.775 71.6054 346.635 72.9154L346.765 72.4327C347.375 72.597 347.984 72.7644 348.592 72.9348L348.457 73.4162C353.311 74.7765 358.107 76.3281 362.836 78.0666L363.008 77.5973C363.601 77.8152 364.193 78.036 364.783 78.2598L364.606 78.7273C369.316 80.5118 373.956 82.4824 378.516 84.6347L378.729 84.1826C379.3 84.4521 379.87 84.7245 380.439 84.9997L380.221 85.4497C384.75 87.642 389.198 90.0146 393.554 92.5628L393.807 92.1312C394.352 92.4499 394.895 92.7714 395.437 93.0956L395.18 93.5247C399.495 96.1053 403.717 98.8596 407.837 101.783L408.126 101.375C408.641 101.741 409.154 102.109 409.666 102.479L409.373 102.884C413.44 105.831 417.405 108.943 421.257 112.218L421.581 111.838C422.062 112.246 422.541 112.658 423.019 113.072L422.691 113.449C426.482 116.736 430.162 120.182 433.719 123.783L434.074 123.432C434.297 123.656 434.518 123.882 434.739 124.108C434.963 124.337 435.187 124.566 435.41 124.796L435.051 125.144C438.616 128.824 442.026 132.631 445.277 136.556L445.663 136.237C446.071 136.73 446.477 137.225 446.881 137.722L446.492 138.037C449.719 142.011 452.785 146.101 455.684 150.298L456.096 150.013C456.46 150.54 456.821 151.069 457.18 151.599L456.766 151.879C459.632 156.115 462.331 160.456 464.859 164.891L465.293 164.644C465.61 165.2 465.925 165.758 466.236 166.317L465.799 166.561C468.287 171.025 470.601 175.582 472.739 180.223L473.193 180.014C473.461 180.595 473.726 181.178 473.988 181.762L473.532 181.967C475.625 186.625 477.539 191.365 479.273 196.175L479.743 196.005C479.96 196.607 480.174 197.211 480.386 197.815L479.914 197.98C481.598 202.797 483.1 207.683 484.417 212.627L484.9 212.498C485.065 213.117 485.227 213.736 485.386 214.356L484.901 214.481C486.167 219.421 487.248 224.417 488.139 229.459L488.631 229.371C488.743 230.002 488.851 230.633 488.957 231.265L488.464 231.347C489.303 236.373 489.954 241.443 490.414 246.546L490.912 246.501C490.969 247.138 491.023 247.776 491.075 248.415L490.577 248.455C490.985 253.53 491.203 258.637 491.228 263.765L491.728 263.762C491.729 264.083 491.73 264.403 491.73 264.724H494.07C494.07 264.399 494.07 264.075 494.068 263.751L494.568 263.748C494.543 258.532 494.321 253.337 493.906 248.175L493.407 248.215C493.355 247.569 493.3 246.923 493.242 246.278L493.74 246.233C493.273 241.042 492.61 235.885 491.756 230.772L491.263 230.855C491.156 230.215 491.047 229.577 490.934 228.939L491.426 228.852C490.52 223.723 489.42 218.641 488.133 213.616L487.649 213.74C487.488 213.112 487.324 212.485 487.157 211.859L487.64 211.73C486.301 206.702 484.772 201.732 483.059 196.832L482.587 196.997C482.373 196.385 482.157 195.774 481.937 195.164L482.407 194.995C480.644 190.102 478.696 185.281 476.568 180.542L476.112 180.747C475.847 180.156 475.578 179.566 475.307 178.978L475.761 178.769C473.587 174.048 471.232 169.412 468.702 164.871L468.265 165.114C467.95 164.548 467.632 163.984 467.311 163.421L467.746 163.173C465.174 158.661 462.429 154.246 459.513 149.937L459.099 150.218C458.736 149.681 458.37 149.146 458.002 148.613L458.413 148.328C455.463 144.06 452.345 139.899 449.063 135.857L448.675 136.172C448.266 135.67 447.855 135.168 447.442 134.669L447.827 134.35C444.52 130.358 441.051 126.485 437.424 122.742L437.065 123.09C436.941 122.962 436.817 122.835 436.693 122.707C436.591 122.602 436.489 122.498 436.387 122.393C436.163 122.164 435.938 121.936 435.714 121.709L436.069 121.357C432.451 117.695 428.708 114.189 424.852 110.846L424.524 111.224C424.041 110.805 423.556 110.388 423.07 109.975L423.394 109.594C419.475 106.262 415.442 103.096 411.304 100.099L411.011 100.504C410.493 100.129 409.974 99.7563 409.453 99.3865L409.742 98.9788C405.552 96.005 401.257 93.2033 396.868 90.5782L396.611 91.0073C396.063 90.6792 395.513 90.3539 394.961 90.0314L395.214 89.5998C390.782 87.0077 386.258 84.5944 381.651 82.3643L381.433 82.8144C380.858 82.5359 380.281 82.2602 379.703 81.9874L379.916 81.5353C375.278 79.346 370.558 77.3414 365.767 75.5262L365.59 75.9938C364.992 75.7674 364.394 75.5439 363.794 75.3234L363.967 74.8541C359.157 73.0857 354.278 71.5073 349.34 70.1237L349.205 70.6052C348.59 70.4328 347.974 70.2634 347.357 70.0971L347.487 69.6143C342.544 68.2817 337.543 67.1437 332.497 66.2049L332.406 66.6964C331.778 66.5796 331.149 66.4658 330.519 66.3551L330.606 65.8626C325.569 64.9772 320.487 64.2898 315.372 63.8051L315.325 64.3029C314.689 64.2426 314.053 64.1855 313.416 64.1316L313.458 63.6333C308.367 63.202 303.245 62.9713 298.101 62.9458L298.098 63.4457C297.778 63.4442 297.459 63.4434 297.139 63.4434C296.819 63.4434 296.499 63.4442 296.179 63.4457L296.177 62.9458C291.033 62.9713 285.91 63.202 280.819 63.6333L280.862 64.1316C280.225 64.1855 279.588 64.2426 278.952 64.3029L278.905 63.8051C273.79 64.2898 268.709 64.9772 263.672 65.8626L263.758 66.3551C263.129 66.4658 262.5 66.5795 261.871 66.6964L261.78 66.2049C256.734 67.1437 251.734 68.2817 246.79 69.6143L246.921 70.0971C246.304 70.2634 245.688 70.4328 245.072 70.6052L244.937 70.1237C240 71.5073 235.121 73.0857 230.311 74.8541L230.483 75.3234C229.884 75.5439 229.285 75.7674 228.687 75.9938L228.51 75.5262C223.72 77.3414 219 79.346 214.361 81.5353L214.574 81.9874C213.996 82.2602 213.42 82.5359 212.844 82.8144L212.627 82.3643C208.02 84.5944 203.495 87.0077 199.064 89.5998L199.316 90.0314C198.765 90.3539 198.215 90.6792 197.666 91.0073L197.41 90.5782C193.021 93.2033 188.726 96.005 184.535 98.9788L184.825 99.3865C184.303 99.7563 183.784 100.129 183.266 100.504L182.973 100.099C178.835 103.096 174.802 106.262 170.884 109.594L171.208 109.975C170.721 110.388 170.236 110.805 169.753 111.224L169.426 110.846C165.569 114.189 161.826 117.695 158.208 121.357L158.564 121.709C158.339 121.936 158.115 122.164 157.891 122.393C157.664 122.625 157.438 122.857 157.212 123.09L156.853 122.742C153.226 126.485 149.757 130.358 146.45 134.35L146.835 134.669C146.422 135.168 146.011 135.669 145.603 136.172L145.214 135.857C141.932 139.899 138.814 144.059 135.864 148.328L136.276 148.613C135.907 149.146 135.542 149.681 135.178 150.218L134.764 149.937C131.849 154.246 129.103 158.661 126.532 163.173L126.966 163.421C126.645 163.984 126.327 164.548 126.012 165.114L125.575 164.871C123.045 169.412 120.691 174.048 118.516 178.768L118.97 178.978C118.699 179.566 118.431 180.156 118.165 180.747L117.709 180.542C115.581 185.281 113.633 190.102 111.87 194.995L112.34 195.164C112.121 195.774 111.904 196.385 111.69 196.997L111.218 196.832C109.505 201.732 107.976 206.702 106.637 211.73L107.12 211.859C106.953 212.485 106.79 213.112 106.629 213.74L106.144 213.616C104.857 218.641 103.758 223.723 102.851 228.852L103.344 228.939C103.231 229.577 103.121 230.215 103.014 230.855L102.521 230.772C101.667 235.885 101.004 241.042 100.537 246.233L101.035 246.278C100.977 246.923 100.922 247.568 100.87 248.215L100.372 248.175Z" stroke="#7A7A7A" stroke-dasharray="2 16"/>
<g filter="url(#filter9_f_228_314)">
<ellipse cx="295.037" cy="205.685" rx="90" ry="50" transform="rotate(1.07834 295.037 205.685)" fill="#A575CA" fill-opacity="0.3"/>
</g>
<path d="M528.288 271.933C536.73 271.383 543.192 264.119 542.246 255.713C538.139 219.21 526.881 183.969 509.143 152.296C488.948 116.238 460.94 85.8522 427.46 63.678C393.98 41.5037 356.001 28.1858 316.698 24.8377C282.519 21.926 248.202 26.6279 215.918 38.574C207.775 41.5875 204.05 50.7978 207.23 58.878V58.878C210.617 67.4861 220.488 71.4652 229.215 68.3972C256.54 58.7912 285.447 55.0706 314.242 57.5236C348.645 60.4543 381.889 72.1117 411.195 91.5213C440.5 110.931 465.016 137.529 482.693 169.091C497.875 196.199 507.633 226.293 511.42 257.486C512.451 265.976 519.754 272.489 528.288 271.933V271.933Z" fill="url(#paint3_linear_228_314)"/>
<path d="M201.678 60.6449C198.216 52.1119 188.339 48.1057 180.211 52.4329C144.256 71.5741 113.154 99.5882 89.6328 134.174C65.7395 169.308 50.4955 210.008 45.1454 252.652C44.0768 261.17 50.5556 268.612 59.1151 269.26V269.26C67.7595 269.915 75.2312 263.393 76.3872 254.801C81.3046 218.25 94.5351 183.395 115.051 153.228C135.454 123.225 162.376 98.8727 193.491 82.1304C201.207 77.9784 204.971 68.7645 201.678 60.6449V60.6449Z" fill="url(#paint4_linear_228_314)"/>
<path d="M260.254 179.55H265.804V183.7C265.804 193 261.654 201.15 252.554 204.2L249.104 198.85C257.004 196.3 260.254 190.05 260.254 183.7V179.55ZM261.654 179.55H267.004V183.4C267.004 189.55 270.004 195.25 277.354 197.6L273.904 202.8C265.354 199.85 261.654 192.4 261.654 183.4V179.55ZM281.604 177.15H288.254V204.25H281.604V177.15ZM272.554 205.45C282.354 205.45 288.404 208.8 288.404 214.45C288.404 220.15 282.354 223.45 272.554 223.45C262.754 223.45 256.704 220.15 256.704 214.45C256.704 208.8 262.754 205.45 272.554 205.45ZM272.554 210.6C266.554 210.6 263.354 211.85 263.354 214.45C263.354 217.05 266.554 218.35 272.554 218.35C278.604 218.35 281.804 217.05 281.804 214.45C281.804 211.85 278.604 210.6 272.554 210.6ZM273.154 185.55H282.554V190.95H273.154V185.55ZM327.25 177.1H333.95V223.55H327.25V177.1ZM297.8 180.8H304.4V192.05H313.95V180.8H320.55V212.75H297.8V180.8ZM304.4 197.2V207.4H313.95V197.2H304.4Z" fill="#5B586C"/>
<defs>
<filter id="filter0_i_228_314" x="637" y="41" width="40" height="207" filterUnits="userSpaceOnUse" color-interpolation-filters="sRGB">
<feFlood flood-opacity="0" result="BackgroundImageFix"/>
<feBlend mode="normal" in="SourceGraphic" in2="BackgroundImageFix" result="shape"/>
<feColorMatrix in="SourceAlpha" type="matrix" values="0 0 0 0 0 0 0 0 0 0 0 0 0 0 0 0 0 0 127 0" result="hardAlpha"/>
<feOffset dy="4"/>
<feGaussianBlur stdDeviation="2"/>
<feComposite in2="hardAlpha" operator="arithmetic" k2="-1" k3="1"/>
<feColorMatrix type="matrix" values="0 0 0 0 0 0 0 0 0 0 0 0 0 0 0 0 0 0 0.25 0"/>
<feBlend mode="normal" in2="shape" result="effect1_innerShadow_228_314"/>
</filter>
<filter id="filter1_i_228_314" x="708" y="41" width="40" height="207" filterUnits="userSpaceOnUse" color-interpolation-filters="sRGB">
<feFlood flood-opacity="0" result="BackgroundImageFix"/>
<feBlend mode="normal" in="SourceGraphic" in2="BackgroundImageFix" result="shape"/>
<feColorMatrix in="SourceAlpha" type="matrix" values="0 0 0 0 0 0 0 0 0 0 0 0 0 0 0 0 0 0 127 0" result="hardAlpha"/>
<feOffset dy="4"/>
<feGaussianBlur stdDeviation="2"/>
<feComposite in2="hardAlpha" operator="arithmetic" k2="-1" k3="1"/>
<feColorMatrix type="matrix" values="0 0 0 0 0 0 0 0 0 0 0 0 0 0 0 0 0 0 0.25 0"/>
<feBlend mode="normal" in2="shape" result="effect1_innerShadow_228_314"/>
</filter>
<filter id="filter2_i_228_314" x="779" y="41" width="40" height="207" filterUnits="userSpaceOnUse" color-interpolation-filters="sRGB">
<feFlood flood-opacity="0" result="BackgroundImageFix"/>
<feBlend mode="normal" in="SourceGraphic" in2="BackgroundImageFix" result="shape"/>
<feColorMatrix in="SourceAlpha" type="matrix" values="0 0 0 0 0 0 0 0 0 0 0 0 0 0 0 0 0 0 127 0" result="hardAlpha"/>
<feOffset dy="4"/>
<feGaussianBlur stdDeviation="2"/>
<feComposite in2="hardAlpha" operator="arithmetic" k2="-1" k3="1"/>
<feColorMatrix type="matrix" values="0 0 0 0 0 0 0 0 0 0 0 0 0 0 0 0 0 0 0.25 0"/>
<feBlend mode="normal" in2="shape" result="effect1_innerShadow_228_314"/>
</filter>
<filter id="filter3_i_228_314" x="850" y="41" width="40" height="207" filterUnits="userSpaceOnUse" color-interpolation-filters="sRGB">
<feFlood flood-opacity="0" result="BackgroundImageFix"/>
<feBlend mode="normal" in="SourceGraphic" in2="BackgroundImageFix" result="shape"/>
<feColorMatrix in="SourceAlpha" type="matrix" values="0 0 0 0 0 0 0 0 0 0 0 0 0 0 0 0 0 0 127 0" result="hardAlpha"/>
<feOffset dy="4"/>
<feGaussianBlur stdDeviation="2"/>
<feComposite in2="hardAlpha" operator="arithmetic" k2="-1" k3="1"/>
<feColorMatrix type="matrix" values="0 0 0 0 0 0 0 0 0 0 0 0 0 0 0 0 0 0 0.25 0"/>
<feBlend mode="normal" in2="shape" result="effect1_innerShadow_228_314"/>
</filter>
<filter id="filter4_i_228_314" x="921" y="41" width="40" height="207" filterUnits="userSpaceOnUse" color-interpolation-filters="sRGB">
<feFlood flood-opacity="0" result="BackgroundImageFix"/>
<feBlend mode="normal" in="SourceGraphic" in2="BackgroundImageFix" result="shape"/>
<feColorMatrix in="SourceAlpha" type="matrix" values="0 0 0 0 0 0 0 0 0 0 0 0 0 0 0 0 0 0 127 0" result="hardAlpha"/>
<feOffset dy="4"/>
<feGaussianBlur stdDeviation="2"/>
<feComposite in2="hardAlpha" operator="arithmetic" k2="-1" k3="1"/>
<feColorMatrix type="matrix" values="0 0 0 0 0 0 0 0 0 0 0 0 0 0 0 0 0 0 0.25 0"/>
<feBlend mode="normal" in2="shape" result="effect1_innerShadow_228_314"/>
</filter>
<filter id="filter5_i_228_314" x="992" y="41" width="40" height="207" filterUnits="userSpaceOnUse" color-interpolation-filters="sRGB">
<feFlood flood-opacity="0" result="BackgroundImageFix"/>
<feBlend mode="normal" in="SourceGraphic" in2="BackgroundImageFix" result="shape"/>
<feColorMatrix in="SourceAlpha" type="matrix" values="0 0 0 0 0 0 0 0 0 0 0 0 0 0 0 0 0 0 127 0" result="hardAlpha"/>
<feOffset dy="4"/>
<feGaussianBlur stdDeviation="2"/>
<feComposite in2="hardAlpha" operator="arithmetic" k2="-1" k3="1"/>
<feColorMatrix type="matrix" values="0 0 0 0 0 0 0 0 0 0 0 0 0 0 0 0 0 0 0.25 0"/>
<feBlend mode="normal" in2="shape" result="effect1_innerShadow_228_314"/>
</filter>
<filter id="filter6_d_228_314" x="633" y="162" width="48" height="86" filterUnits="userSpaceOnUse" color-interpolation-filters="sRGB">
<feFlood flood-opacity="0" result="BackgroundImageFix"/>
<feColorMatrix in="SourceAlpha" type="matrix" values="0 0 0 0 0 0 0 0 0 0 0 0 0 0 0 0 0 0 127 0" result="hardAlpha"/>
<feOffset/>
<feGaussianBlur stdDeviation="2"/>
<feComposite in2="hardAlpha" operator="out"/>
<feColorMatrix type="matrix" values="0 0 0 0 0 0 0 0 0 0 0 0 0 0 0 0 0 0 0.25 0"/>
<feBlend mode="normal" in2="BackgroundImageFix" result="effect1_dropShadow_228_314"/>
<feBlend mode="normal" in="SourceGraphic" in2="effect1_dropShadow_228_314" result="shape"/>
</filter>
<filter id="filter7_d_228_314" x="775" y="224" width="48" height="24" filterUnits="userSpaceOnUse" color-interpolation-filters="sRGB">
<feFlood flood-opacity="0" result="BackgroundImageFix"/>
<feColorMatrix in="SourceAlpha" type="matrix" values="0 0 0 0 0 0 0 0 0 0 0 0 0 0 0 0 0 0 127 0" result="hardAlpha"/>
<feOffset/>
<feGaussianBlur stdDeviation="2"/>
<feComposite in2="hardAlpha" operator="out"/>
<feColorMatrix type="matrix" values="0 0 0 0 0 0 0 0 0 0 0 0 0 0 0 0 0 0 0.25 0"/>
<feBlend mode="normal" in2="BackgroundImageFix" result="effect1_dropShadow_228_314"/>
<feBlend mode="normal" in="SourceGraphic" in2="effect1_dropShadow_228_314" result="shape"/>
</filter>
<filter id="filter8_d_228_314" x="704" y="141" width="48" height="107" filterUnits="userSpaceOnUse" color-interpolation-filters="sRGB">
<feFlood flood-opacity="0" result="BackgroundImageFix"/>
<feColorMatrix in="SourceAlpha" type="matrix" values="0 0 0 0 0 0 0 0 0 0 0 0 0 0 0 0 0 0 127 0" result="hardAlpha"/>
<feOffset/>
<feGaussianBlur stdDeviation="2"/>
<feComposite in2="hardAlpha" operator="out"/>
<feColorMatrix type="matrix" values="0 0 0 0 0 0 0 0 0 0 0 0 0 0 0 0 0 0 0.25 0"/>
<feBlend mode="normal" in2="BackgroundImageFix" result="effect1_dropShadow_228_314"/>
<feBlend mode="normal" in="SourceGraphic" in2="effect1_dropShadow_228_314" result="shape"/>
</filter>
<filter id="filter9_f_228_314" x="125.048" y="75.6646" width="339.979" height="260.041" filterUnits="userSpaceOnUse" color-interpolation-filters="sRGB">
<feFlood flood-opacity="0" result="BackgroundImageFix"/>
<feBlend mode="normal" in="SourceGraphic" in2="BackgroundImageFix" result="shape"/>
<feGaussianBlur stdDeviation="40" result="effect1_foregroundBlur_228_314"/>
</filter>
<linearGradient id="paint0_linear_228_314" x1="657" y1="167.793" x2="640.733" y2="226.977" gradientUnits="userSpaceOnUse">
<stop stop-color="#EB6B92" stop-opacity="0.38"/>
<stop offset="1" stop-color="#EB6B92"/>
</linearGradient>
<linearGradient id="paint1_linear_228_314" x1="799" y1="45.5" x2="788.095" y2="239.401" gradientUnits="userSpaceOnUse">
<stop stop-color="#EB6B92" stop-opacity="0.38"/>
<stop offset="1" stop-color="#EB6B92"/>
</linearGradient>
<linearGradient id="paint2_linear_228_314" x1="728" y1="145" x2="728.635" y2="219.599" gradientUnits="userSpaceOnUse">
<stop stop-color="#EB6B92" stop-opacity="0.38"/>
<stop offset="1" stop-color="#EB6B92"/>
</linearGradient>
<linearGradient id="paint3_linear_228_314" x1="61.5" y1="271.5" x2="531" y2="270" gradientUnits="userSpaceOnUse">
<stop stop-color="#777CF0"/>
<stop offset="1" stop-color="#F05862"/>
</linearGradient>
<linearGradient id="paint4_linear_228_314" x1="544" y1="372" x2="66.3751" y2="240.793" gradientUnits="userSpaceOnUse">
<stop stop-color="#EB6B92"/>
<stop offset="1" stop-color="#777CF0"/>
</linearGradient>
</defs>
</svg>
