<svg width="538" height="388" viewBox="0 0 538 388" fill="none" xmlns="http://www.w3.org/2000/svg">
<path d="M460.667 84.6011H464.153L469.983 100.656L475.799 84.6011H479.3L471.375 105.929H468.577L460.667 84.6011ZM458.909 84.6011H462.322L462.938 99.3521V105.929H458.909V84.6011ZM477.63 84.6011H481.058V105.929H477.029V99.3521L477.63 84.6011ZM493.333 96.4224H487.884L487.854 93.5806H492.527C493.328 93.5806 493.997 93.4683 494.534 93.2437C495.071 93.019 495.477 92.6919 495.75 92.2622C496.033 91.8325 496.175 91.3101 496.175 90.6948C496.175 90.0112 496.043 89.4546 495.779 89.0249C495.525 88.5952 495.125 88.2827 494.578 88.0874C494.031 87.8823 493.338 87.7798 492.498 87.7798H489.188V105.929H485.159V84.6011H492.498C493.709 84.6011 494.788 84.7183 495.735 84.9526C496.692 85.1772 497.503 85.5288 498.167 86.0073C498.831 86.4858 499.334 87.0864 499.676 87.8091C500.027 88.5317 500.203 89.3911 500.203 90.3872C500.203 91.2661 499.998 92.0767 499.588 92.8188C499.188 93.5513 498.567 94.147 497.728 94.606C496.897 95.0649 495.843 95.3286 494.563 95.397L493.333 96.4224ZM493.157 105.929H486.697L488.382 102.765H493.157C493.958 102.765 494.617 102.633 495.135 102.37C495.662 102.106 496.053 101.745 496.307 101.286C496.57 100.817 496.702 100.28 496.702 99.6743C496.702 99.0103 496.585 98.4341 496.351 97.9458C496.126 97.4575 495.765 97.0815 495.267 96.8179C494.778 96.5542 494.134 96.4224 493.333 96.4224H489.144L489.173 93.5806H494.505L495.428 94.6792C496.658 94.689 497.659 94.9331 498.431 95.4116C499.212 95.8901 499.788 96.5054 500.159 97.2573C500.53 98.0093 500.716 98.8198 500.716 99.689C500.716 101.056 500.418 102.204 499.822 103.131C499.236 104.059 498.377 104.757 497.244 105.226C496.121 105.695 494.759 105.929 493.157 105.929ZM512.947 84.6011V105.929H508.934V84.6011H512.947ZM519.568 84.6011V87.7798H502.386V84.6011H519.568ZM526.541 84.6011V105.929H522.513V84.6011H526.541Z" fill="#5B586C"/>
<path d="M462.659 61.1289H464.915C465.638 61.1289 466.233 61.0068 466.702 60.7627C467.171 60.5088 467.518 60.1572 467.742 59.708C467.977 59.249 468.094 58.7168 468.094 58.1113C468.094 57.5645 467.986 57.0811 467.771 56.6611C467.566 56.2314 467.249 55.8994 466.819 55.665C466.39 55.4209 465.848 55.2988 465.193 55.2988C464.676 55.2988 464.197 55.4014 463.758 55.6064C463.318 55.8115 462.967 56.0996 462.703 56.4707C462.439 56.8418 462.308 57.291 462.308 57.8184H458.074C458.074 56.6465 458.387 55.626 459.012 54.7568C459.646 53.8877 460.496 53.209 461.561 52.7207C462.625 52.2324 463.797 51.9883 465.076 51.9883C466.521 51.9883 467.786 52.2227 468.87 52.6914C469.954 53.1504 470.799 53.8291 471.404 54.7275C472.01 55.626 472.312 56.7393 472.312 58.0674C472.312 58.7412 472.156 59.3955 471.844 60.0303C471.531 60.6553 471.082 61.2217 470.496 61.7295C469.92 62.2275 469.217 62.6279 468.387 62.9307C467.557 63.2236 466.624 63.3701 465.589 63.3701H462.659V61.1289ZM462.659 64.3369V62.1543H465.589C466.751 62.1543 467.771 62.2861 468.65 62.5498C469.529 62.8135 470.267 63.1943 470.862 63.6924C471.458 64.1807 471.907 64.7617 472.21 65.4355C472.513 66.0996 472.664 66.8369 472.664 67.6475C472.664 68.6436 472.474 69.5322 472.093 70.3135C471.712 71.085 471.175 71.7393 470.481 72.2764C469.798 72.8135 468.997 73.2236 468.079 73.5068C467.161 73.7803 466.16 73.917 465.076 73.917C464.178 73.917 463.294 73.7949 462.425 73.5508C461.565 73.2969 460.784 72.9209 460.081 72.4229C459.388 71.915 458.831 71.2803 458.411 70.5186C458.001 69.7471 457.796 68.834 457.796 67.7793H462.029C462.029 68.3262 462.166 68.8145 462.439 69.2441C462.713 69.6738 463.089 70.0107 463.567 70.2549C464.056 70.499 464.598 70.6211 465.193 70.6211C465.867 70.6211 466.443 70.499 466.922 70.2549C467.41 70.001 467.781 69.6494 468.035 69.2002C468.299 68.7412 468.431 68.209 468.431 67.6035C468.431 66.8223 468.289 66.1973 468.006 65.7285C467.723 65.25 467.317 64.8984 466.79 64.6738C466.263 64.4492 465.638 64.3369 464.915 64.3369H462.659ZM489.92 61.085V64.7764C489.92 66.3779 489.749 67.7598 489.407 68.9219C489.065 70.0742 488.572 71.0215 487.928 71.7637C487.293 72.4961 486.536 73.0381 485.657 73.3896C484.778 73.7412 483.802 73.917 482.728 73.917C481.868 73.917 481.067 73.8096 480.325 73.5947C479.583 73.3701 478.914 73.0234 478.318 72.5547C477.732 72.0859 477.225 71.4951 476.795 70.7822C476.375 70.0596 476.053 69.2002 475.828 68.2041C475.604 67.208 475.491 66.0654 475.491 64.7764V61.085C475.491 59.4834 475.662 58.1113 476.004 56.9688C476.355 55.8164 476.849 54.874 477.483 54.1416C478.128 53.4092 478.89 52.8721 479.769 52.5303C480.647 52.1787 481.624 52.0029 482.698 52.0029C483.558 52.0029 484.354 52.1152 485.086 52.3398C485.828 52.5547 486.497 52.8916 487.093 53.3506C487.688 53.8096 488.196 54.4004 488.616 55.123C489.036 55.8359 489.358 56.6904 489.583 57.6865C489.808 58.6729 489.92 59.8057 489.92 61.085ZM485.687 65.333V60.5137C485.687 59.7422 485.643 59.0684 485.555 58.4922C485.477 57.916 485.354 57.4277 485.188 57.0273C485.022 56.6172 484.817 56.2852 484.573 56.0312C484.329 55.7773 484.051 55.5918 483.738 55.4746C483.426 55.3574 483.079 55.2988 482.698 55.2988C482.22 55.2988 481.795 55.3916 481.424 55.5771C481.062 55.7627 480.755 56.0605 480.501 56.4707C480.247 56.8711 480.052 57.4082 479.915 58.082C479.788 58.7461 479.725 59.5566 479.725 60.5137V65.333C479.725 66.1045 479.764 66.7832 479.842 67.3691C479.93 67.9551 480.057 68.458 480.223 68.8779C480.398 69.2881 480.604 69.625 480.838 69.8887C481.082 70.1426 481.36 70.3281 481.673 70.4453C481.995 70.5625 482.347 70.6211 482.728 70.6211C483.196 70.6211 483.611 70.5283 483.973 70.3428C484.344 70.1475 484.656 69.8447 484.91 69.4346C485.174 69.0146 485.369 68.4678 485.496 67.7939C485.623 67.1201 485.687 66.2998 485.687 65.333ZM492.732 57.5254V56.3975C492.732 55.5869 492.908 54.8496 493.26 54.1855C493.611 53.5215 494.129 52.9893 494.812 52.5889C495.496 52.1885 496.336 51.9883 497.332 51.9883C498.357 51.9883 499.212 52.1885 499.896 52.5889C500.589 52.9893 501.106 53.5215 501.448 54.1855C501.8 54.8496 501.976 55.5869 501.976 56.3975V57.5254C501.976 58.3164 501.8 59.0439 501.448 59.708C501.106 60.3721 500.594 60.9043 499.91 61.3047C499.227 61.7051 498.382 61.9053 497.376 61.9053C496.36 61.9053 495.506 61.7051 494.812 61.3047C494.129 60.9043 493.611 60.3721 493.26 59.708C492.908 59.0439 492.732 58.3164 492.732 57.5254ZM495.53 56.3975V57.5254C495.53 57.8672 495.594 58.1943 495.721 58.5068C495.857 58.8096 496.062 59.0586 496.336 59.2539C496.619 59.4395 496.961 59.5322 497.361 59.5322C497.781 59.5322 498.123 59.4395 498.387 59.2539C498.65 59.0586 498.846 58.8096 498.973 58.5068C499.1 58.1943 499.163 57.8672 499.163 57.5254V56.3975C499.163 56.0361 499.095 55.7041 498.958 55.4014C498.831 55.0889 498.631 54.8398 498.357 54.6543C498.094 54.459 497.752 54.3613 497.332 54.3613C496.941 54.3613 496.609 54.459 496.336 54.6543C496.062 54.8398 495.857 55.0889 495.721 55.4014C495.594 55.7041 495.53 56.0361 495.53 56.3975ZM502.928 69.5225V68.3945C502.928 67.5938 503.104 66.8613 503.455 66.1973C503.816 65.5332 504.339 65.001 505.022 64.6006C505.716 64.2002 506.565 64 507.571 64C508.587 64 509.437 64.2002 510.12 64.6006C510.804 65.001 511.321 65.5332 511.673 66.1973C512.024 66.8613 512.2 67.5938 512.2 68.3945V69.5225C512.2 70.3232 512.024 71.0557 511.673 71.7197C511.331 72.3838 510.818 72.916 510.135 73.3164C509.451 73.7168 508.606 73.917 507.601 73.917C506.585 73.917 505.73 73.7168 505.037 73.3164C504.344 72.916 503.816 72.3838 503.455 71.7197C503.104 71.0557 502.928 70.3232 502.928 69.5225ZM505.74 68.3945V69.5225C505.74 69.874 505.818 70.2061 505.975 70.5186C506.131 70.8311 506.346 71.0801 506.619 71.2656C506.902 71.4512 507.229 71.5439 507.601 71.5439C508.069 71.5439 508.436 71.4512 508.699 71.2656C508.963 71.0801 509.144 70.8311 509.241 70.5186C509.349 70.2061 509.402 69.874 509.402 69.5225V68.3945C509.402 68.043 509.334 67.7158 509.197 67.4131C509.061 67.1006 508.855 66.8516 508.582 66.666C508.318 66.4707 507.981 66.373 507.571 66.373C507.161 66.373 506.819 66.4707 506.546 66.666C506.282 66.8516 506.082 67.1006 505.945 67.4131C505.809 67.7158 505.74 68.043 505.74 68.3945ZM508.611 55.3428L498.196 72.0127L496.146 70.9287L506.561 54.2588L508.611 55.3428Z" fill="#777CFF"/>
<path d="M477.153 310.462H481.173V330.712H477.153V310.462ZM462.663 334.552H481.863V337.732H462.663V334.552ZM462.663 328.762H466.653V336.202H462.663V328.762ZM464.583 311.962H467.883V314.662C467.883 320.092 465.393 325.102 459.993 326.992L457.983 323.812C462.633 322.222 464.583 318.352 464.583 314.662V311.962ZM465.393 311.962H468.663V314.662C468.663 318.292 470.553 321.862 475.113 323.332L473.073 326.512C467.823 324.742 465.393 320.032 465.393 314.662V311.962ZM504.751 310.432H508.771V325.372H504.751V310.432ZM490.291 326.572H494.221V329.152H504.811V326.572H508.771V337.912H490.291V326.572ZM494.221 332.212V334.732H504.811V332.212H494.221ZM493.651 311.572C497.971 311.572 501.181 314.302 501.181 318.142C501.181 321.982 497.971 324.712 493.651 324.712C489.331 324.712 486.091 321.982 486.091 318.142C486.091 314.302 489.331 311.572 493.651 311.572ZM493.651 314.872C491.521 314.872 489.991 316.102 489.991 318.142C489.991 320.212 491.521 321.412 493.651 321.412C495.751 321.412 497.281 320.212 497.281 318.142C497.281 316.102 495.751 314.872 493.651 314.872ZM518.278 312.112H521.398V315.322C521.398 320.032 519.508 324.742 514.978 326.662L512.878 323.572C516.748 321.862 518.278 318.442 518.278 315.322V312.112ZM518.998 312.112H522.118V315.322C522.118 318.292 523.618 321.292 527.278 322.732L525.148 325.762C520.828 324.052 518.998 319.852 518.998 315.322V312.112ZM533.158 310.462H536.938V327.412H533.158V310.462ZM529.828 317.182H534.238V320.392H529.828V317.182ZM527.278 310.972H530.998V326.542H527.278V310.972ZM527.518 327.802C533.338 327.802 537.088 329.752 537.088 333.022C537.088 336.262 533.338 338.212 527.518 338.212C521.668 338.212 517.978 336.262 517.978 333.022C517.978 329.752 521.668 327.802 527.518 327.802ZM527.518 330.802C523.948 330.802 521.938 331.552 521.938 333.022C521.938 334.492 523.948 335.212 527.518 335.212C531.088 335.212 533.068 334.492 533.068 333.022C533.068 331.552 531.088 330.802 527.518 330.802Z" fill="#5B586C"/>
<path d="M472.928 299.941V303.237H458.338V300.424L465.237 293.027C465.931 292.255 466.478 291.577 466.878 290.991C467.278 290.395 467.566 289.863 467.742 289.394C467.928 288.916 468.021 288.461 468.021 288.032C468.021 287.387 467.913 286.835 467.698 286.376C467.483 285.908 467.166 285.546 466.746 285.292C466.336 285.039 465.828 284.912 465.223 284.912C464.578 284.912 464.021 285.068 463.553 285.38C463.094 285.693 462.742 286.127 462.498 286.684C462.264 287.241 462.146 287.871 462.146 288.574H457.913C457.913 287.304 458.216 286.142 458.821 285.087C459.427 284.023 460.281 283.178 461.385 282.553C462.488 281.918 463.797 281.601 465.311 281.601C466.805 281.601 468.064 281.845 469.09 282.333C470.125 282.812 470.906 283.505 471.434 284.414C471.971 285.312 472.239 286.386 472.239 287.636C472.239 288.339 472.127 289.028 471.902 289.702C471.678 290.366 471.355 291.03 470.936 291.694C470.525 292.348 470.027 293.012 469.441 293.686C468.855 294.36 468.206 295.058 467.493 295.781L463.787 299.941H472.928ZM479.534 293.525L476.165 292.719L477.381 281.909H489.363V285.322H480.853L480.325 290.053C480.608 289.887 481.038 289.711 481.614 289.526C482.19 289.331 482.835 289.233 483.548 289.233C484.583 289.233 485.501 289.394 486.302 289.716C487.103 290.039 487.781 290.507 488.338 291.123C488.904 291.738 489.334 292.49 489.627 293.378C489.92 294.267 490.066 295.273 490.066 296.396C490.066 297.343 489.92 298.247 489.627 299.106C489.334 299.956 488.89 300.717 488.294 301.391C487.698 302.055 486.951 302.578 486.053 302.958C485.154 303.339 484.09 303.53 482.859 303.53C481.941 303.53 481.053 303.393 480.193 303.12C479.344 302.846 478.577 302.441 477.894 301.904C477.22 301.367 476.678 300.717 476.268 299.956C475.867 299.184 475.657 298.305 475.638 297.319H479.827C479.886 297.924 480.042 298.447 480.296 298.886C480.56 299.316 480.906 299.648 481.336 299.882C481.766 300.117 482.269 300.234 482.845 300.234C483.382 300.234 483.841 300.131 484.222 299.926C484.603 299.721 484.91 299.438 485.145 299.077C485.379 298.706 485.55 298.276 485.657 297.788C485.774 297.29 485.833 296.752 485.833 296.176C485.833 295.6 485.765 295.078 485.628 294.609C485.491 294.14 485.281 293.735 484.998 293.393C484.715 293.051 484.354 292.788 483.914 292.602C483.484 292.417 482.981 292.324 482.405 292.324C481.624 292.324 481.019 292.446 480.589 292.69C480.169 292.934 479.817 293.212 479.534 293.525ZM492.732 287.138V286.01C492.732 285.2 492.908 284.462 493.26 283.798C493.611 283.134 494.129 282.602 494.812 282.202C495.496 281.801 496.336 281.601 497.332 281.601C498.357 281.601 499.212 281.801 499.896 282.202C500.589 282.602 501.106 283.134 501.448 283.798C501.8 284.462 501.976 285.2 501.976 286.01V287.138C501.976 287.929 501.8 288.657 501.448 289.321C501.106 289.985 500.594 290.517 499.91 290.917C499.227 291.318 498.382 291.518 497.376 291.518C496.36 291.518 495.506 291.318 494.812 290.917C494.129 290.517 493.611 289.985 493.26 289.321C492.908 288.657 492.732 287.929 492.732 287.138ZM495.53 286.01V287.138C495.53 287.48 495.594 287.807 495.721 288.12C495.857 288.422 496.062 288.671 496.336 288.867C496.619 289.052 496.961 289.145 497.361 289.145C497.781 289.145 498.123 289.052 498.387 288.867C498.65 288.671 498.846 288.422 498.973 288.12C499.1 287.807 499.163 287.48 499.163 287.138V286.01C499.163 285.649 499.095 285.317 498.958 285.014C498.831 284.702 498.631 284.453 498.357 284.267C498.094 284.072 497.752 283.974 497.332 283.974C496.941 283.974 496.609 284.072 496.336 284.267C496.062 284.453 495.857 284.702 495.721 285.014C495.594 285.317 495.53 285.649 495.53 286.01ZM502.928 299.135V298.007C502.928 297.207 503.104 296.474 503.455 295.81C503.816 295.146 504.339 294.614 505.022 294.213C505.716 293.813 506.565 293.613 507.571 293.613C508.587 293.613 509.437 293.813 510.12 294.213C510.804 294.614 511.321 295.146 511.673 295.81C512.024 296.474 512.2 297.207 512.2 298.007V299.135C512.2 299.936 512.024 300.668 511.673 301.333C511.331 301.997 510.818 302.529 510.135 302.929C509.451 303.33 508.606 303.53 507.601 303.53C506.585 303.53 505.73 303.33 505.037 302.929C504.344 302.529 503.816 301.997 503.455 301.333C503.104 300.668 502.928 299.936 502.928 299.135ZM505.74 298.007V299.135C505.74 299.487 505.818 299.819 505.975 300.131C506.131 300.444 506.346 300.693 506.619 300.878C506.902 301.064 507.229 301.157 507.601 301.157C508.069 301.157 508.436 301.064 508.699 300.878C508.963 300.693 509.144 300.444 509.241 300.131C509.349 299.819 509.402 299.487 509.402 299.135V298.007C509.402 297.656 509.334 297.329 509.197 297.026C509.061 296.713 508.855 296.464 508.582 296.279C508.318 296.083 507.981 295.986 507.571 295.986C507.161 295.986 506.819 296.083 506.546 296.279C506.282 296.464 506.082 296.713 505.945 297.026C505.809 297.329 505.74 297.656 505.74 298.007ZM508.611 284.956L498.196 301.625L496.146 300.542L506.561 283.872L508.611 284.956Z" fill="#93CCE7"/>
<path d="M13.77 314.302H21.93V317.482H13.77V314.302ZM13.77 321.052H21.93V324.232H13.77V321.052ZM20.46 310.462H24.45V330.772H20.46V310.462ZM6.12 334.552H25.08V337.732H6.12V334.552ZM6.12 328.762H10.11V336.202H6.12V328.762ZM8.88 312.082C12.99 312.082 16.2 315.082 16.2 319.282C16.2 323.422 12.99 326.452 8.88 326.452C4.74 326.452 1.53 323.422 1.53 319.282C1.53 315.082 4.74 312.082 8.88 312.082ZM8.88 315.592C6.84 315.592 5.34 316.972 5.34 319.282C5.34 321.592 6.84 322.972 8.88 322.972C10.89 322.972 12.42 321.592 12.42 319.282C12.42 316.972 10.89 315.592 8.88 315.592ZM35.0377 312.382C38.7277 312.382 41.0977 316.192 41.0977 322.462C41.0977 328.762 38.7277 332.572 35.0377 332.572C31.3777 332.572 29.0377 328.762 29.0377 322.462C29.0377 316.192 31.3777 312.382 35.0377 312.382ZM35.0377 316.132C33.5377 316.132 32.6677 318.232 32.6677 322.462C32.6677 326.722 33.5377 328.792 35.0377 328.792C36.5677 328.792 37.4377 326.722 37.4377 322.462C37.4377 318.232 36.5677 316.132 35.0377 316.132ZM48.8677 310.432H52.6777V338.212H48.8677V310.432ZM45.5377 321.022H50.1277V324.232H45.5377V321.022ZM42.7777 310.852H46.5277V336.952H42.7777V310.852Z" fill="#5B586C"/>
<path d="M16.0547 299.941V303.237H1.46484V300.424L8.36426 293.027C9.05762 292.255 9.60449 291.577 10.0049 290.991C10.4053 290.395 10.6934 289.863 10.8691 289.394C11.0547 288.916 11.1475 288.461 11.1475 288.032C11.1475 287.387 11.04 286.835 10.8252 286.376C10.6104 285.908 10.293 285.546 9.87305 285.292C9.46289 285.039 8.95508 284.912 8.34961 284.912C7.70508 284.912 7.14844 285.068 6.67969 285.38C6.2207 285.693 5.86914 286.127 5.625 286.684C5.39062 287.241 5.27344 287.871 5.27344 288.574H1.04004C1.04004 287.304 1.34277 286.142 1.94824 285.087C2.55371 284.023 3.4082 283.178 4.51172 282.553C5.61523 281.918 6.92383 281.601 8.4375 281.601C9.93164 281.601 11.1914 281.845 12.2168 282.333C13.252 282.812 14.0332 283.505 14.5605 284.414C15.0977 285.312 15.3662 286.386 15.3662 287.636C15.3662 288.339 15.2539 289.028 15.0293 289.702C14.8047 290.366 14.4824 291.03 14.0625 291.694C13.6523 292.348 13.1543 293.012 12.5684 293.686C11.9824 294.36 11.333 295.058 10.6201 295.781L6.91406 299.941H16.0547ZM33.0469 290.698V294.389C33.0469 295.991 32.876 297.373 32.5342 298.535C32.1924 299.687 31.6992 300.634 31.0547 301.376C30.4199 302.109 29.6631 302.651 28.7842 303.002C27.9053 303.354 26.9287 303.53 25.8545 303.53C24.9951 303.53 24.1943 303.422 23.4521 303.208C22.71 302.983 22.041 302.636 21.4453 302.167C20.8594 301.699 20.3516 301.108 19.9219 300.395C19.502 299.672 19.1797 298.813 18.9551 297.817C18.7305 296.821 18.6182 295.678 18.6182 294.389V290.698C18.6182 289.096 18.7891 287.724 19.1309 286.582C19.4824 285.429 19.9756 284.487 20.6104 283.754C21.2549 283.022 22.0166 282.485 22.8955 282.143C23.7744 281.792 24.751 281.616 25.8252 281.616C26.6846 281.616 27.4805 281.728 28.2129 281.953C28.9551 282.167 29.624 282.504 30.2197 282.963C30.8154 283.422 31.3232 284.013 31.7432 284.736C32.1631 285.449 32.4854 286.303 32.71 287.299C32.9346 288.286 33.0469 289.418 33.0469 290.698ZM28.8135 294.946V290.126C28.8135 289.355 28.7695 288.681 28.6816 288.105C28.6035 287.529 28.4814 287.041 28.3154 286.64C28.1494 286.23 27.9443 285.898 27.7002 285.644C27.4561 285.39 27.1777 285.205 26.8652 285.087C26.5527 284.97 26.2061 284.912 25.8252 284.912C25.3467 284.912 24.9219 285.004 24.5508 285.19C24.1895 285.375 23.8818 285.673 23.6279 286.083C23.374 286.484 23.1787 287.021 23.042 287.695C22.915 288.359 22.8516 289.169 22.8516 290.126V294.946C22.8516 295.717 22.8906 296.396 22.9688 296.982C23.0566 297.568 23.1836 298.071 23.3496 298.491C23.5254 298.901 23.7305 299.238 23.9648 299.501C24.209 299.755 24.4873 299.941 24.7998 300.058C25.1221 300.175 25.4736 300.234 25.8545 300.234C26.3232 300.234 26.7383 300.141 27.0996 299.956C27.4707 299.76 27.7832 299.458 28.0371 299.047C28.3008 298.627 28.4961 298.081 28.623 297.407C28.75 296.733 28.8135 295.913 28.8135 294.946ZM35.8594 287.138V286.01C35.8594 285.2 36.0352 284.462 36.3867 283.798C36.7383 283.134 37.2559 282.602 37.9395 282.202C38.623 281.801 39.4629 281.601 40.459 281.601C41.4844 281.601 42.3389 281.801 43.0225 282.202C43.7158 282.602 44.2334 283.134 44.5752 283.798C44.9268 284.462 45.1025 285.2 45.1025 286.01V287.138C45.1025 287.929 44.9268 288.657 44.5752 289.321C44.2334 289.985 43.7207 290.517 43.0371 290.917C42.3535 291.318 41.5088 291.518 40.5029 291.518C39.4873 291.518 38.6328 291.318 37.9395 290.917C37.2559 290.517 36.7383 289.985 36.3867 289.321C36.0352 288.657 35.8594 287.929 35.8594 287.138ZM38.6572 286.01V287.138C38.6572 287.48 38.7207 287.807 38.8477 288.12C38.9844 288.422 39.1895 288.671 39.4629 288.867C39.7461 289.052 40.0879 289.145 40.4883 289.145C40.9082 289.145 41.25 289.052 41.5137 288.867C41.7773 288.671 41.9727 288.422 42.0996 288.12C42.2266 287.807 42.29 287.48 42.29 287.138V286.01C42.29 285.649 42.2217 285.317 42.085 285.014C41.958 284.702 41.7578 284.453 41.4844 284.267C41.2207 284.072 40.8789 283.974 40.459 283.974C40.0684 283.974 39.7363 284.072 39.4629 284.267C39.1895 284.453 38.9844 284.702 38.8477 285.014C38.7207 285.317 38.6572 285.649 38.6572 286.01ZM46.0547 299.135V298.007C46.0547 297.207 46.2305 296.474 46.582 295.81C46.9434 295.146 47.4658 294.614 48.1494 294.213C48.8428 293.813 49.6924 293.613 50.6982 293.613C51.7139 293.613 52.5635 293.813 53.2471 294.213C53.9307 294.614 54.4482 295.146 54.7998 295.81C55.1514 296.474 55.3271 297.207 55.3271 298.007V299.135C55.3271 299.936 55.1514 300.668 54.7998 301.333C54.458 301.997 53.9453 302.529 53.2617 302.929C52.5781 303.33 51.7334 303.53 50.7275 303.53C49.7119 303.53 48.8574 303.33 48.1641 302.929C47.4707 302.529 46.9434 301.997 46.582 301.333C46.2305 300.668 46.0547 299.936 46.0547 299.135ZM48.8672 298.007V299.135C48.8672 299.487 48.9453 299.819 49.1016 300.131C49.2578 300.444 49.4727 300.693 49.7461 300.878C50.0293 301.064 50.3564 301.157 50.7275 301.157C51.1963 301.157 51.5625 301.064 51.8262 300.878C52.0898 300.693 52.2705 300.444 52.3682 300.131C52.4756 299.819 52.5293 299.487 52.5293 299.135V298.007C52.5293 297.656 52.4609 297.329 52.3242 297.026C52.1875 296.713 51.9824 296.464 51.709 296.279C51.4453 296.083 51.1084 295.986 50.6982 295.986C50.2881 295.986 49.9463 296.083 49.6729 296.279C49.4092 296.464 49.209 296.713 49.0723 297.026C48.9355 297.329 48.8672 297.656 48.8672 298.007ZM51.7383 284.956L41.3232 301.625L39.2725 300.542L49.6875 283.872L51.7383 284.956Z" fill="#EF8A98"/>
<path d="M4.17 185.347H21.57V188.557H4.17V185.347ZM1.23 197.287H26.34V200.497H1.23V197.287ZM6.84 199.597H10.83V211.627H6.84V199.597ZM19.2 185.347H23.13V187.147C23.13 189.607 23.13 193.117 22.2 198.187L18.24 197.917C19.2 193.027 19.2 189.547 19.2 187.147V185.347ZM16.44 199.597H20.43V211.627H16.44V199.597ZM46.6777 183.817H50.6677V199.477H46.6777V183.817ZM49.5877 189.667H54.3577V192.907H49.5877V189.667ZM32.5777 200.737H50.6677V211.297H32.5777V200.737ZM46.7677 203.857H36.5077V208.147H46.7677V203.857ZM29.9077 185.137H33.8977V196.507H29.9077V185.137ZM29.9077 194.797H32.2477C36.0277 194.797 40.1377 194.527 44.5177 193.687L44.9677 196.897C40.4377 197.827 36.1777 198.067 32.2477 198.067H29.9077V194.797ZM75.4453 183.787H79.4653V211.657H75.4453V183.787ZM64.4953 185.737C68.6953 185.737 71.7853 189.577 71.7853 195.637C71.7853 201.757 68.6953 205.597 64.4953 205.597C60.2953 205.597 57.2053 201.757 57.2053 195.637C57.2053 189.577 60.2953 185.737 64.4953 185.737ZM64.4953 189.367C62.4253 189.367 61.0153 191.557 61.0153 195.637C61.0153 199.777 62.4253 201.997 64.4953 201.997C66.5653 201.997 67.9453 199.777 67.9453 195.637C67.9453 191.557 66.5653 189.367 64.4953 189.367Z" fill="#5B586C"/>
<path d="M11.748 155.25V176.622H7.5293V160.113L2.46094 161.725V158.399L11.2939 155.25H11.748ZM22.6611 166.91L19.292 166.104L20.5078 155.294H32.4902V158.707H23.9795L23.4521 163.438C23.7354 163.272 24.165 163.097 24.7412 162.911C25.3174 162.716 25.9619 162.618 26.6748 162.618C27.71 162.618 28.6279 162.779 29.4287 163.102C30.2295 163.424 30.9082 163.893 31.4648 164.508C32.0312 165.123 32.4609 165.875 32.7539 166.764C33.0469 167.652 33.1934 168.658 33.1934 169.781C33.1934 170.729 33.0469 171.632 32.7539 172.491C32.4609 173.341 32.0166 174.103 31.4209 174.776C30.8252 175.44 30.0781 175.963 29.1797 176.344C28.2812 176.725 27.2168 176.915 25.9863 176.915C25.0684 176.915 24.1797 176.778 23.3203 176.505C22.4707 176.231 21.7041 175.826 21.0205 175.289C20.3467 174.752 19.8047 174.103 19.3945 173.341C18.9941 172.569 18.7842 171.69 18.7646 170.704H22.9541C23.0127 171.31 23.1689 171.832 23.4229 172.271C23.6865 172.701 24.0332 173.033 24.4629 173.268C24.8926 173.502 25.3955 173.619 25.9717 173.619C26.5088 173.619 26.9678 173.517 27.3486 173.312C27.7295 173.106 28.0371 172.823 28.2715 172.462C28.5059 172.091 28.6768 171.661 28.7842 171.173C28.9014 170.675 28.96 170.138 28.96 169.562C28.96 168.985 28.8916 168.463 28.7549 167.994C28.6182 167.525 28.4082 167.12 28.125 166.778C27.8418 166.437 27.4805 166.173 27.041 165.987C26.6113 165.802 26.1084 165.709 25.5322 165.709C24.751 165.709 24.1455 165.831 23.7158 166.075C23.2959 166.319 22.9443 166.598 22.6611 166.91ZM35.8594 160.523V159.396C35.8594 158.585 36.0352 157.848 36.3867 157.184C36.7383 156.52 37.2559 155.987 37.9395 155.587C38.623 155.187 39.4629 154.986 40.459 154.986C41.4844 154.986 42.3389 155.187 43.0225 155.587C43.7158 155.987 44.2334 156.52 44.5752 157.184C44.9268 157.848 45.1025 158.585 45.1025 159.396V160.523C45.1025 161.314 44.9268 162.042 44.5752 162.706C44.2334 163.37 43.7207 163.902 43.0371 164.303C42.3535 164.703 41.5088 164.903 40.5029 164.903C39.4873 164.903 38.6328 164.703 37.9395 164.303C37.2559 163.902 36.7383 163.37 36.3867 162.706C36.0352 162.042 35.8594 161.314 35.8594 160.523ZM38.6572 159.396V160.523C38.6572 160.865 38.7207 161.192 38.8477 161.505C38.9844 161.808 39.1895 162.057 39.4629 162.252C39.7461 162.438 40.0879 162.53 40.4883 162.53C40.9082 162.53 41.25 162.438 41.5137 162.252C41.7773 162.057 41.9727 161.808 42.0996 161.505C42.2266 161.192 42.29 160.865 42.29 160.523V159.396C42.29 159.034 42.2217 158.702 42.085 158.399C41.958 158.087 41.7578 157.838 41.4844 157.652C41.2207 157.457 40.8789 157.359 40.459 157.359C40.0684 157.359 39.7363 157.457 39.4629 157.652C39.1895 157.838 38.9844 158.087 38.8477 158.399C38.7207 158.702 38.6572 159.034 38.6572 159.396ZM46.0547 172.521V171.393C46.0547 170.592 46.2305 169.859 46.582 169.195C46.9434 168.531 47.4658 167.999 48.1494 167.599C48.8428 167.198 49.6924 166.998 50.6982 166.998C51.7139 166.998 52.5635 167.198 53.2471 167.599C53.9307 167.999 54.4482 168.531 54.7998 169.195C55.1514 169.859 55.3271 170.592 55.3271 171.393V172.521C55.3271 173.321 55.1514 174.054 54.7998 174.718C54.458 175.382 53.9453 175.914 53.2617 176.314C52.5781 176.715 51.7334 176.915 50.7275 176.915C49.7119 176.915 48.8574 176.715 48.1641 176.314C47.4707 175.914 46.9434 175.382 46.582 174.718C46.2305 174.054 46.0547 173.321 46.0547 172.521ZM48.8672 171.393V172.521C48.8672 172.872 48.9453 173.204 49.1016 173.517C49.2578 173.829 49.4727 174.078 49.7461 174.264C50.0293 174.449 50.3564 174.542 50.7275 174.542C51.1963 174.542 51.5625 174.449 51.8262 174.264C52.0898 174.078 52.2705 173.829 52.3682 173.517C52.4756 173.204 52.5293 172.872 52.5293 172.521V171.393C52.5293 171.041 52.4609 170.714 52.3242 170.411C52.1875 170.099 51.9824 169.85 51.709 169.664C51.4453 169.469 51.1084 169.371 50.6982 169.371C50.2881 169.371 49.9463 169.469 49.6729 169.664C49.4092 169.85 49.209 170.099 49.0723 170.411C48.9355 170.714 48.8672 171.041 48.8672 171.393ZM51.7383 158.341L41.3232 175.011L39.2725 173.927L49.6875 157.257L51.7383 158.341Z" fill="#96DCE1"/>
<path d="M18.96 80.7892H22.98V108.659H18.96V80.7892ZM22.08 91.0792H27V94.3492H22.08V91.0792ZM2.28 98.6692H4.62C9.3 98.6692 12.99 98.5192 17.07 97.7992L17.46 101.099C13.26 101.849 9.45 101.969 4.62 101.969H2.28V98.6692ZM2.28 83.3692H15.24V86.5792H6.24V100.259H2.28V83.3692ZM28.7977 95.8192H53.9677V98.9992H28.7977V95.8192ZM31.9477 104.939H51.5377V108.119H31.9477V104.939ZM31.9477 100.529H35.9377V106.319H31.9477V100.529ZM31.8877 81.4492H50.9077V89.1592H35.8777V92.0392H31.9177V86.3392H46.9777V84.4792H31.8877V81.4492ZM31.9177 91.1092H51.4477V94.1092H31.9177V91.1092ZM70.646 82.9492H73.886V86.9992C73.886 94.1392 71.426 100.589 65.906 103.139L63.536 99.8392C68.366 97.7392 70.646 92.3992 70.646 86.9992V82.9492ZM71.426 82.9492H74.666V86.9992C74.666 92.1292 76.856 97.2292 81.596 99.2692L79.256 102.479C73.886 100.019 71.426 93.8392 71.426 86.9992V82.9492ZM82.916 80.7892H86.936V108.659H82.916V80.7892ZM106.494 87.2092H111.774V90.4492H106.494V87.2092ZM110.724 80.8192H114.714V96.8692H110.724V80.8192ZM96.2037 98.0092H114.714V108.299H96.2037V98.0092ZM110.814 101.129H100.134V105.149H110.814V101.129ZM97.8837 83.3992H101.124V85.1392C101.124 90.3892 98.6637 95.1892 93.3237 96.9292L91.3137 93.7792C95.9037 92.2792 97.8837 88.6492 97.8837 85.1392V83.3992ZM98.7237 83.3992H101.934V85.1392C101.934 88.3792 103.824 91.7992 108.204 93.2692L106.254 96.4192C101.094 94.7092 98.7237 90.0892 98.7237 85.1392V83.3992ZM92.3937 82.2292H107.334V85.3792H92.3937V82.2292Z" fill="#5B586C"/>
<path d="M11.748 52.252V73.624H7.5293V57.1152L2.46094 58.7266V55.4014L11.2939 52.252H11.748ZM33.0469 61.085V64.7764C33.0469 66.3779 32.876 67.7598 32.5342 68.9219C32.1924 70.0742 31.6992 71.0215 31.0547 71.7637C30.4199 72.4961 29.6631 73.0381 28.7842 73.3896C27.9053 73.7412 26.9287 73.917 25.8545 73.917C24.9951 73.917 24.1943 73.8096 23.4521 73.5947C22.71 73.3701 22.041 73.0234 21.4453 72.5547C20.8594 72.0859 20.3516 71.4951 19.9219 70.7822C19.502 70.0596 19.1797 69.2002 18.9551 68.2041C18.7305 67.208 18.6182 66.0654 18.6182 64.7764V61.085C18.6182 59.4834 18.7891 58.1113 19.1309 56.9688C19.4824 55.8164 19.9756 54.874 20.6104 54.1416C21.2549 53.4092 22.0166 52.8721 22.8955 52.5303C23.7744 52.1787 24.751 52.0029 25.8252 52.0029C26.6846 52.0029 27.4805 52.1152 28.2129 52.3398C28.9551 52.5547 29.624 52.8916 30.2197 53.3506C30.8154 53.8096 31.3232 54.4004 31.7432 55.123C32.1631 55.8359 32.4854 56.6904 32.71 57.6865C32.9346 58.6729 33.0469 59.8057 33.0469 61.085ZM28.8135 65.333V60.5137C28.8135 59.7422 28.7695 59.0684 28.6816 58.4922C28.6035 57.916 28.4814 57.4277 28.3154 57.0273C28.1494 56.6172 27.9443 56.2852 27.7002 56.0312C27.4561 55.7773 27.1777 55.5918 26.8652 55.4746C26.5527 55.3574 26.2061 55.2988 25.8252 55.2988C25.3467 55.2988 24.9219 55.3916 24.5508 55.5771C24.1895 55.7627 23.8818 56.0605 23.6279 56.4707C23.374 56.8711 23.1787 57.4082 23.042 58.082C22.915 58.7461 22.8516 59.5566 22.8516 60.5137V65.333C22.8516 66.1045 22.8906 66.7832 22.9688 67.3691C23.0566 67.9551 23.1836 68.458 23.3496 68.8779C23.5254 69.2881 23.7305 69.625 23.9648 69.8887C24.209 70.1426 24.4873 70.3281 24.7998 70.4453C25.1221 70.5625 25.4736 70.6211 25.8545 70.6211C26.3232 70.6211 26.7383 70.5283 27.0996 70.3428C27.4707 70.1475 27.7832 69.8447 28.0371 69.4346C28.3008 69.0146 28.4961 68.4678 28.623 67.7939C28.75 67.1201 28.8135 66.2998 28.8135 65.333ZM35.8594 57.5254V56.3975C35.8594 55.5869 36.0352 54.8496 36.3867 54.1855C36.7383 53.5215 37.2559 52.9893 37.9395 52.5889C38.623 52.1885 39.4629 51.9883 40.459 51.9883C41.4844 51.9883 42.3389 52.1885 43.0225 52.5889C43.7158 52.9893 44.2334 53.5215 44.5752 54.1855C44.9268 54.8496 45.1025 55.5869 45.1025 56.3975V57.5254C45.1025 58.3164 44.9268 59.0439 44.5752 59.708C44.2334 60.3721 43.7207 60.9043 43.0371 61.3047C42.3535 61.7051 41.5088 61.9053 40.5029 61.9053C39.4873 61.9053 38.6328 61.7051 37.9395 61.3047C37.2559 60.9043 36.7383 60.3721 36.3867 59.708C36.0352 59.0439 35.8594 58.3164 35.8594 57.5254ZM38.6572 56.3975V57.5254C38.6572 57.8672 38.7207 58.1943 38.8477 58.5068C38.9844 58.8096 39.1895 59.0586 39.4629 59.2539C39.7461 59.4395 40.0879 59.5322 40.4883 59.5322C40.9082 59.5322 41.25 59.4395 41.5137 59.2539C41.7773 59.0586 41.9727 58.8096 42.0996 58.5068C42.2266 58.1943 42.29 57.8672 42.29 57.5254V56.3975C42.29 56.0361 42.2217 55.7041 42.085 55.4014C41.958 55.0889 41.7578 54.8398 41.4844 54.6543C41.2207 54.459 40.8789 54.3613 40.459 54.3613C40.0684 54.3613 39.7363 54.459 39.4629 54.6543C39.1895 54.8398 38.9844 55.0889 38.8477 55.4014C38.7207 55.7041 38.6572 56.0361 38.6572 56.3975ZM46.0547 69.5225V68.3945C46.0547 67.5938 46.2305 66.8613 46.582 66.1973C46.9434 65.5332 47.4658 65.001 48.1494 64.6006C48.8428 64.2002 49.6924 64 50.6982 64C51.7139 64 52.5635 64.2002 53.2471 64.6006C53.9307 65.001 54.4482 65.5332 54.7998 66.1973C55.1514 66.8613 55.3271 67.5938 55.3271 68.3945V69.5225C55.3271 70.3232 55.1514 71.0557 54.7998 71.7197C54.458 72.3838 53.9453 72.916 53.2617 73.3164C52.5781 73.7168 51.7334 73.917 50.7275 73.917C49.7119 73.917 48.8574 73.7168 48.1641 73.3164C47.4707 72.916 46.9434 72.3838 46.582 71.7197C46.2305 71.0557 46.0547 70.3232 46.0547 69.5225ZM48.8672 68.3945V69.5225C48.8672 69.874 48.9453 70.2061 49.1016 70.5186C49.2578 70.8311 49.4727 71.0801 49.7461 71.2656C50.0293 71.4512 50.3564 71.5439 50.7275 71.5439C51.1963 71.5439 51.5625 71.4512 51.8262 71.2656C52.0898 71.0801 52.2705 70.8311 52.3682 70.5186C52.4756 70.2061 52.5293 69.874 52.5293 69.5225V68.3945C52.5293 68.043 52.4609 67.7158 52.3242 67.4131C52.1875 67.1006 51.9824 66.8516 51.709 66.666C51.4453 66.4707 51.1084 66.373 50.6982 66.373C50.2881 66.373 49.9463 66.4707 49.6729 66.666C49.4092 66.8516 49.209 67.1006 49.0723 67.4131C48.9355 67.7158 48.8672 68.043 48.8672 68.3945ZM51.7383 55.3428L41.3232 72.0127L39.2725 70.9287L49.6875 54.2588L51.7383 55.3428Z" fill="#89D9AD"/>
<g filter="url(#filter0_d_143_327)">
<ellipse cx="248.101" cy="190" rx="143.879" ry="144" fill="white"/>
</g>
<path d="M358.214 190.328C369.26 190.328 378.371 181.322 376.679 170.407C374.632 157.207 370.556 144.361 364.562 132.336C355.583 114.326 342.545 98.6495 326.477 86.5452C310.408 74.4408 291.749 66.2394 271.972 62.5882C258.77 60.1509 245.311 59.7856 232.073 61.4687C221.119 62.8614 214.988 74.1056 218.041 84.7172L222.926 101.695C225.981 112.314 237.154 118.138 248.203 118.104C252.655 118.09 257.113 118.488 261.519 119.302C272.516 121.332 282.891 125.892 291.825 132.623C300.759 139.353 308.009 148.069 313.001 158.084C315.005 162.104 316.624 166.289 317.843 170.582C320.86 181.208 329.547 190.328 340.592 190.328H358.214Z" fill="url(#paint0_linear_143_327)"/>
<path d="M211.244 86.9399C207.504 76.5421 195.939 71.0168 186.242 76.3148C176.323 81.7339 167.153 88.427 158.966 96.2229C150.972 103.836 152.693 116.522 161.436 123.263L175.407 134.033C184.159 140.781 196.615 138.854 205.496 132.275C205.781 132.065 206.066 131.856 206.354 131.65C215.322 125.209 220.959 113.952 217.222 103.562L211.244 86.9399Z" fill="url(#paint1_linear_143_327)"/>
<path d="M157.353 128.991C148.186 122.817 135.591 125.205 130.905 135.214C125.717 146.294 122.105 158.084 120.204 170.239C118.302 182.398 118.142 194.731 119.699 206.872C121.106 217.831 132.366 223.951 142.979 220.877L159.908 215.972C170.515 212.9 176.32 201.728 176.265 190.686C176.246 186.837 176.535 182.982 177.133 179.158C177.731 175.333 178.634 171.573 179.828 167.913C183.252 157.418 181.138 145.01 171.982 138.843L157.353 128.991Z" fill="url(#paint2_linear_143_327)"/>
<path d="M145.168 227.682C134.785 231.438 129.279 243 134.577 252.688C143.7 269.372 156.414 283.922 171.892 295.233C187.363 306.539 205.072 314.228 223.719 317.848C234.563 319.953 243.905 311.184 244.318 300.145L244.979 282.487C245.392 271.45 236.603 262.429 226.1 259.009C218.893 256.662 212.061 253.18 205.872 248.658C199.684 244.135 194.29 238.681 189.862 232.525C183.409 223.555 172.135 217.927 161.744 221.686L145.168 227.682Z" fill="url(#paint3_linear_143_327)"/>
<path d="M251.101 300.19C251.369 311.233 260.596 320.123 271.466 318.161C296.8 313.588 320.366 301.542 339.016 283.349C357.67 265.152 370.309 241.876 375.524 216.64C377.76 205.824 369.11 196.373 358.079 195.821L340.479 194.939C329.446 194.386 320.315 203.062 316.769 213.524C313.141 224.232 307.02 234.028 298.797 242.05C290.577 250.069 280.639 255.94 269.856 259.296C259.31 262.578 250.402 271.483 250.671 282.525L251.101 300.19Z" fill="url(#paint4_linear_143_327)"/>
<path d="M50.4727 64.6973H132.08L166.166 83.7223" stroke="#CDCDCD" stroke-width="2" stroke-dasharray="2 2"/>
<path d="M445.4 64.6973H363.793L329.707 83.7223" stroke="#CDCDCD" stroke-width="2" stroke-dasharray="2 2"/>
<path d="M445.4 300.542H378.869L345.767 283.157" stroke="#CDCDCD" stroke-width="2" stroke-dasharray="2 2"/>
<path d="M50.4727 300.542H113.727L150.434 285.453" stroke="#CDCDCD" stroke-width="2" stroke-dasharray="2 2"/>
<path d="M50.4727 168.679H85.2133L115.038 168.679" stroke="#CDCDCD" stroke-width="2" stroke-dasharray="2 2"/>
<defs>
<filter id="filter0_d_143_327" x="54.2227" y="0" width="387.758" height="388" filterUnits="userSpaceOnUse" color-interpolation-filters="sRGB">
<feFlood flood-opacity="0" result="BackgroundImageFix"/>
<feColorMatrix in="SourceAlpha" type="matrix" values="0 0 0 0 0 0 0 0 0 0 0 0 0 0 0 0 0 0 127 0" result="hardAlpha"/>
<feOffset dy="4"/>
<feGaussianBlur stdDeviation="25"/>
<feComposite in2="hardAlpha" operator="out"/>
<feColorMatrix type="matrix" values="0 0 0 0 0 0 0 0 0 0 0 0 0 0 0 0 0 0 0.08 0"/>
<feBlend mode="normal" in2="BackgroundImageFix" result="effect1_dropShadow_143_327"/>
<feBlend mode="normal" in="SourceGraphic" in2="effect1_dropShadow_143_327" result="shape"/>
</filter>
<linearGradient id="paint0_linear_143_327" x1="338.64" y1="60.4599" x2="118.472" y2="275.117" gradientUnits="userSpaceOnUse">
<stop stop-color="#936EF1"/>
<stop offset="1" stop-color="#777CFF" stop-opacity="0.333333"/>
</linearGradient>
<linearGradient id="paint1_linear_143_327" x1="212.06" y1="97.935" x2="171.916" y2="125.116" gradientUnits="userSpaceOnUse">
<stop stop-color="#89D9AD" stop-opacity="0.8"/>
<stop offset="1" stop-color="#89D9AD"/>
</linearGradient>
<linearGradient id="paint2_linear_143_327" x1="148.265" y1="217.443" x2="165.956" y2="135.994" gradientUnits="userSpaceOnUse">
<stop stop-color="#96DCE1"/>
<stop offset="1" stop-color="#96DCE1" stop-opacity="0.8"/>
</linearGradient>
<linearGradient id="paint3_linear_143_327" x1="245.73" y1="314.525" x2="248.678" y2="63.1153" gradientUnits="userSpaceOnUse">
<stop stop-color="#EF8A98"/>
<stop offset="1" stop-color="#EF8A98" stop-opacity="0"/>
</linearGradient>
<linearGradient id="paint4_linear_143_327" x1="345.558" y1="197.968" x2="256.464" y2="314.013" gradientUnits="userSpaceOnUse">
<stop offset="0.222515" stop-color="#93CCE7"/>
<stop offset="1" stop-color="#93CCE7" stop-opacity="0.5"/>
</linearGradient>
</defs>
</svg>
